<?xml version="1.0" encoding="UTF-8"?>
<svg version="1.1" xmlns="http://www.w3.org/2000/svg" width="576" height="324">
<path d="M0 0 C2.57778883 0.27571881 3.69058263 0.62963511 5.37207031 2.64233398 C5.77006836 3.33657471 6.16806641 4.03081543 6.578125 4.74609375 C7.01640625 5.50083984 7.4546875 6.25558594 7.90625 7.03320312 C8.3496875 7.82662109 8.793125 8.62003906 9.25 9.4375 C9.93835938 10.62182617 9.93835938 10.62182617 10.640625 11.83007812 C14 17.69398717 14 17.69398717 14 20 C18.29 20 22.58 20 27 20 C26.67 20.94875 26.34 21.8975 26 22.875 C24.50023211 28.29386938 23.5660788 34.13215759 26.15625 39.3125 C27.52056528 41.42933911 27.52056528 41.42933911 29.00390625 43.30859375 C29.33261719 43.86675781 29.66132812 44.42492187 30 45 C29.67 45.99 29.34 46.98 29 48 C28.34 48 27.68 48 27 48 C27 47.34 27 46.68 27 46 C26.34 46 25.68 46 25 46 C25.33 57.55 25.66 69.1 26 81 C23.69 80.67 21.38 80.34 19 80 C19 82.31 19 84.62 19 87 C19.99 87 20.98 87 22 87 C22 88.32 22 89.64 22 91 C21.01 91 20.02 91 19 91 C19 94.63 19 98.26 19 102 C24.61 102.33 30.22 102.66 36 103 C36 101.68 36 100.36 36 99 C34.68 98.67 33.36 98.34 32 98 C32 95.36 32 92.72 32 90 C42.89 89.67 53.78 89.34 65 89 C65 84.05 65 79.1 65 74 C63.68 74 62.36 74 61 74 C61 68.72 61 63.44 61 58 C60.01 58 59.02 58 58 58 C59 55 59 55 60.8203125 53.796875 C65.98304771 51.45176816 69.3501944 50.35642019 75 52 C77.74302474 53.20673703 80.38411347 54.53918025 83 56 C83 56.66 83 57.32 83 58 C82.34 58 81.68 58 81 58 C81 63.28 81 68.56 81 74 C79.68 74 78.36 74 77 74 C77 76.64 77 79.28 77 82 C91.85 82 106.7 82 122 82 C122 92.23 122 102.46 122 113 C127.28 113 132.56 113 138 113 C138 110.03 138 107.06 138 104 C135.36 104 132.72 104 130 104 C130 100.04 130 96.08 130 92 C130.99 92 131.98 92 133 92 C133 89.69 133 87.38 133 85 C138.61 85 144.22 85 150 85 C150 81.37 150 77.74 150 74 C149.34 74 148.68 74 148 74 C148 72.68 148 71.36 148 70 C148.66 70 149.32 70 150 70 C150 67.36 150 64.72 150 62 C149.34 62 148.68 62 148 62 C147.63979572 57.00216563 148.65610065 54.01981128 151 49.625 C151.556875 48.56539062 152.11375 47.50578125 152.6875 46.4140625 C153.120625 45.61742187 153.55375 44.82078125 154 44 C154.99 44 155.98 44 157 44 C158.01501998 45.86691174 159.01142079 47.74395344 160 49.625 C160.556875 50.66914063 161.11375 51.71328125 161.6875 52.7890625 C163.0578255 56.14146595 163.2580505 58.41954936 163 62 C162.34 62 161.68 62 161 62 C161 64.64 161 67.28 161 70 C161.66 70 162.32 70 163 70 C163 71.32 163 72.64 163 74 C162.34 74 161.68 74 161 74 C161 79.28 161 84.56 161 90 C170.57 90 180.14 90 190 90 C189.67 92.31 189.34 94.62 189 97 C189.66 97 190.32 97 191 97 C191 97.66 191 98.32 191 99 C191.66 99 192.32 99 193 99 C193 99.66 193 100.32 193 101 C193.66 101 194.32 101 195 101 C195 101.66 195 102.32 195 103 C195.66 103 196.32 103 197 103 C197 103.66 197 104.32 197 105 C197.66 105 198.32 105 199 105 C199 105.66 199 106.32 199 107 C199.66 107 200.32 107 201 107 C201 107.66 201 108.32 201 109 C201.99 109 202.98 109 204 109 C204.33 107.68 204.66 106.36 205 105 C205 106.32 205 107.64 205 109 C211.27 109 217.54 109 224 109 C223.67 101.08 223.34 93.16 223 85 C224.32 84.67 225.64 84.34 227 84 C227.061875 82.948125 227.12375 81.89625 227.1875 80.8125 C228.15692072 76.2636797 229.31995839 74.78047588 233 72 C236.3125 71.1875 236.3125 71.1875 239 71 C238.67 67.7 238.34 64.4 238 61 C238.99 61 239.98 61 241 61 C240.67 64.3 240.34 67.6 240 71 C241.3303125 71.0928125 241.3303125 71.0928125 242.6875 71.1875 C246.89285611 72.21900244 248.39011484 73.56986521 251 77 C251.8125 80.8125 251.8125 80.8125 252 84 C253.32 84.33 254.64 84.66 256 85 C255.67 92.92 255.34 100.84 255 109 C262.92 109 270.84 109 279 109 C279.33 109.99 279.66 110.98 280 112 C279.67 112.33 279.34 112.66 279 113 C279.33 113.99 279.66 114.98 280 116 C279.67 116.33 279.34 116.66 279 117 C279.33 117.99 279.66 118.98 280 120 C279.67 120.33 279.34 120.66 279 121 C279.33 121.99 279.66 122.98 280 124 C279.67 124.33 279.34 124.66 279 125 C279.33 125.99 279.66 126.98 280 128 C276.12823604 129.29058799 272.47343423 129.13438396 268.43904114 129.12025452 C267.55443055 129.12110894 266.66981997 129.12196337 265.758403 129.12284368 C262.78268126 129.12449591 259.80701541 129.11898128 256.83129883 129.11352539 C254.70280458 129.11324344 252.57431023 129.11340141 250.44581604 129.1139679 C244.65691364 129.11425555 238.86803183 129.10836391 233.07913423 129.10139394 C227.0332819 129.09515516 220.98742914 129.09455618 214.9415741 129.09336853 C203.48814561 129.09025677 192.03472664 129.08204545 180.58130234 129.07201904 C167.5439972 129.06085311 154.50669161 129.05534624 141.46938288 129.05032361 C114.64624998 129.03986272 87.82312552 129.02226626 61 129 C61 125.7 61 122.4 61 119 C59.68 119 58.36 119 57 119 C57 120.65 57 122.3 57 124 C54.03 124 51.06 124 48 124 C48 122.35 48 120.7 48 119 C45.36 119 42.72 119 40 119 C40 115.7 40 112.4 40 109 C38.68 109 37.36 109 36 109 C36 107.68 36 106.36 36 105 C27.585 105.495 27.585 105.495 19 106 C19 109.63 19 113.26 19 117 C19.99 117 20.98 117 22 117 C22 118.32 22 119.64 22 121 C21.01 121 20.02 121 19 121 C19 123.64 19 126.28 19 129 C7.45 129 -4.1 129 -16 129 C-16 126.36 -16 123.72 -16 121 C-16.99 121 -17.98 121 -19 121 C-19 119.68 -19 118.36 -19 117 C-18.01 117 -17.02 117 -16 117 C-16 113.37 -16 109.74 -16 106 C-16.99 106 -17.98 106 -19 106 C-19 104.68 -19 103.36 -19 102 C-18.01 102 -17.02 102 -16 102 C-16 98.37 -16 94.74 -16 91 C-16.99 91 -17.98 91 -19 91 C-19 89.68 -19 88.36 -19 87 C-18.01 87 -17.02 87 -16 87 C-16 84.69 -16 82.38 -16 80 C-19.465 80.495 -19.465 80.495 -23 81 C-22.67 69.45 -22.34 57.9 -22 46 C-22.66 46 -23.32 46 -24 46 C-24 46.66 -24 47.32 -24 48 C-24.99 47.67 -25.98 47.34 -27 47 C-25.86065707 44.72131414 -24.71872402 42.5456311 -23.375 40.375 C-20.60126158 33.56673298 -21.63742886 26.79239202 -24 20 C-19.71 20 -15.42 20 -11 20 C-10.34 18.02 -9.68 16.04 -9 14 C-7.69133275 11.67437252 -6.36842045 9.43243244 -4.9375 7.1875 C-4.57333984 6.60291016 -4.20917969 6.01832031 -3.83398438 5.41601562 C-1.17597535 1.17597535 -1.17597535 1.17597535 0 0 Z M-10 49 C-14.16914657 54.23815851 -15.54727424 58.32325422 -15 65 C-13.10096173 70.81648294 -10.49367807 74.07783081 -5 77 C0.07538397 78.69179466 4.31964436 78.56371867 9.1875 76.375 C13.99323582 73.75792293 16.28402397 70.14792809 18 65 C18.58165762 59.06709225 17.41701288 54.8068071 14 50 C6.20223636 43.79361669 -1.82811216 43.19085364 -10 49 Z M153 62 C153 64.64 153 67.28 153 70 C153.33 70 153.66 70 154 70 C154 67.36 154 64.72 154 62 C153.67 62 153.34 62 153 62 Z M157 62 C157 64.64 157 67.28 157 70 C157.33 70 157.66 70 158 70 C158 67.36 158 64.72 158 62 C157.67 62 157.34 62 157 62 Z M77 84 C77 85.65 77 87.3 77 89 C77.66 89 78.32 89 79 89 C79 87.35 79 85.7 79 84 C78.34 84 77.68 84 77 84 Z M80 84 C80 85.65 80 87.3 80 89 C80.66 89 81.32 89 82 89 C82 87.35 82 85.7 82 84 C81.34 84 80.68 84 80 84 Z M83 84 C83 85.65 83 87.3 83 89 C83.66 89 84.32 89 85 89 C85 87.35 85 85.7 85 84 C84.34 84 83.68 84 83 84 Z M86 84 C86 85.65 86 87.3 86 89 C86.66 89 87.32 89 88 89 C88 87.35 88 85.7 88 84 C87.34 84 86.68 84 86 84 Z M89 84 C89 85.65 89 87.3 89 89 C89.66 89 90.32 89 91 89 C91 87.35 91 85.7 91 84 C90.34 84 89.68 84 89 84 Z M92 84 C92 85.65 92 87.3 92 89 C92.66 89 93.32 89 94 89 C94 87.35 94 85.7 94 84 C93.34 84 92.68 84 92 84 Z M95 84 C95 85.65 95 87.3 95 89 C95.66 89 96.32 89 97 89 C97 87.35 97 85.7 97 84 C96.34 84 95.68 84 95 84 Z M98 84 C98 85.65 98 87.3 98 89 C98.66 89 99.32 89 100 89 C100 87.35 100 85.7 100 84 C99.34 84 98.68 84 98 84 Z M101 84 C101 85.65 101 87.3 101 89 C101.66 89 102.32 89 103 89 C103 87.35 103 85.7 103 84 C102.34 84 101.68 84 101 84 Z M104 84 C104 85.65 104 87.3 104 89 C104.66 89 105.32 89 106 89 C106 87.35 106 85.7 106 84 C105.34 84 104.68 84 104 84 Z M107 84 C107 85.65 107 87.3 107 89 C107.66 89 108.32 89 109 89 C109 87.35 109 85.7 109 84 C108.34 84 107.68 84 107 84 Z M110 84 C110 85.65 110 87.3 110 89 C110.66 89 111.32 89 112 89 C112 87.35 112 85.7 112 84 C111.34 84 110.68 84 110 84 Z M113 84 C113 85.65 113 87.3 113 89 C113.66 89 114.32 89 115 89 C115 87.35 115 85.7 115 84 C114.34 84 113.68 84 113 84 Z M116 84 C116 85.65 116 87.3 116 89 C116.66 89 117.32 89 118 89 C118 87.35 118 85.7 118 84 C117.34 84 116.68 84 116 84 Z M119 84 C119 85.65 119 87.3 119 89 C119.66 89 120.32 89 121 89 C121 87.35 121 85.7 121 84 C120.34 84 119.68 84 119 84 Z M135 87 C135 89.31 135 91.62 135 94 C134.01 94 133.02 94 132 94 C132 96.64 132 99.28 132 102 C133.98 102 135.96 102 138 102 C138 98.04 138 94.08 138 90 C141.96 90 145.92 90 150 90 C150 89.01 150 88.02 150 87 C145.05 87 140.1 87 135 87 Z M34 91 C34 92.65 34 94.3 34 96 C34.33 96 34.66 96 35 96 C35 94.35 35 92.7 35 91 C34.67 91 34.34 91 34 91 Z M37 91 C37 92.65 37 94.3 37 96 C37.33 96 37.66 96 38 96 C38 94.35 38 92.7 38 91 C37.67 91 37.34 91 37 91 Z M40 91 C40 92.65 40 94.3 40 96 C40.33 96 40.66 96 41 96 C41 94.35 41 92.7 41 91 C40.67 91 40.34 91 40 91 Z M43 91 C43 92.65 43 94.3 43 96 C43.33 96 43.66 96 44 96 C44 94.35 44 92.7 44 91 C43.67 91 43.34 91 43 91 Z M46 91 C46 92.65 46 94.3 46 96 C46.33 96 46.66 96 47 96 C47 94.35 47 92.7 47 91 C46.67 91 46.34 91 46 91 Z M49 91 C49 92.65 49 94.3 49 96 C49.33 96 49.66 96 50 96 C50 94.35 50 92.7 50 91 C49.67 91 49.34 91 49 91 Z M52 91 C52 92.65 52 94.3 52 96 C52.33 96 52.66 96 53 96 C53 94.35 53 92.7 53 91 C52.67 91 52.34 91 52 91 Z M55 91 C55 92.65 55 94.3 55 96 C55.33 96 55.66 96 56 96 C56 94.35 56 92.7 56 91 C55.67 91 55.34 91 55 91 Z M58 91 C58 92.65 58 94.3 58 96 C58.33 96 58.66 96 59 96 C59 94.35 59 92.7 59 91 C58.67 91 58.34 91 58 91 Z M139 91 C139 92.32 139 93.64 139 95 C142.63 95 146.26 95 150 95 C150 93.68 150 92.36 150 91 C146.37 91 142.74 91 139 91 Z M161 91 C161 92.32 161 93.64 161 95 C169.91 95 178.82 95 188 95 C188 93.68 188 92.36 188 91 C179.09 91 170.18 91 161 91 Z M225 91 C225 96.94 225 102.88 225 109 C225.66 109 226.32 109 227 109 C227 103.06 227 97.12 227 91 C226.34 91 225.68 91 225 91 Z M252 91 C252 96.94 252 102.88 252 109 C252.66 109 253.32 109 254 109 C254 103.06 254 97.12 254 91 C253.34 91 252.68 91 252 91 Z M42 98 C43.32 98.33 44.64 98.66 46 99 C46 100.32 46 101.64 46 103 C50.95 103 55.9 103 61 103 C61 101.35 61 99.7 61 98 C54.73 98 48.46 98 42 98 Z M46 105 C46 106.32 46 107.64 46 109 C44.68 109 43.36 109 42 109 C42 111.64 42 114.28 42 117 C44.64 117 47.28 117 50 117 C50 118.65 50 120.3 50 122 C51.65 122 53.3 122 55 122 C55 120.35 55 118.7 55 117 C56.98 117 58.96 117 61 117 C61 113.04 61 109.08 61 105 C56.05 105 51.1 105 46 105 Z " fill="#D9934C" transform="translate(70,195)"/>
<path d="M0 0 C0.33 0 0.66 0 1 0 C1.00386719 1.12148437 1.00386719 1.12148437 1.0078125 2.265625 C1.12612583 5.27867107 1.33861253 8.05575902 2 11 C4.72150183 13.48106876 4.72150183 13.48106876 8 15 C11.1807921 18.09708705 11.95544347 19.32051289 12.25 23.8125 C12.1675 24.864375 12.085 25.91625 12 27 C12.66 27 13.32 27 14 27 C14 28.98 14 30.96 14 33 C13.34 33 12.68 33 12 33 C12.495 41.91 12.495 41.91 13 51 C11.68 51 10.36 51 9 51 C9 59.58 9 68.16 9 77 C13.62 77 18.24 77 23 77 C23 80.3 23 83.6 23 87 C29.93 87 36.86 87 44 87 C44 84.69 44 82.38 44 80 C56.54 80 69.08 80 82 80 C82 74.06 82 68.12 82 62 C88.6 62 95.2 62 102 62 C102 80.15 102 98.3 102 117 C82.86 117 63.72 117 44 117 C43.67 115.02 43.34 113.04 43 111 C42.67 111 42.34 111 42 111 C41.81824219 110.22914063 41.63648438 109.45828125 41.44921875 108.6640625 C41.19785156 107.66117187 40.94648438 106.65828125 40.6875 105.625 C40.44386719 104.62726563 40.20023437 103.62953125 39.94921875 102.6015625 C39.17806142 99.6915014 39.17806142 99.6915014 36 98 C32.44874671 97.75714105 32.44874671 97.75714105 29 99 C26.77890987 102.84988956 25.66367351 106.61975482 25 111 C24.67 111 24.34 111 24 111 C23.67 112.98 23.34 114.96 23 117 C7.16 117 -8.68 117 -25 117 C-25 104.79 -25 92.58 -25 80 C-24.01 80.33 -23.02 80.66 -22 81 C-22 79.68 -22 78.36 -22 77 C-17.38 77 -12.76 77 -8 77 C-8 68.42 -8 59.84 -8 51 C-9.32 51 -10.64 51 -12 51 C-11.505 42.09 -11.505 42.09 -11 33 C-11.66 33 -12.32 33 -13 33 C-13 31.02 -13 29.04 -13 27 C-12.34 27 -11.68 27 -11 27 C-11.12375 25.989375 -11.2475 24.97875 -11.375 23.9375 C-10.88001994 18.74020936 -8.73681639 16.46255464 -5 13 C-3.93265625 12.31744141 -3.93265625 12.31744141 -2.84375 11.62109375 C-0.77791706 10.11626802 -0.77791706 10.11626802 -0.390625 7.51953125 C-0.34421875 6.62621094 -0.2978125 5.73289063 -0.25 4.8125 C-0.19328125 3.91144531 -0.1365625 3.01039063 -0.078125 2.08203125 C-0.05234375 1.39496094 -0.0265625 0.70789063 0 0 Z M45 81 C45 81.33 45 81.66 45 82 C57.21 82 69.42 82 82 82 C82 81.67 82 81.34 82 81 C69.79 81 57.58 81 45 81 Z M45 83 C45 83.99 45 84.98 45 86 C57.21 86 69.42 86 82 86 C82 85.01 82 84.02 82 83 C69.79 83 57.58 83 45 83 Z M23 88 C24 91 24 91 24 91 Z M25 88 C26 91 26 91 26 91 Z M27 88 C28 91 28 91 28 91 Z M29 88 C30 91 30 91 30 91 Z M31 88 C32 91 32 91 32 91 Z M33 88 C34 91 34 91 34 91 Z M35 88 C36 91 36 91 36 91 Z M37 88 C38 91 38 91 38 91 Z M39 88 C40 91 40 91 40 91 Z M41 88 C42 91 42 91 42 91 Z M43 88 C44 91 44 91 44 91 Z M23 94 C23 95.65 23 97.3 23 99 C25.31 97.68 27.62 96.36 30 95 C30 94.67 30 94.34 30 94 C27.69 94 25.38 94 23 94 Z M37 94 C40.32086771 96.77000825 40.32086771 96.77000825 44 99 C44 97.35 44 95.7 44 94 C41.69 94 39.38 94 37 94 Z " fill="#D9934C" transform="translate(405,207)"/>
<path d="M0 0 C0.99 0 1.98 0 3 0 C3 4.95 3 9.9 3 15 C3.66 15 4.32 15 5 15 C5 23.58 5 32.16 5 41 C5.66 41 6.32 41 7 41 C7 44.96 7 48.92 7 53 C8.65 53 10.3 53 12 53 C12.13921875 51.20369141 12.13921875 51.20369141 12.28125 49.37109375 C13.01491809 42.77712262 14.79358509 36.45984263 16.5 30.0625 C16.82097656 28.83208984 17.14195312 27.60167969 17.47265625 26.33398438 C19.84838669 17.30322663 19.84838669 17.30322663 21 15 C21.66 15 22.32 15 23 15 C29.54413561 37.59489033 29.54413561 37.59489033 32 48 C33.83504881 44.69460769 34.7697923 41.4324947 35.69140625 37.7734375 C35.99626953 36.5771875 36.30113281 35.3809375 36.61523438 34.1484375 C36.92783203 32.90320313 37.24042969 31.65796875 37.5625 30.375 C38.18682147 27.90314474 38.81302646 25.43176419 39.44140625 22.9609375 C39.71670166 21.86571777 39.99199707 20.77049805 40.27563477 19.64208984 C41 17 41 17 42 15 C42.66 15 43.32 15 44 15 C50.54413561 37.59489033 50.54413561 37.59489033 53 48 C53.66 48 54.32 48 55 48 C55 59.88 55 71.76 55 84 C47.3488742 84.02095561 39.69785201 84.0409927 32.04672241 84.05175018 C28.4839353 84.05703603 24.92117187 84.06410247 21.35839844 84.07543945 C17.27278409 84.08835914 13.18719494 84.09323229 9.1015625 84.09765625 C7.18121689 84.10539818 7.18121689 84.10539818 5.22207642 84.11329651 C4.04100311 84.11337204 2.85992981 84.11344757 1.64306641 84.11352539 C0.59937897 84.115746 -0.44430847 84.11796661 -1.5196228 84.12025452 C-4 84 -4 84 -6 83 C-6 82.01 -6 81.02 -6 80 C-5.34 80 -4.68 80 -4 80 C-4 72.08 -4 64.16 -4 56 C-4.66 56 -5.32 56 -6 56 C-6 55.01 -6 54.02 -6 53 C-5.34 53 -4.68 53 -4 53 C-4 49.04 -4 45.08 -4 41 C-3.34 41 -2.68 41 -2 41 C-2 32.42 -2 23.84 -2 15 C-1.34 15 -0.68 15 0 15 C0 10.05 0 5.1 0 0 Z M7 56 C7 63.92 7 71.84 7 80 C8.65 80 10.3 80 12 80 C12 72.08 12 64.16 12 56 C10.35 56 8.7 56 7 56 Z " fill="#D9934C" transform="translate(521,240)"/>
<path d="M0 0 C0.66 0 1.32 0 2 0 C11 31.07423581 11 31.07423581 11 37 C11.66 37 12.32 37 13 37 C13.33 31.72 13.66 26.44 14 21 C14.99 20.67 15.98 20.34 17 20 C17.66 19.01 18.32 18.02 19 17 C19 23.66666667 19 30.33333333 19 37 C19.66 37 20.32 37 21 37 C21.33 31.72 21.66 26.44 22 21 C22.99 20.67 23.98 20.34 25 20 C25.66 19.01 26.32 18.02 27 17 C27 19.41409094 26.9910191 21.82823847 26.96484375 24.2421875 C26.95582031 25.44101562 26.94679687 26.63984375 26.9375 27.875 C26.92589844 29.06867188 26.91429687 30.26234375 26.90234375 31.4921875 C26.90766132 34.89897848 26.90766132 34.89897848 27.51367188 37.79980469 C28.029914 41.19684371 28.02055353 44.27992559 27.87890625 47.7109375 C27.83056641 48.95488281 27.78222656 50.19882812 27.73242188 51.48046875 C27.67634766 52.76566406 27.62027344 54.05085938 27.5625 55.375 C27.51029297 56.68339844 27.45808594 57.99179687 27.40429688 59.33984375 C27.27501407 62.56016078 27.1400631 65.7801368 27 69 C25.02 69 23.04 69 21 69 C21 59.76 21 50.52 21 41 C20.34 41 19.68 41 19 41 C19 50.24 19 59.48 19 69 C17.02 69 15.04 69 13 69 C13 59.76 13 50.52 13 41 C12.34 41 11.68 41 11 41 C11 50.24 11 59.48 11 69 C4.73 69 -1.54 69 -8 69 C-9.57277438 19.14554875 -9.57277438 19.14554875 0 0 Z " fill="#D9934C" transform="translate(8,255)"/>
<path d="M0 0 C0.33 0.99 0.66 1.98 1 3 C1.66 3.33 2.32 3.66 3 4 C2.34 4 1.68 4 1 4 C1 6.31 1 8.62 1 11 C3.31 11 5.62 11 8 11 C8.33 10.34 8.66 9.68 9 9 C9.33 9.99 9.66 10.98 10 12 C9.34 12.66 8.68 13.32 8 14 C8 13.34 8 12.68 8 12 C5.36 12.33 2.72 12.66 0 13 C-1.53445094 9.93109813 -0.54984289 7.29905734 0 4 C-0.66 3.67 -1.32 3.34 -2 3 C-1.34 3 -0.68 3 0 3 C0 2.01 0 1.02 0 0 Z " fill="#D9934C" transform="translate(71,245)"/>
<path d="M0 0 C1.65 0 3.3 0 5 0 C5 0.33 5 0.66 5 1 C3.35 1 1.7 1 0 1 C0 0.67 0 0.34 0 0 Z " fill="#D9934C" transform="translate(69,264)"/>
<path d="M0 0 C0.33 0 0.66 0 1 0 C1 1.65 1 3.3 1 5 C0.67 5 0.34 5 0 5 C0 3.35 0 1.7 0 0 Z " fill="#D9934C" transform="translate(63,254)"/>
<path d="" fill="#D9934C" transform="translate(0,0)"/>
<path d="M0 0 C3 1 3 1 3 1 Z " fill="#D9934C" transform="translate(84,256)"/>
<path d="M0 0 C3 1 3 1 3 1 Z " fill="#D9934C" transform="translate(56,256)"/>
<path d="" fill="#D9934C" transform="translate(0,0)"/>
<path d="M0 0 C2 1 2 1 2 1 Z " fill="#D9934C" transform="translate(74,263)"/>
<path d="M0 0 C2 1 2 1 2 1 Z " fill="#D9934C" transform="translate(67,263)"/>
<path d="" fill="#D9934C" transform="translate(0,0)"/>
<path d="" fill="#D9934C" transform="translate(0,0)"/>
<path d="" fill="#D9934C" transform="translate(0,0)"/>
<path d="" fill="#D9934C" transform="translate(0,0)"/>
<path d="M0 0 C2 1 2 1 2 1 Z " fill="#D9934C" transform="translate(74,249)"/>
<path d="M0 0 C2 1 2 1 2 1 Z " fill="#D9934C" transform="translate(67,249)"/>
<path d="" fill="#D9934C" transform="translate(0,0)"/>
<path d="" fill="#D9934C" transform="translate(0,0)"/>
<path d="" fill="#D9934C" transform="translate(0,0)"/>
<path d="" fill="#D9934C" transform="translate(0,0)"/>
<path d="" fill="#D9934C" transform="translate(0,0)"/>
<path d="" fill="#D9934C" transform="translate(0,0)"/>
<path d="" fill="#D9934C" transform="translate(0,0)"/>
<path d="" fill="#D9934C" transform="translate(0,0)"/>
<path d="" fill="#D9934C" transform="translate(0,0)"/>
<path d="" fill="#D9934C" transform="translate(0,0)"/>
<path d="" fill="#D9934C" transform="translate(0,0)"/>
<path d="" fill="#D9934C" transform="translate(0,0)"/>
<path d="" fill="#D9934C" transform="translate(0,0)"/>
<path d="" fill="#D9934C" transform="translate(0,0)"/>
<path d="" fill="#D9934C" transform="translate(0,0)"/>
<path d="" fill="#D9934C" transform="translate(0,0)"/>
<path d="" fill="#D9934C" transform="translate(0,0)"/>
<path d="" fill="#D9934C" transform="translate(0,0)"/>
<path d="" fill="#D9934C" transform="translate(0,0)"/>
<path d="" fill="#D9934C" transform="translate(0,0)"/>
<path d="" fill="#D9934C" transform="translate(0,0)"/>
<path d="" fill="#D9934C" transform="translate(0,0)"/>
</svg>
