<?xml version="1.0" encoding="UTF-8"?>
<svg version="1.1" xmlns="http://www.w3.org/2000/svg" width="576" height="324">
<path d="M0 0 C0.48210938 0.33 0.96421875 0.66 1.4609375 1 C5.18046997 2.46492356 8.67164672 2.13266286 12.625 2 C15.44047492 1.90646263 18.17871301 1.90654122 21 2 C21.66 2.66 22.32 3.32 23 4 C25.64787789 4.24543141 28.19903823 4.37349386 30.8515625 4.4140625 C31.62559418 4.43342865 32.39962585 4.4527948 33.19711304 4.4727478 C35.67296275 4.5325983 38.14885883 4.57895011 40.625 4.625 C42.30210377 4.66317482 43.97918784 4.70222625 45.65625 4.7421875 C49.77067353 4.83830409 53.88518886 4.92231439 58 5 C58 4.34 58 3.68 58 3 C64.27 3 70.54 3 77 3 C77 3.66 77 4.32 77 5 C78.11375 5.03738281 79.2275 5.07476562 80.375 5.11328125 C97.02942205 5.78232546 116.5757119 6.9851995 130 18 C130.556875 18.886875 131.11375 19.77375 131.6875 20.6875 C135.39366122 24.39366122 139.95039545 23.90423164 145 24 C145.66 22.68 146.32 21.36 147 20 C147.103125 20.61875 147.20625 21.2375 147.3125 21.875 C147.87525373 24.36526484 147.87525373 24.36526484 151 26 C150.01 26.33 149.02 26.66 148 27 C147.26676204 29.01508358 147.26676204 29.01508358 147 31 C146.01 29.02 146.01 29.02 145 27 C138.18127651 26.74303008 138.18127651 26.74303008 132.21484375 29.44921875 C131.26778062 30.66536389 130.34488061 31.90065897 129.4453125 33.15234375 C124.8137855 39.07318773 118.07604063 40.79885697 111 42 C109.47908278 42.33295036 107.95825302 42.66630043 106.4375 43 C96.71573669 44.91696741 86.91171899 46.15452569 77 46 C77 47.32 77 48.64 77 50 C84.26 49.67 91.52 49.34 99 49 C99 49.66 99 50.32 99 51 C99.69480469 50.67257813 100.38960938 50.34515625 101.10546875 50.0078125 C104.36368828 48.87337169 106.87449502 48.79943945 110.3125 48.875 C111.38113281 48.89304688 112.44976562 48.91109375 113.55078125 48.9296875 C114.76314453 48.96449219 114.76314453 48.96449219 116 49 C112.85471518 51.09685655 110.58922097 51.71501676 106.9375 52.5625 C102.85449069 53.46559324 102.85449069 53.46559324 99 55 C98.5875 55.845625 98.175 56.69125 97.75 57.5625 C97.1725 58.366875 96.595 59.17125 96 60 C92.8125 60.3125 92.8125 60.3125 90 60 C89.67 60.99 89.34 61.98 89 63 C88.34 63 87.68 63 87 63 C85.29319053 64.62553283 83.62339805 66.29115995 82 68 C82.33 68.66 82.66 69.32 83 70 C75.63723408 70.0463682 68.27449971 70.08189196 60.91161728 70.10362434 C57.49262072 70.11405552 54.07372416 70.12820243 50.65478516 70.15087891 C46.722994 70.17679333 42.79124315 70.18647832 38.859375 70.1953125 C37.02013458 70.21079636 37.02013458 70.21079636 35.14373779 70.22659302 C34.00285706 70.22674408 32.86197632 70.22689514 31.68652344 70.22705078 C30.18094879 70.23371262 30.18094879 70.23371262 28.6449585 70.24050903 C25.91719648 69.99247058 24.35388053 69.33907906 22 68 C19.33646245 67.48479018 16.70500869 67.27050087 14 67 C14 65.35 14 63.7 14 62 C16.64 61.67 19.28 61.34 22 61 C18.37 60.34 14.74 59.68 11 59 C11 57.35 11 55.7 11 54 C15.62 53.67 20.24 53.34 25 53 C25 51.68 25 50.36 25 49 C33.58 49 42.16 49 51 49 C51 49.99 51 50.98 51 52 C53.31 52 55.62 52 58 52 C58 50.02 58 48.04 58 46 C53.05174384 46.09342065 48.10398366 46.1994876 43.15625 46.31738281 C41.47240671 46.35571104 39.78848045 46.39055712 38.10449219 46.421875 C35.68654694 46.46744287 33.26917472 46.52544923 30.8515625 46.5859375 C29.71867294 46.60326431 29.71867294 46.60326431 28.56289673 46.62094116 C24.32174802 46.60330066 24.32174802 46.60330066 21 49 C19.06054688 49.1953125 19.06054688 49.1953125 16.71875 49.125 C15.87699219 49.10953125 15.03523438 49.0940625 14.16796875 49.078125 C12.38932292 49.02604167 10.61067708 48.97395833 8.83203125 48.921875 C7.99027344 48.90640625 7.14851563 48.8909375 6.28125 48.875 C5.50845703 48.85179687 4.73566406 48.82859375 3.93945312 48.8046875 C1.76069064 48.81751103 1.76069064 48.81751103 0 51 C-0.77842938 47.59437148 -1.09978121 44.49234244 -1 41 C-0.01 40.505 -0.01 40.505 1 40 C1.33 40.66 1.66 41.32 2 42 C4.64 42 7.28 42 10 42 C10 37.05 10 32.1 10 27 C9.34 27 8.68 27 8 27 C8 28.98 8 30.96 8 33 C7.01 33.495 7.01 33.495 6 34 C5.15387967 28.92327799 4.73806909 24.15130782 5 19 C5.66 18.34 6.32 17.68 7 17 C8 21.75 8 21.75 8 24 C8.66 24 9.32 24 10 24 C10 19.05 10 14.1 10 9 C5.9899066 8.82135369 5.9899066 8.82135369 2 9 C1.34 9.66 0.68 10.32 0 11 C-0.77675511 7.60169639 -1.19382275 4.48880949 -1 1 C-0.67 0.67 -0.34 0.34 0 0 Z M23 6 C23 6.33 23 6.66 23 7 C31.58 7 40.16 7 49 7 C49 6.67 49 6.34 49 6 C40.42 6 31.84 6 23 6 Z M13 9 C13 12.3 13 15.6 13 19 C13.89460938 18.52949219 14.78921875 18.05898437 15.7109375 17.57421875 C22.66174733 13.97548369 29.34456796 10.85212066 37 9 C37 8.67 37 8.34 37 8 C24.95838424 7.7914181 24.95838424 7.7914181 13 9 Z M11 9 C11 12.96 11 16.92 11 21 C11.33 21 11.66 21 12 21 C12 17.04 12 13.08 12 9 C11.67 9 11.34 9 11 9 Z M11 30 C11 33.96 11 37.92 11 42 C11.33 42 11.66 42 12 42 C12 38.04 12 34.08 12 30 C11.67 30 11.34 30 11 30 Z M13 32 C13 35.3 13 38.6 13 42 C20.97490128 43.32915021 28.94186719 43.08801359 37 43 C33.66245532 41.22972082 30.22943177 39.93189374 26.6875 38.625 C21.80821645 36.77328991 17.41403481 34.77160325 13 32 Z M23 44 C23 44.33 23 44.66 23 45 C31.58 45 40.16 45 49 45 C49 44.67 49 44.34 49 44 C40.42 44 31.84 44 23 44 Z M27 50 C28 52 28 52 28 52 Z M30 50 C31 52 31 52 31 52 Z M33 50 C34 52 34 52 34 52 Z M36 50 C37 52 37 52 37 52 Z M39 50 C40 52 40 52 40 52 Z M42 50 C43 52 43 52 43 52 Z M45 50 C46 52 46 52 46 52 Z M48 50 C49 52 49 52 49 52 Z M55 60 C54.67 61.32 54.34 62.64 54 64 C55.32 64.33 56.64 64.66 58 65 C58.33 63.68 58.66 62.36 59 61 C57.68 60.67 56.36 60.34 55 60 Z M61 60 C60.67 61.32 60.34 62.64 60 64 C61.32 64.33 62.64 64.66 64 65 C64.33 63.68 64.66 62.36 65 61 C63.68 60.67 62.36 60.34 61 60 Z M72 60 C72 60.66 72 61.32 72 62 C73.32 62 74.64 62 76 62 C76 61.34 76 60.68 76 60 C74.68 60 73.36 60 72 60 Z M77 60 C77 60.66 77 61.32 77 62 C78.32 62 79.64 62 81 62 C81 61.34 81 60.68 81 60 C79.68 60 78.36 60 77 60 Z M82 60 C82 60.66 82 61.32 82 62 C83.65 62 85.3 62 87 62 C87 61.34 87 60.68 87 60 C85.35 60 83.7 60 82 60 Z M72 63 C72 63.66 72 64.32 72 65 C73.32 65 74.64 65 76 65 C76 64.34 76 63.68 76 63 C74.68 63 73.36 63 72 63 Z M77 63 C77 63.66 77 64.32 77 65 C78.32 65 79.64 65 81 65 C81 64.34 81 63.68 81 63 C79.68 63 78.36 63 77 63 Z M82 63 C82 63.66 82 64.32 82 65 C82.99 65 83.98 65 85 65 C85 64.34 85 63.68 85 63 C84.01 63 83.02 63 82 63 Z M54 68 C54 68.33 54 68.66 54 69 C55.98 69 57.96 69 60 69 C60 68.67 60 68.34 60 68 C58.02 68 56.04 68 54 68 Z M63 68 C63 68.33 63 68.66 63 69 C64.98 69 66.96 69 69 69 C69 68.67 69 68.34 69 68 C67.02 68 65.04 68 63 68 Z " fill="#D9934C" transform="translate(53,108)"/>
<path d="M0 0 C0.99 0 1.98 0 3 0 C3 0.99 3 1.98 3 3 C2.01 3 1.02 3 0 3 C0 2.01 0 1.02 0 0 Z " fill="#D9934C" transform="translate(114,169)"/>
<path d="M0 0 C0.99 0 1.98 0 3 0 C3 0.99 3 1.98 3 3 C2.01 3 1.02 3 0 3 C0 2.01 0 1.02 0 0 Z " fill="#D9934C" transform="translate(108,169)"/>
<path d="M0 0 C2 1 2 1 2 1 Z " fill="#D9934C" transform="translate(137,175)"/>
<path d="" fill="#B96E22" transform="translate(0,0)"/>
<path d="M0 0 C2 1 2 1 2 1 Z " fill="#B96E22" transform="translate(157,156)"/>
<path d="M0 0 C2 1 2 1 2 1 Z " fill="#B96E22" transform="translate(160,154)"/>
<path d="" fill="#B96E22" transform="translate(0,0)"/>
<path d="M0 0 C2 1 2 1 2 1 Z " fill="#B96E22" transform="translate(163,152)"/>
<path d="M0 0 C2 1 2 1 2 1 Z " fill="#B96E22" transform="translate(166,150)"/>
<path d="M0 0 C2 1 2 1 2 1 Z " fill="#B96E22" transform="translate(168,149)"/>
<path d="" fill="#D9934C" transform="translate(0,0)"/>
<path d="" fill="#B96E22" transform="translate(0,0)"/>
<path d="" fill="#B96E22" transform="translate(0,0)"/>
<path d="" fill="#B96E22" transform="translate(0,0)"/>
<path d="" fill="#B96E22" transform="translate(0,0)"/>
<path d="" fill="#B96E22" transform="translate(0,0)"/>
<path d="" fill="#B96E22" transform="translate(0,0)"/>
<path d="" fill="#B96E22" transform="translate(0,0)"/>
<path d="" fill="#B96E22" transform="translate(0,0)"/>
<path d="" fill="#B96E22" transform="translate(0,0)"/>
</svg>
