<?xml version="1.0" encoding="UTF-8"?>
<svg version="1.1" xmlns="http://www.w3.org/2000/svg" width="576" height="324">
<path d="M0 0 C0.66 0 1.32 0 2 0 C2.83910389 3.26938086 3.67028333 6.54072534 4.5 9.8125 C4.73847656 10.74126953 4.97695313 11.67003906 5.22265625 12.62695312 C5.44824219 13.51962891 5.67382812 14.41230469 5.90625 15.33203125 C6.11572266 16.15421143 6.32519531 16.9763916 6.54101562 17.82348633 C7 20 7 20 7 23 C6.34 23 5.68 23 5 23 C5 28.28 5 33.56 5 39 C5.99 39 6.98 39 8 39 C8 47.91 8 56.82 8 66 C8.99 66.33 9.98 66.66 11 67 C10.34 67 9.68 67 9 67 C9 70.63 9 74.26 9 78 C9.99 78 10.98 78 12 78 C12 78.66 12 79.32 12 80 C11.34 80 10.68 80 10 80 C10 88.58 10 97.16 10 106 C17.59 106 25.18 106 33 106 C33 102.7 33 99.4 33 96 C33.66 95.34 34.32 94.68 35 94 C37.31 94 39.62 94 42 94 C42 80.8 42 67.6 42 54 C43.65 54 45.3 54 47 54 C47 48.72 47 43.44 47 38 C45.68 37.67 44.36 37.34 43 37 C43.33 36.01 43.66 35.02 44 34 C48.62 34 53.24 34 58 34 C57.67 29.71 57.34 25.42 57 21 C58.485 20.01 58.485 20.01 60 19 C62.42945561 22.64418341 62.0828781 23.92923364 61.625 28.1875 C61.51414062 29.27417969 61.40328125 30.36085937 61.2890625 31.48046875 C61.19367188 32.31191406 61.09828125 33.14335937 61 34 C62.65 34 64.3 34 66 34 C66.33 34.99 66.66 35.98 67 37 C65.68 37.33 64.36 37.66 63 38 C63 43.28 63 48.56 63 54 C75.54 54 88.08 54 101 54 C101 60.93 101 67.86 101 75 C99.68 75 98.36 75 97 75 C97 78.96 97 82.92 97 87 C98.32 87 99.64 87 101 87 C101 92.61 101 98.22 101 104 C102.258125 103.814375 103.51625 103.62875 104.8125 103.4375 C113.18391384 102.56522533 121.62779733 103.44128011 130 104 C130 99.05 130 94.1 130 89 C131.98 88.67 133.96 88.34 136 88 C137.81044284 85.27617727 137.81044284 85.27617727 138.875 81.9375 C139.48988281 80.28041016 139.48988281 80.28041016 140.1171875 78.58984375 C140.55417969 77.30787109 140.55417969 77.30787109 141 76 C146.45516108 82.23446981 147.44845738 89.16145318 147.29296875 97.09375 C147.28872391 97.92588013 147.28447906 98.75801025 147.28010559 99.61535645 C147.26346307 102.24391593 147.22583976 104.87167667 147.1875 107.5 C147.17243444 109.29425967 147.15874933 111.0885315 147.14648438 112.8828125 C147.11617285 117.25575522 147.05742759 121.62699549 147 126 C138.42 126 129.84 126 121 126 C121 123.69 121 121.38 121 119 C120.2265625 119.08378906 119.453125 119.16757812 118.65625 119.25390625 C112.53598436 119.85229856 107.0628867 120.04934578 101 119 C101 121.31 101 123.62 101 126 C81.53 126 62.06 126 42 126 C42 124.02 42 122.04 42 120 C40.02 120 38.04 120 36 120 C36 121.98 36 123.96 36 126 C35.01 126 34.02 126 33 126 C32.67 124.35 32.34 122.7 32 121 C31.67 122.65 31.34 124.3 31 126 C29.35 126 27.7 126 26 126 C25.63525836 118.58358663 25.63525836 118.58358663 27.25 116 C29 115 29 115 33 115 C33 112.69 33 110.38 33 108 C25.41 108 17.82 108 10 108 C10 113.94 10 119.88 10 126 C7.69 126 5.38 126 3 126 C3 124.68 3 123.36 3 122 C1.68 122 0.36 122 -1 122 C-1 123.32 -1 124.64 -1 126 C-3.31 126 -5.62 126 -8 126 C-8 120.06 -8 114.12 -8 108 C-11.96 108 -15.92 108 -20 108 C-20 113.94 -20 119.88 -20 126 C-20.99 126 -21.98 126 -23 126 C-23 120.06 -23 114.12 -23 108 C-26.3 108 -29.6 108 -33 108 C-33 111.63 -33 115.26 -33 119 C-32.030625 118.979375 -31.06125 118.95875 -30.0625 118.9375 C-27 119 -27 119 -26 120 C-25.95919217 121.99958364 -25.95745644 124.00045254 -26 126 C-26.66 126 -27.32 126 -28 126 C-28 124.35 -28 122.7 -28 121 C-29.65 121 -31.3 121 -33 121 C-33 122.65 -33 124.3 -33 126 C-33.66 126 -34.32 126 -35 126 C-35 124.35 -35 122.7 -35 121 C-37.97 121 -40.94 121 -44 121 C-44 122.65 -44 124.3 -44 126 C-55.55 126 -67.1 126 -79 126 C-79 123.69 -79 121.38 -79 119 C-90.55 119 -102.1 119 -114 119 C-114 121.31 -114 123.62 -114 126 C-119.94 126 -125.88 126 -132 126 C-132 123.36 -132 120.72 -132 118 C-135.96 118 -139.92 118 -144 118 C-144 119.32 -144 120.64 -144 122 C-145.98 122 -147.96 122 -150 122 C-150 123.32 -150 124.64 -150 126 C-150.99 126 -151.98 126 -153 126 C-153 124.68 -153 123.36 -153 122 C-153.66 122 -154.32 122 -155 122 C-155 123.32 -155 124.64 -155 126 C-169.19 126 -183.38 126 -198 126 C-198 122.7 -198 119.4 -198 116 C-198.99 116 -199.98 116 -201 116 C-201 119.3 -201 122.6 -201 126 C-202.32 126 -203.64 126 -205 126 C-205.02685938 123.85423363 -205.04633088 121.70837355 -205.0625 119.5625 C-205.07410156 118.36753906 -205.08570313 117.17257812 -205.09765625 115.94140625 C-205 113 -205 113 -204 112 C-202.00041636 111.95919217 -199.99954746 111.95745644 -198 112 C-198 110.02 -198 108.04 -198 106 C-196.515 105.505 -196.515 105.505 -195 105 C-195 99.39 -195 93.78 -195 88 C-181.8 88 -168.6 88 -155 88 C-155 91.63 -155 95.26 -155 99 C-153.68 99.33 -152.36 99.66 -151 100 C-150 101 -150 101 -149.90234375 103.50390625 C-149.91394531 104.51324219 -149.92554688 105.52257812 -149.9375 106.5625 C-149.94652344 107.57441406 -149.95554687 108.58632813 -149.96484375 109.62890625 C-149.97644531 110.41136719 -149.98804688 111.19382812 -150 112 C-147.36 112 -144.72 112 -142 112 C-142 109.69 -142 107.38 -142 105 C-138.7 105 -135.4 105 -132 105 C-132 97.74 -132 90.48 -132 83 C-131.01 83 -130.02 83 -129 83 C-129 77.39 -129 71.78 -129 66 C-131.31 66 -133.62 66 -136 66 C-136 64.68 -136 63.36 -136 62 C-135.34 62 -134.68 62 -134 62 C-134.33 57.38 -134.66 52.76 -135 48 C-135.99 48.495 -135.99 48.495 -137 49 C-137.77587815 42.19614548 -137.77587815 42.19614548 -135.78125 39.12109375 C-134.09565525 37.30988978 -132.34637144 35.64676372 -130.5 34 C-129.87996094 33.41605469 -129.25992188 32.83210938 -128.62109375 32.23046875 C-127.0982854 30.80137168 -125.55142064 29.39798344 -124 28 C-117.8870181 30.53252107 -113.04747699 35.8978505 -109 41 C-108.08695296 44.1981593 -108.31317548 45.6907546 -109 49 C-109.66 48.67 -110.32 48.34 -111 48 C-111.33 52.62 -111.66 57.24 -112 62 C-111.34 62 -110.68 62 -110 62 C-110 63.32 -110 64.64 -110 66 C-112.31 66 -114.62 66 -117 66 C-117 71.61 -117 77.22 -117 83 C-116.01 83 -115.02 83 -114 83 C-114 89.6 -114 96.2 -114 103 C-102.45 103 -90.9 103 -79 103 C-78.30670244 88.59578988 -78.30670244 88.59578988 -85 83 C-85 82.34 -85 81.68 -85 81 C-82.69 81 -80.38 81 -78 81 C-77.7421875 80.28457031 -77.484375 79.56914062 -77.21875 78.83203125 C-75.92615235 75.82839889 -74.3722291 73.36494628 -72.5 70.6875 C-71.8915625 69.80449219 -71.283125 68.92148437 -70.65625 68.01171875 C-70.1096875 67.34785156 -69.563125 66.68398438 -69 66 C-68.34 66 -67.68 66 -67 66 C-67 65.34 -67 64.68 -67 64 C-67.66 64 -68.32 64 -69 64 C-69 63.01 -69 62.02 -69 61 C-67.68 61 -66.36 61 -65 61 C-65 58.03 -65 55.06 -65 52 C-65.66 52 -66.32 52 -67 52 C-66.91231752 50.4156683 -66.80412671 48.83246433 -66.6875 47.25 C-66.60048828 45.92742187 -66.60048828 45.92742187 -66.51171875 44.578125 C-66 42 -66 42 -64.5 40.125 C-62.34576333 37.07316472 -62.48338288 34.4410703 -62.3125 30.75 C-62.21388672 28.85507813 -62.21388672 28.85507813 -62.11328125 26.921875 C-62.07589844 25.95765625 -62.03851563 24.9934375 -62 24 C-61.67 24 -61.34 24 -61 24 C-60.94392578 25.44632813 -60.94392578 25.44632813 -60.88671875 26.921875 C-60.82097656 28.18515625 -60.75523437 29.4484375 -60.6875 30.75 C-60.60048828 32.62945312 -60.60048828 32.62945312 -60.51171875 34.546875 C-59.97467609 38.17088809 -59.21001799 39.23747751 -57 42 C-56.48828125 44.578125 -56.48828125 44.578125 -56.3125 47.25 C-56.24675781 48.14203125 -56.18101562 49.0340625 -56.11328125 49.953125 C-56.05720703 50.96632813 -56.05720703 50.96632813 -56 52 C-56.66 52 -57.32 52 -58 52 C-58 54.97 -58 57.94 -58 61 C-56.68 61 -55.36 61 -54 61 C-54 61.99 -54 62.98 -54 64 C-54.66 64 -55.32 64 -56 64 C-56 64.66 -56 65.32 -56 66 C-55.01 66.33 -54.02 66.66 -53 67 C-50.95703125 69.65234375 -50.95703125 69.65234375 -48.8125 72.9375 C-48.09707031 74.01902344 -47.38164062 75.10054688 -46.64453125 76.21484375 C-45 79 -45 79 -45 81 C-42.69 81 -40.38 81 -38 81 C-38.97309748 83.17075592 -39.7275461 84.7609078 -41.53125 86.34375 C-43.4200861 88.47371411 -43.48399034 89.87906664 -43.6875 92.6875 C-43.78611328 93.89986328 -43.78611328 93.89986328 -43.88671875 95.13671875 C-43.92410156 95.75160156 -43.96148437 96.36648438 -44 97 C-43.34402832 96.98952637 -42.68805664 96.97905273 -42.01220703 96.96826172 C-39.04984342 96.92677497 -36.08754084 96.90069738 -33.125 96.875 C-32.09246094 96.85824219 -31.05992187 96.84148437 -29.99609375 96.82421875 C-29.00996094 96.81777344 -28.02382813 96.81132812 -27.0078125 96.8046875 C-25.64100342 96.78897705 -25.64100342 96.78897705 -24.24658203 96.77294922 C-22 97 -22 97 -20 99 C-19.875 102.625 -19.875 102.625 -20 106 C-16.04 106 -12.08 106 -8 106 C-8 97.42 -8 88.84 -8 80 C-8.66 80 -9.32 80 -10 80 C-10 79.34 -10 78.68 -10 78 C-9.01 78 -8.02 78 -7 78 C-7 74.37 -7 70.74 -7 67 C-7.66 66.67 -8.32 66.34 -9 66 C-8.01 66 -7.02 66 -6 66 C-6 57.09 -6 48.18 -6 39 C-5.01 39 -4.02 39 -3 39 C-3 33.72 -3 28.44 -3 23 C-3.66 23 -4.32 23 -5 23 C-3.52033871 15.28835349 -1.79704634 7.64343712 0 0 Z M59 22 C60 25 60 25 60 25 Z M45 35 C45 35.33 45 35.66 45 36 C49.29 36 53.58 36 58 36 C58 35.67 58 35.34 58 35 C53.71 35 49.42 35 45 35 Z M61 35 C65 36 65 36 65 36 Z M43 55 C47 56 47 56 47 56 Z M63 55 C63 55.33 63 55.66 63 56 C75.21 56 87.42 56 100 56 C100 55.67 100 55.34 100 55 C87.79 55 75.58 55 63 55 Z M44 57 C43.67 58.65 43.34 60.3 43 62 C44.32 62.33 45.64 62.66 47 63 C47 62.34 47 61.68 47 61 C46.34 61 45.68 61 45 61 C45 60.34 45 59.68 45 59 C45.66 59 46.32 59 47 59 C47 58.34 47 57.68 47 57 C46.01 57 45.02 57 44 57 Z M67 57 C66.67 58.65 66.34 60.3 66 62 C68.475 62.495 68.475 62.495 71 63 C71.33 61.35 71.66 59.7 72 58 C70.35 57.67 68.7 57.34 67 57 Z M74 57 C73.67 58.65 73.34 60.3 73 62 C75.475 62.495 75.475 62.495 78 63 C78.33 61.35 78.66 59.7 79 58 C77.35 57.67 75.7 57.34 74 57 Z M81 57 C80.67 58.65 80.34 60.3 80 62 C82.475 62.495 82.475 62.495 85 63 C85.33 61.35 85.66 59.7 86 58 C84.35 57.67 82.7 57.34 81 57 Z M88 57 C87.67 58.65 87.34 60.3 87 62 C89.475 62.495 89.475 62.495 92 63 C92.33 61.35 92.66 59.7 93 58 C91.35 57.67 89.7 57.34 88 57 Z M95 57 C94.67 58.65 94.34 60.3 94 62 C96.475 62.495 96.475 62.495 99 63 C99.33 61.35 99.66 59.7 100 58 C98.35 57.67 96.7 57.34 95 57 Z M64 58 C64 59.32 64 60.64 64 62 C64.33 60.68 64.66 59.36 65 58 C64.67 58 64.34 58 64 58 Z M63 75 C63 78.96 63 82.92 63 87 C65.31 87 67.62 87 70 87 C70 83.04 70 79.08 70 75 C67.69 75 65.38 75 63 75 Z M73 75 C73 78.96 73 82.92 73 87 C75.97 87 78.94 87 82 87 C82 83.04 82 79.08 82 75 C79.03 75 76.06 75 73 75 Z M85 75 C85 78.96 85 82.92 85 87 C87.97 87 90.94 87 94 87 C94 83.04 94 79.08 94 75 C91.03 75 88.06 75 85 75 Z M-1 80 C-1 81.65 -1 83.3 -1 85 C0.32 85 1.64 85 3 85 C3 83.35 3 81.7 3 80 C1.68 80 0.36 80 -1 80 Z M-1 87 C-1 88.65 -1 90.3 -1 92 C0.32 92 1.64 92 3 92 C3 90.35 3 88.7 3 87 C1.68 87 0.36 87 -1 87 Z M-194 90 C-194 91.65 -194 93.3 -194 95 C-193.34 95 -192.68 95 -192 95 C-192 93.35 -192 91.7 -192 90 C-192.66 90 -193.32 90 -194 90 Z M-191 90 C-191 91.65 -191 93.3 -191 95 C-190.34 95 -189.68 95 -189 95 C-189 93.35 -189 91.7 -189 90 C-189.66 90 -190.32 90 -191 90 Z M-188 90 C-188 91.65 -188 93.3 -188 95 C-187.34 95 -186.68 95 -186 95 C-186 93.35 -186 91.7 -186 90 C-186.66 90 -187.32 90 -188 90 Z M-185 90 C-185 91.65 -185 93.3 -185 95 C-184.34 95 -183.68 95 -183 95 C-183 93.35 -183 91.7 -183 90 C-183.66 90 -184.32 90 -185 90 Z M-182 90 C-182 91.65 -182 93.3 -182 95 C-181.34 95 -180.68 95 -180 95 C-180 93.35 -180 91.7 -180 90 C-180.66 90 -181.32 90 -182 90 Z M-179 90 C-179 91.65 -179 93.3 -179 95 C-178.34 95 -177.68 95 -177 95 C-177 93.35 -177 91.7 -177 90 C-177.66 90 -178.32 90 -179 90 Z M-176 90 C-176 91.65 -176 93.3 -176 95 C-175.34 95 -174.68 95 -174 95 C-174 93.35 -174 91.7 -174 90 C-174.66 90 -175.32 90 -176 90 Z M-173 90 C-173 91.65 -173 93.3 -173 95 C-172.34 95 -171.68 95 -171 95 C-171 93.35 -171 91.7 -171 90 C-171.66 90 -172.32 90 -173 90 Z M-170 90 C-170 91.65 -170 93.3 -170 95 C-169.34 95 -168.68 95 -168 95 C-168 93.35 -168 91.7 -168 90 C-168.66 90 -169.32 90 -170 90 Z M-167 90 C-167 91.65 -167 93.3 -167 95 C-166.34 95 -165.68 95 -165 95 C-165 93.35 -165 91.7 -165 90 C-165.66 90 -166.32 90 -167 90 Z M-164 90 C-164 91.65 -164 93.3 -164 95 C-163.34 95 -162.68 95 -162 95 C-162 93.35 -162 91.7 -162 90 C-162.66 90 -163.32 90 -164 90 Z M-161 90 C-161 91.65 -161 93.3 -161 95 C-160.34 95 -159.68 95 -159 95 C-159 93.35 -159 91.7 -159 90 C-159.66 90 -160.32 90 -161 90 Z M-158 90 C-158 91.65 -158 93.3 -158 95 C-157.34 95 -156.68 95 -156 95 C-156 93.35 -156 91.7 -156 90 C-156.66 90 -157.32 90 -158 90 Z M-1 94 C-1 95.65 -1 97.3 -1 99 C0.32 99 1.64 99 3 99 C3 97.35 3 95.7 3 94 C1.68 94 0.36 94 -1 94 Z M36 98 C35.92851801 99.35243917 35.91600546 100.70834367 35.9375 102.0625 C35.958125 103.361875 35.97875 104.66125 36 106 C37.98 106 39.96 106 42 106 C42 103.03 42 100.06 42 97 C38.71069596 96.63314303 38.71069596 96.63314303 36 98 Z M-44 100 C-44 101.98 -44 103.96 -44 106 C-37.07 106 -30.14 106 -23 106 C-23 104.35 -23 102.7 -23 101 C-23.99483202 99.78356708 -23.99483202 99.78356708 -25.94946289 99.88647461 C-27.1984436 99.89432983 -27.1984436 99.89432983 -28.47265625 99.90234375 C-29.82133789 99.90717773 -29.82133789 99.90717773 -31.19726562 99.91210938 C-32.14279297 99.92048828 -33.08832031 99.92886719 -34.0625 99.9375 C-35.01189453 99.94201172 -35.96128906 99.94652344 -36.93945312 99.95117188 C-39.29303065 99.9629989 -41.64648477 99.97947975 -44 100 Z M-1 101 C-1 102.65 -1 104.3 -1 106 C0.32 106 1.64 106 3 106 C3 104.35 3 102.7 3 101 C1.68 101 0.36 101 -1 101 Z M-155 103 C-155 105.97 -155 108.94 -155 112 C-154.34 112 -153.68 112 -153 112 C-153 109.36 -153 106.72 -153 104 C-153.66 103.67 -154.32 103.34 -155 103 Z M-113 104 C-113.33 105.32 -113.66 106.64 -114 108 C-112.68 108.33 -111.36 108.66 -110 109 C-109.67 107.68 -109.34 106.36 -109 105 C-110.32 104.67 -111.64 104.34 -113 104 Z M-107 104 C-107.33 105.32 -107.66 106.64 -108 108 C-106.68 108.33 -105.36 108.66 -104 109 C-103.67 107.68 -103.34 106.36 -103 105 C-104.32 104.67 -105.64 104.34 -107 104 Z M-101 104 C-101.33 105.32 -101.66 106.64 -102 108 C-100.68 108.33 -99.36 108.66 -98 109 C-97.67 107.68 -97.34 106.36 -97 105 C-98.32 104.67 -99.64 104.34 -101 104 Z M-95 104 C-95.33 105.32 -95.66 106.64 -96 108 C-94.68 108.33 -93.36 108.66 -92 109 C-91.67 107.68 -91.34 106.36 -91 105 C-92.32 104.67 -93.64 104.34 -95 104 Z M-89 104 C-89.33 105.32 -89.66 106.64 -90 108 C-88.68 108.33 -87.36 108.66 -86 109 C-85.67 107.68 -85.34 106.36 -85 105 C-86.32 104.67 -87.64 104.34 -89 104 Z M-83 104 C-83.33 105.32 -83.66 106.64 -84 108 C-82.68 108.33 -81.36 108.66 -80 109 C-79.67 107.68 -79.34 106.36 -79 105 C-80.32 104.67 -81.64 104.34 -83 104 Z M-196 107 C-196 108.65 -196 110.3 -196 112 C-195.67 112 -195.34 112 -195 112 C-195 110.35 -195 108.7 -195 107 C-195.33 107 -195.66 107 -196 107 Z M-140 107 C-140 109.31 -140 111.62 -140 114 C-143.3 114 -146.6 114 -150 114 C-150 115.98 -150 117.96 -150 120 C-148.68 120 -147.36 120 -146 120 C-146 118.68 -146 117.36 -146 116 C-141.38 116 -136.76 116 -132 116 C-132 113.03 -132 110.06 -132 107 C-134.64 107 -137.28 107 -140 107 Z M-44 108 C-44 111.63 -44 115.26 -44 119 C-41.03 119 -38.06 119 -35 119 C-35 115.37 -35 111.74 -35 108 C-37.97 108 -40.94 108 -44 108 Z M-1 108 C-1 109.65 -1 111.3 -1 113 C0.32 113 1.64 113 3 113 C3 111.35 3 109.7 3 108 C1.68 108 0.36 108 -1 108 Z M36 108 C36 110.31 36 112.62 36 115 C37.98 115 39.96 115 42 115 C42 112.69 42 110.38 42 108 C40.02 108 38.04 108 36 108 Z M101 108 C101 110.31 101 112.62 101 115 C104.27036728 115.14510162 107.53991007 115.23399373 110.8125 115.3125 C111.74126953 115.35439453 112.67003906 115.39628906 113.62695312 115.43945312 C116.17587781 115.4854626 118.49498044 115.47860365 121 115 C123.19917066 112.75466438 123.19917066 112.75466438 124 110 C124.33 109.34 124.66 108.68 125 108 C117.08 108 109.16 108 101 108 Z M-114 113 C-114 113.66 -114 114.32 -114 115 C-102.45 115 -90.9 115 -79 115 C-79 114.34 -79 113.68 -79 113 C-90.55 113 -102.1 113 -114 113 Z M-155 114 C-155 115.98 -155 117.96 -155 120 C-154.34 120 -153.68 120 -153 120 C-153 118.02 -153 116.04 -153 114 C-153.66 114 -154.32 114 -155 114 Z M-1 115 C-1 116.65 -1 118.3 -1 120 C0.32 120 1.64 120 3 120 C3 118.35 3 116.7 3 115 C1.68 115 0.36 115 -1 115 Z " fill="#C7792B" transform="translate(429,198)"/>
<path d="M0 0 C2.64 0 5.28 0 8 0 C7.67 6.6 7.34 13.2 7 20 C7.66 20 8.32 20 9 20 C9 24.62 9 29.24 9 34 C11.31 34 13.62 34 16 34 C16 37.3 16 40.6 16 44 C14.35 44 12.7 44 11 44 C11 55.55 11 67.1 11 79 C13.64 79 16.28 79 19 79 C21 81 21 81 21.1953125 82.9453125 C21.13020833 84.96354167 21.06510417 86.98177083 21 89 C22.27875 88.95875 23.5575 88.9175 24.875 88.875 C27.0546875 88.8046875 27.0546875 88.8046875 29 89 C31 91 31 91 31.22705078 92.97119141 C31.21134033 94.1494751 31.21134033 94.1494751 31.1953125 95.3515625 C31.18564453 96.62773437 31.18564453 96.62773437 31.17578125 97.9296875 C31.15064453 99.26386719 31.15064453 99.26386719 31.125 100.625 C31.11597656 101.5221875 31.10695312 102.419375 31.09765625 103.34375 C31.0740497 105.56276586 31.0411231 107.78125077 31 110 C29.02 110 27.04 110 25 110 C25 105.05 25 100.1 25 95 C23.72125 95.04125 22.4425 95.0825 21.125 95.125 C18.9453125 95.1953125 18.9453125 95.1953125 17 95 C15 93 15 93 14.8046875 91.0546875 C14.86979167 89.03645833 14.93489583 87.01822917 15 85 C13.68 85 12.36 85 11 85 C11 93.25 11 101.5 11 110 C6.05 110 1.1 110 -4 110 C-4.10957031 108.38351562 -4.21914062 106.76703125 -4.33203125 105.1015625 C-4.49160194 102.94266497 -4.65179117 100.7838131 -4.8125 98.625 C-4.88275391 97.56410156 -4.95300781 96.50320313 -5.02539062 95.41015625 C-5.54856046 88.58802162 -6.72448094 82.45679663 -9 76 C-10.8871875 75.7215625 -10.8871875 75.7215625 -12.8125 75.4375 C-13.52019531 75.33308594 -14.22789062 75.22867188 -14.95703125 75.12109375 C-17.2025342 74.86095201 -17.2025342 74.86095201 -20 76 C-23.41616265 82.93158426 -23.68609695 91.05335391 -24.1875 98.625 C-24.3102832 100.27435547 -24.3102832 100.27435547 -24.43554688 101.95703125 C-24.63365396 104.63730354 -24.81824433 107.31856926 -25 110 C-29.95 110 -34.9 110 -40 110 C-40 102.41 -40 94.82 -40 87 C-40.66 87 -41.32 87 -42 87 C-42.33 86.34 -42.66 85.68 -43 85 C-43.94875 85.020625 -44.8975 85.04125 -45.875 85.0625 C-49 85 -49 85 -51 84 C-50.67 84.99 -50.34 85.98 -50 87 C-50.33 94.59 -50.66 102.18 -51 110 C-86.97 110 -122.94 110 -160 110 C-160 107.69 -160 105.38 -160 103 C-164.95 103.495 -164.95 103.495 -170 104 C-170.33 105.98 -170.66 107.96 -171 110 C-175.95 110 -180.9 110 -186 110 C-186 97.79 -186 85.58 -186 73 C-184.02 73 -182.04 73 -180 73 C-180 77.95 -180 82.9 -180 88 C-178.123125 87.814375 -176.24625 87.62875 -174.3125 87.4375 C-167.4422274 86.89391799 -160.84105078 87.27222864 -154 88 C-154 87.01 -154 86.02 -154 85 C-155.32 85 -156.64 85 -158 85 C-158 83.68 -158 82.36 -158 81 C-154.7 81 -151.4 81 -148 81 C-148.99 77.7 -149.98 74.4 -151 71 C-149.02 71 -147.04 71 -145 71 C-145 65.39 -145 59.78 -145 54 C-144.01 54.33 -143.02 54.66 -142 55 C-142 60.28 -142 65.56 -142 71 C-128.47 71 -114.94 71 -101 71 C-101.66 73.64 -102.32 76.28 -103 79 C-103.66 79 -104.32 79 -105 79 C-105 84.61 -105 90.22 -105 96 C-98.73 96 -92.46 96 -86 96 C-86 95.34 -86 94.68 -86 94 C-85.34 94 -84.68 94 -84 94 C-84 93.34 -84 92.68 -84 92 C-83.34 92 -82.68 92 -82 92 C-82 91.34 -82 90.68 -82 90 C-81.34 90 -80.68 90 -80 90 C-80 89.34 -80 88.68 -80 88 C-79.34 88 -78.68 88 -78 88 C-78 87.34 -78 86.68 -78 86 C-77.34 86 -76.68 86 -76 86 C-76 85.34 -76 84.68 -76 84 C-75.34 84 -74.68 84 -74 84 C-74 83.34 -74 82.68 -74 82 C-73.34 82 -72.68 82 -72 82 C-72 79.36 -72 76.72 -72 74 C-67.71 74 -63.42 74 -59 74 C-57.90341064 77.28976808 -58.20046862 78.71303767 -59 82 C-58.01 81.67 -57.02 81.34 -56 81 C-56.33 80.01 -56.66 79.02 -57 78 C-56.01 77.67 -55.02 77.34 -54 77 C-54 76.34 -54 75.68 -54 75 C-53.01 74.67 -52.02 74.34 -51 74 C-51 73.34 -51 72.68 -51 72 C-50.01 71.67 -49.02 71.34 -48 71 C-48 70.34 -48 69.68 -48 69 C-47.01 68.67 -46.02 68.34 -45 68 C-45 67.34 -45 66.68 -45 66 C-44.34 66 -43.68 66 -43 66 C-43 65.01 -43 64.02 -43 63 C-43.66 62.67 -44.32 62.34 -45 62 C-45.33 61.34 -45.66 60.68 -46 60 C-44.02 60 -42.04 60 -40 60 C-40 54.72 -40 49.44 -40 44 C-41.65 44 -43.3 44 -45 44 C-45 40.7 -45 37.4 -45 34 C-42.69 34 -40.38 34 -38 34 C-38 29.38 -38 24.76 -38 20 C-37.01 20 -36.02 20 -35 20 C-35.33 13.73 -35.66 7.46 -36 1 C-33.36 1 -30.72 1 -28 1 C-28.33 7.27 -28.66 13.54 -29 20 C-28.34 20 -27.68 20 -27 20 C-27 24.62 -27 29.24 -27 34 C-18.42 34 -9.84 34 -1 34 C-1 29.38 -1 24.76 -1 20 C-0.34 20 0.32 20 1 20 C0.67 13.4 0.34 6.8 0 0 Z M-44 35 C-44 35.33 -44 35.66 -44 36 C-42.02 36 -40.04 36 -38 36 C-38 35.67 -38 35.34 -38 35 C-39.98 35 -41.96 35 -44 35 Z M-27 35 C-27 35.33 -27 35.66 -27 36 C-18.42 36 -9.84 36 -1 36 C-1 35.67 -1 35.34 -1 35 C-9.58 35 -18.16 35 -27 35 Z M9 35 C9 35.33 9 35.66 9 36 C10.98 36 12.96 36 15 36 C15 35.67 15 35.34 15 35 C13.02 35 11.04 35 9 35 Z M-44 37 C-44 37.99 -44 38.98 -44 40 C-42.02 40 -40.04 40 -38 40 C-38 39.01 -38 38.02 -38 37 C-39.98 37 -41.96 37 -44 37 Z M-27 37 C-27 37.99 -27 38.98 -27 40 C-18.42 40 -9.84 40 -1 40 C-1 39.01 -1 38.02 -1 37 C-9.58 37 -18.16 37 -27 37 Z M9 37 C9 37.99 9 38.98 9 40 C10.98 40 12.96 40 15 40 C15 39.01 15 38.02 15 37 C13.02 37 11.04 37 9 37 Z M-25 44 C-25 50.93 -25 57.86 -25 65 C-18.07 65 -11.14 65 -4 65 C-4 58.07 -4 51.14 -4 44 C-10.93 44 -17.86 44 -25 44 Z M-42 63 C-42 63.99 -42 64.98 -42 66 C-41.34 66 -40.68 66 -40 66 C-40 65.01 -40 64.02 -40 63 C-40.66 63 -41.32 63 -42 63 Z M-25 66 C-24 70 -24 70 -24 70 Z M-23 66 C-22 70 -22 70 -22 70 Z M-21 66 C-20 70 -20 70 -20 70 Z M-19 66 C-18 70 -18 70 -18 70 Z M-17 66 C-16 70 -16 70 -16 70 Z M-15 66 C-14 70 -14 70 -14 70 Z M-13 66 C-12 70 -12 70 -12 70 Z M-11 66 C-10 70 -10 70 -10 70 Z M-9 66 C-8 70 -8 70 -8 70 Z M-7 66 C-6 70 -6 70 -6 70 Z M-5 66 C-4 70 -4 70 -4 70 Z M-45.35351562 73.21679688 C-45.91748047 73.78462891 -46.48144531 74.35246094 -47.0625 74.9375 C-47.63033203 75.50146484 -48.19816406 76.06542969 -48.78320312 76.64648438 C-51.66162004 78.94750885 -51.66162004 78.94750885 -53 82 C-48.71 82 -44.42 82 -40 82 C-40 77.71 -40 73.42 -40 69 C-42.29520121 69 -43.8097811 71.67675992 -45.35351562 73.21679688 Z M-25 73 C-25.07179964 74.51928038 -25.08392007 76.04167482 -25.0625 77.5625 C-25.05347656 78.38878906 -25.04445312 79.21507812 -25.03515625 80.06640625 C-25.02355469 80.70449219 -25.01195312 81.34257812 -25 82 C-22.41222792 78.94419026 -22.41222792 78.94419026 -22 75 C-20.68 74.34 -19.36 73.68 -18 73 C-18 72.67 -18 72.34 -18 72 C-21.80621045 71.56152641 -21.80621045 71.56152641 -25 73 Z M-11 72 C-10.01 73.485 -10.01 73.485 -9 75 C-8.34 75 -7.68 75 -7 75 C-6.87625 75.78375 -6.7525 76.5675 -6.625 77.375 C-6.20882007 80.14057822 -6.20882007 80.14057822 -4 82 C-3.97310784 80.52093108 -3.95365379 79.04172517 -3.9375 77.5625 C-3.92009766 76.32693359 -3.92009766 76.32693359 -3.90234375 75.06640625 C-3.76732652 73.00836062 -3.76732652 73.00836062 -5 72 C-6.99958364 71.95919217 -9.00045254 71.95745644 -11 72 Z M-71 75 C-71 75.33 -71 75.66 -71 76 C-67.37 76 -63.74 76 -60 76 C-60 75.67 -60 75.34 -60 75 C-63.63 75 -67.26 75 -71 75 Z M-71 77 C-71 78.65 -71 80.3 -71 82 C-67.37 82 -63.74 82 -60 82 C-60 80.35 -60 78.7 -60 77 C-63.63 77 -67.26 77 -71 77 Z M-157 82 C-157 82.66 -157 83.32 -157 84 C-155.68 84 -154.36 84 -153 84 C-153 85.32 -153 86.64 -153 88 C-151.35 88 -149.7 88 -148 88 C-148 86.02 -148 84.04 -148 82 C-150.97 82 -153.94 82 -157 82 Z M-42 84 C-41.34 84.66 -40.68 85.32 -40 86 C-40 85.34 -40 84.68 -40 84 C-40.66 84 -41.32 84 -42 84 Z M-73 86 C-73 89.3 -73 92.6 -73 96 C-72.67 96 -72.34 96 -72 96 C-72 92.7 -72 89.4 -72 86 C-72.33 86 -72.66 86 -73 86 Z M-75 88 C-75 90.64 -75 93.28 -75 96 C-74.67 96 -74.34 96 -74 96 C-74 93.36 -74 90.72 -74 88 C-74.33 88 -74.66 88 -75 88 Z M-77 90 C-77 91.98 -77 93.96 -77 96 C-76.67 96 -76.34 96 -76 96 C-76 94.02 -76 92.04 -76 90 C-76.33 90 -76.66 90 -77 90 Z M-175 92 C-173.68 94.31 -172.36 96.62 -171 99 C-167.37 99 -163.74 99 -160 99 C-160 96.69 -160 94.38 -160 92 C-164.95 92 -169.9 92 -175 92 Z M-158 92 C-158 94.31 -158 96.62 -158 99 C-157.67 98.01 -157.34 97.02 -157 96 C-156.01 96 -155.02 96 -154 96 C-154 94.68 -154 93.36 -154 92 C-155.32 92 -156.64 92 -158 92 Z M-153 92 C-153 93.32 -153 94.64 -153 96 C-151.35 96 -149.7 96 -148 96 C-148 94.68 -148 93.36 -148 92 C-149.65 92 -151.3 92 -153 92 Z M-79 92 C-78 96 -78 96 -78 96 Z M-81 94 C-81.33 94.66 -81.66 95.32 -82 96 C-81.34 96 -80.68 96 -80 96 C-80.33 95.34 -80.66 94.68 -81 94 Z " fill="#C7792B" transform="translate(186,214)"/>
<path d="M0 0 C0.66 0 1.32 0 2 0 C2 0.66 2 1.32 2 2 C1.34 2 0.68 2 0 2 C0 1.34 0 0.68 0 0 Z " fill="#C7792B" transform="translate(525,257)"/>
<path d="M0 0 C0.66 0 1.32 0 2 0 C2 0.66 2 1.32 2 2 C1.34 2 0.68 2 0 2 C0 1.34 0 0.68 0 0 Z " fill="#C7792B" transform="translate(518,257)"/>
<path d="M0 0 C0.66 0 1.32 0 2 0 C2 0.66 2 1.32 2 2 C1.34 2 0.68 2 0 2 C0 1.34 0 0.68 0 0 Z " fill="#C7792B" transform="translate(511,257)"/>
<path d="M0 0 C0.66 0 1.32 0 2 0 C2 0.66 2 1.32 2 2 C1.34 2 0.68 2 0 2 C0 1.34 0 0.68 0 0 Z " fill="#C7792B" transform="translate(504,257)"/>
<path d="M0 0 C0.66 0 1.32 0 2 0 C2 0.66 2 1.32 2 2 C1.34 2 0.68 2 0 2 C0 1.34 0 0.68 0 0 Z " fill="#C7792B" transform="translate(497,257)"/>
<path d="" fill="#C7792B" transform="translate(0,0)"/>
<path d="" fill="#C7792B" transform="translate(0,0)"/>
<path d="" fill="#C7792B" transform="translate(0,0)"/>
<path d="" fill="#C7792B" transform="translate(0,0)"/>
<path d="" fill="#C7792B" transform="translate(0,0)"/>
<path d="" fill="#C7792B" transform="translate(0,0)"/>
<path d="" fill="#C7792B" transform="translate(0,0)"/>
<path d="" fill="#C7792B" transform="translate(0,0)"/>
<path d="" fill="#C7792B" transform="translate(0,0)"/>
<path d="" fill="#C7792B" transform="translate(0,0)"/>
<path d="" fill="#C7792B" transform="translate(0,0)"/>
<path d="" fill="#C7792B" transform="translate(0,0)"/>
<path d="" fill="#C7792B" transform="translate(0,0)"/>
<path d="" fill="#C7792B" transform="translate(0,0)"/>
<path d="" fill="#C7792B" transform="translate(0,0)"/>
<path d="" fill="#C7792B" transform="translate(0,0)"/>
<path d="" fill="#C7792B" transform="translate(0,0)"/>
<path d="" fill="#C7792B" transform="translate(0,0)"/>
<path d="" fill="#C7792B" transform="translate(0,0)"/>
<path d="" fill="#C7792B" transform="translate(0,0)"/>
<path d="" fill="#C7792B" transform="translate(0,0)"/>
<path d="" fill="#C7792B" transform="translate(0,0)"/>
<path d="" fill="#C7792B" transform="translate(0,0)"/>
<path d="" fill="#C7792B" transform="translate(0,0)"/>
<path d="" fill="#C7792B" transform="translate(0,0)"/>
<path d="" fill="#C7792B" transform="translate(0,0)"/>
<path d="" fill="#C7792B" transform="translate(0,0)"/>
<path d="" fill="#C7792B" transform="translate(0,0)"/>
<path d="" fill="#C7792B" transform="translate(0,0)"/>
<path d="" fill="#C7792B" transform="translate(0,0)"/>
<path d="" fill="#CF7E2D" transform="translate(0,0)"/>
<path d="" fill="#CF7E2D" transform="translate(0,0)"/>
<path d="" fill="#CF7E2D" transform="translate(0,0)"/>
<path d="" fill="#CF7E2D" transform="translate(0,0)"/>
<path d="" fill="#CF7E2D" transform="translate(0,0)"/>
<path d="" fill="#CF7E2D" transform="translate(0,0)"/>
<path d="" fill="#CF7E2D" transform="translate(0,0)"/>
<path d="" fill="#CF7E2D" transform="translate(0,0)"/>
<path d="" fill="#CF7E2D" transform="translate(0,0)"/>
<path d="" fill="#CF7E2D" transform="translate(0,0)"/>
<path d="" fill="#CF7E2D" transform="translate(0,0)"/>
<path d="" fill="#CF7E2D" transform="translate(0,0)"/>
<path d="" fill="#CF7E2D" transform="translate(0,0)"/>
<path d="" fill="#CF7E2D" transform="translate(0,0)"/>
<path d="" fill="#CF7E2D" transform="translate(0,0)"/>
<path d="" fill="#CF7E2D" transform="translate(0,0)"/>
<path d="" fill="#CF7E2D" transform="translate(0,0)"/>
<path d="" fill="#CF7E2D" transform="translate(0,0)"/>
<path d="" fill="#CF7E2D" transform="translate(0,0)"/>
<path d="" fill="#CF7E2D" transform="translate(0,0)"/>
<path d="" fill="#CF7E2D" transform="translate(0,0)"/>
<path d="" fill="#CF7E2D" transform="translate(0,0)"/>
<path d="" fill="#CF7E2D" transform="translate(0,0)"/>
<path d="" fill="#CF7E2D" transform="translate(0,0)"/>
<path d="" fill="#CF7E2D" transform="translate(0,0)"/>
<path d="" fill="#CF7E2D" transform="translate(0,0)"/>
<path d="" fill="#CF7E2D" transform="translate(0,0)"/>
<path d="" fill="#CF7E2D" transform="translate(0,0)"/>
<path d="" fill="#CF7E2D" transform="translate(0,0)"/>
<path d="" fill="#CF7E2D" transform="translate(0,0)"/>
<path d="" fill="#CF7E2D" transform="translate(0,0)"/>
<path d="" fill="#C7792B" transform="translate(0,0)"/>
<path d="" fill="#C7792B" transform="translate(0,0)"/>
<path d="" fill="#C7792B" transform="translate(0,0)"/>
<path d="" fill="#C7792B" transform="translate(0,0)"/>
<path d="" fill="#C7792B" transform="translate(0,0)"/>
<path d="" fill="#C7792B" transform="translate(0,0)"/>
<path d="" fill="#C7792B" transform="translate(0,0)"/>
<path d="" fill="#C7792B" transform="translate(0,0)"/>
<path d="" fill="#C7792B" transform="translate(0,0)"/>
<path d="" fill="#C7792B" transform="translate(0,0)"/>
<path d="" fill="#C7792B" transform="translate(0,0)"/>
<path d="" fill="#C7792B" transform="translate(0,0)"/>
<path d="" fill="#C7792B" transform="translate(0,0)"/>
<path d="" fill="#C7792B" transform="translate(0,0)"/>
<path d="" fill="#C7792B" transform="translate(0,0)"/>
<path d="" fill="#C7792B" transform="translate(0,0)"/>
<path d="" fill="#C7792B" transform="translate(0,0)"/>
<path d="" fill="#C7792B" transform="translate(0,0)"/>
<path d="" fill="#C7792B" transform="translate(0,0)"/>
<path d="" fill="#C7792B" transform="translate(0,0)"/>
<path d="" fill="#C7792B" transform="translate(0,0)"/>
<path d="" fill="#C7792B" transform="translate(0,0)"/>
</svg>
