<?xml version="1.0" encoding="UTF-8"?>
<!DOCTYPE svg PUBLIC "-//W3C//DTD SVG 1.1//EN" "http://www.w3.org/Graphics/SVG/1.1/DTD/svg11.dtd">
<svg xmlns="http://www.w3.org/2000/svg" version="1.1" width="576px" height="324px" style="shape-rendering:geometricPrecision; text-rendering:geometricPrecision; image-rendering:optimizeQuality; fill-rule:evenodd; clip-rule:evenodd" xmlns:xlink="http://www.w3.org/1999/xlink">
<g><path style="opacity:1" fill="#c6792a" d="M 531.5,81.5 C 527.809,80.2378 524.309,78.5712 521,76.5C 518.205,77.1852 515.372,77.6852 512.5,78C 511.167,78.6667 511.167,79.3333 512.5,80C 509.167,80.3333 505.833,80.6667 502.5,81C 499.413,84.8179 495.913,85.3179 492,82.5C 485.906,82.3253 479.74,82.6586 473.5,83.5C 472.062,83.2811 470.729,82.7811 469.5,82C 470.167,81.6667 470.833,81.3333 471.5,81C 465.167,80.6667 458.833,80.3333 452.5,80C 451.04,79.1887 450.707,78.3554 451.5,77.5C 452.869,79.124 454.536,79.624 456.5,79C 455.027,78.2904 454.36,77.1238 454.5,75.5C 448.068,74.4756 441.735,72.9756 435.5,71C 437.011,69.3851 438.344,69.3851 439.5,71C 444.513,71.8355 449.513,72.6688 454.5,73.5C 454.5,72.1667 454.5,70.8333 454.5,69.5C 443.608,67.6046 435.274,62.6046 429.5,54.5C 435.77,46.1931 444.103,41.1931 454.5,39.5C 454.5,38.1667 454.5,36.8333 454.5,35.5C 456.167,35.5 457.833,35.5 459.5,35.5C 459.351,36.552 459.517,37.552 460,38.5C 473.333,35.8333 486.667,35.8333 500,38.5C 500.483,37.552 500.649,36.552 500.5,35.5C 502.167,35.5 503.833,35.5 505.5,35.5C 505.5,36.8333 505.5,38.1667 505.5,39.5C 521.045,40.8125 536.545,42.4792 552,44.5C 552.29,42.9559 552.956,41.6226 554,40.5C 553.747,43.1424 553.914,45.6424 554.5,48C 554.333,48.5 554.167,49 554,49.5C 552.956,48.3774 552.29,47.0441 552,45.5C 551.667,45.8333 551.333,46.1667 551,46.5C 550.333,51.5 550.333,56.5 551,61.5C 551.333,61.8333 551.667,62.1667 552,62.5C 552.29,60.9559 552.956,59.6226 554,58.5C 554.167,59 554.333,59.5 554.5,60C 553.914,62.3576 553.747,64.8576 554,67.5C 552.956,66.3774 552.29,65.0441 552,63.5C 547.934,64.4637 543.767,64.797 539.5,64.5C 539.5,65.5 539.5,66.5 539.5,67.5C 531.362,66.526 523.362,66.1926 515.5,66.5C 512.077,67.6402 508.744,68.9735 505.5,70.5C 505.667,70.8333 505.833,71.1667 506,71.5C 510.667,70.8333 515.333,70.1667 520,69.5C 521.067,70.1905 522.234,70.6905 523.5,71C 521.956,71.2896 520.623,71.9563 519.5,73C 520,73.1667 520.5,73.3333 521,73.5C 523.33,71.9574 525.83,71.4574 528.5,72C 527.5,73 526.5,74 525.5,75C 527.706,77.0367 529.706,79.2034 531.5,81.5 Z M 523.5,47.5 C 527.298,46.5166 531.298,46.1832 535.5,46.5C 535.5,47.8333 535.5,49.1667 535.5,50.5C 530.927,51.2312 526.927,50.2312 523.5,47.5 Z M 539.5,46.5 C 542.833,46.5 546.167,46.5 549.5,46.5C 549.5,51.5 549.5,56.5 549.5,61.5C 546.167,61.5 542.833,61.5 539.5,61.5C 540.752,56.5092 540.752,51.5092 539.5,46.5 Z M 526.5,58.5 C 529.5,58.5 532.5,58.5 535.5,58.5C 535.5,59.5 535.5,60.5 535.5,61.5C 531.818,61.6653 528.152,61.4986 524.5,61C 525.381,60.2917 526.047,59.4584 526.5,58.5 Z M 459.5,70.5 C 461.926,71.3525 462.76,73.0192 462,75.5C 460.601,74.7734 459.101,74.2734 457.5,74C 458.973,73.2904 459.64,72.1238 459.5,70.5 Z M 472.5,80.5 C 474.337,80.6395 474.67,81.3061 473.5,82.5C 472.702,82.0431 472.369,81.3764 472.5,80.5 Z M 488.5,80.5 C 490.337,80.6395 490.67,81.3061 489.5,82.5C 488.702,82.0431 488.369,81.3764 488.5,80.5 Z"/></g>
<g><path style="opacity:1" fill="#c6792a" d="M 531.5,81.5 C 532.833,82.1667 532.833,82.1667 531.5,81.5 Z"/></g>
<g><path style="opacity:1" fill="#c6792a" d="M 292.5,258.5 C 293.833,259.167 293.833,259.167 292.5,258.5 Z"/></g>
<g><path style="opacity:1" fill="#c6792a" d="M 317.5,258.5 C 318.833,259.167 318.833,259.167 317.5,258.5 Z"/></g>
</svg>
