<?xml version="1.0" encoding="UTF-8"?>
<svg version="1.1" xmlns="http://www.w3.org/2000/svg" width="576" height="324">
<path d="M0 0 C32.34 0 64.68 0 98 0 C98 0.66 98 1.32 98 2 C97.34 2 96.68 2 96 2 C96 6.62 96 11.24 96 16 C98.0728125 16.12375 98.0728125 16.12375 100.1875 16.25 C106.22077336 16.78840235 112.1183831 17.86759501 118.0625 19 C119.00311279 19.17821289 119.94372559 19.35642578 120.9128418 19.54003906 C127.7353962 20.8676981 127.7353962 20.8676981 130 22 C130 21.34 130 20.68 130 20 C132.97 20 135.94 20 139 20 C139 20.99 139 21.98 139 23 C158.14 23 177.28 23 197 23 C197 23.99 197 24.98 197 26 C195.02 26 193.04 26 191 26 C191 26.66 191 27.32 191 28 C192.65 28 194.3 28 196 28 C196 28.99 196 29.98 196 31 C194.35 31 192.7 31 191 31 C191 31.66 191 32.32 191 33 C192.32 33 193.64 33 195 33 C195 33.99 195 34.98 195 36 C193.68 36 192.36 36 191 36 C191 36.66 191 37.32 191 38 C191.99 38 192.98 38 194 38 C194 38.99 194 39.98 194 41 C193.01 41 192.02 41 191 41 C191 41.66 191 42.32 191 43 C191.66 43 192.32 43 193 43 C193 43.99 193 44.98 193 46 C192.34 46 191.68 46 191 46 C191.144375 46.70125 191.28875 47.4025 191.4375 48.125 C191.81893097 50.07453609 192.15083442 52.03429316 192.4375 54 C192.99225949 56.95871726 193.56244961 59.35188086 195 62 C197.04105639 62.88693303 197.04105639 62.88693303 199 63 C199 63.99 199 64.98 199 66 C200.65 66 202.3 66 204 66 C204 57.75 204 49.5 204 41 C204.66 41 205.32 41 206 41 C206.84191782 43.9248633 207.11819313 46.50741656 207.09765625 49.546875 C207.09443359 50.39121094 207.09121094 51.23554687 207.08789062 52.10546875 C207.07951172 52.97816406 207.07113281 53.85085937 207.0625 54.75 C207.05798828 55.63816406 207.05347656 56.52632812 207.04882812 57.44140625 C207.037074 59.62767329 207.02064249 61.81380179 207 64 C207.66 64.33 208.32 64.66 209 65 C208.125 69.875 208.125 69.875 207 71 C206.9394849 74.77084746 206.97982841 78.52857844 207.0390625 82.29882812 C207.04679687 83.09353516 207.05453125 83.88824219 207.0625 84.70703125 C207.07410156 85.4338208 207.08570313 86.16061035 207.09765625 86.90942383 C206.99712 89.0616535 206.59206456 90.93331008 206 93 C205.34 93 204.68 93 204 93 C204 84.75 204 76.5 204 68 C202.35 68 200.7 68 199 68 C198.67 69.65 198.34 71.3 198 73 C197.67 72.34 197.34 71.68 197 71 C196.34 71 195.68 71 195 71 C195.22042969 71.72832031 195.44085938 72.45664063 195.66796875 73.20703125 C196.08574371 76.72125593 195.31721144 77.82848054 193.3125 80.6875 C192.79300781 81.45449219 192.27351563 82.22148438 191.73828125 83.01171875 C189.90965679 85.1033364 188.49678803 85.86779315 186 87 C185.05125 87.86625 184.1025 88.7325 183.125 89.625 C175.3246557 96.46711235 165.84294723 100.99706695 156 104 C155.67 104.66 155.34 105.32 155 106 C152.671875 106.8515625 152.671875 106.8515625 149.75 107.625 C148.79609375 107.88539063 147.8421875 108.14578125 146.859375 108.4140625 C144 109 144 109 139 109 C138.34 116.59 137.68 124.18 137 132 C141.62 132 146.24 132 151 132 C151.33 132.66 151.66 133.32 152 134 C154.64 134 157.28 134 160 134 C160 135.32 160 136.64 160 138 C160.99 138 161.98 138 163 138 C162.87431641 136.081875 162.87431641 136.081875 162.74609375 134.125 C162.64284424 132.41668989 162.54000131 130.70835517 162.4375 129 C162.38142578 128.16082031 162.32535156 127.32164062 162.26757812 126.45703125 C161.9584849 121.14062774 162.17757391 116.26352696 163 111 C163.66 111 164.32 111 165 111 C166.30192693 120.11348853 165.6888091 128.86533168 165 138 C166.32 138.33 167.64 138.66 169 139 C169 137.68 169 136.36 169 135 C184.24864583 131.67271873 199.56310016 128.70408885 214.89868164 125.80880737 C217.09038005 125.3947625 219.28178761 124.97917511 221.47290039 124.56204224 C224.59954457 123.96757481 227.72730335 123.37937211 230.85546875 122.79296875 C231.80358932 122.61194611 232.7517099 122.43092346 233.7285614 122.24441528 C235.05437981 121.99810867 235.05437981 121.99810867 236.40698242 121.74682617 C237.17620529 121.60202316 237.94542816 121.45722015 238.73796082 121.30802917 C241.1833529 120.97503224 243.53501941 120.94800709 246 121 C242.88583092 123.51129131 239.69522445 125.23797267 236.08984375 126.9609375 C234.93419922 127.51523438 233.77855469 128.06953125 232.58789062 128.640625 C231.37109862 129.21876025 230.15430172 129.79688521 228.9375 130.375 C227.17116211 131.22191406 227.17116211 131.22191406 225.36914062 132.0859375 C218.28309666 135.47406256 211.16462705 138.78144032 204 142 C204 142.99 204 143.98 204 145 C204.49446121 145.23137161 204.98892242 145.46274323 205.49836731 145.7011261 C210.6442793 148.11058878 215.78587106 150.52908893 220.92504883 152.95288086 C222.84355124 153.85624942 224.76314305 154.75730815 226.68383789 155.65600586 C229.44446867 156.94820083 232.20107468 158.24865275 234.95703125 159.55078125 C235.81649857 159.9508992 236.67596588 160.35101715 237.56147766 160.76325989 C238.36208115 161.14342758 239.16268463 161.52359528 239.98754883 161.9152832 C241.04344963 162.41158989 241.04344963 162.41158989 242.12068176 162.91792297 C244.09662188 164.05563311 245.46920512 165.32156491 247 167 C237.51557867 166.49161394 228.3672104 165.13275999 219.0546875 163.3125 C217.66808757 163.04671448 216.28137658 162.78150777 214.89456177 162.5168457 C212.0180456 161.96641207 209.14246608 161.41141348 206.26757812 160.85253906 C202.58472757 160.13664309 198.90036538 159.42893098 195.2153759 158.72413635 C191.68211551 158.04801242 188.14962297 157.36791825 184.6171875 156.6875 C183.94728664 156.55880524 183.27738579 156.43011047 182.58718491 156.29751587 C180.69685921 155.9336136 178.80715414 155.56649183 176.91748047 155.19921875 C175.84416473 154.99127686 174.770849 154.78333496 173.66500854 154.5690918 C171 154 171 154 168 153 C168 152.34 168 151.68 168 151 C166.35 151 164.7 151 163 151 C163.01571045 151.55985596 163.0314209 152.11971191 163.04760742 152.6965332 C163.10999848 155.2350859 163.14900218 157.77347729 163.1875 160.3125 C163.22520508 161.63411133 163.22520508 161.63411133 163.26367188 162.98242188 C163.27333984 163.82998047 163.28300781 164.67753906 163.29296875 165.55078125 C163.3086792 166.33106689 163.32438965 167.11135254 163.34057617 167.9152832 C163 170 163 170 161.95117188 171.75976562 C158.95428681 173.66469257 155.92245571 173.36824899 152.48828125 173.29296875 C151.76005661 173.28872391 151.03183197 173.28447906 150.28153992 173.28010559 C147.95814873 173.26332733 145.6356285 173.22567855 143.3125 173.1875 C141.73634066 173.17245197 140.16016771 173.15876377 138.58398438 173.14648438 C134.72232123 173.11342685 130.86130822 173.06165194 127 173 C127 173.66 127 174.32 127 175 C137.89 175 148.78 175 160 175 C158 179 158 179 157 180 C152.40915071 180.39891275 147.78949532 180.43421189 143.18359375 180.5546875 C142.42158598 180.57562344 141.65957821 180.59655937 140.87447929 180.61812973 C113.89533389 181.33321829 86.89281722 181.15000503 59.90626276 181.12856936 C53.77838707 181.12421434 47.65053186 181.12734039 41.52265745 181.1321975 C35.52856957 181.13675379 29.53449045 181.13736861 23.5404014 181.13475883 C19.99532903 181.13321716 16.45027048 181.13294442 12.90519905 181.13629532 C8.97462968 181.13975608 5.04409282 181.13494325 1.11352539 181.12939453 C-0.02682663 181.13141876 -1.16717865 181.13344299 -2.34208679 181.13552856 C-7.94625949 181.12096281 -13.53597336 180.98785597 -19.13209534 180.67941284 C-20.18552407 180.62257261 -21.23895281 180.56573238 -22.32430363 180.50716972 C-25.26094923 179.9505379 -26.27664723 179.40657813 -28 177 C-28 176.34 -28 175.68 -28 175 C-27.34 174.67 -26.68 174.34 -26 174 C-26.51949219 173.76925781 -27.03898437 173.53851563 -27.57421875 173.30078125 C-28.27160156 172.97464844 -28.96898437 172.64851562 -29.6875 172.3125 C-30.37199219 171.99925781 -31.05648437 171.68601563 -31.76171875 171.36328125 C-34 170 -34 170 -36.2265625 167.45898438 C-39.60280832 164.46553826 -41.16542396 164.3538983 -45.61328125 164.29296875 C-46.86044922 164.26396484 -48.10761719 164.23496094 -49.39257812 164.20507812 C-50.68615234 164.19927734 -51.97972656 164.19347656 -53.3125 164.1875 C-54.62541016 164.16236328 -55.93832031 164.13722656 -57.29101562 164.11132812 C-60.52764489 164.05248032 -63.76292218 164.01618063 -67 164 C-67 162.35 -67 160.7 -67 159 C-68.65 158.67 -70.3 158.34 -72 158 C-72 155.69 -72 153.38 -72 151 C-75.3 150.67 -78.6 150.34 -82 150 C-82 148.35 -82 146.7 -82 145 C-80.35 145 -78.7 145 -77 145 C-77 142.69 -77 140.38 -77 138 C-78.81371094 137.8453125 -78.81371094 137.8453125 -80.6640625 137.6875 C-87.01566598 136.98093698 -93.16515891 135.47422879 -99.375 134 C-100.54933594 133.72671875 -101.72367188 133.4534375 -102.93359375 133.171875 C-111.51170367 131.16276544 -111.51170367 131.16276544 -115 130 C-115 129.01 -115 128.02 -115 127 C-113.56208484 127.14168137 -112.1246763 127.28851043 -110.6875 127.4375 C-109.48673828 127.55931641 -109.48673828 127.55931641 -108.26171875 127.68359375 C-106 128 -106 128 -103 129 C-103.01160156 128.22390381 -103.02320312 127.44780762 -103.03515625 126.64819336 C-103.13717537 113.60523062 -102.53915851 100.59186233 -102 87.5625 C-101.90337054 85.17383925 -101.80701422 82.78516743 -101.7109375 80.39648438 C-101.47710621 74.59752495 -101.23990743 68.79871106 -101 63 C-100.36408936 62.87560547 -99.72817871 62.75121094 -99.07299805 62.62304688 C-96.81869569 62.20045988 -96.81869569 62.20045988 -95.83203125 60.03125 C-95.49558594 59.1959375 -95.15914062 58.360625 -94.8125 57.5 C-86.32434316 39.49792719 -65.17514436 32.2426329 -47.68359375 25.7734375 C-45 25 -45 25 -41 25 C-41 23.35 -41 21.7 -41 20 C-38.03 20 -35.06 20 -32 20 C-32 20.66 -32 21.32 -32 22 C-31.41476563 21.81824219 -30.82953125 21.63648437 -30.2265625 21.44921875 C-24.08268373 19.65033533 -17.93116059 18.36949487 -11.625 17.3125 C-10.85236816 17.18125732 -10.07973633 17.05001465 -9.28369141 16.91479492 C-5.39047339 16.28342794 -1.99934178 16 2 16 C2 11.38 2 6.76 2 2 C1.34 2 0.68 2 0 2 C0 1.34 0 0.68 0 0 Z M-100 71 C-100.28950409 76.84898363 -100.57410875 82.69817947 -100.85449219 88.54760742 C-100.9502043 90.53074317 -101.04717414 92.51381869 -101.14550781 94.49682617 C-101.71540479 106.00816363 -102.16259115 117.47296508 -102 129 C-88.39829485 131.89150245 -74.77563075 134.66263068 -61.125 137.3125 C-60.08942459 137.51446991 -60.08942459 137.51446991 -59.03292847 137.72052002 C-57.0666343 138.10355711 -55.09973568 138.4834874 -53.1328125 138.86328125 C-51.99730957 139.08282471 -50.86180664 139.30236816 -49.69189453 139.52856445 C-47.12714124 140.05750201 -47.12714124 140.05750201 -45 140 C-45 139.34 -45 138.68 -45 138 C-45.66 138 -46.32 138 -47 138 C-47 137.34 -47 136.68 -47 136 C-44.36 136 -41.72 136 -39 136 C-38.94134965 132.81257885 -38.90618741 129.62529882 -38.875 126.4375 C-38.85824219 125.54224609 -38.84148437 124.64699219 -38.82421875 123.72460938 C-38.78571827 118.46929377 -38.77953159 113.82158855 -41 109 C-43.66288193 107.56526793 -43.66288193 107.56526793 -47 107.0625 C-63.43276553 103.09771571 -82.58210107 94.87383655 -93 81 C-94.64033301 77.74729421 -95.91736755 74.47581997 -97 71 C-97.99 71 -98.98 71 -100 71 Z M-32 112 C-33.77669223 115.06156654 -34.24050818 117.24036215 -34.1953125 120.765625 C-34.19031738 121.56774414 -34.18532227 122.36986328 -34.18017578 123.19628906 C-34.16196777 124.20401367 -34.14375977 125.21173828 -34.125 126.25 C-34.08375 129.4675 -34.0425 132.685 -34 136 C-26.41 136 -18.82 136 -11 136 C-11 136.66 -11 137.32 -11 138 C-11.66 138 -12.32 138 -13 138 C-13 138.99 -13 139.98 -13 141 C6.47 141 25.94 141 46 141 C47.19256959 126.63978318 47.19256959 126.63978318 44 121 C41.26190283 120.47991778 38.87134358 120.23335621 36.109375 120.12890625 C35.30484894 120.08155838 34.50032288 120.03421051 33.67141724 119.98542786 C31.9359677 119.88338961 30.2000508 119.78907148 28.46380615 119.70159912 C10.96835904 118.80485072 -5.99074144 116.80674491 -23.19970703 113.52490234 C-26.12715743 112.97616491 -29.0607172 112.48091427 -32 112 Z M-37 113 C-37.96088383 115.88265149 -38.11670941 117.67662271 -38.09765625 120.66796875 C-38.09443359 121.56064453 -38.09121094 122.45332031 -38.08789062 123.37304688 C-38.07951172 124.30181641 -38.07113281 125.23058594 -38.0625 126.1875 C-38.05798828 127.12787109 -38.05347656 128.06824219 -38.04882812 129.03710938 C-38.03704626 131.35813712 -38.02059558 133.67903644 -38 136 C-37.01 136 -36.02 136 -35 136 C-34.9419524 132.72924117 -34.90638835 129.45861476 -34.875 126.1875 C-34.85824219 125.25873047 -34.84148437 124.32996094 -34.82421875 123.37304688 C-34.81777344 122.48037109 -34.81132812 121.58769531 -34.8046875 120.66796875 C-34.79421387 119.84578857 -34.78374023 119.0236084 -34.77294922 118.17651367 C-34.86003865 115.70578408 -34.86003865 115.70578408 -37 113 Z M123.62890625 113.0234375 C108.55280296 115.91956506 93.72227705 118.49872394 78.38401794 119.30958557 C76.32581225 119.41850457 74.26802782 119.53374952 72.21020508 119.6496582 C69.4787761 119.80320209 66.74787628 119.92923922 64.0144043 120.03979492 C62.76312744 120.10658447 61.51185059 120.17337402 60.22265625 120.2421875 C59.09609619 120.2922998 57.96953613 120.34241211 56.80883789 120.39404297 C53.92129352 120.75887677 53.92129352 120.75887677 52.12939453 122.80419922 C50.39412604 126.17795729 50.68519511 129.55489392 50.8125 133.25 C50.82603516 133.99507812 50.83957031 134.74015625 50.85351562 135.5078125 C50.88872796 137.33885416 50.94253149 139.16952169 51 141 C53.97 141.33 56.94 141.66 60 142 C58.02 144.475 58.02 144.475 56 147 C70.19 147 84.38 147 99 147 C99 143.04 99 139.08 99 135 C102.3 135 105.6 135 109 135 C109 134.01 109 133.02 109 132 C116.59 132 124.18 132 132 132 C132.04125 129.4425 132.0825 126.885 132.125 124.25 C132.14320801 123.45110352 132.16141602 122.65220703 132.18017578 121.82910156 C132.20970558 118.04738242 132.13437458 115.19315882 130 112 C127.86978641 112 125.70713677 112.61914857 123.62890625 113.0234375 Z M134 113 C132.74566542 116.76300374 132.89304578 120.27210909 132.9375 124.1875 C132.94201172 124.93708984 132.94652344 125.68667969 132.95117188 126.45898438 C132.96293646 128.30602383 132.98087135 130.15302213 133 132 C133.99 132 134.98 132 136 132 C136.05394705 129.39555652 136.09364469 126.79223002 136.125 124.1875 C136.14175781 123.44951172 136.15851563 122.71152344 136.17578125 121.95117188 C136.21074628 118.08753574 136.19397555 116.29096332 134 113 Z M48 122 C46.74566542 125.76300374 46.89304578 129.27210909 46.9375 133.1875 C46.94201172 133.93708984 46.94652344 134.68667969 46.95117188 135.45898438 C46.96293646 137.30602383 46.98087135 139.15302213 47 141 C47.99 141 48.98 141 50 141 C50.05394705 138.39555652 50.09364469 135.79223002 50.125 133.1875 C50.14175781 132.44951172 50.15851563 131.71152344 50.17578125 130.95117188 C50.21074628 127.08753574 50.19397555 125.29096332 48 122 Z M-43 138 C-43 138.99 -43 139.98 -43 141 C-42.01 141 -41.02 141 -40 141 C-40 140.01 -40 139.02 -40 138 C-40.99 138 -41.98 138 -43 138 Z M-38 138 C-38 138.99 -38 139.98 -38 141 C-37.01 141 -36.02 141 -35 141 C-35 140.01 -35 139.02 -35 138 C-35.99 138 -36.98 138 -38 138 Z M-33 138 C-33 138.99 -33 139.98 -33 141 C-32.01 141 -31.02 141 -30 141 C-30 140.01 -30 139.02 -30 138 C-30.99 138 -31.98 138 -33 138 Z M-28 138 C-28 138.99 -28 139.98 -28 141 C-27.01 141 -26.02 141 -25 141 C-25 140.01 -25 139.02 -25 138 C-25.99 138 -26.98 138 -28 138 Z M-23 138 C-23 138.99 -23 139.98 -23 141 C-22.01 141 -21.02 141 -20 141 C-20 140.01 -20 139.02 -20 138 C-20.99 138 -21.98 138 -23 138 Z M-18 138 C-18 138.99 -18 139.98 -18 141 C-17.01 141 -16.02 141 -15 141 C-15 140.01 -15 139.02 -15 138 C-15.99 138 -16.98 138 -18 138 Z M-75 139 C-75 140.98 -75 142.96 -75 145 C-73.68 145 -72.36 145 -71 145 C-71 143.02 -71 141.04 -71 139 C-72.32 139 -73.64 139 -75 139 Z M-69 140 C-69 141.65 -69 143.3 -69 145 C-67.68 145 -66.36 145 -65 145 C-65.33 143.35 -65.66 141.7 -66 140 C-66.99 140 -67.98 140 -69 140 Z M-63 141 C-63 142.32 -63 143.64 -63 145 C-61.68 145 -60.36 145 -59 145 C-59 144.01 -59 143.02 -59 142 C-60.32 141.67 -61.64 141.34 -63 141 Z M167 141 C167 142.98 167 144.96 167 147 C167.66 147 168.32 147 169 147 C169 145.02 169 143.04 169 141 C168.34 141 167.68 141 167 141 Z M-57 143 C-57 143.66 -57 144.32 -57 145 C-55.68 145 -54.36 145 -53 145 C-53 144.34 -53 143.68 -53 143 C-54.32 143 -55.64 143 -57 143 Z M0 173 C-0.33 173.66 -0.66 174.32 -1 175 C1.31 175 3.62 175 6 175 C6 174.34 6 173.68 6 173 C4.02 173 2.04 173 0 173 Z M17 173 C17 173.66 17 174.32 17 175 C19.31 175 21.62 175 24 175 C24 174.34 24 173.68 24 173 C21.69 173 19.38 173 17 173 Z M25 173 C25 173.66 25 174.32 25 175 C57.01 175 89.02 175 122 175 C122 174.34 122 173.68 122 173 C89.99 173 57.98 173 25 173 Z " fill="#89531D" transform="translate(228,39)"/>
<path d="M0 0 C32.34 0 64.68 0 98 0 C98 0.66 98 1.32 98 2 C97.34 2 96.68 2 96 2 C96 6.62 96 11.24 96 16 C98.0728125 16.12375 98.0728125 16.12375 100.1875 16.25 C106.22077336 16.78840235 112.1183831 17.86759501 118.0625 19 C119.00311279 19.17821289 119.94372559 19.35642578 120.9128418 19.54003906 C127.7353962 20.8676981 127.7353962 20.8676981 130 22 C130 21.34 130 20.68 130 20 C132.97 20 135.94 20 139 20 C139 20.99 139 21.98 139 23 C158.14 23 177.28 23 197 23 C197 23.99 197 24.98 197 26 C195.02 26 193.04 26 191 26 C191 26.66 191 27.32 191 28 C192.65 28 194.3 28 196 28 C196 28.99 196 29.98 196 31 C194.35 31 192.7 31 191 31 C191 31.66 191 32.32 191 33 C192.32 33 193.64 33 195 33 C195 33.99 195 34.98 195 36 C193.68 36 192.36 36 191 36 C191 36.66 191 37.32 191 38 C191.99 38 192.98 38 194 38 C194 38.99 194 39.98 194 41 C193.01 41 192.02 41 191 41 C191 41.66 191 42.32 191 43 C191.66 43 192.32 43 193 43 C193 43.99 193 44.98 193 46 C192.34 46 191.68 46 191 46 C191.144375 46.70125 191.28875 47.4025 191.4375 48.125 C191.81893097 50.07453609 192.15083442 52.03429316 192.4375 54 C192.99247179 56.95984956 193.59409242 59.33617512 195 62 C196.32 62.66 197.64 63.32 199 64 C100 64 1 64 -101 64 C-99.68 63.34 -98.36 62.68 -97 62 C-95.76049958 59.90861544 -95.76049958 59.90861544 -94.8125 57.4375 C-86.26428615 39.48883346 -65.16444804 32.23867689 -47.68359375 25.7734375 C-45 25 -45 25 -41 25 C-41 23.35 -41 21.7 -41 20 C-38.03 20 -35.06 20 -32 20 C-32 20.66 -32 21.32 -32 22 C-31.41476563 21.81824219 -30.82953125 21.63648437 -30.2265625 21.44921875 C-24.08268373 19.65033533 -17.93116059 18.36949487 -11.625 17.3125 C-10.85236816 17.18125732 -10.07973633 17.05001465 -9.28369141 16.91479492 C-5.39047339 16.28342794 -1.99934178 16 2 16 C2 11.38 2 6.76 2 2 C1.34 2 0.68 2 0 2 C0 1.34 0 0.68 0 0 Z " fill="#AC7A45" transform="translate(228,39)"/>
<path d="M0 0 C21.12 0 42.24 0 64 0 C64.020625 6.868125 64.04125 13.73625 64.0625 20.8125 C64.071604 22.9778833 64.08070801 25.1432666 64.09008789 27.37426758 C64.09300833 29.08935484 64.09555659 30.80444279 64.09765625 32.51953125 C64.10277222 33.41103882 64.10788818 34.30254639 64.11315918 35.22106934 C64.11334045 36.49959778 64.11334045 36.49959778 64.11352539 37.80395508 C64.115746 38.54341873 64.11796661 39.28288239 64.12025452 40.04475403 C64 42 64 42 63 45 C62.8535286 46.55266653 62.75305926 48.10995662 62.68359375 49.66796875 C62.64548584 50.47258545 62.60737793 51.27720215 62.56811523 52.10620117 C62.52501221 53.12302979 62.48190918 54.1398584 62.4375 55.1875 C62.293125 58.425625 62.14875 61.66375 62 65 C69.59 65 77.18 65 85 65 C85 65.66 85 66.32 85 67 C84.34 67 83.68 67 83 67 C83 67.99 83 68.98 83 70 C82.34 70 81.68 70 81 70 C81 69.01 81 68.02 81 67 C80.01 67 79.02 67 78 67 C78.33 67.99 78.66 68.98 79 70 C80.06927734 70.12955078 80.06927734 70.12955078 81.16015625 70.26171875 C88.45063437 71.33125053 93.45145933 72.9103418 98.42651367 78.64404297 C100.46434321 80.40014929 101.51674413 80.33788461 104.17578125 80.2578125 C104.99788086 80.24298828 105.81998047 80.22816406 106.66699219 80.21289062 C107.97651855 80.16938477 107.97651855 80.16938477 109.3125 80.125 C111.11581724 80.09234304 112.91921193 80.06372277 114.72265625 80.0390625 C115.61355957 80.02649414 116.50446289 80.01392578 117.42236328 80.00097656 C122.9681284 79.9988755 128.48050119 80.48825839 134 81 C134.33 82.65 134.66 84.3 135 86 C132.525 86.495 132.525 86.495 130 87 C130 87.66 130 88.32 130 89 C130.94875 88.95875 131.8975 88.9175 132.875 88.875 C136 89 136 89 138 91 C137.67 91.66 137.34 92.32 137 93 C137.99 93 138.98 93 140 93 C140 91.02 140 89.04 140 87 C140.33 87.66 140.66 88.32 141 89 C142.32 89 143.64 89 145 89 C145 87.68 145 86.36 145 85 C147.31 85 149.62 85 152 85 C152 86.32 152 87.64 152 89 C153.32 89 154.64 89 156 89 C156 87.68 156 86.36 156 85 C158.31 85 160.62 85 163 85 C163 86.32 163 87.64 163 89 C164.32 89 165.64 89 167 89 C167 87.68 167 86.36 167 85 C169.31 85 171.62 85 174 85 C174 86.32 174 87.64 174 89 C175.32 89 176.64 89 178 89 C178 87.68 178 86.36 178 85 C180.31 85 182.62 85 185 85 C185 86.32 185 87.64 185 89 C186.32 89 187.64 89 189 89 C189 87.68 189 86.36 189 85 C191.31 85 193.62 85 196 85 C196 86.32 196 87.64 196 89 C197.32 89 198.64 89 200 89 C200 87.68 200 86.36 200 85 C202.31 85 204.62 85 207 85 C207 86.32 207 87.64 207 89 C208.32 89 209.64 89 211 89 C211 87.68 211 86.36 211 85 C213.31 85 215.62 85 218 85 C218 84.34 218 83.68 218 83 C193.91 83 169.82 83 145 83 C151 76 151 76 153.39193726 75.15821838 C154.54443466 75.18153481 154.54443466 75.18153481 155.72021484 75.20532227 C157.04090469 75.20611534 157.04090469 75.20611534 158.38827515 75.20692444 C159.78549301 75.26111794 159.78549301 75.26111794 161.2109375 75.31640625 C162.17907379 75.32631088 163.14721008 75.33621552 164.14468384 75.34642029 C167.22302693 75.38546395 170.29774344 75.47326581 173.375 75.5625 C175.46739625 75.59762687 177.55984865 75.62956347 179.65234375 75.65820312 C184.76961674 75.73519332 189.88419456 75.85590619 195 76 C195 72.04 195 68.08 195 64 C198.3 64 201.6 64 205 64 C205 63.01 205 62.02 205 61 C218.86 61 232.72 61 247 61 C247.33 61.66 247.66 62.32 248 63 C250.64 63 253.28 63 256 63 C256 64.32 256 65.64 256 67 C256.99 67 257.98 67 259 67 C258.87431641 65.081875 258.87431641 65.081875 258.74609375 63.125 C258.64284424 61.41668989 258.54000131 59.70835517 258.4375 58 C258.38142578 57.16082031 258.32535156 56.32164062 258.26757812 55.45703125 C257.9584849 50.14062774 258.17757391 45.26352696 259 40 C259.66 40 260.32 40 261 40 C262.30192693 49.11348853 261.6888091 57.86533168 261 67 C262.32 67.33 263.64 67.66 265 68 C265 66.68 265 65.36 265 64 C280.24864583 60.67271873 295.56310016 57.70408885 310.89868164 54.80880737 C313.09038005 54.3947625 315.28178761 53.97917511 317.47290039 53.56204224 C320.59954457 52.96757481 323.72730335 52.37937211 326.85546875 51.79296875 C327.80358932 51.61194611 328.7517099 51.43092346 329.7285614 51.24441528 C330.61244034 51.08021088 331.49631927 50.91600647 332.40698242 50.74682617 C333.17620529 50.60202316 333.94542816 50.45722015 334.73796082 50.30802917 C337.1833529 49.97503224 339.53501941 49.94800709 342 50 C338.88583092 52.51129131 335.69522445 54.23797267 332.08984375 55.9609375 C330.35637695 56.79238281 330.35637695 56.79238281 328.58789062 57.640625 C327.37109862 58.21876025 326.15430172 58.79688521 324.9375 59.375 C323.17116211 60.22191406 323.17116211 60.22191406 321.36914062 61.0859375 C314.28309666 64.47406256 307.16462705 67.78144032 300 71 C300 71.99 300 72.98 300 74 C300.49446121 74.23137161 300.98892242 74.46274323 301.49836731 74.7011261 C306.6442793 77.11058878 311.78587106 79.52908893 316.92504883 81.95288086 C318.84355124 82.85624942 320.76314305 83.75730815 322.68383789 84.65600586 C325.44446867 85.94820083 328.20107468 87.24865275 330.95703125 88.55078125 C331.81649857 88.9508992 332.67596588 89.35101715 333.56147766 89.76325989 C334.36208115 90.14342758 335.16268463 90.52359528 335.98754883 90.9152832 C336.6914827 91.24615433 337.39541656 91.57702545 338.12068176 91.91792297 C340.09662188 93.05563311 341.46920512 94.32156491 343 96 C333.51557867 95.49161394 324.3672104 94.13275999 315.0546875 92.3125 C313.66808757 92.04671448 312.28137658 91.78150777 310.89456177 91.5168457 C308.0180456 90.96641207 305.14246608 90.41141348 302.26757812 89.85253906 C298.58472757 89.13664309 294.90036538 88.42893098 291.2153759 87.72413635 C287.68211551 87.04801242 284.14962297 86.36791825 280.6171875 85.6875 C279.94728664 85.55880524 279.27738579 85.43011047 278.58718491 85.29751587 C276.69685921 84.9336136 274.80715414 84.56649183 272.91748047 84.19921875 C271.84416473 83.99127686 270.770849 83.78333496 269.66500854 83.5690918 C267 83 267 83 264 82 C264 81.34 264 80.68 264 80 C262.35 80 260.7 80 259 80 C259.01571045 80.55985596 259.0314209 81.11971191 259.04760742 81.6965332 C259.10999848 84.2350859 259.14900218 86.77347729 259.1875 89.3125 C259.22520508 90.63411133 259.22520508 90.63411133 259.26367188 91.98242188 C259.27333984 92.82998047 259.28300781 93.67753906 259.29296875 94.55078125 C259.3086792 95.33106689 259.32438965 96.11135254 259.34057617 96.9152832 C259 99 259 99 257.95117188 100.75976562 C254.95428681 102.66469257 251.92245571 102.36824899 248.48828125 102.29296875 C247.76005661 102.28872391 247.03183197 102.28447906 246.28153992 102.28010559 C243.95814873 102.26332733 241.6356285 102.22567855 239.3125 102.1875 C237.73634066 102.17245197 236.16016771 102.15876377 234.58398438 102.14648438 C230.72232123 102.11342685 226.86130822 102.06165194 223 102 C223 102.66 223 103.32 223 104 C233.89 104 244.78 104 256 104 C254 108 254 108 253 109 C248.40915071 109.39891275 243.78949532 109.43421189 239.18359375 109.5546875 C238.42158598 109.57562344 237.65957821 109.59655937 236.87447929 109.61812973 C209.89533389 110.33321829 182.89281722 110.15000503 155.90626276 110.12856936 C149.77838707 110.12421434 143.65053186 110.12734039 137.52265745 110.1321975 C131.52856957 110.13675379 125.53449045 110.13736861 119.5404014 110.13475883 C115.99532903 110.13321716 112.45027048 110.13294442 108.90519905 110.13629532 C104.97462968 110.13975608 101.04409282 110.13494325 97.11352539 110.12939453 C95.97317337 110.13141876 94.83282135 110.13344299 93.65791321 110.13552856 C88.05374051 110.12096281 82.46402664 109.98785597 76.86790466 109.67941284 C75.81447593 109.62257261 74.76104719 109.56573238 73.67569637 109.50716972 C70.73905077 108.9505379 69.72335277 108.40657813 68 106 C68 105.34 68 104.68 68 104 C68.66 103.67 69.32 103.34 70 103 C69.48050781 102.76925781 68.96101563 102.53851563 68.42578125 102.30078125 C67.72839844 101.97464844 67.03101563 101.64851563 66.3125 101.3125 C65.62800781 100.99925781 64.94351563 100.68601562 64.23828125 100.36328125 C62 99 62 99 59.7734375 96.45898438 C56.39719168 93.46553826 54.83457604 93.3538983 50.38671875 93.29296875 C49.13955078 93.26396484 47.89238281 93.23496094 46.60742188 93.20507812 C45.31384766 93.19927734 44.02027344 93.19347656 42.6875 93.1875 C41.37458984 93.16236328 40.06167969 93.13722656 38.70898438 93.11132812 C35.47235511 93.05248032 32.23707782 93.01618063 29 93 C29 91.35 29 89.7 29 88 C27.35 87.67 25.7 87.34 24 87 C24 84.69 24 82.38 24 80 C20.7 79.67 17.4 79.34 14 79 C14 77.35 14 75.7 14 74 C15.65 74 17.3 74 19 74 C19 71.69 19 69.38 19 67 C17.79085937 66.896875 16.58171875 66.79375 15.3359375 66.6875 C8.98433402 65.98093698 2.83484109 64.47422879 -3.375 63 C-4.54933594 62.72671875 -5.72367188 62.4534375 -6.93359375 62.171875 C-15.51170367 60.16276544 -15.51170367 60.16276544 -19 59 C-19 58.01 -19 57.02 -19 56 C-17.56208484 56.14168137 -16.1246763 56.28851043 -14.6875 56.4375 C-13.88699219 56.51871094 -13.08648437 56.59992188 -12.26171875 56.68359375 C-10 57 -10 57 -7 58 C-7 53.05 -7 48.1 -7 43 C-6.67 43 -6.34 43 -6 43 C-5.67 47.62 -5.34 52.24 -5 57 C6.10164023 59.9666568 17.33294886 62.02864188 28.625 64.125 C31.52001977 64.66321683 34.41481235 65.20252401 37.30892944 65.74557495 C39.09796245 66.08123987 40.88751945 66.41412657 42.67764282 66.743927 C48.77482292 67.88741146 48.77482292 67.88741146 51 69 C51 68.34 51 67.68 51 67 C50.34 67 49.68 67 49 67 C49 66.34 49 65.68 49 65 C51.64 65 54.28 65 57 65 C56.85929844 61.83308393 56.71148731 58.66653622 56.5625 55.5 C56.52318359 54.613125 56.48386719 53.72625 56.44335938 52.8125 C56.18915913 47.49384873 55.73323663 42.2743744 55 37 C54.04480469 36.90976563 53.08960938 36.81953125 52.10546875 36.7265625 C47.22822164 36.02333722 42.85387428 34.22891272 38.3125 32.375 C37.42836426 32.015271 36.54422852 31.65554199 35.63330078 31.28491211 C22.00796012 25.6216072 8.4761177 18.00940008 0.75 4.875 C0 3 0 3 0 0 Z M59 42 C58.03911617 44.88265149 57.88329059 46.67662271 57.90234375 49.66796875 C57.90556641 50.56064453 57.90878906 51.45332031 57.91210938 52.37304688 C57.92048828 53.30181641 57.92886719 54.23058594 57.9375 55.1875 C57.94201172 56.12787109 57.94652344 57.06824219 57.95117188 58.03710938 C57.96295374 60.35813712 57.97940442 62.67903644 58 65 C58.99 65 59.98 65 61 65 C61.0580476 61.72924117 61.09361165 58.45861476 61.125 55.1875 C61.14175781 54.25873047 61.15851563 53.32996094 61.17578125 52.37304688 C61.18222656 51.48037109 61.18867188 50.58769531 61.1953125 49.66796875 C61.20578613 48.84578857 61.21625977 48.0236084 61.22705078 47.17651367 C61.13996135 44.70578408 61.13996135 44.70578408 59 42 Z M53 67 C53 67.99 53 68.98 53 70 C53.99 70 54.98 70 56 70 C56 69.01 56 68.02 56 67 C55.01 67 54.02 67 53 67 Z M58 67 C58 67.99 58 68.98 58 70 C58.99 70 59.98 70 61 70 C61 69.01 61 68.02 61 67 C60.01 67 59.02 67 58 67 Z M63 67 C63 67.99 63 68.98 63 70 C63.99 70 64.98 70 66 70 C66 69.01 66 68.02 66 67 C65.01 67 64.02 67 63 67 Z M68 67 C68 67.99 68 68.98 68 70 C68.99 70 69.98 70 71 70 C71 69.01 71 68.02 71 67 C70.01 67 69.02 67 68 67 Z M73 67 C73 67.99 73 68.98 73 70 C73.99 70 74.98 70 76 70 C76 69.01 76 68.02 76 67 C75.01 67 74.02 67 73 67 Z M21 68 C21 69.98 21 71.96 21 74 C22.32 74 23.64 74 25 74 C25 72.02 25 70.04 25 68 C23.68 68 22.36 68 21 68 Z M27 69 C27 70.65 27 72.3 27 74 C28.32 74 29.64 74 31 74 C30.67 72.35 30.34 70.7 30 69 C29.01 69 28.02 69 27 69 Z M33 70 C33 71.32 33 72.64 33 74 C34.32 74 35.64 74 37 74 C37 73.01 37 72.02 37 71 C35.68 70.67 34.36 70.34 33 70 Z M263 70 C263 71.98 263 73.96 263 76 C263.66 76 264.32 76 265 76 C265 74.02 265 72.04 265 70 C264.34 70 263.68 70 263 70 Z M39 72 C39 72.66 39 73.32 39 74 C40.32 74 41.64 74 43 74 C43 73.34 43 72.68 43 72 C41.68 72 40.36 72 39 72 Z M96 102 C95.67 102.66 95.34 103.32 95 104 C97.31 104 99.62 104 102 104 C102 103.34 102 102.68 102 102 C100.02 102 98.04 102 96 102 Z M113 102 C113 102.66 113 103.32 113 104 C115.31 104 117.62 104 120 104 C120 103.34 120 102.68 120 102 C117.69 102 115.38 102 113 102 Z M121 102 C121 102.66 121 103.32 121 104 C153.01 104 185.02 104 218 104 C218 103.34 218 102.68 218 102 C185.99 102 153.98 102 121 102 Z " fill="#955A1D" transform="translate(132,110)"/>
<path d="M0 0 C0 16.5 0 33 0 50 C-8.60404487 50.17681707 -17.20802415 50.3465085 -25.8125 50.5 C-26.81051006 50.51781588 -26.81051006 50.51781588 -27.82868195 50.53599167 C-54.34421093 51.00374603 -80.85576951 51.08683794 -107.375 51.0625 C-108.3144257 51.06164398 -109.25385139 51.06078796 -110.22174454 51.05990601 C-121.81451623 51.0485541 -133.40725803 51.02853506 -145 51 C-144.36408936 50.71261963 -143.72817871 50.42523926 -143.07299805 50.12915039 C-140.35236271 48.6472356 -139.97155429 47.27518464 -138.8125 44.4375 C-130.26428615 26.48883346 -109.16444804 19.23867689 -91.68359375 12.7734375 C-89 12 -89 12 -85 12 C-85 10.35 -85 8.7 -85 7 C-82.03 7 -79.06 7 -76 7 C-76 7.66 -76 8.32 -76 9 C-75.34660645 8.80736572 -74.69321289 8.61473145 -74.02001953 8.41625977 C-67.02083492 6.42117665 -60.06879386 5.01690018 -52.875 3.9375 C-51.75770508 3.76831055 -50.64041016 3.59912109 -49.48925781 3.42480469 C-41.59498017 2.27553958 -33.70065118 1.39844873 -25.75 0.75 C-24.28989502 0.62999634 -24.28989502 0.62999634 -22.80029297 0.50756836 C-15.14637818 -0.05268003 -7.72824594 0 0 0 Z " fill="#AD7A45" transform="translate(272,52)"/>
<path d="M0 0 C25.08 0 50.16 0 76 0 C76 16.5 76 33 76 50 C58.01741261 50 58.01741261 50 49.4375 49.3125 C48.40391357 49.23 47.37032715 49.1475 46.30541992 49.0625 C37.4060852 48.27185799 28.62005518 46.97009851 19.8125 45.5 C18.52980225 45.28641846 17.24710449 45.07283691 15.92553711 44.8527832 C10.36449287 43.88837373 5.38732796 42.79577599 0 41 C0 27.47 0 13.94 0 0 Z " fill="#88643F" transform="translate(196,110)"/>
<path d="M0 0 C25.08 0 50.16 0 76 0 C76 13.53 76 27.06 76 41 C69.41238027 43.19587324 63.01936152 44.36242919 56.1875 45.5 C55.52748993 45.61016449 54.86747986 45.72032898 54.18746948 45.83383179 C45.00576058 47.35173599 35.84459031 48.57161135 26.5625 49.3125 C25.61334717 49.38855469 24.66419434 49.46460938 23.6862793 49.54296875 C15.74816938 50.09523312 8.0075792 50 0 50 C0 33.5 0 17 0 0 Z " fill="#87633F" transform="translate(282,110)"/>
<path d="M0 0 C0.66 0 1.32 0 2 0 C3.30192693 9.11348853 2.6888091 17.86533168 2 27 C3.98 27.495 3.98 27.495 6 28 C6 28.66 6 29.32 6 30 C3.69 29.67 1.38 29.34 -1 29 C-1 36.92 -1 44.84 -1 53 C-12.55 53 -24.1 53 -36 53 C-36 49.37 -36 45.74 -36 42 C-37.65 42.33 -39.3 42.66 -41 43 C-43.42168952 43.08634765 -45.84557401 43.11771058 -48.26879883 43.11352539 C-48.98153961 43.11367142 -49.6942804 43.11381744 -50.42861938 43.1139679 C-52.7714549 43.11327432 -55.11420972 43.105508 -57.45703125 43.09765625 C-59.08656267 43.0957901 -60.71609465 43.09436713 -62.34562683 43.09336853 C-66.62488364 43.08955888 -70.90410626 43.07974188 -75.18334961 43.06866455 C-79.55386899 43.05841702 -83.92439393 43.05386376 -88.29492188 43.04882812 C-96.8632969 43.03811818 -105.43164419 43.02106045 -114 43 C-111.83260422 39.5740302 -109.79702145 36.50099713 -105.75567627 35.3742981 C-103.07585852 35.19140458 -100.47316851 35.21229858 -97.7890625 35.31640625 C-96.33685806 35.3312632 -96.33685806 35.3312632 -94.85531616 35.34642029 C-91.77697307 35.38546395 -88.70225656 35.47326581 -85.625 35.5625 C-83.53260375 35.59762687 -81.44015135 35.62956347 -79.34765625 35.65820312 C-74.23038326 35.73519332 -69.11580544 35.85590619 -64 36 C-64 32.04 -64 28.08 -64 24 C-60.7 24 -57.4 24 -54 24 C-54 23.01 -54 22.02 -54 21 C-40.14 21 -26.28 21 -12 21 C-11.505 21.99 -11.505 21.99 -11 23 C-8.36 23 -5.72 23 -3 23 C-3 24.32 -3 25.64 -3 27 C-2.01 27 -1.02 27 0 27 C-0.08378906 25.72125 -0.16757812 24.4425 -0.25390625 23.125 C-0.35715576 21.41668989 -0.45999869 19.70835517 -0.5625 18 C-0.64661133 16.74123047 -0.64661133 16.74123047 -0.73242188 15.45703125 C-1.0415151 10.14062774 -0.82242609 5.26352696 0 0 Z " fill="#8A643B" transform="translate(391,150)"/>
<path d="M0 0 C32.34 0 64.68 0 98 0 C98 0.66 98 1.32 98 2 C97.34 2 96.68 2 96 2 C96 6.62 96 11.24 96 16 C81.81 15.01 67.62 14.02 53 13 C53.33 29.5 53.66 46 54 63 C50.7 63 47.4 63 44 63 C44 46.5 44 30 44 13 C23.21 14.485 23.21 14.485 2 16 C2 11.38 2 6.76 2 2 C1.34 2 0.68 2 0 2 C0 1.34 0 0.68 0 0 Z " fill="#995B1D" transform="translate(228,39)"/>
<path d="M0 0 C0.95708359 0.00222061 1.91416718 0.00444122 2.9002533 0.00672913 C3.98129837 0.00680466 5.06234344 0.00688019 6.17614746 0.00695801 C7.94018166 0.01469994 7.94018166 0.01469994 9.73985291 0.02259827 C10.93702438 0.02401321 12.13419586 0.02542816 13.36764526 0.02688599 C17.20918732 0.03250472 21.05067208 0.04506041 24.89219666 0.05775452 C27.48920102 0.0627671 30.0862063 0.06733043 32.68321228 0.07142639 C39.06539344 0.08248024 45.44754096 0.0992366 51.82969666 0.12025452 C50.4065432 8.3413837 45.05753669 13.85130414 38.82969666 19.12025452 C28.48407433 26.351497 17.17632916 31.64437063 5.26719666 35.74525452 C4.15151306 36.13584045 4.15151306 36.13584045 3.01329041 36.53431702 C0.82969666 37.12025452 0.82969666 37.12025452 -3.17030334 37.12025452 C-3.19495345 32.01161556 -3.21313942 26.90301093 -3.22523499 21.79432678 C-3.23027539 20.05506284 -3.23710765 18.31580316 -3.2457428 16.57655334 C-3.25782126 14.08199515 -3.26353443 11.58749278 -3.26795959 9.09291077 C-3.27312088 8.310616 -3.27828217 7.52832123 -3.28359985 6.72232056 C-3.2837956 4.85458337 -3.23230029 2.98696248 -3.17030334 1.12025452 C-2.17030334 0.12025452 -2.17030334 0.12025452 0 0 Z " fill="#87633E" transform="translate(370.17030334472656,109.87974548339844)"/>
<path d="M0 0 C18.15 0 36.3 0 55 0 C55 12.21 55 24.42 55 37 C47.10755207 35.87250744 47.10755207 35.87250744 43.36328125 34.3984375 C42.13520752 33.91612671 42.13520752 33.91612671 40.88232422 33.42407227 C40.03428223 33.07787842 39.18624023 32.73168457 38.3125 32.375 C37.42836426 32.015271 36.54422852 31.65554199 35.63330078 31.28491211 C22.00796012 25.6216072 8.4761177 18.00940008 0.75 4.875 C0 3 0 3 0 0 Z " fill="#89643E" transform="translate(132,110)"/>
<path d="M0 0 C2.97 0 5.94 0 9 0 C9 0.99 9 1.98 9 3 C28.14 3 47.28 3 67 3 C67 3.99 67 4.98 67 6 C65.02 6 63.04 6 61 6 C61 6.66 61 7.32 61 8 C62.65 8 64.3 8 66 8 C66 8.99 66 9.98 66 11 C64.35 11 62.7 11 61 11 C61 11.66 61 12.32 61 13 C62.32 13 63.64 13 65 13 C65 13.99 65 14.98 65 16 C63.68 16 62.36 16 61 16 C61 16.66 61 17.32 61 18 C61.99 18 62.98 18 64 18 C64 18.99 64 19.98 64 21 C63.01 21 62.02 21 61 21 C61 21.66 61 22.32 61 23 C61.66 23 62.32 23 63 23 C63 23.99 63 24.98 63 26 C62.34 26 61.68 26 61 26 C61.20625 26.78375 61.4125 27.5675 61.625 28.375 C61.74875 29.24125 61.8725 30.1075 62 31 C61.34 31.66 60.68 32.32 60 33 C59.50113281 32.443125 59.00226563 31.88625 58.48828125 31.3125 C45.16523996 17.15228377 27.26563547 10.47969064 9 5 C9 17.54 9 30.08 9 43 C6.03 43 3.06 43 0 43 C0 28.81 0 14.62 0 0 Z " fill="#A76421" transform="translate(358,59)"/>
<path d="M0 0 C25.74 0 51.48 0 78 0 C72 7 72 7 67 12 C90.76 12.33 114.52 12.66 139 13 C139 13.66 139 14.32 139 15 C136.69 15 134.38 15 132 15 C132 16.32 132 17.64 132 19 C130.68 19 129.36 19 128 19 C128 17.68 128 16.36 128 15 C125.69 15 123.38 15 121 15 C121 16.32 121 17.64 121 19 C119.68 19 118.36 19 117 19 C117 17.68 117 16.36 117 15 C114.69 15 112.38 15 110 15 C110 16.32 110 17.64 110 19 C108.68 19 107.36 19 106 19 C106 17.68 106 16.36 106 15 C103.69 15 101.38 15 99 15 C99 16.32 99 17.64 99 19 C97.68 19 96.36 19 95 19 C95 17.68 95 16.36 95 15 C92.69 15 90.38 15 88 15 C88 16.32 88 17.64 88 19 C86.68 19 85.36 19 84 19 C84 17.68 84 16.36 84 15 C81.69 15 79.38 15 77 15 C77 16.32 77 17.64 77 19 C75.68 19 74.36 19 73 19 C73 17.68 73 16.36 73 15 C70.69 15 68.38 15 66 15 C66 16.32 66 17.64 66 19 C64.68 19 63.36 19 62 19 C61.67 20.32 61.34 21.64 61 23 C60.01 23 59.02 23 58 23 C57.505 21.515 57.505 21.515 57 20 C55.02 19.67 53.04 19.34 51 19 C51 18.34 51 17.68 51 17 C52.32 16.67 53.64 16.34 55 16 C55 14.68 55 13.36 55 12 C43.78 11.34 32.56 10.68 21 10 C20.67 10.66 20.34 11.32 20 12 C19.505 11.0925 19.01 10.185 18.5 9.25 C15.43906697 4.69093425 11.00531521 2.60821856 5.703125 1.53515625 C3.80952787 1.290063 1.90454044 1.1360386 0 1 C0 0.67 0 0.34 0 0 Z " fill="#6E4215" transform="translate(211,180)"/>
<path d="M0 0 C28.14435067 -3.5438696 48.84760575 4.89465236 73 19 C73.99 19.99 73.99 19.99 75 21 C66.25868236 20.42380177 57.77218577 18.97096639 49.1796875 17.3125 C47.78539563 17.04693282 46.39103599 16.78172118 44.99661255 16.5168457 C42.09995434 15.96542402 39.20402245 15.41037978 36.30859375 14.85253906 C32.5918418 14.13667759 28.87356023 13.4291515 25.15473747 12.72413635 C22.28726244 12.17975982 19.42052918 11.63156003 16.55401993 11.0821228 C15.1818402 10.81949554 13.80945185 10.55795594 12.43685532 10.29751587 C10.53122762 9.9352459 8.62666662 9.56737811 6.72216797 9.19921875 C5.09648392 8.88730591 5.09648392 8.88730591 3.43795776 8.5690918 C1 8 1 8 0 7 C-0.04092937 4.66702567 -0.04241723 2.33294775 0 0 Z " fill="#A66421" transform="translate(399,184)"/>
<path d="M0 0 C-3.11416908 2.51129131 -6.30477555 4.23797267 -9.91015625 5.9609375 C-11.06580078 6.51523438 -12.22144531 7.06953125 -13.41210938 7.640625 C-14.62890138 8.21876025 -15.84569828 8.79688521 -17.0625 9.375 C-18.24005859 9.93960938 -19.41761719 10.50421875 -20.63085938 11.0859375 C-22.97907335 12.20871386 -25.33303524 13.31954889 -27.69262695 14.41821289 C-29.73054393 15.39286884 -31.74677343 16.4166619 -33.71948242 17.51733398 C-41.99370147 21.93855873 -50.08446224 21.57326154 -59.1875 21.3125 C-60.72717692 21.28736043 -62.26689384 21.26455734 -63.80664062 21.24414062 C-67.53860657 21.18965132 -71.26903866 21.10369986 -75 21 C-75 18.69 -75 16.38 -75 14 C-70.8667249 12.53959023 -66.82949662 11.48225515 -62.52319336 10.67138672 C-61.25845688 10.43128876 -59.9937204 10.1911908 -58.69065857 9.94381714 C-57.32376215 9.68888276 -55.95682281 9.43417841 -54.58984375 9.1796875 C-53.17545675 8.91374092 -51.7611152 8.64755253 -50.34681702 8.38113403 C-47.39114579 7.82537836 -44.43492079 7.27269563 -41.47827148 6.72216797 C-37.69552126 6.01754302 -33.91430663 5.30503336 -30.1334753 4.59019279 C-27.21639788 4.03960485 -24.29852742 3.49331881 -21.38040352 2.94830704 C-19.98594485 2.68731295 -18.59173877 2.42496548 -17.19779778 2.16122055 C-15.24849164 1.79304051 -13.29797309 1.43129729 -11.34741211 1.06982422 C-10.23965927 0.86267792 -9.13190643 0.65553162 -7.99058533 0.44210815 C-5.26942024 0.03982929 -2.74435777 -0.08724382 0 0 Z " fill="#A66421" transform="translate(474,160)"/>
<path d="M0 0 C0.33 0.99 0.66 1.98 1 3 C2.02770508 2.9371582 3.05541016 2.87431641 4.11425781 2.80957031 C7.98208707 2.58991243 11.84938891 2.45378095 15.72167969 2.34082031 C17.386689 2.28101117 19.05108266 2.1995156 20.71386719 2.09472656 C35.2717886 1.20128012 35.2717886 1.20128012 40.84960938 5.72460938 C43.88492115 8.5818478 46.48758182 11.67881531 49 15 C49.66 13.68 50.32 12.36 51 11 C51.12117188 11.73605469 51.24234375 12.47210938 51.3671875 13.23046875 C51.61855469 14.69419922 51.61855469 14.69419922 51.875 16.1875 C52.11863281 17.63189453 52.11863281 17.63189453 52.3671875 19.10546875 C52.98039517 21.91032604 53.85666343 24.37224747 55 27 C52.375 26.875 52.375 26.875 49 26 C48.236875 25.01 47.47375 24.02 46.6875 23 C43.51338844 19.68758292 40.78978814 19.46910004 36.2890625 19.1953125 C33.73481601 19.14237475 31.17978987 19.11987505 28.625 19.125 C27.31660156 19.104375 26.00820312 19.08375 24.66015625 19.0625 C21.43946692 19.01548264 18.2209618 18.99555204 15 19 C15 17.35 15 15.7 15 14 C13.35 13.67 11.7 13.34 10 13 C10 10.69 10 8.38 10 6 C6.7 5.67 3.4 5.34 0 5 C0 3.35 0 1.7 0 0 Z " fill="#8C541B" transform="translate(146,184)"/>
<path d="M0 0 C3.3 0 6.6 0 10 0 C10.04936892 7.20824173 10.08570492 14.41638546 10.10986328 21.62475586 C10.11993245 24.07789829 10.13358861 26.53102869 10.15087891 28.98413086 C10.17508679 32.50637783 10.18647388 36.02846639 10.1953125 39.55078125 C10.20563507 40.65086014 10.21595764 41.75093903 10.22659302 42.88435364 C10.22674408 43.90518539 10.22689514 44.92601715 10.22705078 45.9777832 C10.231492 46.87713089 10.23593323 47.77647858 10.24050903 48.70307922 C10 51 10 51 8 54 C7.69933846 56.75417318 7.49074701 59.42645147 7.375 62.1875 C7.33632813 62.93708984 7.29765625 63.68667969 7.2578125 64.45898438 C7.16371784 66.30559199 7.08077681 68.1527619 7 70 C6.67 70 6.34 70 6 70 C5.67 64.72 5.34 59.44 5 54 C4.67 54 4.34 54 4 54 C3.67 59.28 3.34 64.56 3 70 C2.67 70 2.34 70 2 70 C1.93941406 68.87980469 1.87882812 67.75960937 1.81640625 66.60546875 C1.73198576 65.13280016 1.64733851 63.66014456 1.5625 62.1875 C1.52318359 61.44951172 1.48386719 60.71152344 1.44335938 59.95117188 C1.25618965 56.76928658 1.01279207 54.03837622 0 51 C-0.08754798 49.32779029 -0.11765995 47.65227801 -0.11352539 45.9777832 C-0.11344986 44.95695145 -0.11337433 43.93611969 -0.11329651 42.88435364 C-0.10813522 41.78427475 -0.10297394 40.68419586 -0.09765625 39.55078125 C-0.0962413 38.4230278 -0.09482635 37.29527435 -0.09336853 36.13334656 C-0.0877647 32.52637088 -0.07521153 28.91945696 -0.0625 25.3125 C-0.05748549 22.86914152 -0.0529225 20.42578207 -0.04882812 17.98242188 C-0.03779403 11.98825741 -0.02052679 5.99413918 0 0 Z " fill="#95591C" transform="translate(272,110)"/>
<path d="M0 0 C14.85 0 29.7 0 45 0 C45 0.66 45 1.32 45 2 C46.65 2 48.3 2 50 2 C50 2.99 50 3.98 50 5 C48.35 5 46.7 5 45 5 C45 5.66 45 6.32 45 7 C46.32 7 47.64 7 49 7 C49 7.99 49 8.98 49 10 C47.68 10 46.36 10 45 10 C45 10.66 45 11.32 45 12 C45.99 12 46.98 12 48 12 C48 12.99 48 13.98 48 15 C47.01 15 46.02 15 45 15 C45 15.66 45 16.32 45 17 C45.66 17 46.32 17 47 17 C47 17.99 47 18.98 47 20 C46.34 20 45.68 20 45 20 C45.20625 20.78375 45.4125 21.5675 45.625 22.375 C45.74875 23.24125 45.8725 24.1075 46 25 C45.34 25.66 44.68 26.32 44 27 C43.50113281 26.443125 43.00226563 25.88625 42.48828125 25.3125 C31.85224714 14.00813341 19.05868288 8.39979261 4.87841797 2.83447266 C3 2 3 2 0 0 Z " fill="#8A521A" transform="translate(374,65)"/>
<path d="M0 0 C0.66 0 1.32 0 2 0 C3.30192693 9.11348853 2.6888091 17.86533168 2 27 C3.32 27.33 4.64 27.66 6 28 C6 28.66 6 29.32 6 30 C3.69 29.67 1.38 29.34 -1 29 C-1 36.92 -1 44.84 -1 53 C-12.55 53 -24.1 53 -36 53 C-36 49.37 -36 45.74 -36 42 C-27.75 42 -19.5 42 -11 42 C-11 40.02 -11 38.04 -11 36 C-8.36 36 -5.72 36 -3 36 C-3 33.03 -3 30.06 -3 27 C-2.01 27 -1.02 27 0 27 C-0.08378906 25.72125 -0.16757812 24.4425 -0.25390625 23.125 C-0.35715576 21.41668989 -0.45999869 19.70835517 -0.5625 18 C-0.64661133 16.74123047 -0.64661133 16.74123047 -0.73242188 15.45703125 C-1.0415151 10.14062774 -0.82242609 5.26352696 0 0 Z " fill="#A76522" transform="translate(391,150)"/>
<path d="M0 0 C2.31 0 4.62 0 7 0 C7 1.32 7 2.64 7 4 C8.32 4 9.64 4 11 4 C11 2.68 11 1.36 11 0 C13.31 0 15.62 0 18 0 C18 1.32 18 2.64 18 4 C19.32 4 20.64 4 22 4 C22 2.68 22 1.36 22 0 C24.31 0 26.62 0 29 0 C29 1.32 29 2.64 29 4 C30.32 4 31.64 4 33 4 C33 2.68 33 1.36 33 0 C35.31 0 37.62 0 40 0 C40 1.32 40 2.64 40 4 C41.32 4 42.64 4 44 4 C44 2.68 44 1.36 44 0 C46.31 0 48.62 0 51 0 C51 1.32 51 2.64 51 4 C52.32 4 53.64 4 55 4 C55 2.68 55 1.36 55 0 C57.31 0 59.62 0 62 0 C62 1.32 62 2.64 62 4 C63.32 4 64.64 4 66 4 C66 2.68 66 1.36 66 0 C68.31 0 70.62 0 73 0 C73 2.64 73 5.28 73 8 C47.26 8 21.52 8 -5 8 C-5 6.02 -5 4.04 -5 2 C-4.67 2.66 -4.34 3.32 -4 4 C-2.68 4 -1.36 4 0 4 C0 2.68 0 1.36 0 0 Z " fill="#A86522" transform="translate(277,195)"/>
<path d="M0 0 C13.86 0 27.72 0 42 0 C42 3.96 42 7.92 42 12 C28.14 12 14.28 12 0 12 C0 8.04 0 4.08 0 0 Z " fill="#AE7B46" transform="translate(337,171)"/>
<path d="M0 0 C3.19861592 0.00536026 6.39709146 0.00002603 9.59570312 -0.00634766 C20.17802714 -0.00942821 30.66299283 0.11189058 41.20507812 1.13037109 C41.20507812 3.11037109 41.20507812 5.09037109 41.20507812 7.13037109 C16.12507813 7.13037109 -8.95492187 7.13037109 -34.79492188 7.13037109 C-34.79492188 5.15037109 -34.79492188 3.17037109 -34.79492188 1.13037109 C-23.19696095 0.00988147 -11.64123586 -0.02319682 0 0 Z " fill="#965A1D" transform="translate(230.794921875,101.86962890625)"/>
<path d="M0 0 C4.62 0 9.24 0 14 0 C14.495 2.475 14.495 2.475 15 5 C13.35 5.33 11.7 5.66 10 6 C10 6.66 10 7.32 10 8 C10.94875 7.95875 11.8975 7.9175 12.875 7.875 C16 8 16 8 18 10 C17.4375 12.875 17.4375 12.875 16 16 C12.5 17.25 12.5 17.25 9 18 C8.34 18.66 7.68 19.32 7 20 C3.875 20.125 3.875 20.125 1 20 C1 21.32 1 22.64 1 24 C-0.65 24 -2.3 24 -4 24 C-4 24.99 -4 25.98 -4 27 C-19.345 27.495 -19.345 27.495 -35 28 C-34.34 27.67 -33.68 27.34 -33 27 C-33 26.34 -33 25.68 -33 25 C-27.67993436 21.58970152 -23.94457613 21.90355596 -18 23 C-18 21.02 -18 19.04 -18 17 C-12.06 17 -6.12 17 0 17 C0 11.39 0 5.78 0 0 Z M-7 21 C-7 21.66 -7 22.32 -7 23 C-4.69 23 -2.38 23 0 23 C0 22.34 0 21.68 0 21 C-2.31 21 -4.62 21 -7 21 Z " fill="#6B5033" transform="translate(252,191)"/>
<path d="M0 0 C17.16 0.33 34.32 0.66 52 1 C51.01 2.32 50.02 3.64 49 5 C72.76 5.33 96.52 5.66 121 6 C121 6.66 121 7.32 121 8 C118.69 8 116.38 8 114 8 C114 9.32 114 10.64 114 12 C112.68 12 111.36 12 110 12 C110 10.68 110 9.36 110 8 C107.69 8 105.38 8 103 8 C103 9.32 103 10.64 103 12 C101.68 12 100.36 12 99 12 C99 10.68 99 9.36 99 8 C96.69 8 94.38 8 92 8 C92 9.32 92 10.64 92 12 C90.68 12 89.36 12 88 12 C88 10.68 88 9.36 88 8 C85.69 8 83.38 8 81 8 C81 9.32 81 10.64 81 12 C79.68 12 78.36 12 77 12 C77 10.68 77 9.36 77 8 C74.69 8 72.38 8 70 8 C70 9.32 70 10.64 70 12 C68.68 12 67.36 12 66 12 C66 10.68 66 9.36 66 8 C63.69 8 61.38 8 59 8 C59 9.32 59 10.64 59 12 C57.68 12 56.36 12 55 12 C55 10.68 55 9.36 55 8 C52.69 8 50.38 8 48 8 C48 9.32 48 10.64 48 12 C46.68 12 45.36 12 44 12 C43.67 13.32 43.34 14.64 43 16 C42.01 16 41.02 16 40 16 C39.505 14.515 39.505 14.515 39 13 C37.02 12.67 35.04 12.34 33 12 C33 11.34 33 10.68 33 10 C34.32 9.67 35.64 9.34 37 9 C37 7.68 37 6.36 37 5 C25.78 4.34 14.56 3.68 3 3 C2.67 3.66 2.34 4.32 2 5 C1.34 3.35 0.68 1.7 0 0 Z " fill="#7E4B17" transform="translate(229,187)"/>
<path d="M0 0 C2.97 0 5.94 0 9 0 C9.33 17.16 9.66 34.32 10 52 C6.7 52 3.4 52 0 52 C0 34.84 0 17.68 0 0 Z " fill="#A66421" transform="translate(272,50)"/>
<path d="M0 0 C2.97 0 5.94 0 9 0 C9.02469854 5.92651057 9.04285931 11.85299125 9.05493164 17.77954102 C9.05996382 19.79614789 9.06679014 21.8127511 9.07543945 23.8293457 C9.08755373 26.72608339 9.09323943 29.62277288 9.09765625 32.51953125 C9.10281754 33.42274612 9.10797882 34.325961 9.11329651 35.25654602 C9.11337204 36.09719101 9.11344757 36.937836 9.11352539 37.80395508 C9.115746 38.54341873 9.11796661 39.28288239 9.12025452 40.04475403 C9 42 9 42 8 45 C7.77202438 47.73289293 7.58331813 50.45042204 7.4375 53.1875 C7.39431641 53.93708984 7.35113281 54.68667969 7.30664062 55.45898438 C7.20077315 57.30578375 7.0999024 59.15286834 7 61 C6.67 61 6.34 61 6 61 C5.67 55.72 5.34 50.44 5 45 C4.67 45 4.34 45 4 45 C3.67 50.28 3.34 55.56 3 61 C2.67 61 2.34 61 2 61 C1.93941406 59.87980469 1.87882812 58.75960937 1.81640625 57.60546875 C1.73198576 56.13280016 1.64733851 54.66014456 1.5625 53.1875 C1.52318359 52.44951172 1.48386719 51.71152344 1.44335938 50.95117188 C1.25618965 47.76928658 1.01279207 45.03837622 0 42 C-0.08589303 40.60344541 -0.11772715 39.20314223 -0.11352539 37.80395508 C-0.11344986 36.96331009 -0.11337433 36.1226651 -0.11329651 35.25654602 C-0.10813522 34.35333115 -0.10297394 33.45011627 -0.09765625 32.51953125 C-0.0962413 31.59154221 -0.09482635 30.66355316 -0.09336853 29.70744324 C-0.08776937 26.74242942 -0.07521704 23.77749101 -0.0625 20.8125 C-0.05748489 18.80273547 -0.052922 16.79296975 -0.04882812 14.78320312 C-0.03780021 9.85543968 -0.02053617 4.92773263 0 0 Z " fill="#95591C" transform="translate(358,110)"/>
<path d="M0 0 C0.94682648 -0.00014603 1.89365295 -0.00029205 2.86917114 -0.0004425 C5.9911734 0.00025281 9.11311561 0.00802738 12.23510742 0.01586914 C14.40272489 0.01773467 16.57034278 0.01915794 18.73796082 0.02015686 C24.43762378 0.02397137 30.13726118 0.03379258 35.83691406 0.04486084 C41.65518854 0.05509786 47.47346716 0.05965939 53.29174805 0.06469727 C64.70386864 0.07541579 76.11597028 0.09247944 87.52807617 0.11352539 C87.52807617 1.43352539 87.52807617 2.75352539 87.52807617 4.11352539 C53.86807617 4.11352539 20.20807617 4.11352539 -14.47192383 4.11352539 C-14.47192383 3.12352539 -14.47192383 2.13352539 -14.47192383 1.11352539 C-9.65348929 -0.13124554 -4.93837692 -0.01997067 0 0 Z " fill="#965A1D" transform="translate(262.471923828125,213.886474609375)"/>
<path d="M0 0 C1.39232346 0.02331642 1.39232346 0.02331642 2.81277466 0.04710388 C4.40374466 0.04789696 4.40374466 0.04789696 6.02685547 0.04870605 C7.15519806 0.08483505 8.28354065 0.12096405 9.44607544 0.15818787 C10.61397614 0.1680925 11.78187683 0.17799713 12.98516846 0.1882019 C16.70520057 0.22730003 20.42225194 0.31512425 24.14138794 0.40428162 C26.66738691 0.4394009 29.19343226 0.4713388 31.71951294 0.49998474 C37.90281681 0.57704744 44.08438943 0.69409453 50.26638794 0.84178162 C50.26638794 2.82178162 50.26638794 4.80178162 50.26638794 6.84178162 C54.88638794 6.84178162 59.50638794 6.84178162 64.26638794 6.84178162 C64.26638794 7.17178162 64.26638794 7.50178162 64.26638794 7.84178162 C40.17638794 7.84178162 16.08638794 7.84178162 -8.73361206 7.84178162 C-2.73361206 0.84178162 -2.73361206 0.84178162 0 0 Z " fill="#A66421" transform="translate(285.7336120605469,185.15821838378906)"/>
<path d="M0 0 C2.97 0 5.94 0 9 0 C9 14.19 9 28.38 9 43 C6.03 43 3.06 43 0 43 C0 28.81 0 14.62 0 0 Z " fill="#A76421" transform="translate(187,59)"/>
<path d="M0 0 C19.8 0 39.6 0 60 0 C60 1.98 60 3.96 60 6 C40.2 6 20.4 6 0 6 C0 4.02 0 2.04 0 0 Z " fill="#965A1D" transform="translate(127,103)"/>
<path d="M0 0 C0 3.3 0 6.6 0 10 C1.32 10 2.64 10 4 10 C4 6.7 4 3.4 4 0 C8.43909781 1.39514503 10.98024981 3.47695811 14 7 C14.33 8.32 14.66 9.64 15 11 C11.7 11 8.4 11 5 11 C5 12.32 5 13.64 5 15 C8.3 15 11.6 15 15 15 C13.60485497 19.43909781 11.52304189 21.98024981 8 25 C6.68 25.33 5.36 25.66 4 26 C4 22.7 4 19.4 4 16 C2.68 16 1.36 16 0 16 C0 19.3 0 22.6 0 26 C-4.43909781 24.60485497 -6.98024981 22.52304189 -10 19 C-10.33 17.68 -10.66 16.36 -11 15 C-7.7 15 -4.4 15 -1 15 C-1 13.68 -1 12.36 -1 11 C-4.3 11 -7.6 11 -11 11 C-9.60506348 6.56156561 -7.48101799 4.0565036 -4 1 C-1 0 -1 0 0 0 Z " fill="#764716" transform="translate(213,186)"/>
<path d="M0 0 C6.6 0 13.2 0 20 0 C20 5.94 20 11.88 20 18 C13.4 18 6.8 18 0 18 C0.33 16.35 0.66 14.7 1 13 C1.08572295 11.66877295 1.13037892 10.33397337 1.125 9 C1.12757813 8.360625 1.13015625 7.72125 1.1328125 7.0625 C1.01294333 4.48969265 1.01294333 4.48969265 0 0 Z " fill="#AF7D48" transform="translate(232,190)"/>
<path d="M0 0 C1.18722656 0.00193359 2.37445313 0.00386719 3.59765625 0.00585938 C4.83386719 0.01810547 6.07007813 0.03035156 7.34375 0.04296875 C8.57996094 0.04361328 9.81617188 0.04425781 11.08984375 0.04492188 C20.31557849 0.08999875 20.31557849 0.08999875 24.84375 1.23046875 C26.72252624 1.3107362 28.6039115 1.33812747 30.484375 1.328125 C31.55429688 1.32490234 32.62421875 1.32167969 33.7265625 1.31835938 C34.83773437 1.30998047 35.94890625 1.30160156 37.09375 1.29296875 C38.22039062 1.28845703 39.34703125 1.28394531 40.5078125 1.27929688 C43.28651217 1.26752272 46.06510409 1.25107715 48.84375 1.23046875 C48.84375 1.89046875 48.84375 2.55046875 48.84375 3.23046875 C53.29875 4.22046875 53.29875 4.22046875 57.84375 5.23046875 C57.84375 5.56046875 57.84375 5.89046875 57.84375 6.23046875 C49.34204644 6.25367502 40.8403562 6.27142602 32.33862877 6.28228092 C28.3906174 6.28749164 24.44262777 6.29455633 20.49462891 6.3059082 C16.68209241 6.31680154 12.86957677 6.32275923 9.05702591 6.32534599 C7.60503435 6.32718864 6.15304389 6.33078683 4.70106125 6.33619881 C2.66184809 6.34349486 0.62272028 6.34445609 -1.41650391 6.34399414 C-3.15524277 6.34732506 -3.15524277 6.34732506 -4.92910767 6.35072327 C-8.08822262 6.23300369 -11.05428596 5.82337738 -14.15625 5.23046875 C-9.32917938 1.43777041 -6.22668778 -0.02358594 0 0 Z " fill="#86633F" transform="translate(213.15625,94.76953125)"/>
<path d="M0 0 C14.22368428 2.50258306 28.43846453 5.04403115 42.625 7.75 C44.2944165 8.06553833 44.2944165 8.06553833 45.99755859 8.38745117 C47.53404053 8.68292847 47.53404053 8.68292847 49.1015625 8.984375 C50.00213379 9.15678711 50.90270508 9.32919922 51.83056641 9.50683594 C54 10 54 10 56 11 C56 10.34 56 9.68 56 9 C55.34 9 54.68 9 54 9 C54 8.34 54 7.68 54 7 C65.88 7 77.76 7 90 7 C90 7.66 90 8.32 90 9 C89.34 9 88.68 9 88 9 C88 9.99 88 10.98 88 12 C87.34 12 86.68 12 86 12 C86 11.01 86 10.02 86 9 C85.01 9 84.02 9 83 9 C83 9.99 83 10.98 83 12 C82.34 12 81.68 12 81 12 C81 11.01 81 10.02 81 9 C80.01 9 79.02 9 78 9 C78 9.99 78 10.98 78 12 C77.34 12 76.68 12 76 12 C76 11.01 76 10.02 76 9 C75.01 9 74.02 9 73 9 C73 9.99 73 10.98 73 12 C72.34 12 71.68 12 71 12 C71 11.01 71 10.02 71 9 C70.01 9 69.02 9 68 9 C68 9.99 68 10.98 68 12 C67.34 12 66.68 12 66 12 C66 11.01 66 10.02 66 9 C65.01 9 64.02 9 63 9 C63 9.99 63 10.98 63 12 C62.34 12 61.68 12 61 12 C61 11.01 61 10.02 61 9 C60.01 9 59.02 9 58 9 C58 9.99 58 10.98 58 12 C51.1757921 13.27152253 45.55845637 12.50722265 38.7890625 11.1640625 C37.73971527 10.96525482 36.69036804 10.76644714 35.60922241 10.56161499 C33.40458041 10.14175846 31.20102327 9.71616901 28.99853516 9.28515625 C25.61709479 8.62345306 22.23284398 7.97816718 18.84765625 7.3359375 C16.70294485 6.92541922 14.55840701 6.51399295 12.4140625 6.1015625 C11.3995401 5.90672272 10.3850177 5.71188293 9.3397522 5.51113892 C7.93721695 5.23613052 7.93721695 5.23613052 6.50634766 4.95556641 C5.27013168 4.71454697 5.27013168 4.71454697 4.00894165 4.46865845 C2 4 2 4 0 3 C0 2.01 0 1.02 0 0 Z " fill="#A96622" transform="translate(127,168)"/>
<path d="M0 0 C28.05 0 56.1 0 85 0 C85 0.66 85 1.32 85 2 C83.35 2 81.7 2 80 2 C80 2.99 80 3.98 80 5 C79.01 5 78.02 5 77 5 C77 4.01 77 3.02 77 2 C75.35 2 73.7 2 72 2 C72 2.99 72 3.98 72 5 C71.01 5 70.02 5 69 5 C69 4.01 69 3.02 69 2 C67.35 2 65.7 2 64 2 C64 2.99 64 3.98 64 5 C63.01 5 62.02 5 61 5 C61 4.01 61 3.02 61 2 C59.35 2 57.7 2 56 2 C56 2.99 56 3.98 56 5 C55.01 5 54.02 5 53 5 C53 4.01 53 3.02 53 2 C51.35 2 49.7 2 48 2 C48 2.99 48 3.98 48 5 C47.01 5 46.02 5 45 5 C45 4.01 45 3.02 45 2 C43.35 2 41.7 2 40 2 C40 2.99 40 3.98 40 5 C39.01 5 38.02 5 37 5 C37 4.01 37 3.02 37 2 C35.35 2 33.7 2 32 2 C32 2.99 32 3.98 32 5 C31.01 5 30.02 5 29 5 C29 4.01 29 3.02 29 2 C27.35 2 25.7 2 24 2 C24 2.99 24 3.98 24 5 C23.01 5 22.02 5 21 5 C21 4.01 21 3.02 21 2 C19.35 2 17.7 2 16 2 C16 2.99 16 3.98 16 5 C15.01 5 14.02 5 13 5 C13 4.01 13 3.02 13 2 C11.35 2 9.7 2 8 2 C8 2.99 8 3.98 8 5 C7.01 5 6.02 5 5 5 C5 4.01 5 3.02 5 2 C3.35 2 1.7 2 0 2 C0 1.34 0 0.68 0 0 Z " fill="#7E4B17" transform="translate(234,44)"/>
<path d="M0 0 C13.86 0 27.72 0 42 0 C42 1.98 42 3.96 42 6 C28.14 6 14.28 6 0 6 C0 4.02 0 2.04 0 0 Z " fill="#86633F" transform="translate(337,183)"/>
<path d="M0 0 C7.8837007 -0.0253547 15.76739088 -0.04286889 23.65112305 -0.05493164 C26.33310101 -0.05939552 29.01505529 -0.06635359 31.69702148 -0.07543945 C35.55192746 -0.08756853 39.40679718 -0.09324287 43.26171875 -0.09765625 C45.06040657 -0.10539818 45.06040657 -0.10539818 46.89543152 -0.11329651 C48.01621597 -0.11337204 49.13700043 -0.11344757 50.29174805 -0.11352539 C51.27547897 -0.115746 52.2592099 -0.11796661 53.27275085 -0.12025452 C55.9487352 -0.00226045 58.39334338 0.40051667 61 1 C61 1.66 61 2.32 61 3 C58.2915983 3.02714434 55.58347279 3.04690846 52.875 3.0625 C51.73417969 3.07506836 51.73417969 3.07506836 50.5703125 3.08789062 C46.2610356 3.10646509 42.24483526 2.86117265 38 2 C38 2.66 38 3.32 38 4 C25.73240913 4.57406524 13.47027825 5.09872434 1.1875 5.125 C-0.11707153 5.13176758 -0.11707153 5.13176758 -1.44799805 5.13867188 C-2.255354 5.13673828 -3.06270996 5.13480469 -3.89453125 5.1328125 C-4.59425049 5.13168457 -5.29396973 5.13055664 -6.01489258 5.12939453 C-8.1110181 4.99276355 -9.98178781 4.5692031 -12 4 C-12 3.34 -12 2.68 -12 2 C-6.06 1.505 -6.06 1.505 0 1 C0 0.67 0 0.34 0 0 Z " fill="#AE7B46" transform="translate(295,111)"/>
<path d="M0 0 C4.51659796 -0.02496844 9.03315791 -0.04298537 13.54980469 -0.05493164 C15.08203838 -0.05991896 16.61426742 -0.06671122 18.14648438 -0.07543945 C26.49179593 -0.12174177 34.70373415 -0.04734171 43 1 C43.495 2.98 43.495 2.98 44 5 C37.07 5 30.14 5 23 5 C23 4.34 23 3.68 23 3 C21.50726563 3.23009766 21.50726563 3.23009766 19.984375 3.46484375 C16.0842129 4.01935526 12.18161568 4.33474969 8.25 4.5625 C7.53207275 4.6049585 6.81414551 4.64741699 6.07446289 4.69116211 C-2.61376453 5.15482033 -11.30275318 5.08592231 -20 5 C-20 4.67 -20 4.34 -20 4 C-18.35 3.67 -16.7 3.34 -15 3 C-17.97 2.505 -17.97 2.505 -21 2 C-21 1.67 -21 1.34 -21 1 C-14.07 1 -7.14 1 0 1 C0 0.67 0 0.34 0 0 Z " fill="#86633F" transform="translate(308,96)"/>
<path d="M0 0 C13.86 0 27.72 0 42 0 C42 1.65 42 3.3 42 5 C28.14 5 14.28 5 0 5 C0 3.35 0 1.7 0 0 Z " fill="#BB8D5D" transform="translate(337,171)"/>
<path d="M0 0 C0.66 0 1.32 0 2 0 C2 2.31 2 4.62 2 7 C12.56 7 23.12 7 34 7 C34 7.99 34 8.98 34 10 C23.44 10 12.88 10 2 10 C2 12.31 2 14.62 2 17 C1.34 17 0.68 17 0 17 C0 16.01 0 15.02 0 14 C-2.31 14.33 -4.62 14.66 -7 15 C-7 11.7 -7 8.4 -7 5 C-5.35 5 -3.7 5 -2 5 C-2 7.31 -2 9.62 -2 12 C-1.34 12 -0.68 12 0 12 C0 8.04 0 4.08 0 0 Z " fill="#965A1D" transform="translate(397,174)"/>
<path d="M0 0 C17.16 0 34.32 0 52 0 C52 0.66 52 1.32 52 2 C40.9760632 3.00708069 30.05994427 3.10611887 19 3 C19 3.66 19 4.32 19 5 C8.11 5 -2.78 5 -14 5 C-14 4.34 -14 3.68 -14 3 C-9.38 2.67 -4.76 2.34 0 2 C0 1.34 0 0.68 0 0 Z " fill="#AE7B46" transform="translate(211,111)"/>
<path d="M0 0 C19.14 0 38.28 0 58 0 C58 0.99 58 1.98 58 3 C50.38281972 3.02533545 42.76565028 3.04286075 35.1484375 3.05493164 C32.55663649 3.05996332 29.96483833 3.06678927 27.37304688 3.07543945 C23.64973245 3.08755591 19.92645553 3.09323995 16.203125 3.09765625 C15.04258606 3.10281754 13.88204712 3.10797882 12.68634033 3.11329651 C11.06511261 3.11340981 11.06511261 3.11340981 9.41113281 3.11352539 C7.98550018 3.11685631 7.98550018 3.11685631 6.53106689 3.12025452 C4.20226513 3.0096099 2.22792724 2.66082137 0 2 C0 1.34 0 0.68 0 0 Z " fill="#965A1D" transform="translate(367,62)"/>
<path d="M0 0 C0.66 0 1.32 0 2 0 C2.84191782 2.9248633 3.11819313 5.50741656 3.09765625 8.546875 C3.09443359 9.39121094 3.09121094 10.23554687 3.08789062 11.10546875 C3.07951172 11.97816406 3.07113281 12.85085937 3.0625 13.75 C3.05798828 14.63816406 3.05347656 15.52632812 3.04882812 16.44140625 C3.037074 18.62767329 3.02064249 20.81380179 3 23 C3.66 23.33 4.32 23.66 5 24 C4.125 28.875 4.125 28.875 3 30 C2.9394849 33.77084746 2.97982841 37.52857844 3.0390625 41.29882812 C3.04679687 42.09353516 3.05453125 42.88824219 3.0625 43.70703125 C3.07410156 44.4338208 3.08570313 45.16061035 3.09765625 45.90942383 C2.99712 48.0616535 2.59206456 49.93331008 2 52 C1.34 52 0.68 52 0 52 C0 43.75 0 35.5 0 27 C-1.65 27 -3.3 27 -5 27 C-5 26.34 -5 25.68 -5 25 C-3.35 25 -1.7 25 0 25 C0 16.75 0 8.5 0 0 Z " fill="#7E4B17" transform="translate(432,80)"/>
<path d="M0 0 C1.18335938 0.06574219 1.18335938 0.06574219 2.390625 0.1328125 C5.97820949 0.35097642 9.2722041 0.6734175 12.75 1.625 C12.75 2.285 12.75 2.945 12.75 3.625 C13.41 3.955 14.07 4.285 14.75 4.625 C-1.42 4.625 -17.59 4.625 -34.25 4.625 C-34.25 3.965 -34.25 3.305 -34.25 2.625 C-30.68954823 1.43818274 -27.81191663 1.52810168 -24.0625 1.5625 C-22.79019531 1.57152344 -21.51789063 1.58054687 -20.20703125 1.58984375 C-18.74330078 1.60724609 -18.74330078 1.60724609 -17.25 1.625 C-17.25 1.295 -17.25 0.965 -17.25 0.625 C-11.37061144 -0.27435852 -5.92593002 -0.395062 0 0 Z " fill="#86633F" transform="translate(404.25,96.375)"/>
<path d="M0 0 C25.74 0 51.48 0 78 0 C77.67 0.66 77.34 1.32 77 2 C68.58486069 2.17795904 60.16960271 2.34383529 51.75393963 2.49477577 C47.84517566 2.56525138 43.93657635 2.63970828 40.02807617 2.72363281 C36.24807485 2.80464552 32.46800742 2.87471829 28.68766212 2.93757248 C27.25368738 2.96326741 25.81977462 2.99274064 24.38596153 3.02626419 C16.04020517 3.21859038 8.16376824 2.92291059 0 1 C0 0.67 0 0.34 0 0 Z " fill="#7E4B17" transform="translate(211,180)"/>
<path d="M0 0 C10.13270429 -0.35762486 19.96788765 0.75155935 30 2 C29.34 3.32 28.68 4.64 28 6 C12.49 6 -3.02 6 -19 6 C-19 5.67 -19 5.34 -19 5 C-10.09 4.01 -1.18 3.02 8 2 C5.36 1.67 2.72 1.34 0 1 C0 0.67 0 0.34 0 0 Z " fill="#86633F" transform="translate(156,95)"/>
<path d="M0 0 C2.97 0 5.94 0 9 0 C9.33 4.95 9.66 9.9 10 15 C6.7 15 3.4 15 0 15 C0 10.05 0 5.1 0 0 Z " fill="#965A1D" transform="translate(272,87)"/>
<path d="M0 0 C4.29 0 8.58 0 13 0 C13 0.66 13 1.32 13 2 C11.68 2.33 10.36 2.66 9 3 C9 4.32 9 5.64 9 7 C11.97 7.495 11.97 7.495 15 8 C15 9.32 15 10.64 15 12 C10.05 12 5.1 12 0 12 C0 8.04 0 4.08 0 0 Z " fill="#734E27" transform="translate(252,193)"/>
<path d="M0 0 C2.97 0 5.94 0 9 0 C9 4.95 9 9.9 9 15 C6.03 15 3.06 15 0 15 C0 10.05 0 5.1 0 0 Z " fill="#965A1D" transform="translate(358,87)"/>
<path d="M0 0 C2.97 0 5.94 0 9 0 C9 4.95 9 9.9 9 15 C6.03 15 3.06 15 0 15 C0 10.05 0 5.1 0 0 Z " fill="#965A1D" transform="translate(187,87)"/>
<path d="M0 0 C4.62 0 9.24 0 14 0 C14.33 1.65 14.66 3.3 15 5 C13.35 5.33 11.7 5.66 10 6 C10 6.66 10 7.32 10 8 C11.423125 7.938125 11.423125 7.938125 12.875 7.875 C16 8 16 8 18 10 C17.34 11.98 16.68 13.96 16 16 C10.72 16 5.44 16 0 16 C0 15.34 0 14.68 0 14 C4.95 14 9.9 14 15 14 C15 12.68 15 11.36 15 10 C13.02 10 11.04 10 9 10 C8.67 8.35 8.34 6.7 8 5 C9.65 4.67 11.3 4.34 13 4 C13 3.34 13 2.68 13 2 C8.71 2 4.42 2 0 2 C0 1.34 0 0.68 0 0 Z " fill="#86633E" transform="translate(252,191)"/>
<path d="M0 0 C0.66 0.99 1.32 1.98 2 3 C0.87384785 7.16676297 -1.41498735 10.57865972 -4 14 C-5.32366668 14.68565934 -6.65757147 15.35184271 -8 16 C-8.94875 16.86625 -9.8975 17.7325 -10.875 18.625 C-18.6753443 25.46711235 -28.15705277 29.99706695 -38 33 C-38.33 33.66 -38.66 34.32 -39 35 C-41.328125 35.8515625 -41.328125 35.8515625 -44.25 36.625 C-45.68085938 37.01558594 -45.68085938 37.01558594 -47.140625 37.4140625 C-49.85576635 37.97044392 -52.23920177 38.11083497 -55 38 C-50.97327124 35.78099508 -46.80298165 34.86324321 -42.36328125 33.78125 C-41.58339844 33.5234375 -40.80351562 33.265625 -40 33 C-39.67 32.34 -39.34 31.68 -39 31 C-37.3203125 30.359375 -37.3203125 30.359375 -35.125 29.75 C-22.4531404 25.72718743 -8.32616358 17.00788032 -1.90234375 4.9375 C-1.20087436 3.31922643 -0.58882806 1.66257336 0 0 Z " fill="#6D4F2F" transform="translate(422,110)"/>
<path d="M0 0 C4.69563418 -0.02488717 9.39122919 -0.04294796 14.08691406 -0.05493164 C15.68132192 -0.05993231 17.27572525 -0.06673501 18.87011719 -0.07543945 C21.17383954 -0.0876933 23.47750078 -0.0932711 25.78125 -0.09765625 C26.48366821 -0.10281754 27.18608643 -0.10797882 27.90979004 -0.11329651 C32.68720941 -0.11382708 37.26878694 0.32974482 42 1 C42 1.66 42 2.32 42 3 C10.39459507 3.26548867 10.39459507 3.26548867 0 1 C0 0.67 0 0.34 0 0 Z " fill="#AE7B46" transform="translate(371,111)"/>
<path d="M0 0 C10.23 0 20.46 0 31 0 C31 0.99 31 1.98 31 3 C26.58345745 3.08706286 22.16713543 3.14041378 17.75 3.1875 C16.49574219 3.21263672 15.24148438 3.23777344 13.94921875 3.26367188 C12.74394531 3.27333984 11.53867187 3.28300781 10.296875 3.29296875 C9.18666992 3.3086792 8.07646484 3.32438965 6.93261719 3.34057617 C4 3 4 3 0 0 Z " fill="#965A1D" transform="translate(392,72)"/>
<path d="M0 0 C4.62 0 9.24 0 14 0 C14 1.98 14 3.96 14 6 C9.38 6 4.76 6 0 6 C0 4.02 0 2.04 0 0 Z " fill="#845829" transform="translate(367,103)"/>
<path d="M0 0 C4.62 0 9.24 0 14 0 C14 1.98 14 3.96 14 6 C9.38 6 4.76 6 0 6 C0 4.02 0 2.04 0 0 Z " fill="#845829" transform="translate(344,103)"/>
<path d="M0 0 C4.62 0 9.24 0 14 0 C14 1.98 14 3.96 14 6 C9.38 6 4.76 6 0 6 C0 4.02 0 2.04 0 0 Z " fill="#845829" transform="translate(282,103)"/>
<path d="M0 0 C4.62 0 9.24 0 14 0 C14 1.98 14 3.96 14 6 C9.38 6 4.76 6 0 6 C0 4.02 0 2.04 0 0 Z " fill="#845829" transform="translate(258,103)"/>
<path d="M0 0 C4.62 0 9.24 0 14 0 C14 1.98 14 3.96 14 6 C9.38 6 4.76 6 0 6 C0 4.02 0 2.04 0 0 Z " fill="#845829" transform="translate(196,103)"/>
<path d="M0 0 C4.62 0 9.24 0 14 0 C14 1.98 14 3.96 14 6 C9.38 6 4.76 6 0 6 C0 4.02 0 2.04 0 0 Z " fill="#845829" transform="translate(173,103)"/>
<path d="M0 0 C0 3.63 0 7.26 0 11 C-3.63 11 -7.26 11 -11 11 C-9.0759065 6.18976624 -7.77643236 4.31589183 -4 1 C-1 0 -1 0 0 0 Z " fill="#7E4B17" transform="translate(213,186)"/>
<path d="M0 0 C1.24523437 0.11988281 2.49046875 0.23976562 3.7734375 0.36328125 C4.71445313 0.47027344 5.65546875 0.57726562 6.625 0.6875 C6.625 2.0075 6.625 3.3275 6.625 4.6875 C-4.265 5.1825 -4.265 5.1825 -15.375 5.6875 C-14.715 5.3575 -14.055 5.0275 -13.375 4.6875 C-13.375 4.0275 -13.375 3.3675 -13.375 2.6875 C-8.59621931 -0.17241645 -5.50651741 -0.57143105 0 0 Z " fill="#8F561D" transform="translate(232.375,213.3125)"/>
<path d="M0 0 C1.65 0 3.3 0 5 0 C5 4.95 5 9.9 5 15 C3.35 15 1.7 15 0 15 C0 10.05 0 5.1 0 0 Z " fill="#845829" transform="translate(350,192)"/>
<path d="M0 0 C3.95819611 -0.08678303 7.91614934 -0.14031733 11.875 -0.1875 C13.00292969 -0.21263672 14.13085938 -0.23777344 15.29296875 -0.26367188 C16.36933594 -0.27333984 17.44570312 -0.28300781 18.5546875 -0.29296875 C20.04718018 -0.31653442 20.04718018 -0.31653442 21.56982422 -0.34057617 C22.37178223 -0.22818604 23.17374023 -0.1157959 24 0 C24.66 0.99 25.32 1.98 26 3 C17.42 3 8.84 3 0 3 C0 2.01 0 1.02 0 0 Z " fill="#AB6824" transform="translate(157,189)"/>
<path d="M0 0 C2.64 0 5.28 0 8 0 C8 2.97 8 5.94 8 9 C5.36 9 2.72 9 0 9 C0 6.03 0 3.06 0 0 Z " fill="#AE7B46" transform="translate(380,173)"/>
<path d="M0 0 C2.97 0 5.94 0 9 0 C9 2.64 9 5.28 9 8 C6.03 8 3.06 8 0 8 C0 5.36 0 2.72 0 0 Z " fill="#AE7B46" transform="translate(327,174)"/>
<path d="M0 0 C0 0.33 0 0.66 0 1 C-1.98 1 -3.96 1 -6 1 C-6 1.66 -6 2.32 -6 3 C-13.92 3 -21.84 3 -30 3 C-30 2.34 -30 1.68 -30 1 C-20.02300197 -0.3302664 -10.04385176 -0.09502917 0 0 Z " fill="#AE7B46" transform="translate(355,115)"/>
<path d="M0 0 C3.63 0 7.26 0 11 0 C11 1.98 11 3.96 11 6 C7.37 6 3.74 6 0 6 C0 4.02 0 2.04 0 0 Z " fill="#86633F" transform="translate(234,208)"/>
<path d="M0 0 C2.97 0 5.94 0 9 0 C9 2.31 9 4.62 9 7 C6.03 7 3.06 7 0 7 C0 4.69 0 2.38 0 0 Z " fill="#7D5C3B" transform="translate(241,200)"/>
<path d="M0 0 C0.66 0 1.32 0 2 0 C3.30192693 9.11348853 2.6888091 17.86533168 2 27 C1.34 27 0.68 27 0 27 C-0.19654959 24.0003508 -0.38246106 21.00064899 -0.5625 18 C-0.61857422 17.16082031 -0.67464844 16.32164062 -0.73242188 15.45703125 C-1.0415151 10.14062774 -0.82242609 5.26352696 0 0 Z " fill="#92571C" transform="translate(391,150)"/>
<path d="M0 0 C2.97 0 5.94 0 9 0 C9 1.98 9 3.96 9 6 C6.03 6 3.06 6 0 6 C0 4.02 0 2.04 0 0 Z " fill="#734C22" transform="translate(358,103)"/>
<path d="M0 0 C2.97 0 5.94 0 9 0 C9 1.98 9 3.96 9 6 C6.03 6 3.06 6 0 6 C0 4.02 0 2.04 0 0 Z " fill="#734C22" transform="translate(187,103)"/>
<path d="M0 0 C0 2.64 0 5.28 0 8 C-0.99 8 -1.98 8 -3 8 C-3.33 7.01 -3.66 6.02 -4 5 C-6.97 4.505 -6.97 4.505 -10 4 C-10 3.34 -10 2.68 -10 2 C-6.49223216 0.39644899 -3.85645121 -0.22036864 0 0 Z " fill="#6B5033" transform="translate(272,195)"/>
<path d="M0 0 C0.91007812 0.00902344 1.82015625 0.01804688 2.7578125 0.02734375 C3.45648438 0.03894531 4.15515625 0.05054688 4.875 0.0625 C3.66796875 2.078125 3.66796875 2.078125 1.875 4.0625 C-0.38671875 4.234375 -0.38671875 4.234375 -2.8125 3.8125 C-4.02486328 3.61914062 -4.02486328 3.61914062 -5.26171875 3.421875 C-6.18404297 3.24398437 -6.18404297 3.24398437 -7.125 3.0625 C-7.125 2.4025 -7.125 1.7425 -7.125 1.0625 C-4.60024538 -0.19987731 -2.81299534 -0.03606404 0 0 Z " fill="#7E4B17" transform="translate(257.125,206.9375)"/>
<path d="M0 0 C2.97 0 5.94 0 9 0 C9 1.32 9 2.64 9 4 C6.03 4 3.06 4 0 4 C0 2.68 0 1.36 0 0 Z " fill="#86633F" transform="translate(327,182)"/>
<path d="M0 0 C0.99 0.33 1.98 0.66 3 1 C3 1.66 3 2.32 3 3 C0.03 3 -2.94 3 -6 3 C-6.66 1.68 -7.32 0.36 -8 -1 C-4.32740566 -2.22419811 -3.42541582 -1.54143712 0 0 Z " fill="#85501A" transform="translate(208,215)"/>
<path d="M0 0 C1.65 0 3.3 0 5 0 C5 2.31 5 4.62 5 7 C3.35 7 1.7 7 0 7 C0 4.69 0 2.38 0 0 Z " fill="#734C22" transform="translate(350,208)"/>
<path d="M0 0 C1.65 0.33 3.3 0.66 5 1 C4.67 2.65 4.34 4.3 4 6 C2.35 5.67 0.7 5.34 -1 5 C-0.67 3.35 -0.34 1.7 0 0 Z " fill="#755737" transform="translate(213,196)"/>
<path d="M0 0 C4.29 0 8.58 0 13 0 C13 0.66 13 1.32 13 2 C10.36 2 7.72 2 5 2 C5 2.99 5 3.98 5 5 C4.34 5 3.68 5 3 5 C3 4.01 3 3.02 3 2 C2.01 2 1.02 2 0 2 C0 1.34 0 0.68 0 0 Z " fill="#7E4B17" transform="translate(252,193)"/>
<path d="M0 0 C2.64 0 5.28 0 8 0 C8 1.32 8 2.64 8 4 C5.36 4 2.72 4 0 4 C0 2.68 0 1.36 0 0 Z " fill="#86633F" transform="translate(380,182)"/>
<path d="M0 0 C2.64 0 5.28 0 8 0 C8 1.32 8 2.64 8 4 C5.36 4 2.72 4 0 4 C0 2.68 0 1.36 0 0 Z " fill="#B98A59" transform="translate(380,173)"/>
<path d="M0 0 C0 0.99 0 1.98 0 3 C0.62599617 4.68236471 1.28752268 6.3523962 2 8 C-0.31 8 -2.62 8 -5 8 C-3.8141763 4.62496331 -2.72426311 2.35277269 0 0 Z " fill="#7A4916" transform="translate(207,189)"/>
<path d="M0 0 C2.31 0 4.62 0 7 0 C7.625 2.375 7.625 2.375 8 5 C7.34 5.66 6.68 6.32 6 7 C4.02 4.69 2.04 2.38 0 0 Z " fill="#895219" transform="translate(412,85)"/>
<path d="M0 0 C2.31 0 4.62 0 7 0 C7 1.32 7 2.64 7 4 C4.69 4 2.38 4 0 4 C0 2.68 0 1.36 0 0 Z " fill="#804E1C" transform="translate(236,208)"/>
<path d="M0 0 C2.97 0 5.94 0 9 0 C9 0.99 9 1.98 9 3 C6.03 3 3.06 3 0 3 C0 2.01 0 1.02 0 0 Z " fill="#BC8F60" transform="translate(327,174)"/>
<path d="M0 0 C0.99 0 1.98 0 3 0 C2.67 6.27 2.34 12.54 2 19 C1.67 19 1.34 19 1 19 C0.67 12.73 0.34 6.46 0 0 Z " fill="#8C541B" transform="translate(273,161)"/>
<path d="M0 0 C0.99 0 1.98 0 3 0 C2.67 6.27 2.34 12.54 2 19 C1.67 19 1.34 19 1 19 C0.67 12.73 0.34 6.46 0 0 Z " fill="#8C541B" transform="translate(359,152)"/>
<path d="M0 0 C1.45880109 0.14107747 2.91703551 0.28802415 4.375 0.4375 C5.59316406 0.55931641 5.59316406 0.55931641 6.8359375 0.68359375 C9 1 9 1 11 2 C11 2.66 11 3.32 11 4 C7.37 3.34 3.74 2.68 0 2 C0 1.34 0 0.68 0 0 Z " fill="#AD6925" transform="translate(113,166)"/>
<path d="M0 0 C0.33 0.66 0.66 1.32 1 2 C1.66 2 2.32 2 3 2 C3 3.32 3 4.64 3 6 C1.02 6 -0.96 6 -3 6 C-2.01 4.02 -1.02 2.04 0 0 Z " fill="#7C4A17" transform="translate(231,206)"/>
<path d="M0 0 C2.31 0 4.62 0 7 0 C7 0.99 7 1.98 7 3 C4.69 3 2.38 3 0 3 C0 2.01 0 1.02 0 0 Z " fill="#965A1D" transform="translate(240,214)"/>
<path d="M0 0 C1.875 0.3125 1.875 0.3125 4 1 C4.66 1.99 5.32 2.98 6 4 C5.01 4.66 4.02 5.32 3 6 C1.5 4.6875 1.5 4.6875 0 3 C0 2.01 0 1.02 0 0 Z " fill="#A96622" transform="translate(218,202)"/>
<path d="M0 0 C-0.3125 1.875 -0.3125 1.875 -1 4 C-1.99 4.66 -2.98 5.32 -4 6 C-4.66 5.01 -5.32 4.02 -6 3 C-3.375 0 -3.375 0 0 0 Z " fill="#A96622" transform="translate(212,202)"/>
<path d="M0 0 C0.99 0.99 1.98 1.98 3 3 C1.6875 4.5 1.6875 4.5 0 6 C-0.99 6 -1.98 6 -3 6 C-2.42655063 3.13275314 -2.1385485 2.1385485 0 0 Z " fill="#A96622" transform="translate(221,190)"/>
<path d="M0 0 C2 1.3125 2 1.3125 4 3 C4 3.99 4 4.98 4 6 C2.125 5.6875 2.125 5.6875 0 5 C-0.66 4.01 -1.32 3.02 -2 2 C-1.34 1.34 -0.68 0.68 0 0 Z " fill="#A96622" transform="translate(208,190)"/>
<path d="M0 0 C1.65 0 3.3 0 5 0 C5 1.32 5 2.64 5 4 C3.35 4 1.7 4 0 4 C0 2.68 0 1.36 0 0 Z " fill="#845829" transform="translate(350,215)"/>
<path d="M0 0 C1.32 0 2.64 0 4 0 C4 0.99 4 1.98 4 3 C4.99 3.33 5.98 3.66 7 4 C4.69 4 2.38 4 0 4 C0 2.68 0 1.36 0 0 Z " fill="#865019" transform="translate(245,208)"/>
<path d="M0 0 C2.64 0 5.28 0 8 0 C8 0.99 8 1.98 8 3 C5.36 2.67 2.72 2.34 0 2 C0 1.34 0 0.68 0 0 Z " fill="#7E4B17" transform="translate(262,197)"/>
<path d="" fill="#7E4B17" transform="translate(0,0)"/>
<path d="" fill="#7E4B17" transform="translate(0,0)"/>
<path d="" fill="#7E4B17" transform="translate(0,0)"/>
<path d="M0 0 C2 1 2 1 2 1 Z " fill="#7E4B17" transform="translate(135,157)"/>
<path d="" fill="#7E4B17" transform="translate(0,0)"/>
<path d="" fill="#7E4B17" transform="translate(0,0)"/>
<path d="" fill="#7E4B17" transform="translate(0,0)"/>
<path d="" fill="#7E4B17" transform="translate(0,0)"/>
<path d="" fill="#7E4B17" transform="translate(0,0)"/>
<path d="" fill="#7E4B17" transform="translate(0,0)"/>
<path d="" fill="#7E4B17" transform="translate(0,0)"/>
<path d="" fill="#7E4B17" transform="translate(0,0)"/>
<path d="" fill="#7E4B17" transform="translate(0,0)"/>
<path d="" fill="#7E4B17" transform="translate(0,0)"/>
<path d="M0 0 C2 1 2 1 2 1 Z " fill="#7E4B17" transform="translate(155,138)"/>
<path d="" fill="#7E4B17" transform="translate(0,0)"/>
<path d="" fill="#7E4B17" transform="translate(0,0)"/>
<path d="" fill="#7E4B17" transform="translate(0,0)"/>
<path d="" fill="#7E4B17" transform="translate(0,0)"/>
<path d="" fill="#7E4B17" transform="translate(0,0)"/>
<path d="" fill="#7E4B17" transform="translate(0,0)"/>
<path d="" fill="#7E4B17" transform="translate(0,0)"/>
<path d="" fill="#7E4B17" transform="translate(0,0)"/>
<path d="" fill="#7E4B17" transform="translate(0,0)"/>
<path d="" fill="#7E4B17" transform="translate(0,0)"/>
<path d="" fill="#7E4B17" transform="translate(0,0)"/>
<path d="" fill="#7E4B17" transform="translate(0,0)"/>
<path d="" fill="#7E4B17" transform="translate(0,0)"/>
<path d="" fill="#7E4B17" transform="translate(0,0)"/>
<path d="" fill="#7E4B17" transform="translate(0,0)"/>
<path d="" fill="#7E4B17" transform="translate(0,0)"/>
<path d="" fill="#7E4B17" transform="translate(0,0)"/>
<path d="" fill="#7E4B17" transform="translate(0,0)"/>
<path d="" fill="#7E4B17" transform="translate(0,0)"/>
<path d="" fill="#7E4B17" transform="translate(0,0)"/>
<path d="" fill="#7E4B17" transform="translate(0,0)"/>
<path d="" fill="#7E4B17" transform="translate(0,0)"/>
<path d="" fill="#7E4B17" transform="translate(0,0)"/>
<path d="" fill="#7E4B17" transform="translate(0,0)"/>
<path d="" fill="#7E4B17" transform="translate(0,0)"/>
<path d="" fill="#7E4B17" transform="translate(0,0)"/>
<path d="" fill="#7E4B17" transform="translate(0,0)"/>
<path d="" fill="#7E4B17" transform="translate(0,0)"/>
<path d="" fill="#7E4B17" transform="translate(0,0)"/>
<path d="" fill="#7E4B17" transform="translate(0,0)"/>
<path d="" fill="#7E4B17" transform="translate(0,0)"/>
<path d="" fill="#7E4B17" transform="translate(0,0)"/>
<path d="" fill="#7E4B17" transform="translate(0,0)"/>
<path d="" fill="#7E4B17" transform="translate(0,0)"/>
<path d="" fill="#7E4B17" transform="translate(0,0)"/>
<path d="" fill="#7E4B17" transform="translate(0,0)"/>
<path d="" fill="#7E4B17" transform="translate(0,0)"/>
<path d="" fill="#7E4B17" transform="translate(0,0)"/>
<path d="" fill="#7E4B17" transform="translate(0,0)"/>
<path d="" fill="#7E4B17" transform="translate(0,0)"/>
<path d="" fill="#7E4B17" transform="translate(0,0)"/>
<path d="" fill="#7E4B17" transform="translate(0,0)"/>
<path d="" fill="#7E4B17" transform="translate(0,0)"/>
</svg>
