<?xml version="1.0" encoding="UTF-8"?>
<svg version="1.1" viewBox="0 0 2048 1152" width="576" height="324" xmlns="http://www.w3.org/2000/svg">
<path transform="translate(957)" d="m0 0h74v6l-9 9-3 6-3 4h-2l-1 6-2 2-2 5-4 5-3 3h-2l-2 7-12 12-2 5-4 8-1 1-1 8-13 13-2 6-7 3-11 11-18 9-2 4-1 15-8 15-5 5-6 7-7 13-8 9-3 6-4 5-4 7-2 5-8 8-3 7-5 5-1 8-9 9-7 14-2 9-8 15-3 4h-2l-1 9-4 5h-2l-1 9-2 3-1 10-3 5-1 11-3 3v8l3 1v9l-3 1v88l28 1-1-88-2-2v-9l8-2 2-13 3-8 1-8 6-7 9-19 5-4 5-3 9-9 3-6 8-9 6-9h2l5-10 10-10 6-3 6-6 3-6 33-33 1-11 3-6 5-17 5-8 7-8h2l1-3 4-4h2l1-3 9-7 6-4 18-18 2-5 15-15 12-6 11-10 6-9 3-1 6-9 6-10 3-8 1-36h57l-6 12-2 9-6 10-7 2-3 4-2 5-6 1v5l-13 13-3 7-9 19-6 7-2 5-4 4-5 1-2 6-5 2-1 4-8 4-4 4-5 2-9 9-5 8-8 8-6 10-28 28-3 7-3 6-5 5-3 7-4 3-4 1-1 5-7 3-12 12-5 2-11 10-9 9-6 3-9 9-2 5-12 13-4 4-3 6-10 10-3 6-9 11-3 5-7 11-3 6-5 6v7l6 2v9l-3 1v89h6l1 1v16l-3 2v122l6 2 1 20 24 1v88l16-7 11-4 7-3 12-5 10-5 9-3 8-4 9-1v-126l17-17 1-55 3-1h6l2 2v52l3 5 10 9 4-2 53-53 2-9 6-16 5-9 9-9 4-2h3v-44l3-3 1-52h6l1 1v52l3 1 1 44 8 4 8 9 8 16 4 13 2 6 44 44 7 6v2l5 1 12-12 1-55 3-1h6l2 2v53l7 8 3 2v2l4 2v2l3 1v181l6-4 45-45 2-3-1-8-2-3v-12l5-10 5-4 3-1 1-24h-5l-2-2-2-5-1-1v-8l6-9 3-1 2-12 2-2 1-41 3-1 1 42 2 1 2 13 5 2 5 9v7l-3 2-2 6h-6l1 24 7 3 6 10v15l-3 5 1 6 43 43 2 1v-199h-20l-1-1v-9l6-2v-30l-6-2v-5l1-1h27v-14h14v-167l-6-1-1-1v-11l1-2 16-1 5-5 6-7 7-15 4-11 23-46 20-20 8-5 9-7 5-3 9-2 5-3 11-7 23-11 1-29 1-2h2l1-13 2-2 1-8 5-5 7-3 12-6 4-8 1-7 2-2 2-9 5-5 8-5 17-9 7-4 4-3 3-1 3-6 12-12 1-2h96v5l-9 9-5 2-19 19-6 2-30 30-5 2-21 21-8 4-3 3-1 15-6 10-3 7-1 1-1 8-3 5-7 8-6 6-2 5-9 10-7 6-7 1-15 8-9 8-5 2-46 46h-2v2l-5 2-12 11-24 24-1 2h6l1 1v12l-7 2 1 5-1 162 234-1 1-166-7-1v-13l1-1 19-1 5-5 3-5 3-6 2-7 8-16 5-17 6-12 5-17 6-8 3-6 34-34 8-4 9-3 2-1 10-1 22-11 8-6 7-4 11-8 16-9 5-5 1-11 5-6 8-7 11-8 8-5 10-9 25-25 2-5 18-12 5-6 1-4h67v74l-10 4-18 12-5 3-8 7-13 13-6 3-5 4-21 10-1 1-12 2-9 3h-2v2l-12 7-19 9-16 9-10 6-18 9-7 2-5 4-12 6-6 5-7 4-3 3-6 3-17 17-2 5-5 6-4 7-3 3-2 5-8 9-6 9-14 14-2 1-1 3h11l3 2v11l-7 2 1 166 12 1 1 1 1 12 23 1 1 1v5l-6 2-1 30 7 2v9l-21 1v35h256v-113l5-1 2 1v35l5-3h2v9l-7 1v43l1 6 6-3v612h-2048v-615l8-7 12-12 1-35-12 5-9 3v-8l54-27 3-1-7-9-3-6 1-4 3-6 8-7 1-45 1-1h9l1 1v45l4 2 7 8 3 5-2 5-4 6-4 5 9 5 15 8 23 11 14 8 3 1-1-7 1-28 1-1h5l1 1v263l405-1v-88l227-1 1-20 9-1 1-124-3-1v-16l1-1h6l-1-88-3-3v-7l1-1 10-1v-26l3-7 3-8 2-8 5-8 4-5 3-6 1-11 6-7 2-9 2-2 1-10 8-16 4-12 5-10 3-9 1-10 3-4 3-7 1-17 5-9 5-6 3-6 4-5 3-5 9-10 9-9 3-6 5-6 4-7 17-17 2-9 2-7 2-8 4-11 3-14 1-1 2-12 5-9 7-7zm25 25-4 4-2 6-5 5-5 11 1 2 4-1v-2l4-2 5-6 2-1 1-5 6-7-1-4zm51 110-9 5-5 4-7 4-13 13v13l4-2 15-15 8-7 12-12v-3zm-128 7-7 6-5 2-9 19-9 17-1 8v8l5-1 9-16 6-9 7-11 9-17v-6zm-851 323-26 13v40l15 14 12 12h2v-79zm21 0-1 78 2 1 8-7 19-19v-40l-17-9-9-4zm1469 14-2 2 9 10 4 3 4-2 8-9 1-4zm43 0-2 2 7 8 5 5 4-1 7-8 3-4v-2zm-773 1v124h21l1-123-1-1zm707-1-21 1 2 4 10 10 4-2 9-10v-3zm106 1 6 7 7 7 4-2 8-8 2-4zm-1516 3-1 1v34l12 12 8 7 6 7 3 1v-49l-5-3-21-10zm1465 0-12 13v2h25l-1-4-11-11zm-44 1-9 10-2 4h26l-2-4-10-10zm86 0-9 9-3 5h26l-2-4-7-7-2-3zm-125 2v11l1 1h10l-2-4-6-7zm166 0-10 10v2h11l1-11zm-166 19v13l1 1h166l1-13-1-1zm-421 3-5 4-5 6-8 7-3 3v2l-4 2-7 8-5 5-5 4v2l-4 2-6 6v49l5-2 48-48 1-2v-48zm73 0v49l51 51h2v-49l-51-51zm335 21-1 1v156h53l1-150-1-6-10-1zm110 0-44 1v155l1 1h60v-156l-8-1zm61 0-30 1v156h53l1-4-1-152-3-1zm134 47v14h25v-14zm70-1-38 1-1 11 1 3h57v-14l-8-1zm63 0-37 1-1 3v10l1 1h57v-14l-8-1zm60 0-33 1-1 3v10l1 1h57v-14l-7-1zm31 1-1 4v8l1 2h24l1-1v-13zm-191 24-1 1-1 12v6l5-2 15-15v-1zm40 0-4 2 8 7 5 5 7 6v-19l-1-1zm23 0-1 13v6l5-2 15-15v-1l-10-1zm41 0-4 2 3 3h2l1 3h2l2 4 8 7 2 1v-19l-1-1zm23 0-1 13v6l5-2 15-15v-1zm40 0-3 2 12 11 7 7h1v-19l-1-1zm-194 1 12 14 6 5h1v-19zm218 0-1 12v6l5-2 15-15v-1zm-224 6v79h25v-55l-24-24zm55 0-21 21-2 1-1 24v32l1 1h25v-79zm8 0v77l1 2h25v-55l-4-5h-2v-2l-8-7-10-10zm56 0-21 21-2 1-1 27v29l1 1h25v-79zm8 0v77l1 2h25v-55l-6-7-8-7-10-10zm56 0-21 21-2 1-1 27v29l1 1h25v-79zm8 0v77l1 2h25v-55l-6-7-8-7-10-10zm56 0-21 21-2 1-1 39v16l1 2h25v-79zm-247 93v22l5-3 17-17v-2zm34 0v2l8 7 17 17 5-2 22-22v-2zm64 0 2 4 13 12 10 10 5-2 22-22v-2zm64 0 2 4 13 12 10 10 5-2 22-22v-2zm64 0 2 4 13 12 10 10h1v-26zm-131 9v20l1 3 2 1 20-1-6-7-16-16zm64 0v20l1 3 2 1 20-1-6-7-16-16zm-136 1-21 21 4 2 19-1v-22zm8 0v20l2 3 21-1-6-7-15-15zm56 0-20 20v2l21 1 1-1v-22zm64 0-20 20v2l21 1 1-1v-22zm64 0-21 21v1l22 1 1-1v-22zm8 0 1 22 5 1 17-1-6-7-15-15zm-522 1 2 4 7 8 6 9 3 3 4-1 7-8 6-8 5-6v-1zm142 0 2 4 7 8 9 12h4l9-12 7-8 2-4zm-149 6v48l5-3 10-13 6-6v-3l-5-5-6-8-7-8zm52 0-7 7-6 9-7 8 6 7 9 12 5 5h1v-48zm90 0v48l4-2 7-8 6-8 4-4-1-4-8-9-8-11zm52 0-8 9-8 11-3 3 1 4 7 7 6 9 6 5 1-8v-39zm-1521 8 2 4 54 54 4-1 49-49 6-5 1-3zm138 0 1 3 8 7 48 48 5-2 54-54v-2zm138 0 6 7 8 7 42 42 4 2 6-5v-2l4-2 7-8 7-6v-2l4-2 30-30v-1zm-144 6v116l5-3 53-53-1-4-56-56zm139 0v116l6-4 1-3 4-2v-2l4-2 42-42 1-3-7-8-50-50zm127 0-57 57 2 4 48 48 1 2h2l2 4 3 1v-116zm-404 1v115l7-6 51-51-6-7-3-4h-2l-2-4-43-43zm126 0-12 12-12 11-15 15v2l-4 2-4 5-9 9 1 4 54 54 3 1v-115zm138 0-55 55-1 3 57 57h1l1-115zm1375 7v32l6 2v5l-3 1v53l5-2 16-8 1-1v-81l-1-1zm33 0-1 1v79l13-2 7-2 12-2 2-1 19-1 4-1v-70l-1-1zm64 0-1 1v67h57v-67l-1-1zm64 0-1 1-1 48v17l1 5 23 2 8 2 18 4h8v-78l-1-1zm64 0-1 1v81l8 5 20 10v-97zm-506 8-8 10-6 8-4 5 1 2h36l3-2-7-7-9-13-3-3zm143 0-8 9-6 8-5 6 3 2h34l3-2-7-7-8-12-4-4zm-1439 49-13 12-19 19v2l-4 2-19 19-1 3h115l-2-4-5-4-10-10-14-15-24-24zm138 0-55 55v2h115l-6-7-50-50zm139 0-55 55v2h114l-2-4-53-53zm1396 22-1 2-23 1-23 4-22 6-16 7-8 5v63l1 1h247l1-1v-60l-16-9-21-8-22-5-17-3-23-2-1-1zm-1714 46v42l1 1h83l1-1v-42zm139 0v43h84l1-1v-42zm138 0v42l1 1h84l1-1v-42z" fill="#E89150"/>
<path transform="translate(149,726)" d="m0 0 8 5 51 51 4-1 6-4 15-15h2l2-4h2l1-3h2l2-4 18-18 8-7h3l-1 5-8 8-6 8-8 7-16 16-7 8-10 10 1 4 53 53v2l-4-2-2-2-3 2-9-8-5-3-12-13-24-24-5 1-12 11-18 18-7 8-10 9-9 8-2-1-1-4 54-54 1-4-8-8v-2h-2l-7-8-38-38-1-4z" fill="#FAAB53"/>
<path transform="translate(409,726)" d="m0 0h3l-1 5-7 8-48 48-1 3 4 6 46 46-4 3-7-6-43-43-5-1-2 4-46 46-5 2-5-1 2-4 51-51-1-4-55-55v-4l6-1 8 7 48 48 5-2 7-7 5-3 43-43z" fill="#F9AB53"/>
<path transform="translate(548,726)" d="m0 0h2l1 4-8 7-38 38-3 5-8 8 2 4 48 48v2h2l4 7h-3v2l-4-2-49-49-5-3-5 1-25 25-5 3-20 20-6 1 2-4 29-29 3-5 17-17 1-3-7-8-49-49-1-4 5-1 9 6 43 43v2l8 4 5-4 4-4 8-7 12-11 29-29z" fill="#FCAE53"/>
<path transform="translate(1854,603)" d="m0 0 5 2 4 4 3 5 8 8 1 5 2 6 2-3v49h-1l-1-34v17l-1 18h-1l-1-50-6-4-3-5-7-7 1-4-5-5z" fill="#FBAD53"/>
<path transform="translate(1918,603)" d="m0 0 5 2 9 11 6 6 3 11 2-3v49h-1l-1-31v13l-1 19h-1l-1-50-6-5-7-8-3-4 1-3-5-5z" fill="#FBAD53"/>
<path transform="translate(1966,601)" d="m0 0h4l-2 7-21 21h-3v-8l17-17z" fill="#F7A852"/>
<path transform="translate(1902,601)" d="m0 0h4l-2 7-21 21h-3v-7l2-4 8-7 7-7z" fill="#F8A952"/>
<path transform="translate(1839,601)" d="m0 0h2l-1 7-21 21h-3v-7l2-4 8-7 7-7z" fill="#E99350"/>
<path transform="translate(1654,482)" d="m0 0h4l-1 5-3 3h-2l-2 4-3 3-7 2-4-4-1 2-5-5h2l-2-5-2-3 4 1 8 8 4-2 6-4z" fill="#FBAE53"/>
<path transform="translate(427,734)" d="m0 0 4 2 52 52-1 4-13 13-2-1 12-12 1-3-7-8-46-46z" fill="#E89250"/>
<path transform="translate(1583,482)" d="m0 0 5 2 9 9 5-1h3l1 5-5 2-7-1-8-5-1-3h3l-3-5z" fill="#FBAD53"/>
<path transform="translate(2023,608)" d="m0 0 2 1-2 3 1 2-3 5-10 10h-3v-8z" fill="#F09D51"/>
<path transform="translate(493,786)" d="m0 0 2 1v4l49 49-1 2-8-7h-3l-1-4-12-13-28-28z" fill="#E89150"/>
<path transform="translate(1540,482)" d="m0 0 4 2 11 9 6-2 1 4 2 1-6 3h-5l-8-4-1-4 2-1z" fill="#FBAD53"/>
<path transform="translate(1789,603)" d="m0 0 4 2 5 5 4 2 4 4 1 4h-3l1 4-2-1v-2l-4-2-11-11-2-1 1-2h2z" fill="#FCAE53"/>
<path transform="translate(1878,630)" d="m0 0h1v49h-1l-1-34v17l-1 18h-1v-49l2 4z" fill="#FFB354"/>
<path transform="translate(1945,702)" d="m0 0 4 1 13 12 9 9v3l3 1-2 2-2-1v3l-5-2v-2h3l-1-4-7-5-7-6-2-4-5-5z" fill="#F3A252"/>
<path transform="translate(1942,630)" d="m0 0h1v49h-1l-1-31v13l-1 19h-1v-49l2 4z" fill="#FFB354"/>
<path transform="translate(1987,608)" d="m0 0 7 6 8 8 2 10-7-6-9-10-2-3z" fill="#FDB053"/>
<path transform="translate(2e3 702)" d="m0 0h2l-2 9-11 11h-2l2-4v-1l-4 2 2-4z" fill="#FBAD53"/>
<path transform="translate(1839,601)" d="m0 0h2l-1 7-10 10h-3l-1-2v-3l11-11z" fill="#F6A652"/>
<path transform="translate(2006,712)" d="m0 0h1v17l-2-3v6h3v2h14v1h-46v-1l26-1 1-19 2 2z" fill="#FFB354"/>
<path transform="translate(1942,712)" d="m0 0h1l1 22h16v1h-18l-4 1v-3l1-19 2 2z" fill="#FEB253"/>
<path transform="translate(1878,712)" d="m0 0h1l1 22h16v1h-18l-4 1v-3l1-19 2 2z" fill="#FDB153"/>
<path transform="translate(1872,702)" d="m0 0h2l-2 9-11 11h-2l2-4h2l2-4v-1l-5 5-3-1z" fill="#FCAE53"/>
<path transform="translate(1843,610)" d="m0 0 2 4 2-4v21h-1l-1-11-1 60h-1z" fill="#FEB253"/>
<path transform="translate(1936,702)" d="m0 0h2l-2 9-11 11h-2l2-4h2l2-4v-1l-5 5-2-1 7-8z" fill="#FCAE53"/>
<path transform="translate(1498,481)" d="m0 0 5 3 9 9 1 4-2 1-3-3-2 1-4-4 1-3-7-2-1-2h2z" fill="#FAAC53"/>
<path transform="translate(1808,702)" d="m0 0h2l-1 7-8 4-6 5-2-1 4-2 2-4z" fill="#FFB354"/>
<path transform="translate(1825,618)" d="m0 0m-7 1h5l1 3-3 5-2 2h-3v-7z" fill="#FBAD53"/>
<path transform="translate(1942,606)" d="m0 0h1v16l-3 1-1-3v-11z" fill="#FFB354"/>
<path transform="translate(1878,606)" d="m0 0h1v16l-3 1-1-3v-11z" fill="#FFB354"/>
<path transform="translate(2006,607)" d="m0 0h1v15l-3 1-1-3v-12l3 1z" fill="#FFB354"/>
<path transform="translate(1814,607)" d="m0 0h1v15l-3 1-1-3v-11h3z" fill="#FFB354"/>
<path transform="translate(1945,702)" d="m0 0 4 1 12 13 4 5-6-2-6-7-5-7z" fill="#FCAF53"/>
<path transform="translate(2010,619)" d="m0 0 4 1 1 5-4 4h-3v-8z" fill="#FBAD53"/>
<path transform="translate(1881,702)" d="m0 0 4 1 12 13 4 5-4-2-6-4v-2l-2-1-5-7z" fill="#FCAF53"/>
<path transform="translate(1902,601)" d="m0 0h4l-2 7-4 1 2-1h-3l-3-1z" fill="#FDB053"/>
<path transform="translate(2009,702)" d="m0 0 4 1 12 13 4 5-4-2-6-4-6-9z" fill="#FCAF53"/>
<path transform="translate(1839,601)" d="m0 0h2l-1 7-4 1 2-1h-3l-3-1z" fill="#FDB053"/>
<path transform="translate(1811,715)" d="m0 0h1l1 17 1-1 2 2 12 1v1h-18z" fill="#FFB354"/>
<path transform="translate(1897,604)" d="m0 0 2 1-9 9 2 2-5 4v-2l-3-1z" fill="#E99250"/>
<path transform="translate(1824,708)" d="m0 0 7 6 6 7-4-2-6-4v-2l-2-1z" fill="#FFB354"/>
<path transform="translate(1570,481)" d="m0 0h6l-4 3h-2v2l-4 3-3-1z" fill="#FFB354"/>
<path transform="translate(1837,721)" d="m0 0 4 1 5 6-2 2-3-3z" fill="#FAAC53"/>
</svg>
