<?xml version="1.0" encoding="UTF-8"?>
<svg version="1.1" viewBox="0 0 2048 1152" width="576" height="324" xmlns="http://www.w3.org/2000/svg">
<path transform="translate(1540,153)" d="m0 0h52l2 2h339l2-2h52l1 3-1 14-10 4-16 4-17 3-9 1-1 113h114v32l-96 1 14 8 20 12 17 10 5 4 7-1 10-7 22-13h1v10l-8 4-13 8-6 3h-2l1 3 18 10 10 6v10l-4-2-12-7-15-9-4-3h-6l-8 6-15 9-17 10-10 6-5 2v1l96 1v17h-103l-1-2-123-1-2 4-3 3h-2l-2 4-12 12-2 5-20 20-6 9-6 7h-2v450l-1 19h34l5 4 1 14 2 5 1 1 36 1v-6l1-1h13v-32h-18l1-6 61-122 4-11 9-19 9-17 9-19 9-17 9-19 9-17 3-6 1-4-3-4v-12l10-2 1-33 2-2 1-41h4v42l3 1v34h10l1 1v12l-3 3 1 5 9 17 9 19 9 17 8 17 10 19 8 17 6 9v348h-206l-1-58-4-5h-2v63h-7l-1-64-7 2-2 2-1 14 4 1-1 2-3 2v29l4 3-3 2-1 7h-11v-7l-3-1v-2l2-1v-31l-2-1 1-3h2v-19l7-8 6-2 8-1v-9l-2-5-6-2-3 3h-28l-7-1v-2h-10l-7-1v93h-1764v-338l3 1 11 23 8 16 2 3 1-60 1-1h31l-1-119-3-4v-10l5-5 6-3 10-7 10-6 8-4-1-8-6-2v-5l1-1h15l6 2-1 5-6 1v8l14 7 5 4 9 6 7 3v-75h-10l-1-4 8-16 9-17 2-5 6-1v-67l-3-1v-5l2-3 2-12 5-8 3-3 8-4 7-1 1-2h-33l-24-1v-3h-88l-1-3h-20l-8-1v-17h22v-2l-6-2-9-5-7-6v-7l6 1 8 6 14 7v-56l1-11-12 6-11 7-1 1h-5v-7l10-7 11-6-21-1v-32l1592-1v-112l-22-3-16-4-13-4-2-5zm94 28-27 1 1 3h308l1-3-1-1zm-26 7v4h308v-4zm0 7v4h308v-4zm3 7-4 1 1 3h308v-3l-4-1zm298 121-5 3-5 5v3l7-1 14-7v-2l-2-1zm-452 4 4 4 11 6 13 8 25 15 4 3 7-1 8-6 11-6 21-21v-2zm-1407 3v3l21 11 10 6 21 11 12 8 4-1 64-32-1-2-63-1-2-2-31-1zm1313 0-2 3-64 1 1 3 29 14 34 17 4 1 16-10 26-14 10-6 12-6 1-2-20-1zm564 0-46 23-7 7-3 6v3l23 11 19 10 15 8h3v-67zm-477 4v68l5-2 15-8 9-6 29-17-1-3-18-10-26-16-11-6zm495 0-1 67 2 1 18-10 13-8 25-15-1-3-21-12-23-14-10-6zm-1735 3v3l16 9 10 7 19 11 11 8 3 2h6l23-12 21-10 15-8v-2l-25-1-10-1-2-2-51-1-2-2zm1025 0-2 3-52 1-1 2-35 2 1 3 25 12 34 17h5l14-10 20-12 19-12 7-4v-1l-6-1zm-1193 1v67l5-1 19-10 36-18 2-4-8-6-25-13-9-6-17-9zm1392 0-23 12-9 6-16 8-11 7 1 4 19 10 32 16 7 4h3v-67zm-1248 3-8 5-52 26 2 4 10 6 21 11 11 7 17 9h1l1-68zm1104 0v68l5-2 16-8 13-8 23-12 5-4v-3l-19-10-40-20zm-1088 4v67l5-1 19-10 34-17 3-1-1-3-18-11-10-6-17-11-12-7zm1072 0-16 9-12 8-17 10-11 7-2 1 1 3 48 24 9 5h3v-67zm-912 3 5 5 17 12 10 7 12 8 14 10 4-1 19-9 17-9 19-9 1-3-19-1-7-2-11-1-23-1-3-2-33-2-4-2zm735 0-2 2-35 2-1 2-31 1-4 1v2l-25 1 1 3 16 8 19 9 17 9 4 2 4-1 11-8 17-11 13-10 16-10v-2zm-758 4-19 10-40 20 5 4 16 10 19 12 13 8 8 4 1-68zm798 0v67l2 1 19-11 10-7 17-10 8-5 5-3-1-3-32-16-17-8-9-5zm-781 3-1 4v64l6-2 15-8 17-8 19-10 1-2-16-10-17-12-12-9zm766 0-11 7-14 10-11 8-15 10-5 3 3 3 30 15 19 10 6 2v-68zm-634 10-54 27-4 3 2 4 11 7 15 10 9 7 13 9 8 5h3v-71zm501 0-1 5v67l4-1 10-6 12-9 11-8 12-8 11-7v-4l-58-29zm-471 1 6 7 5 4 18 12 9 7 12 8 7 5h6l7-3 35-14 13-5v-3l-11-4-17-2-35-6-20-3-11-1-5-2zm423 0-3 2-23 2-1 1-21 3-2 1-18 2-8 2-14 2-9 4 3 3 16 6 20 8 14 5 4 2 7-1 9-7 12-8 12-9 15-10 6-6v-2zm32 3-11 7-10 8-12 8-12 9-10 7-5 3v3l28 11 15 6 16 7h2v-69zm-468 1v68l9-3 29-12 23-9-2-4-18-12-9-7-17-12-8-6-5-3zm1008 3-8 6-14 8-17 10-9 6-8 4v2h31l19-19 5-8 6-6v-3zm350 1-12 13-3 5-7 8-4 5h87l-2-3-21-10-16-8-19-10zm-1748 3-5 3-16 8-23 11-15 8-6 3-1 2 67 1 2 3h64v-2l-16-8-10-6-19-10-13-8zm1247 1-9 5-8 5-23 12-13 8-12 6v2h64l2-3 67-1-3-3-62-31zm-1092 9-60 30-1 2 19 1h17l1 3 51 1 3 3h34l1-2-15-8-9-6-11-7-10-6-12-8-4-3zm934 0-11 8-11 7-12 7-11 8-15 8v2h33l4-2v-2h52l1-3h23l13-1-3-3-16-8-19-9-19-10-5-2zm-372 3v69l11-6 10-8 34-24 6-4v-3l-16-6-27-11-16-7zm-187 0-16 7-28 11-15 6v3l16 11 9 7 15 10 13 10 8 4v-69zm171 4-5 4-1 62 1 6 7-1v-70zm-155 1v70l7 1v-67l-4-4zm-240 3-5 3-19 10-23 11-12 6 1 2 18 1 7 3 30 1 2 2 27 1 7 1 3 2h19v-3l-22-16-24-16-6-5zm635 1-8 8-10 6-15 10-10 8-10 7v3h19l2-1v-2l35-1 1-3h31l4-1v-2l22-1v-2l-25-12-32-16zm-483 20-19 7-25 10-12 5-3 4 2 2 24 3 2 1 21 2 8 2 14 2 10 2 33 5 9 2h3l-1-3-9-6-8-6-16-11-18-13-11-8zm328 0-7 6-15 10-12 9-12 8-16 12v2l9-1 10-2 13-2 2-1 19-2 5-2 16-2 2-1 23-2 1-3 4 1 17-1 4-1-1-5-11-5-31-12-15-6zm564 7-14 1-1 2-88 1-3 3h-67l-2 3-56 1v3h-17l-36 1-1 3h-42l-1 3h-16l-26 1v3h-20l-15 1-1 1-9 1-25 1-2 2-30 2-1 1-23 2-6 2-21 2-20 3-72 12-17 3-15 4-18 3-1 59-2 2-1 19 4 1 1-17h97l1 2v12l-7-3-2-1h-7l-2 2-13 2v2l-10 2-16 8-15 8-8 8-8 16v5l6 1h74l11 1 52 52 6 4-1-7-1-1v-17l9 2 10 3 16 8 6 4-3 3-15 8 3 6v7l-9 1-1 1v38l-3 1-1 17v13l1 1 9 1v9l-9 1-1 4 1 9 9 9 9 13 30 30h2l-1-61-2-1v-2l2-1v-50l-4-3h-2v-22h59l1-1v-12l-1-1h-10l4-12v-25l-1-9-2-2-1-14-2-5h10l3-2-1-5-17-8h-3v-45l6-2 1-7v-7l4-14 8-16 11-12 5-4 5-5 19-9 4-7 1-8v-9l1-3 5-1v18l5 10 19 9 10 10h2v2h2v2h2l2 4 4 5 7 15 2 6 1 2 1 19 6 2v44l-19 9-2 3 2 3 7 1h5l-2 4-2 16-1 1-1 10v28l3 5 1 2-10 1-1 4v10l60 1v10l-1 10-5 4-1 49 3 3-2 1-1 89 2 2-1 1v8l123 1 1 116 19 1h33l1-1 1-117 3-1 1-225 2-2 1-114 1-2h4l1 8 3 1 4-2 1-2v-47l1-8 13-12 4-6 3-5 32-32v-3zm-1256 11 1 3 7 3 6 12 1 10 2 2v5l-2 1v67l6 2 8 18 10 19 1 3-11 1v288l4-2 7-6v-2l4-2 32-32 4-5 8-7 5-5v-2l14-1v-114h-46l1-9 11-1 8-7 56-56 318-1 5-1-1-5-9-17-7-7-23-12-11-5-7-2-1-1-11-2-6-2h-5l-2 2-5 1-1-9v-4h99v16l3 1v-20l-2-2-1-56-5-3-21-5-41-8-55-9-49-7-21-2-1-1-30-2-4-2-23-1-9-1-1-1-34-2-2-2-42-1v-2l-7-1h-35l-1-3-33-1h-20l-1-3zm-45 36v3l3-1-1-2zm42 0 1 3h2v-3zm-41 7-1 3h3l-1-3zm43 0-2 1v2h4l-1-3zm-44 10-1 40 1 10h3v-49zm42 1v49h4v-49zm1207 63-1 1v6l5 1 2-4-2-4zm-784 11v3l13 8 6 3h3l7-8 4-4v-2zm188 0 3 5 7 7 1 2 5-1 14-8 3-2v-3zm595 0-1 5 1 2h6l1-5-1-2zm-746 7-9 10 1 4 7 7 3 1v-22zm145 0-1 20 2 2 2-1v-2l4-2 4-4-2-5-7-8zm601 4-1 5 1 2h6l1-6-1-1zm-1 11v5l2 2h5l1-6-1-1zm-731 7-1 16 4 1-1-17zm117 0v17h3v-16zm615 3-1 5 1 2h6l1-5-1-2zm0 11-1 5 1 2h6l1-1v-5l-1-1zm0 11-1 5 2 2h5l1-6-1-1zm0 10-1 1v5l1 1h6l1-5-1-2zm0 11-1 1v5l1 1h6l1-1v-5l-1-1zm0 11-4 3v3l2 1h8l1-6-1-1zm-4 10v7l6 1 5-2v-5l-1-1zm5 10-5 1v7h10l1-1v-5zm-4 11-2 1 1 7h10l1-1v-6l-1-1zm-989 10-1 1v7h4v-7zm-64 1v7l3-1v-6zm7 0-1 7h3l1-1v-6zm7 0v7l3-1v-6zm7 0v7h3v-6zm7 0v7h3v-7zm7 0v7h3v-7zm7 0v6l3 2v-8zm7 0 1 7h2v-7zm7 0v7l4-1-1-6zm520 0-1 70 1 1h28l1-31 2-1 1-37-1-2zm476 0-1 1v5l3 2h6l3-2v-5l-1-1zm5 10-6 1v6l1 1h10l1-1v-5zm-1045 4-2 4h4l-1 3-3 2v2l4-1 3-4v-2h-2l-2-4zm-9 1v3h3l-3 5v2l4-1 3-3v-3h-3l-1-3zm25 0-1 3h-2l1 4 2 3 4-1v-2l4-2v-2h3l-1 3-3 3 3 1 4-5-2-4-4-1-4 3-1 3-3 1 1-3 2-1v-3zm25 0-3 3 1 5 2 2 4-1v-2l4-1v-3l2 1v2l-3 3 3 1 3-4-1-4-1-2h-3v2l-4-1zm1e3 6-2 1v6l1 1h10l1-1v-6l-1-1zm-1053 11-1 5v76l1 1h67v-82zm672 0-1 16v33l4 1v-50zm182 0-1 8v43h3v-51zm198 0-1 1v5l3 2 8-1 1-1v-5l-1-1zm6 10-7 1v6l1 1h10l1-1v-5zm-5 11-2 1v6l1 1h10l1-1v-6l-1-1zm-1 11-1 1v6l8 1 4-2v-5l-1-1zm6 10-7 1v6l1 1h10l1-1v-5zm-482 8-1 2v24l1 6 14 1v2l5 5h2v2l8 7 9 9 4 5 32 32 8 7 5 2 1-1v-6l-1-4 1-1 1-11-7-8-34-34-3-6-13-13-3-4-1-16zm96 3-1 1v69l13 13h2v-82l-10-1zm175 0-5 1v88l1 1h13l1-1v-81l-1-8zm206 0-2 1v6l1 1h10l1-1v-6l-1-1zm-1 11-1 1v5l3 2 8-1 1-1v-5l-1-1zm6 10-7 1v6l1 1h10l1-1v-5zm-5 11-2 1v6l1 1h10l1-1v-6l-1-1zm-1 11-1 1v5l3 2 8-1 1-1v-5l-1-1zm-1358 4 2 4 5 3-1-7zm12 0-2 6h4l1-2 3-1-1-3zm34 0 1 3 6 4-1-6-1-1zm12 0-1 1v6h3l1-3 3-1-1-3zm-61 3-1 5 1 2 5 1v-4l-3-4zm21 0-1 3-3 2v2h6l1-5-1-2zm25 0v6l4 2 2-1-2-4-2-3zm21 1-4 4v2l3 1 4-2v-5zm1300 2-7 1v6l1 1h10l1-1v-5zm-1367 8-1 1v5h4v-2l4-1v-2zm16 0 1 3 6 4 1-5-2-2zm30 0-1 5 3 3 5-5-1-3zm17 0 2 4 3 3h2v-5l-2-2zm-56 3-4 5v2l6 1v-8zm47 0-5 5 1 3h5l1-5zm6 0-1 5 3 3 5-1v-2l-5-5zm1303 0-3 1v6l1 1h10l1-1v-6l-1-1zm-1349 1-1 4 1 2 5 1 1-4-4-3zm53 3m-63 7-2 2 6 5h2l-1-6zm11 0-2 6h4l4-3v-2zm1346 0-1 1v5l3 2 8-1 1-1v-5l-1-1zm-1361 4-1 5 2 2h5l-1-4-3-3zm21 0-2 3-3 2 2 2 5-1 1-5zm960 6-1 3 4 1-2-4zm379 1v6l1 1h10l1-1v-6zm-1361 4v5l3 2 5-5v-2zm18 0 1 3 5 4 1-1v-5l-1-1zm-10 3-4 4v3h6l1-4-1-3zm6 0 1 6 1 1h5l1-3-6-4zm968 0-1 5 1 2h13v-3l-5-4zm170 0v6l1 1h13l1-1v-5l-1-1zm212 3-3 1v6l3 1h8l1-1v-6l-2-1zm-5 11-1 1v5l1 1h13l1-1v-5l-1-1zm3 10-4 1v6l1 1h13l1-1v-5l-5-2zm-2 11-2 1v6l1 1h13l1-6-2-2zm-1356 4 2 4 3 3h2v-5l-2-2zm13 0-3 3 1 4 3-1v-2l4-1v-2zm34 0-1 3 5 4h2l-1-6zm12 0-2 2v5h3v-3l4-1v-2zm-15 3-1 1v5l2 2h4l-1-4zm-26 1-4 6 5 1 2-3-1-4zm46 0-4 4 1 3h5l1-1v-5zm1290 3v7l6 1 8-1 1-1v-5l-1-1zm-1310 7-1 1v6l4 4h5l1-1v-5l-3-1-4 4 1-3 3-2v-2zm17 0v3l5 5 1-1v-5l-3-2zm-47 1-1 3h-2v6l5 1 2-3-4-4 3 1 1 2h3v-5l-1-1zm42 2 1 7 1 1h5l1-3-6-5zm1303 0-5 1v6l1 1h13l1-1v-5l-5-2zm-2 11-3 1v6l1 1h13l1-1v-6l-1-1zm-1343 1 1 3h3l-1-3zm4 3v3l-5 1 1 3h6l1-5zm953 0-1 2v50l1 1 7 1h11l3-1v-52l-1-1zm-974 4v3h6v-3zm1358 3-1 1v6l9-1 5-2v-4zm-1358 4-1 5 1 2 3-1 1-2 3-1-1-3zm17 0v3l4 3h3l-1-5-1-1zm-10 3-1 3-3 2v2h7l-1-7zm7 0-1 4 1 3 4 1 3-3-5-5zm1704 7-2 2v86l1 1h17l1-2 9-1 1-1 1-8 2-2 1-24h-4l-1 2h-2v-9h3l1 3h2l1-5v-16h-4l-1 2h-2v-8l6 2 1-2v-18l-1-2zm-353 1-1 3h7v-3zm-1315 3-1 3 5 3 2 1-1-6zm12 0-2 2v5l3-1v-2l4-1v-2zm-15 3-1 1v5l2 2 4-1-2-4-1-3zm1311 0-1 1v6l1 1h13l1-7-1-1zm-1290 1-5 4 1 3 5-1 1-1v-5zm-22 10v7l4 4h5l1-1-1-7h-2v-2zm17 0v3l4 4h3v-5l-2-2zm1295 0-1 1v13h15v-13l-1-1zm-1298 3-1 5 2 3 6-1v-2l-6-5zm1700 4-4 4-1 7 3 6 1 1h35l1-1v-16l-1-1zm0 25-4 4-1 5v11l3 8 2 7 1 1 9 2 1 1 13 1v2l2 1 1 6v14l2 1 6-4v-59l-1-1z" fill="#BC7E4E"/>
<path transform="translate(47,332)" d="m0 0 13 5 14 8 18 10 11 6 11 7 4-1 62-31 6-1 2 4-4 5-17 8-19 10-20 10h-2l5 5 18 10 11 6 14 8 13 7 1 4-3 2-7-1-16-8-11-7-23-12-9-6-4-2-5 3-16 8-23 11-15 8-7 1-2-3-3 1 1-3 23-12 34-17v-4l-10-6-21-11-9-6-17-9v-2h-2v-2h2v-2z" fill="#CD8448"/>
<path transform="translate(1431,332)" d="m0 0h3l1 4-4 2-2-1-1 5-18 10-10 6-16 8-8 5 1 4 50 25 7 4v2l3 1-3 3-6-1-11-4-52-26-5 1-8 5-16 9-14 7-13 8-4-1v-1l-1-2-4 1 1-3 12-6 11-7 23-12 4-3 1-3-6-2-27-14-26-13-2-4 5-3 3 2 8 2 54 27 4 1 16-10 26-14 10-6 10-5z" fill="#CD8448"/>
<path transform="translate(207,339)" d="m0 0 6 3 6 2 13 8 11 7 13 8 10 7 3 2h6l23-12 21-10 11-6 9-2 1 5h-5l1 2-9 5-3 3-38 19-5 2 10 7 20 12 15 10 14 8 1 3h-4v2l-10-2-22-14-15-9-12-8-4-3-6 1-44 22h-4l-1-2h-6l1-3 46-23h3l-3-3-16-10-10-6-17-11-12-7-2-4h2v-2z" fill="#CE8447"/>
<path transform="translate(1274,338)" d="m0 0h2l-1 6-6 3-4 4-18 11-9 6-12 7-8 5h-2l3 3 46 23 9 5v2l3 1v2l-5 2-13-5-25-12-23-12-7-1-11 8-11 7-12 7-9 6-6 2v-2h2l1-3-7 1v-2l16-10 13-8 11-7 5-3h2l-3-3-25-12-19-10-12-6-1-4 5-2 11 5 6 2 25 12 17 9 8 1 14-10 20-12 19-12z" fill="#CE8447"/>
<path transform="translate(360,350)" d="m0 0 9 3 19 14 15 10 16 11 4 1 17-9 17-8 17-9 7-2h4v2l3 1-7 4-3 3-44 22-3 2 1 3 11 7 15 10 9 7 13 9 5 3 1 3-6-2-10-7-9-6-7 1-24-16-7-6-2-2-5 3-19 10-21 10-4-1 3-1v-2l-3-1 2-4 19-9 19-10-10-7-18-12-13-10-14-9-1-3h2z" fill="#CE8447"/>
<path transform="translate(1119,349)" d="m0 0 3 2-1 4-5 3-5 5-14 10-11 8-15 10-4 2 4 3 28 14 19 10 4 2 1 3-3 3-8-1-52-26-4-1-8 8-10 6-7 5-5 1-1-4h-2l2-4 12-8 11-7v-2l-46-23-1-3v-3l-4-3 7 1 3 2 9 3 19 9 17 9 4 2 4-1 11-8 17-11 13-10 14-9z" fill="#CD8448"/>
<path transform="translate(961,368)" d="m0 0 3 1-2 4 1 2-4 5-16 11-12 9-13 9-5 2v3l11 3 29 12v2l9 3-3 1-14-5-1 1 11 5v1l-9-1-29-12-11-4h-5l-7 6-15 10-16 12-4-1 1-1-3-1-4 3-5 2 2-4 16-11 15-11 11-7 1-3-12-3-11-5-17-7v-2l8 1 3 2-3-3-7-3-9-3-5-2v-1h9l25 10 17 7 8 3 7-1 9-7 12-8 12-9 12-8 5-2z" fill="#BE7E4E"/>
<path transform="translate(1949,328)" d="m0 0 5 3 9 3 11 7 12 7 17 10 5 4 7-1 10-7 22-13h1v10l-8 4-13 8-6 3h-2l1 3 18 10 10 6v10l-4-2-12-7-15-9-4-3h-6l-8 6-15 9-17 10-10 6-5 1 1-4 2-6 12-7 25-15 9-5v-2l-21-12-23-14-10-6-2-4z" fill="#CD8448"/>
<path transform="translate(517,368)" d="m0 0 6 5 11 6 10 7 12 9 12 8 7 5h6l7-3 45-18h8l-1 2h-3 4l4-1-1 2h-2v2l-13 6-28 11-15 6 4 4 15 10 9 7 15 10 4 5h-3l-5-3v-2l-5-2-10-6-4-4-2 1-5-5-5-4-3-1v-2h-2v-2h-4l-4-4-2 1-5-4-4 2h-3l2-4h4l-5-5h-2l-3-4-7-3h-3v2l-4-1-12-9-17-12-8-6-3-2v-2l4 1 4-1z" fill="#CD8448"/>
<path transform="translate(1456,330)" d="m0 0 11 3 13 8 15 9 14 8 5 4 6 1-2 4-5 1-1 5-5 6-16 9-17 10-8 5-3-1 2-2 1-2h-5v-2l10-6 17-10 10-6 9-5v-2l-18-10-26-16-11-6-1-3z" fill="#CD8448"/>
<path transform="translate(1405,646)" d="m0 0 13 2v1l-10 2v6l-3-2 1 3 3 1v12h-2l1 8 3 3-4 1 2 9h-2v9l11 1v1l-11 1v8h6l-4 3h-2v8l3 1-3 1v8l4 2h-4v9l4 1-3 1-1 9 3 1-3 1v8l4 2h-4v9l4 1-3 1-1 9 4 1-4 1v8l5 1v1h-5v9h9l2 2h-12l-1-3v-6h-2v32h-1v-175l2-10z" fill="#CF8447"/>
<path transform="translate(1406,533)" d="m0 0h4v19l3 1v8l3 2-1 2-3 1-1 6 5 2v1l-5 1v7l7 1v1l-6 2v5l5 2v2h-5v6l1 4 2 1h-3l-1 8 7 1v1l-5 1-1 6 4 4h-4v7l2 3-2 3v5l1 2-7-1-2 1v-112z" fill="#C07F4D"/>
<path transform="translate(840,388)" d="m0 0h9l25 10 17 7 8 3 7 1-2 4-3 2 4 2v2l-5 2-9 7-12 8-16 12-4-1 1-1-3-1-4 3-5 2 2-4 16-11 15-11 11-7 1-3-12-3-11-5-17-7v-2l8 1 3 2-3-3-7-3-9-3-5-2z" fill="#CD8348"/>
<path transform="translate(1402,866)" d="m0 0h1v7l2-1h12l1 2-11 1v6h3v2h8v1l-14 1v8l15 1v1l-16 1 1 7 6 2v1h-7l1 8v3l-1 8 7 1v1h-7v9l7 1v1h-7l1 8 3 2-6 2v-7h-1v23l2 1v2l3-2 12 1v2h-14v9l4 1-3 1-1 11-3-3-2 1v-98l1-12 1-1 1-12z" fill="#D18546"/>
<path transform="translate(124,372)" d="m0 0h2l5 5 18 10 11 6 14 8 13 7 1 4-3 2-7-1-16-8-11-7-23-12-9-6-3-3 6-1v-2h2z" fill="#CD8348"/>
<path transform="translate(1402,651)" d="m0 0h1v150h2l1 8h8v1l-7 1 1 6 3 1-1 3-2 1v6l1 1 9 1-4 2h-7l2 7 1 4h-3l1 7 3 2h-3l-1 9 11 1v1h-12v7l3 1-4 2h-2l-1-6h-1v-215z" fill="#BF7F4D"/>
<path transform="translate(1431,332)" d="m0 0h3l1 4-4 2-2-1-1 5-18 10-10 6-16 8-8 5-4 2 1 2-4-1-4-2v-2l-3-1 11-6 13-8 21-11 10-6 10-5z" fill="#CD8447"/>
<path transform="translate(279,382)" d="m0 0 11 6 30 19 13 8 7 4 1 3h-4v2l-10-2-22-14-15-9-12-8-4-3-4-2h10l-3-3z" fill="#CC8348"/>
<path transform="translate(1119,349)" d="m0 0 3 2-1 4-5 3-5 5-14 10-11 8-15 10-8 1-4-1 2-4 24-16 11-8 10-7 9-6z" fill="#CD8448"/>
<path transform="translate(1378,378)" d="m0 0 6 2 11 4 32 16 7 4v2l3 1-3 3-6-1-11-4-44-22v-2l4-1z" fill="#CE8447"/>
<path transform="translate(1763,958)" d="m0 0h37l2 2 1 14 2 5 1 3-4-1-3-2 2 11 1 2v8l1 3 3 2v2l2 1-5-1-4-3v6l2 3 3 2-2 2v14l2 8-1 4-1-4-4-1-3 2 1-7v-70l-18-1v-2h-9l-6-1z" fill="#D18546"/>
<path transform="translate(1872,371)" d="m0 0 9 2 17 8 19 10 11 6 3 4-4 2-10-2-19-10-23-11-2-1v-2l7 1-1-3-6-2z" fill="#CC8348"/>
<path transform="translate(1218,385)" d="m0 0 6 2 22 11 9 3 19 10v2l3 1v2l-5 2-13-5-25-12-13-7v-2l-2-1 2-1-3-2z" fill="#CE8447"/>
<path transform="translate(1025,736)" d="m0 0h1l1 20v24l-1 62-3 1-1-1-1-68 1-33h3z" fill="#D28546"/>
<path transform="translate(961,368)" d="m0 0 3 1-2 4 1 2-4 5-16 11-12 9-9 6-3-1 1-3-2-1-5 4h-2l1-3 15-10 12-9 12-8 5-2z" fill="#CD8448"/>
<path transform="translate(90,381)" d="m0 0h4v3l3 1-1 3-25 12-15 8-7 1-2-3-3 1 1-3 23-12z" fill="#CE8447"/>
<path transform="translate(1974,590)" d="m0 0 3 1v42h2v30l-5 1-2 2-1-1v-32l1-1 1-41z" fill="#CD8448"/>
<path transform="translate(428,395)" d="m0 0h2l5 5 11 7 15 10 10 8 9 6 5 3 1 3-6-2-10-7-9-6-7 1-24-16-7-6-1-3h5z" fill="#CC8348"/>
<path transform="translate(1072,399)" d="m0 0 6 2 20 10 11 4 13 7 1 3-3 3-8-1-32-16-5-5v-2l-3-3z" fill="#CE8447"/>
<path transform="translate(1344,381)" d="m0 0h2v3l3 1-5 3-3 3-22 12-10 6-4-1v-1l-1-2-4 1 1-3 12-6 11-7 15-8z" fill="#CE8447"/>
<path transform="translate(403,711)" d="m0 0 2 4 1 4 8-1 7 2h2l1 4h-69v-5l3-1h15l1-3v4l8-1h7l7 1h4v-5l1 4h2z" fill="#D28546"/>
<path transform="translate(1217,783)" d="m0 0h1l1 88-5 1v-82l1-4h2z" fill="#D38646"/>
<path transform="translate(1403,737)" d="m0 0h2v15h2v3l3 1-3 1v8l4 2h-4v9l4 1-3 1-1 9 4 1-4 1v8l5 1v1h-5v9h9l2 2h-12l-1-3v-6h-2v32h-1v-76z" fill="#C6814A"/>
<path transform="translate(248,389)" d="m0 0h5l-2 4 3 1v2l-30 15h-4l-1-2h-6l1-3z" fill="#CE8447"/>
<path transform="translate(1541,154)" d="m0 0h27l23 1-1 2-35 1-7 1 1 5 2 6h2v2l9 1 3 3h-8l-16-5z" fill="#D18546"/>
<path transform="translate(1922,325)" d="m0 0 4 2 2 2-8 4-3 3-18 9-11 3 1-4 6-5h2v-2l7-2v-2l14-7z" fill="#CE8447"/>
<path transform="translate(1814,1103)" d="m0 0 2 1v33l1 3 4 3-3 2-1 7h-9l1-3 2-1 2-2v-10l-4 9-2-3v-19l1-4 5 2z" fill="#D08546"/>
<path transform="translate(840,388)" d="m0 0h9l25 10 17 7 13 4-3 2-3-1-1 3-8-2v-2l-7-1-10-5-7-3-4-3-7-3-9-3-5-2z" fill="#C7814A"/>
<path transform="translate(974,803)" d="m0 0 2 1v2l4 1 8 11 10 10 6 5v2l4 2 4 6 4 4v2h2l6 8v5h2v13l-4-4v-2l-2-1 1-2 1-10h-2l-7-8-34-34-3-6-2-2z" fill="#CC8348"/>
<path transform="translate(958,650)" d="m0 0 9 2 10 3 16 8 6 4v3l-7 4-4-1-2-10-7-1v-2l-7-1-2-1v-2l-6 2h-4l-1 7h-1z" fill="#CD8448"/>
<path transform="translate(397,403)" d="m0 0h2l1 4h2v2l-26 13-4-1 3-1v-2l-3-1 2-4 19-9z" fill="#CD8448"/>
<path transform="translate(0,387)" d="m0 0 6 1 8 6 13 7v2h2l-1 2-4 2-6-1-11-6-7-6z" fill="#CC8348"/>
<path transform="translate(23,328)" d="m0 0 3 1v2l2 1-5 5-14 8-4 3h-5v-7l10-7z" fill="#CD8348"/>
<path transform="translate(658,572)" d="m0 0 1 2-2 5-4 4 5 4 5 3v2l-4-2h-2l-1 2-2-2-7-3-16-8v-2h5l-2-4 10 3 4 2 5-1z" fill="#CD8447"/>
<path transform="translate(853,397)" d="m0 0 8 1 7 3 11 4 5 3 5 1v2l8 1 1-2 8-1-2 4-3 2 4 2v2l-6 1v-2l-7 1 1-5-12-3-11-5-17-7z" fill="#CC8348"/>
<path transform="translate(981,804)" d="m0 0 5 1 11 12 22 22-1 3-6-5v-2l-4 1-6-7v-2l-4-1-4-5-3-2v-2h-2v-2l-4-2-1-4-3-3z" fill="#CE8447"/>
<path transform="translate(1056,390)" d="m0 0 11 2v2l32 16 1 2-6-2-20-10v2l3 3v2l3 3-6-2-15-8-1-4 2-1h2l-6-4z" fill="#BD7E4E"/>
<path transform="translate(1118,455)" d="m0 0h5l1 18 1 8-2 2v-2l-8-1-1 2v-5l2-7v-11z" fill="#CC8348"/>
<path transform="translate(86,622)" d="m0 0h15l6 2v3l-8 2-1 9-6 2-1-10-6-2v-5z" fill="#D28546"/>
<path transform="translate(925,420)" d="m0 0h6l22 9v2l9 3-3 1-14-5-1 1 11 5v1l-9-1-17-7v-2l-2-1 10 1-12-6z" fill="#CC8348"/>
<path transform="translate(410,391)" d="m0 0 7 1-2 1 2 2 4 1-1 4-16 8-4-1-1-4-5 1 2-2 16-8z" fill="#BD7E4E"/>
<path transform="translate(1789,982)" d="m0 0 6 2 2-1v50l-1 5h-1v-24h-2l-2 3-3-1v-7l1-2h3l3 3v-21h-2l-2 3-3-1v-8z" fill="#BF7F4D"/>
<path transform="translate(1985,153)" d="m0 0h2l-1 16-7 3-3-1 1-3 4-4-1-4-1-3h-5v-1h-31l-8 1 1-3z" fill="#D28546"/>
<path transform="translate(936,389)" d="m0 0 4 1-1 4-11 8-6 4-3-1 1-3-2-1-5 4h-2l1-3 14-9 9-3z" fill="#CD8348"/>
<path transform="translate(587,418)" d="m0 0 5 2 10 7 9 7 15 10 6 5 1 3-5-2-3-2v-2l-5-2-10-6-4-4-2 1-5-5-5-4-3-1v-2h-2z" fill="#CB8348"/>
<path transform="translate(100,366)" d="m0 0h5l3 4h-4l3 2v3h2l1 3 4 1-16 8-2-1-2-2v-3l-2-1 11-6-2-4-3-3z" fill="#BE7E4E"/>
<path transform="translate(1039,404)" d="m0 0 3 1-2 2h3l2 1-5 5-9 6-5 1-1-4h-2l2-4 11-7z" fill="#CD8448"/>
<path transform="translate(841,574)" d="m0 0 2 1-3 4 1 2-5 4-9 5-5-1-1-4 4-4 6-1v-2l6-3z" fill="#CF8447"/>
<path transform="translate(1405,784)" d="m0 0h2v3l4 1-4 1v8l5 1v1h-5v9h9l2 2h-12l-1-3v-6h-2v32h-1v-44h2z" fill="#CD8448"/>
<path transform="translate(124,372)" d="m0 0h2l5 5 16 9-2 1-11-5-1 3h-6l-11-7 2-2h4v-2h2z" fill="#BE7E4D"/>
<path transform="translate(890,418)" d="m0 0h9l1 3-9 7-5 1-3 2-4-1 2-6z" fill="#BD7E4E"/>
<path transform="translate(260,383)" d="m0 0 8 2 2 3-14 7-5-2 1-3-2-2z" fill="#BF7F4D"/>
<path transform="translate(1214,380)" d="m0 0h2l3 3 30 15-3 1-28-14 1 3 4 3-2 2-4-1-9-4 1-3 5 1v-2l-3-2z" fill="#BC7E4F"/>
<path transform="translate(972,694)" d="m0 0h1v29l-1 8h-2l-1 6-5-4 1-10h2v2l3-2 1-15v-13z" fill="#D28546"/>
<path transform="translate(969,834)" d="m0 0 5 2v2l4 2 7 8 21 21v2l-4-2-12-12v-2l-4-2-3-3v-2l-4-2-3-3v-2l-4-2-3-3z" fill="#CA8249"/>
<path transform="translate(1406,533)" d="m0 0h4v19l3 2-2 1-1 6-5-1v-26z" fill="#D18546"/>
<path transform="translate(1831,1102)" d="m0 0h1v39h-2l-1-4v-33z" fill="#D38646"/>
<path transform="translate(1403,726)" d="m0 0h2v5h2v2l4 2h-4v9l4 1-3 1-1 6h-2l-1-7 1-8h-2v20h-1v-21z" fill="#CB8349"/>
<path transform="translate(1349,370)" d="m0 0 5 2v3l-2 2 5 1 1 3-6 4-7 4-2-1 5-3-2-1v-3l-5 1 4-3 6-4 1-3-3-1z" fill="#BE7E4D"/>
<path transform="translate(1049,395)" d="m0 0 2 2-1 1 3 2-3 3v3l-4 3-3-1-2 1-2-2 2-2-4-1 11-7z" fill="#BD7E4E"/>
<path transform="translate(84,642)" d="m0 0 4 1-6 2v3h-2v2l-5 5-5 3h-4l2-4 5-5 9-6z" fill="#CF8447"/>
<path transform="translate(1943,342)" d="m0 0h1v47l-2 2-1-13z" fill="#D38646"/>
<path transform="translate(1403,737)" d="m0 0h2v15h2v3l3 1-3 1-3 11h-2z" fill="#C5814B"/>
<path transform="translate(318,411)" d="m0 0 4 1 4 2 3 3 3 1v2l2 1-2 2-5-1-11-7-1-2 3-1z" fill="#C07F4D"/>
<path transform="translate(1813,1135)" d="m0 0h1v11l-2 4h-3l-1 2h-2v-7h-2l2-4 3 1 3-6z" fill="#BD8153"/>
<path transform="translate(63,656)" d="m0 0h2v5l-7 8-1 6-2-1-1-10 5-5h2v-2z" fill="#D28546"/>
<path transform="translate(904,409)" d="m0 0 2 1-2 3-3 2 4 2v2l-6 1v-2l-7 1 1-5h-2v-2h6l1-2z" fill="#CF8447"/>
<path transform="translate(1373,371)" d="m0 0h2l2 4 12 6-3 1-7-3-1 3-9-3-3-3 5-1z" fill="#BD7E4E"/>
<path transform="translate(580,556)" d="m0 0h6l-1 5v3h3l-2 4-5 1-2-5v-7z" fill="#CC8348"/>
<path transform="translate(325,412)" d="m0 0 5 1 10 6 1 3h-4v2l-5-1v-3-2l-5-1z" fill="#CE8447"/>
<path transform="translate(595,402)" d="m0 0 3 1-2 1 2 2-3 3 2 2-6 1-1-1h-5v2h-2v-2l-2-1 9-3-2-2z" fill="#BE7E4E"/>
<path transform="translate(958,650)" d="m0 0 9 2 3 3-3 2-3 1h-4l-1 7h-1z" fill="#CF8447"/>
<path transform="translate(1987,154)" d="m0 0 1 2-1 14-10 4-7 2h-11l4-1v-2l8-1 15-3v-14z" fill="#C5814B"/>
<path transform="translate(1809,982)" d="m0 0 29 1v1l-6 1 3 2h-19l2-2-8-1z" fill="#D38646"/>
<path transform="translate(130,568)" d="m0 0h2l1 12-4 2h-3l-1-5z" fill="#CD8448"/>
<path transform="translate(875,403)" d="m0 0 9 2 7 3h8l5 1-3 2-3-1-1 3-8-2v-2l-7-1-7-4z" fill="#BC7E4E"/>
<path transform="translate(1420,500)" d="m0 0 2 2 1 25-2 6h-1z" fill="#D38646"/>
<path transform="translate(1400,976)" d="m0 0 3 3 4 1-3 1-1 11-3-3-2 1v-13z" fill="#D38646"/>
<path transform="translate(1405,646)" d="m0 0 13 2v1l-10 2v6l-3-2-2 3v-8z" fill="#D28546"/>
<path transform="translate(40,352)" d="m0 0h1v43h-1l-2-8 1-13z" fill="#D38646"/>
<path transform="translate(428,395)" d="m0 0h2l2 4 1 3 3 3-2 1-6-2-5-3-1-3h5z" fill="#BC7E4E"/>
<path transform="translate(1021,854)" d="m0 0 3 3v5h2v13l-4-4v-2l-2-1 1-2z" fill="#D38646"/>
<path transform="translate(271,683)" d="m0 0h13v2l-7 1-2 6-4-1z" fill="#CE8447"/>
<path transform="translate(1214,384)" d="m0 0h4l1 4 4 3-2 2-4-1-9-4 1-3 5 1z" fill="#BF7F4D"/>
<path transform="translate(936,389)" d="m0 0 4 1-1 4-4-2v2l-6 4-3-1v-2l-2-1 11-4z" fill="#BC7E4F"/>
<path transform="translate(1118,456)" d="m0 0h4v14l-3-1-1 2z" fill="#D38646"/>
<path transform="translate(86,622)" d="m0 0h15l-1 2h-12l1 3 4 2 1 9-2-3-1-5-6-2v-5z" fill="#BC7E4F"/>
<path transform="translate(99,640)" d="m0 0 8 1 5 3 3 5-5-2-7-1-1-4-3-1z" fill="#CD8448"/>
<path transform="translate(919,639)" d="m0 0 4 1 13 13-1 3-16-16z" fill="#C98249"/>
<path transform="translate(1402,716)" d="m0 0h1l1 7v-5l2-1 1 6 3 1-3 1-1 6h-1v-5h-2v10h-1z" fill="#D38646"/>
<path transform="translate(840,388)" d="m0 0h9l4 2v2l7 2 1 2-5-1-11-4-5-2z" fill="#CE8447"/>
<path transform="translate(990,855)" d="m0 0 4 2 12 12v2l-4-2-12-12z" fill="#CB8348"/>
<path transform="translate(546,426)" d="m0 0h6v2l-13 5h-5l2-2h3v-3l5-1z" fill="#CB8348"/>
<path transform="translate(1117,456)" d="m0 0h1l1 13h2v4l-3 1-2 2v-17z" fill="#BC7E4F"/>
<path transform="translate(399,384)" d="m0 0 13 2 1 4-5 1-9-6z" fill="#BF7F4D"/>
<path transform="translate(1405,784)" d="m0 0h2v3l4 1-4 1v8l-2-1v-6h-2v10h-1v-11h2z" fill="#D28546"/>
<path transform="translate(1177,619)" d="m0 0h3l-1 3h-3v10l-2 1-1-9 1-2-3-1v-1z" fill="#D18546"/>
<path transform="translate(1403,896)" d="m0 0h1l1 6 12 1v3h-7l-7-3z" fill="#C17F4C"/>
<path transform="translate(597,565)" d="m0 0 16 3 4 3h-6l-1-1-11-2-2-1z" fill="#CB8348"/>
<path transform="translate(270,386)" d="m0 0h12l3 5-6 1-5-4z" fill="#BC7E4E"/>
<path transform="translate(1e3 369)" d="m0 0 9 3 1 2h-3l4 4-6-2-8-4 4-1z" fill="#BE7E4E"/>
<path transform="translate(1405,762)" d="m0 0h2v3l4 2-4 1-1 5-1-4h-2v10h-1v-11h2z" fill="#D38646"/>
<path transform="translate(1843,932)" d="m0 0 3 1-1 4h-2v4h-4l1-7z" fill="#CF8447"/>
<path transform="translate(1054,595)" d="m0 0 5 5 1 4 2 2-6-1v-2h-2z" fill="#D08547"/>
<path transform="translate(969,787)" d="m0 0 5 5 9 8-1 3-5-4-6-7-2-1z" fill="#D18546"/>
<path transform="translate(1405,854)" d="m0 0 2 4v3l11 1v1h-12v8h-1z" fill="#D38646"/>
<path transform="translate(1215,372)" d="m0 0 2 1-2 4 1 2-4 1-10-3 3-1h5z" fill="#C2804C"/>
<path transform="translate(658,572)" d="m0 0 1 2-2 5-2 3-5-1 6-7z" fill="#D38646"/>
<path transform="translate(884,404)" d="m0 0 7 1 5 2v2l-8-1-4-2z" fill="#CB8349"/>
<path transform="translate(0,814)" d="m0 0 3 1 2 5v3l-5-1z" fill="#CB8349"/>
<path transform="translate(366,711)" d="m0 0h4l-1 4-2 1v3h-6l4-5z" fill="#BE8154"/>
<path transform="translate(156,443)" d="m0 0 3 1-4 5-3 8h-1v-6l3-6z" fill="#CC8348"/>
<path transform="translate(473,427)" d="m0 0 4 2 8 5 1 3-6-2-5-5z" fill="#C7824A"/>
<path transform="translate(1019,416)" d="m0 0 4 1-5 5-5 1 2-4z" fill="#CA8349"/>
<path transform="translate(1405,741)" d="m0 0h2v3l4 1-3 1-1 6h-2l-1-7z" fill="#CF8447"/>
<path transform="translate(1814,1146)" d="m0 0h2v5l-1 1h-7l1-3 3 1z" fill="#D38646"/>
<path transform="translate(26,797)" d="m0 0 10 1v1h-5v2l-3 3h-2z" fill="#D38646"/>
<path transform="translate(1824,1054)" d="m0 0 9 1v8h-1v-5l-8-2z" fill="#D18546"/>
<path transform="translate(2014,371)" d="m0 0 7 2v2l-2 1 3 3-5-2-4-4z" fill="#BC7E4E"/>
<path transform="translate(1406,967)" d="m0 0 11 1v2h-13z" fill="#D08547"/>
<path transform="translate(1200,386)" d="m0 0 2 1 1 2-5 4-2-1v-1l-3-1z" fill="#BF7F4D"/>
<path transform="translate(1808,1095)" d="m0 0h1l1 10-1 2-3-1zm-4 11h2v2h-2z" fill="#D38E55"/>
<path transform="translate(410,711)" d="m0 0 3 1-1 3h-3z" fill="#BD7E4E"/>
<path transform="translate(97,985)" d="m0 0h3l-2 4h-2z" fill="#BD7E4E"/>
</svg>
