<?xml version="1.0" encoding="UTF-8"?>
<svg version="1.1" viewBox="0 0 2048 1152" width="576" height="324" xmlns="http://www.w3.org/2000/svg">
<path transform="translate(477,71)" d="m0 0h6l1 38 4 3 12 6 6 5 9 17 1 11-5 2h-6v17l17 1 1 3v6l-1 1h-14l1 20 7 3 1 1 21 1 7 3 11 1 4 2 8 2 16 6 10 6 7 6 7 8 4 5 4 6 10 10 10 5 8 2 1 1 12 2 4 2 14 1v3h-60v23l-7 8-8 8-16 1v16l13 1 5 2 3 4h112l2-2h8l5 4v6l-3 2 2 9 3 17 2 10 6 31 7 28 8 25 6 20 7 25 11 32 9 24 5 12 8 15 11 23 20 30 8 11 8 9 4 6 15 15 8 5 7 7 18 10 19 9 16 8 16 5 22 4 24 3 27 3 19 2 3 1h80v-2l5-1 1-95-3-1 1-4 5-2 4 5-3 3v95l3 1v98l14-4 8-2 2-1 13-1 3-2 5-1h12l1-3 11-1 3-2 12-1 8 1 3 2 7 1 22 22 2 9 2 2v19l-2 2-1 35h17v-29l1-7 31-1-1-48-2-2v-11l2-2 1-11v-69l-29-29-69-1-2-1 1-4 8-5 32-16 23-11 17-9 19-9v-136l-1-50-2-3v-9l5-10 5-5 11-6h7l12 6 6 7 2 4 9 1v-50h21v-117l-4-2-3-3v-5l1-1h29l3 1-2 6-5 4-1 117h14v-67l-3-1v-5l2-2v-27l-2-2v-6h16l1 1v5l-3 1 1 28 2 1v6l-2 1-1 67 42-1v-27l1-3 2-1h40v-18h-64l-1-102-4-3-6-3 1-5 12-1 1-1v-10l-3-4-1-18-2-3-2-16-2-3-1-17-2-3-1-10h-57l1-3 10-2 2-2 13-1v-2l13-1 10-4 4-4 2-9 1-1 1-16 8-17 11-12 13-8 7-3h8l17 8 13 13 8 16 1 4 1 15 2 3 2 9 12 6v-47l-5-5-2-3 1-4 1-1h14l5 4 1 6-7 1v50l7 1 1 1 12 2 4 2 7 1 1 3h-32v22l3 1v2h-3v20l-1 19 4 1v2l-2 1-1 5v11l1 1h83l1-35h102l1 1v148h-39l1 17 44 1 1 1v37l-6 2v30l6 3v5h36l8 2 14 8 12 12 4 7 1 4 1 24 6 5v5l-6 5v92l6 5-1 5-5 4v41l5 4 2 4 119 1 1 1v102h14l-1-42-2-3-7-2 2-4 3-5 20-11 7 1 19 10 5 7-1 3-6 2-2 2-1 42h5l2 2-1 5h-6v98l-1 15-2 2-1 84 3 1 1 8v59h5l2 2v4l-7 1v20l-4 2 1 20h22l4-3 1-10 1-25 3-3 3-1h15v11h-10v27l3 3 7 2v46h-679l-1-163h-20v45l7 2v116h-18l-1-28-2 2-1 4-6 1-1-1v-17h6l2 7h3l-1-24-3-2v-45l1-14h6v-49l3-3 8-2h18v-21h-46v191l-1 1h-6l-1-158v-34h-49v192h-7l-1-192h-20v-4h21l-1-6-20-1-1-1v-26l1-1 20-1 1-17-5 3-11 11-8 1-3 3h-18l-4-3-7-1-8-7-2 4-33 33-1 5 6 1 1 1v6h-7v3h6l1 1v6l-1 1h-6v3h6l1 1v6l-6 1v2l6 1v7l-6 1-1 2 7 1v6l-7 1v20h4v-2h6l2 2 18 1 8 7 5 6v44l3 1v5l-3 1v46l3 1v5l-3 1v11h-18l-2-11-1-1v-5l2-2v-43l-3-6 3-5v-28l-7-8-6-1-1 3h-5l-5-3v110h-1159v-46l27-1v-28l-2-2-24-1-1-1v-10h25l2-4 1-23 1-1 85-1v-88l71-1-1-5v-18l-3-3 1-5 2-2v-5l-5 1-3 6-3 3h-2v-24l4-4h2l1 10h6v-46l-3-1 1-5 2-2 1-29 7-8 2-1 26-1 1-2h5l2 2 10 1v-84l3-2 1-141 6-5v-25l-3-7-1-9-1-5 6 1-3-3-4-2-3-6v-7l4-6 6-4h7l7 5 3 5v7l-4 7-6 2 7 2-2 4-2 13h-2l-1 29 5 2 2 2 1 141 6 1v17h135l-1-27-52-52v-7l2-3 1-5 1-19 6-1v-46h-6l-1-1-1-9-2-2 1-5 31-31 6-2v-59l-13-1-1-2-6-2v-2l6-1 1-71h-17l-4-4-1-10 3-5 2-2 12-1v-13l-13-1-1-3h-2l-1-10 2-5 3-3 16-1v-16l-16-1-15-15v-24h-60l-1-3 14-1 5-2 1-1 11-1 3-2 8-2 10-6 10-10 5-8 9-10 8-7 14-7 9-3 11-3 1-1 16-2 6-2 18-1 7-4 2-20h-14l-1-1v-7l1-2 15-1 1-1 1-16h-9l-2-1v-8l4-10 6-11 7-6 14-7 1-38zm1006 32v10l1 1h5l1-2v-7l-2-2zm-9 3-2 1v6h7v-6zm20 0-1 7 1 1h6l1-4-3-4zm-25 11-1 1v5l1 1h10v-6l-1-1zm15 0-1 1v6h6l1-5-1-2zm10 0-1 1v6h10l1-5-1-2zm-23 11 2 6 5 1 1-1v-5l-1-1zm12 0v10h6l1-4-1-6zm10 0 1 7h5l2-5-1-2zm33 28-1 1-2 10-1 6 1 1 13 1 1 3h9l1-1v-20l-1-1zm10 25v39l2 1h8l1-1v-38l-1-1zm106 29 1 3h96l-1-3zm5 6-1 2 5 5 4-2 2-4zm15 0-2 2 4 5 4-1 3-2v-3zm14 0-1 3 4 4 5-2 1-4-2-1zm14 0v4l3 3 4-1 2-2-1-4zm14 0v4l3 3 4-1 3-4-2-2zm14 0-1 2 4 5 4-1 3-3v-3zm15 0-1 4 5 4 2-1v-6l-1-1zm-90 5-1 1v7l1 2 3-1v-2l4-1-1-3-4-3zm14 0-4 3 2 5 5 2 4-4-2-4zm29 0-4 3 1 4 3 3 4-2 2-2-1-4zm14 0-4 3 1 4 5 3 5-4-2-4zm14 0-4 3 2 5 5 2 4-4-2-4-2-2zm16-1-2 1v2l-3 1 1 4 3 3 4-2 2-5zm-58 1-4 3 1 4 3 3h2l4-4v-3zm-136 3v3h-23l-2 1v13l1 1h34l1-1v-17zm114 3-4 4 1 4 3 3 4-1 3-3-2-4-3-3zm29 0-4 4 1 4 2 3 4-1 3-3-1-4zm14 0-1 3-3 1 1 4 3 3h3l3-4-1-4zm14 0-4 4 1 4 3 3 4-1 3-3-2-4zm14 0-4 6 4 5 4-1 3-3-2-4-3-3zm16 0-5 4 1 5 5 2 1-4-1-7zm-73 1-4 5 4 5 4-1 3-3v-3l-4-3zm-21 6-1 5 3 3 5-1-2-4zm14 1-4 6 1 1h9v-4l-4-3zm15 0-4 4 1 3h8v-4zm14 0-4 4 1 3h9v-4l-4-3zm14 0-4 4 1 3h9v-4l-4-3zm14 0-1 3-3 1 1 3h9v-4l-4-3zm14 0-3 4 1 3h9l-1-4-3-3zm-1343 81-1 3v15h3v-18zm188 0-1 17 4 1v-17zm33 32-6 6-12 1-1 1-1 9 2 5 11 1 7 6h108l7-3 8-1 1-3-2-10-4-8-5-2-2-2zm973 7v18h3v-18zm-50 1-1 3v13l4 1v-17zm7 0-1 16 3 1 1-1v-16zm7 0v16h4v-9l-1-7zm7 0v16l3 1 1-1v-10l-1-6zm7 0v16h4v-11l-1-5zm7 0v16l4 1v-16zm7 0v16l4 1v-17zm-91 20-1 1v7h17l1-1-1-7zm21 0-1 1 1 7h17v-7l-1-1zm206 0-1 1v6l1 1h17v-7l-1-1zm25 0-4 1v7l13 1 5-1v-6l-1-2zm-204 1v6l4 1v-7zm8 0-1 6 4 1v-7zm7 0v7h3l1-3-1-4zm7 0v7l4-1-1-6zm7 0v7l4-1-1-6zm7 0v7h4v-6zm8 0-1 1v5l4 1v-7zm7 0-1 5 1 2h3l1-5-1-2zm-975 7-3 5-4 1-14 1v71l7 1-1 2-9 3-25 1-1 54 1 7 20 1 31 31 2 6-3 1-1 2v8h-6l-1 1v45l7 1v23l3 4v7l-52 52v27l20 1h112l3-1 1-16 6-2 1-142 4-2 2-2v-25l-2-3-2-13-2-5 5 1 2-2-7-3-3-6v-7l4-6 6-3h6l6 4 3 5v7l-3 6-6 2v2l6 1-3 9-1 8-2 2v26l6 5 1 141 3 2 1 81h405l4-1v-49h-29l-1 2-33 1-2 2-48 1h-41l-24-1-27-4-16-4-15-4-21-10-9-6-8-6-10-8-9-9-5-6-5-4-9-11-6-8-6-9-9-17-9-22-12-25-14-42-5-21-9-45-9-37-4-20-6-38-2-12-4-4-5-1-1-2zm125 0 1 7 11 66 11 45 11 53 5 18 12 35 10 21 6 13 7 16 9 17 8 10 7 9 27 27 8 5 9 7 16 8 14 6 24 6 29 4 30 1h29l54-1-1-3-19-2-6-2-25-2-14-2-21-2-19-3-19-5-15-6-40-20-11-9-13-10-12-12-8-11-10-12-18-27-6-10-8-15-10-21-5-11-9-25-6-16-7-23-5-17-11-36-6-20-6-24-3-15-2-11zm751 3-1 1v17h18v-17l-1-1zm22 0-2 1v16l1 1h17v-17l-1-1zm205 0-1 3v9l1 6h17l1-5-1-13zm22 0-1 1v17h17l1-1v-16l-1-1zm-199 0-2 1v16h4v-16zm5 1v13l1 4h3v-17zm8 0v16h4l-1-16zm7 0v16h4l-1-16zm7 0v16l2 1 2-1v-15zm7 0v16h4v-16zm8 0-1 4v10l1 3h3v-17zm7 0v17h3v-17zm-1195 3v71h3v-71zm189 0-1 71h4v-71zm752 56-3 3 1 4 5 1 2-2-1-5zm9 12-1 4 2 2h5l1-3-2-3zm-935 10-1 3h7l-1-3zm947 0-2 2 1 4 5 1 1-5-2-2zm13 0-4 8-5 5-10 4-10-1-4-2h-3l-1 161 1 7 5-1 10-5 5-1h24l2-1 1-30 6-3 4-4-1-5-5-4-4-1v-4l9-6 1-4-5-5-6-2 2-5 5-3 4-4-1-4-4-4-5-2v-4l6-3 4-4-1-5-5-4-4-1v-4l9-6 1-4-5-5-6-2 2-5 8-5 1-5-5-5-5-2v-4l6-3 4-4-1-5-5-4zm-961 8v2l5 1 2-1v-2zm0 7 1 3h5v-3zm0 7 1 3h6l-1-3zm1351 0v6l-6 1-1 5v12h-10l-4 1v7h14v7l-3-1-11 1v7h14v7h-13l-1 1v6l3 1 11-1v7h-11l-3 1v6l5 1 9-1v8l-7-1-7 2v6h11l3-1v8h-13l-1 1v6h13l1 7h-12l-2 1v6h14v7h-9l-5 1v6h14l-1 7-12 1-1 1v5l5 1 9-1-1 7-12 1-1 1v5l1 1h8l5-1v8h-11l-3 1v5l12 1 2-1v14l1 1h27l7-1 7-7v-42l-5-5 1-5 5-5v-90l-6-6v-5l6-7v-10l-1-2-8-3zm-1351 7v3h7l-1-3zm0 7v3h7l-1-3zm-147 3-5 4-1 6 4 4 5 1 5-5v-5l-5-5zm455 0-5 4-1 5 4 5 5 1 5-4v-6l-5-5zm-307 4v4h5v-4zm1316 4v6h5l1-5-1-1zm-1316 3v4h5v-4zm1 7-2 1v2l6 1 1-3zm1315 4v6h5l1-5zm-1 15 1 6h5l1-5-1-1zm1 14-1 3 1 3h5l1-5zm0 14-1 4 1 2h5l1-5zm-1345 6v4h3l-1-4zm12 0-1 4 3-1-1-3zm21 0v4h2l-1-4zm152 0-1 2 1 2 3-1-1-3zm32 0v4h3l-1-4zm-195 1v3h2v-3zm173 0 1 3h2v-3zm11 0 1 3h2v-3zm-206 7v32l3-1v-31zm11 0-1 1v29l4 1v-30zm10 0v31h4v-13l-1-18zm11 0v31h3v-31zm153 0-1 30 4 1v-31zm10 0v31h4v-28l-1-3zm11 0v31l4-1-1-30zm11 0v31h3v-31zm1128 0-1 4 3 3 4-1-1-5zm-1 15 1 5 4 1 2-1-1-5zm0 14 1 5 5 1 1-5zm-1343 6-1 4 3-1v-3zm11 0-1 4 3-1-1-3zm10 0v4h2v-4zm11 0-1 3h3l-1-3zm164 0-1 4 3-1-1-3zm10 0-1 4h3v-4zm11 0-1 4 3-1-1-3zm-32 0-2 1 1 3 3-1-1-3zm1159 8-1 2 2 4 5-1v-4zm0 14v6h5l1-4-2-2zm0 15-1 2 2 3h5l1-4zm-388 51v4l40 40h2v-8l-7-8-27-27zm-30 1 3 5 13 13h2l1-9v-9zm50 0 3 5 17 17h2v-22zm-24 10-1 16 7 8 19 19 5 1 12-1-2-4-39-39zm643 15 2 5 3 2h26l5-5v-2zm-643 14-1 13v42l1 3 6-2 2-1h12l9 6 5 5 3 6 3 3h5l1-5v-15l-38-38v-2l6-1-2-4-10-10zm-188 3-1 1v49h4v-49zm-865 1v3l4-1v-2zm7 0 1 3 5 4 4-1 5-5-3-1-3 3-4-1-2-2zm18 0v3l7 5 7-6v-2l-4 2-4 1-3-3zm18 0v3l6 5 4-2 4-4v-2l-4 2-4 1-3-3zm18 0v3l6 5 4-2 4-4v-2l-4 2-4 1-3-3zm18 0v3l7 5 7-6v-2h-3l-3 3-5-2zm18 0-1 3 5 3 3 2 7-6-1-2-3 1v2l-6-1zm18 0-1 3 6 4 4-1 4-3-1-3-2 1v2h-7l-1-3zm17 0v3h3v-3zm153 0v3l3-1v-2zm7 0v3l5 4 5-1 4-4v-2h-3l-3 3-4-1-1-2zm18 0v3l7 5 7-6v-2h-3l-3 3-4-1-1-2zm17 0 1 3 7 5 7-6v-2l-4 1-4 2-3-3zm18 0 1 3h2l2 4h4l5-4v-3l-4 2-3 1-4-3zm18 0v3l6 5 4-2 4-4v-2l-4 2-3 1-3-1-1-2zm18 0v3l5 4 5-1 4-4v-2l-4 2-4 1-3-3zm18 0v3l6 4 4-2 4-4-8 2-4-3zm18 0-1 3 4-1-1-2zm-395 7-4 4v10h11v-9l-5-5zm18 0-4 4-1 7 1 3h10l1-3-1-7-4-4zm18 0-5 5v8l1 1h10v-10l-4-4zm17 0-4 4v9l1 1h10v-10l-5-4zm18 0-4 4v10h11v-9l-5-5zm18 0-4 4v10h11v-9l-5-5zm18 0-5 4v9l1 1h10v-11zm160 0-4 3v11h10v-10l-4-4zm18 0-5 5v8l1 1h10v-10l-4-4zm17 0-4 4v10h11v-9l-5-5zm18 0-4 4v10h11v-9l-5-5zm18 0-4 4v10h10l1-3-2-9zm18 0-5 5v8l1 1h10v-10l-4-4zm17 0-4 4v10h11v-10l-5-4zm-390 0-5 4v10h11v-10l-5-4zm407 1-3 2v11h11v-9l-4-4zm-404 16-1 1v38h4v-38zm47 0-1 1-1 19v19l4 1v-39zm18 0-2 3v36l3 1 1-1v-37zm53 0-1 1-1 38h4v-39zm6 0-1 1v38l4 1v-39zm154 0-1 1v39h3v-40zm6 0-1 38 1 2h3v-39zm12 0-1 1-1 12v26h4v-38zm7 0-1 1-1 24v14h4v-38zm-311 1v38l3 1 1-1v-38zm20-1-2 1-1 37 4 2 1-38zm5 1v39l4-1v-38zm11 0-1 38 4 1v-39zm7 0-1 37 4 1v-38zm18 0-1 38 2 1 2-1v-38zm17 0v38h4v-38zm11 0v38l3 1 1-5v-20l-1-14zm7 0v38h4v-37zm11 0-1 38 4 1v-39zm7 0v38h4l-1-38zm207 0-1 1v37l3 1 1-1v-38zm6 0v38h4v-38zm11 0-1 37 4 2v-39zm7 0v38h4v-37zm11 0-1 38 4 1v-39zm7 0-1 37 4 1v-38zm11 0-1 12v26l3 1 1-1v-38zm7 0-1 38h4v-38zm11 0-1 1v37l3 1 1-1v-37zm6 0v38h4v-38zm13-1-2 1v38h4v-14l-1-25zm5 1v38h4v-22l-1-16zm1266 10-1 49-84 1-1 28-1 14-3 3-20 1-1 12 1 9 4 1 38 1 2 2 1 6 1 54 2 2 1 8 1 1h27l2 7 6 1v63l24 1 2 3h13v-77l-2-2v-27l2-2 1-54 3-3v-69l-3-2-1-31zm-607 25-1 1v5l1 1h5l2-4-3-3zm-1141 7-5 5v19l2 2 1 6h-3v60l3 1-1 6-2 1v24l8 1h20l1 7h10v-132h-9l-2 2h-6l-2-2zm67 0-1 4 4-1-1-3zm7 0-1 4 4-1-1-3zm10 0v4h3v-4zm8 0-1 5 4-2-1-3zm10 0v4h3l-1-4zm7 0v5l3-1v-4zm11 0-1 4h3v-4zm7 0v4h3v-4zm11 0-1 4h3v-4zm7 0-1 4h4v-4zm10 0v4h3v-4zm8 0-1 4 4-1-1-3zm10 0v4h3l-1-4zm7 0v4h3l1-3zm12 0-1 4 3-1-1-3zm6 0v4l3-1v-3zm161 0-1 4h3l-1-4zm10 0-1 4h3v-4zm7 0-1 4 2 1 2-1v-4zm10 0v4h3v-4zm8 0-1 4 2 1 2-1v-4zm10 0v4h3v-4zm7 0v4l4-1-1-3zm11 0v4h3l-1-4zm7 0v5l3-1 1-3zm11 0-1 4 4-1-1-3zm7 0v4h3v-4zm11 0-1 4h3v-4zm7 0-1 4h4v-4zm11 0-1 4h3v-4zm6 0v4h3v-4zm-130 0-2 2 1 2h3l-1-4zm779 4-2 2 1 4 5 1 1-1v-5zm-1e3 3-1 4h3v-4zm18 0-1 5 3-1-1-4zm302 0-1 5 4-2-1-3zm18 0-1 5 3-1-1-4zm-400 1v3l4-1v-2zm8 0-1 3h4v-3zm10 0v3l3-1v-2zm9-1-2 1v3h4l-1-4zm8 1v3l4-1v-2zm10-1-2 1v3l4-1-1-3zm8 1v3l4-1v-2zm18 0v3h3v-3zm18 0v3h3v-3zm9-1-2 1 1 4 3-1-1-4zm9 1v3l3-1v-2zm7 0v3h4v-3zm11 0v3l3-1v-2zm7 0v3h3v-3zm152 0v2h4v-2zm8 0v3l4-1v-2zm10 0v3l4-1v-2zm10-1-2 1v3h3l1-3zm8 1v3h3v-3zm10-1-3 2v2h4zm8 1v3h3v-3zm9-1-2 1 1 4 3-1-1-4zm8 1v3h4v-3zm10-1-2 1 1 4 3-1-1-4zm8 1v3l4-1v-2zm18 0v3h3v-3zm18 0v3h3v-3zm9-1-2 1 1 3h3l-1-4zm44 4 1 3h2v-3zm75 0v3l4-1-1-2zm21 0v99l9 1h54l12-1 4-5 6-12-2-2v-13l5-10 4-3 6-3h14l3 2h16l2-2 13-1 5-3 11-1 3-2 16-2 2-2 14-1 3-2 16-2 2-2 14-1 7-3 9-1 3-2 15-2 6-2 11-1 3-2 13-1 6-3 1-1v-14zm496 3-1 1v6l5 1 2-2-1-5zm35 0-3 7-8 7-6 3h-11l-3-2h-5l-1 19v15l1 1h46v-49l-1-1zm-626 4v3l19 19 1-3-11-12-7-7zm20 0-10 4 1 3 5 4 11-3 8-1v-7zm22 0v7l13 2 3 2 5-1 4-5-10-5zm1024 0v57l17 1 2 6 9 2 4 1v-21l-17-1-3-3-1-41-1-1zm-1077 4v3h3v-3zm90 0-8 7-5 5-6 7 1 2 6-5v-2l4-2 5-5 6-7zm6 0v3l3-1v-2zm371 0-4 2-13 1-3 2-12 2-5 2-9 1-2 1v67l7-1 4-2 12-1 16-8 8-7-6-7-3-10-1-1v-18l5-13 9-9zm-424 6-7 1-4 3 2 5 6 6h6v-14zm10 1v13l5 1 8-7v-4l-3-3zm445 0-4 4v5l7 6 7-6-1-6-3-3zm-487 3-3 7-1 1v17h6l1-1 1-11 3-4-1-4zm74 0-4 6 1 4 2 5 2 10h6v-16l-4-8zm323 3-10 2-17 3-7 2-9 1-4 2-12 2-1 1-15 2-4 2-15 2-7 2-12 2-1 1-15 2-5 2-11 2-1 1-16 2-2 2-10 2v20l-3 1 2 4 5 8 3 5 14 1 132-1 7-6 5-3 13-1v-65zm-387 8-1 3h-2l-1 2v8l1 1h14l-1-6-7-8zm55 0-5 4-4 5 1 5h13l1-1-1-9-2-4zm406 3-6 5v5l5 5 5-1 5-5-2-5-4-4zm35 0-5 5v5l5 5 5-1 4-4-1-6-5-4zm-475 4 2 4 3 3h5l5-6-1-1zm457 0-2 4 2 3 5-1 1-4-1-2zm-459 3-1 1v14l5-3 3-5-6-7zm17 1-5 5 1 4 5 4h2v-13zm-50 10v17l4 8 3-1v-2l3-1 1-3-3-7-1-9-1-2zm11 0-1 1 1 9 3 4 4-1 7-7v-5l-1-1zm29 0-5 6v1h15l-2-4-4-3zm21 0-1 5 7 8 5 1 3-6v-6l-1-2zm18 0-3 13-2 3 1 5 5 4 2-1 3-10v-13l-1-1zm125 0-1 4 3-1-1-3zm288 0-5 5v5l6 5 5-2 4-5-3-5-3-3zm146 3-2 2v30h4v-31zm-80 1v31h4v-29l-1-2zm7 0v31h4v-30zm8 0-1 1v30h4v-31zm7 0-1 3v28h5v-30zm14 0-1 2v29h4v-31zm7 0-1 5v26h4v-31zm7 0-1 12v16l1 3h3v-31zm7 0v31h4l-1-31zm7 0v31h4v-25l-1-6zm9-1-2 1v31h4v-31zm-597 11-10 9 4 5 2 1h9v-14zm13 0-1 1v14h9l5-4-1-4h-2l-2-4-5-3zm-27 0-8 7-11 11-1 4 5-3 16-16zm40 4 2 4 17 17h2l-2-5-13-12-4-4zm125 0v3h3v-3zm18 0v3h3v-3zm17 0v3l3 1v-4zm-157 10-6 3-10 1-1 1v6h16l8-4-1-4-4-3zm-45 1-4 5 1 2 7 3h17v-6l-1-1-11-1-4-2zm-24 3v4l2-1v-3zm96 0-1 4h3l-1-4zm1010 0-5 3-7 1v6l-18 1v53h50v-39l-13-1-4-4-1-20zm13 0-1 3v9l1 2 13 2 3 2 1 46h15l2-10 1-1v-53zm-910 4v3h3l-1-3zm-11 4-3 3v3h31l-2-4-4-2-3 2h-16v-2zm-189 3v3h4v-3zm75 1v2l4-1zm459 20v7l7 1h40l3-1-1-7zm56 0v6l1 1 45 1 1-1v-6l-1-1zm-1175 7-1 3 7 3 5 5 3 7 3-1-3-8-9-8zm53 0v4l7 2 5 6 3 6h2l-1-6-7-8h-2v-2l-4-2zm-61 0-6 3-2 4-4 2-3 7 1 2h2l3-7 6-6 6-2-1-3zm51 1-8 7-4 5v5l3-1 2-6 7-6 5-1v-3zm37 3v107l1 3h10v-110zm-91 3v4l4 3h2v-5zm11 0-1 1v7l3-1 1-2 3-1-1-4zm42 0v3l4 4h3l-1-6zm11 0-1 1v6h3l1-3 3-1-1-3zm-68 4-1 5 1 2h6l1-3-4-4zm21 0-1 3-3 3 1 1h6l-1-7zm33 0-1 1v5l1 1h6v-3l-4-4zm20 0-1 3-3 3 1 1h6l1-3-1-4zm-82 11 2 7 8 9 3 2 5-1-1-3-7-3-5-6-2-5zm8 0-1 5 1 2 3-1v-2l4-1-4 6 5 2 2-1-1-7-2-3zm16 0 6 7 2-1v-6zm13 0-3 7-2 4-9 3-1 3h6l5-4v-2l4-2 2-3v-6zm16 0 2 7 10 10 5 1v-4l-5-2-7-7-2-5zm8 0v6h3l4-3v3l-3 1v3l5 1 1-1v-6l-2-4zm19-1-3 2 5 4 1 2 3-1-1-6zm10 1-4 9-6 4-4 1-1 3h6l10-9 1-2v-6zm-67 3-1 5 1 2h5v-3l-3-4zm53 0-1 4 1 3h5l1-3zm-167 60-1 1v24l4-1-1-23zm28 0-1 1v24h4v-24zm-22 1v24l4-1v-16l-1-7zm7 0v24h4v-22l-1-2zm8 0-1 1v23h4v-24zm1898 21v42l1 1h16l1-5v-19l-3-1-1-18zm-1724 14-1 6-27 1-1 1v20l7 1h30l2-1v-28zm-60 7-1 10v11l4-1-1-20zm11 0-1 1v20h7v-20l-1-1z" fill="#88562D"/>
<path transform="translate(726,351)" d="m0 0 1 2h2l3 10 2 13 2 10 6 31 7 28 8 25 6 20 7 25 11 32 9 24 5 12 8 15 11 23 20 30 8 11 8 9 4 6 15 15 8 5 7 7 18 10 19 9 16 8 16 5 22 4 24 3 27 3 19 2 3 1h80v-2l5-1 1-95-3-1 1-4 5-2 4 5-3 3v95l3 1v12l-4 1v-7h-2l-1 8-1 37h-1l-1-45h-29l-1 3-33 1-2 2-48 1h-41l-24-1-27-4-16-4-15-4-21-10-9-6-8-6-10-8-10-10v-2l-3-1-4-4v-2l-3-1-9-11-6-8-6-9-9-17-9-22-12-25-14-42-5-21-9-45-9-37-4-20-6-38-3-17h2l3 5 11 66 11 45 11 53 5 18 12 35 10 21 6 13 7 16 9 17 8 10 7 9 26 26 8 5 9 7 16 8 14 6 24 6 29 4 30 1h83l-1-2-19-2-6-2-25-2-14-2-21-2-19-3-19-5-15-6-40-20-11-9-13-10-13-13-8-11-10-12-18-27-6-10-8-15-10-21-5-11-9-25-6-16-7-23-5-17-11-36-6-20-6-24-2-19-3-15-2-13-2-4z" fill="#9B612D"/>
<path transform="translate(1343,983)" d="m0 0h17v1l-9 1-5 4 1 33 1 12 7 2v116h-18l-1-28-2 2-1 4-6 1-1-1v-17h6l2 7h3l-1-24-3-2v-45l1-14h6v-49z" fill="#89562D"/>
<path transform="translate(726,386)" d="m0 0h2l3 5 11 66 11 45 11 53 5 18 12 35 10 21 6 13 7 16 9 17 8 10 7 9 26 26 8 5 9 7 16 8 14 6 24 6 29 4 12 2 78 1v1l-26 1h-41l-24-1-27-4-16-4-15-4-21-10-9-6-8-6-10-8-10-10v-2l-3-1-4-4v-2l-3-1-9-11-6-8-6-9-9-17-9-22-12-25-14-42-5-21-9-45-9-37-4-20-6-38z" fill="#9D622D"/>
<path transform="translate(726,351)" d="m0 0 1 2h2l3 10 2 13 2 10 6 31 7 28 8 25 6 20 7 25 11 32 9 24 5 12 8 15 11 23 20 30 8 11 8 9 4 6 15 15 1 4-6-4-13-13-8-11-10-12-18-27-6-10-8-15-10-21-5-11-9-25-6-16-7-23-5-17-11-36-6-20-6-24-2-19-3-15-2-13-2-4z" fill="#9E622D"/>
<path transform="translate(1639,206)" d="m0 0h102l1 3-1 37h-1l-1-5-4-1 4-2v-22l-6 1v5l-4-1v-5l-11 1-1 4-3-1-1-2-1-1h-8v5l-3-1-1-4h-10l-1 5-2-1-1-5-3 1h-7l-1 5-3-1v-5l-4 1h-6l-3 3-1-4-5 1h-8l-1 2v-2h-2l1 5v9l5-4h2l-1 3-2 1 1 4 2 3-5-2-1-1-3 5h-1zm3 4 1 3h96l-1-3z" fill="#965E2D"/>
<path transform="translate(1319,962)" d="m0 0h2v153l1 3 1 33-1 1h-6l-1-155h2v-26l2-5z" fill="#A0632D"/>
<path transform="translate(1981,715)" d="m0 0 7 1 19 10 5 7-1 3-9 3v-3h-37l-1 3-1-2-7-2 2-4 3-5z" fill="#8A572D"/>
<path transform="translate(719,338)" d="m0 0h8l5 4v6l-3 2-2 4-1 3-3-5-4-1-2-2-59-1-3-1-23-1-4-1-15-1v-1l15-1 1-1 88-1z" fill="#89562D"/>
<path transform="translate(1135,644)" d="m0 0 4 2 2 3-3 3v95l3 1v12l-4 1v-7h-2l-1 8-1 37h-1l-1-38-1-7-11-2h-60l-7-1v-1l76-1v-2l5-1 1-95-3-1 1-4z" fill="#8F5A2D"/>
<path transform="translate(1739,215)" d="m0 0h1v23l-5 2-4-4-3-1-2 4-2 2h-3l-5-5h-2l-3 3h-5l-4-3-4 2-5 1-1 2v-3l-6-2-3 3-5 2-5-5-6 5h-2v-3l5-4 1-3-4-2-4 1-2 3 3 4-1 2-6-4-1 3-3-1 3-3-2-4-9-8-3-1v-4l5 1 4 4 4-2 2-3-2-1h3l1 3 4 2 4 1 4-2v-3l-2-1h3v6l-3 2 1 4 4 3 1-3 2-1 1-3-3-1-1-5 5 4 5-2v-4h2l1 5-4 3 1 4 4 2 3-3-1-4-2-5 5 4 4-1 1-5 3 1-1 5-3 2 1 4 4 2 3-3h2l-4-6 1-2 3 3 4-1 4-4-1 5-3 2 2 5 4 2 1-3 2-1-2-4-1-4 4 3 4-1 4-5-1 7-2 1 1 4 4 2 3-4-1-5 5 2v-7zm-82 6-4 3 2 5 5 2 4-4-2-4zm22 6-4 4 1 4 2 3 4-1 3-3-1-4zm14 0-1 3-3 1 1 4 3 3h3l3-4-1-4zm14 0-4 4 1 4 3 3 4-1 3-3-2-4zm14 0-4 6 4 5 4-1 3-3-2-4-3-3zm16 0-5 4 1 5 5 2 1-4-1-7z" fill="#985F2D"/>
<path transform="translate(726,386)" d="m0 0h2l3 5 11 66 11 45 11 53 4 17-3 1-5-17-6-28-9-43-6-24-4-20-6-38z" fill="#9A602D"/>
<path transform="translate(1318,490)" d="m0 0h2l1 4v65l-1 80-2 4-1-6v-146z" fill="#A1642D"/>
<path transform="translate(786,568)" d="m0 0h3l6 15 8 15 11 23 20 30 8 11 8 9 4 6 15 15 1 4-6-4-13-13-8-11-10-12-18-27-6-10-8-15-10-21-5-11z" fill="#9E622D"/>
<path transform="translate(1261,1009)" d="m0 0 2 2 1 98v43h-4v-100z" fill="#A1642D"/>
<path transform="translate(1541,85)" d="m0 0h14l5 4 1 6-7 1v33h-1l-1-15-1 18h-3l-1-26-2-10-5-4-1-5z" fill="#88562D"/>
<path transform="translate(249,502)" d="m0 0h7l7 5 2 10-4 7-5 2-2 2-5-1-10-8v-7l4-6zm2 6-5 4-1 6 4 4 5 1 5-5v-5l-5-5z" fill="#9C612D"/>
<path transform="translate(726,351)" d="m0 0 1 2h2l3 10 2 13 2 10 6 31 7 28 4 13h-2l-1 2-7-21-7-28-2-19-3-15-2-13-2-4z" fill="#9A602D"/>
<path transform="translate(1343,983)" d="m0 0h17v1l-9 1-5 4v33l-1 6h-5v-42z" fill="#9C612D"/>
<path transform="translate(1067,754)" d="m0 0h30v2l-29 2-2 2h-22l-78-1-9-1v-1h110z" fill="#8E592D"/>
<path transform="translate(1747,373)" d="m0 0 2 1v37h-7v-2l-6-1v-1l-7-1v-1l16-1v-16h-17l-1 17h-1l-1-18h-18l-1-2 35-1h5l-1-8-2-1z" fill="#985F2D"/>
<path transform="translate(1655,216)" d="m0 0h3l1 3 4 2 4 1 4-2v-3l-2-1h3v6l-3 2 1 4 4 3 1-3 4-2-2 4-1 4 2 3 4-1 3-4h3v3l-5 4-5 2-5-5-6 5h-2v-3l5-4 1-3-4-2-4 1-2 3 3 4-1 2-6-4-1 3-3-1 3-3-2-4-9-8-3-1v-4l5 1 4 4 4-2 2-3zm2 5-4 3 2 5 5 2 4-4-2-4z" fill="#935C2D"/>
<path transform="translate(613,343)" d="m0 0h98l-2 2-54 2-23-1-4-1-15-1z" fill="#A1642D"/>
<path transform="translate(705,502)" d="m0 0h6l6 4 3 7-1 6-3 5h-4l2-4 2-2-1-6-5-5h-7l-4 5 1 7 5 4 6 1-2 4-10-4-5-5v-7l4-6 5-3z" fill="#9C612D"/>
<path transform="translate(1316,998)" d="m0 0 2 2-1 147h2l2-15h1l1 19-1 1h-6z" fill="#88562D"/>
<path transform="translate(1723,206)" d="m0 0h8l3 2 6 1v5l-3-1h2l-1-2-96-1v-1l19-1h62z" fill="#88562D"/>
<path transform="translate(1316,545)" d="m0 0h2v70h-2v31h-1v-77z" fill="#8E592D"/>
<path transform="translate(614,378)" d="m0 0h42l45 1v1l-32 1-7 1h-23v-1l-21-1z" fill="#A1642D"/>
<path transform="translate(1119,751)" d="m0 0 11 2v1h-28l-1 3h-15v-1h11l-2-1h-17l-11-1v-2z" fill="#9E622D"/>
<path transform="translate(1641,206)" d="m0 0h82v2l-13 1-63-1-6-1z" fill="#C09D80"/>
<path transform="translate(1478,373)" d="m0 0 19 1 2 1 2 7 4 5-6 1v16h-1l-1-15-1-1h-17l-2-1 1-4 1 2h13l4-2v-7l-17 1-2-1z" fill="#945C2D"/>
<path transform="translate(1731,206)" d="m0 0h10l1 3-1 37h-1l-1-5-4-1 4-2v-22l-6 1v5l-4-1v-5h-11v-2h14l5-1 3 1v-5l-12-1z" fill="#9F642F"/>
<path transform="translate(747,487)" d="m0 0h2l4 15 5 24v4h-2v-2h-2l-8-38z" fill="#9B602D"/>
<path transform="translate(195,959)" d="m0 0 10 1 7 6 1 3-1 6-1-4h-2v-4l-6 2v-2l2-1v-2h-5l-2 5-1-2h-2v-3h-7v-3z" fill="#8D592D"/>
<path transform="translate(1718,373)" d="m0 0h29l-4 3-15 1v5l-2-4v-2l-3 1h-17l-2-1v-2z" fill="#915B2D"/>
<path transform="translate(1676,214)" d="m0 0h38l3 1 1 4-1 2-3-1-1-2-1-1h-8v5l-3-1-1-4h-10l-1 5-2-1-1-5-3 1h-8z" fill="#A26732"/>
<path transform="translate(1550,105)" d="m0 0 2 3 2-3v24h-1l-1-15-1 18h-3v-26z" fill="#A1642D"/>
<path transform="translate(726,386)" d="m0 0h2l3 5 5 30v6h-1l-2-7h-1l-3-17z" fill="#9C612D"/>
<path transform="translate(778,846)" d="m0 0 10 1 3 2 6 1-3 5-6 4v-3l-2-4-1-1-9-1-1-3z" fill="#935C2D"/>
<path transform="translate(211,977)" d="m0 0 3 1-1 6-4 5-6 3h-4l-2 3-1-5 1-6 3 1v3l5-1 1-2-4-2 1-3 4 3v2l3-3z" fill="#935C2D"/>
<path transform="translate(249,506)" d="m0 0 7 1 5 5 1 6-5 6-6 1-7-6-1-7zm2 2-5 4-1 6 4 4 5 1 5-5v-5l-5-5z" fill="#89562D"/>
<path transform="translate(1655,216)" d="m0 0h3l1 3 4 2 4 1 4-2v-3l-2-1h3v6l-5 2-1 3h-2l-5-5-5 2-2 2-10-5v-4l5 1 4 4 4-2 2-3z" fill="#8C582D"/>
<path transform="translate(585,777)" d="m0 0 1 2 2 1v24l-2 10h-1z" fill="#A0632D"/>
<path transform="translate(742,431)" d="m0 0 3 1 8 25-2 1-1 2-7-21z" fill="#995F2D"/>
<path transform="translate(979,741)" d="m0 0 29 3 3 3-21-1-9-1-3-3z" fill="#9C612D"/>
<path transform="translate(1748,388)" d="m0 0h1v23h-7v-2l-6-1v-1l-7-1v-1h15l3 1v-14z" fill="#9F632D"/>
<path transform="translate(1321,1057)" d="m0 0h1l1 51-1 10-2-4v-16z" fill="#89562D"/>
<path transform="translate(481,71)" d="m0 0 2 1-1 7v9l-2 11-2 1v-28z" fill="#A1642D"/>
<path transform="translate(1035,872)" d="m0 0h5l1 3-12 3-13 1-8 1 3-3 15-2z" fill="#995F2D"/>
<path transform="translate(737,890)" d="m0 0 2 4 4 4 4-1 6-6h3l-2 4-5 5h-2l-1 3-4 3-2-1 2-3h-2l-4-9z" fill="#965E2D"/>
<path transform="translate(761,871)" d="m0 0 6 4 3 4h4l2 5 5 5-1 2-7-5h-5l-1-2 1-3-7-8z" fill="#8D582D"/>
<path transform="translate(30,1036)" d="m0 0h20v1l-17 1 2 2h-4v11l-1 12-2 2v-17z" fill="#A1642D"/>
<path transform="translate(1684,216)" d="m0 0h2l1 5-4 3 1 4 4 2 4-3v3l-2 1 1 6-3-1v-4l-4-1-6-5v-2l-3-1-1-5 5 4 5-2z" fill="#8D592D"/>
<path transform="translate(1678,226)" d="m0 0v3l-2 2 1 4 1 2 4-1 3-4h3v3l-5 4-5 2-5-5-6 5h-2v-3l5-4h2v-2h2l1-4z" fill="#9F622D"/>
<path transform="translate(801,858)" d="m0 0 4 5 2 5 1 9-3 1-4-12v-2l-5-1z" fill="#8D592D"/>
<path transform="translate(726,351)" d="m0 0 1 2h2l3 10 2 13 1 4-1 5-2-1-2-17-3-7z" fill="#A0632D"/>
<path transform="translate(1723,206)" d="m0 0h8l3 2 6 1v5l-3-1h2l-1-2-29-1 2-2h12z" fill="#88562D"/>
<path transform="translate(1476,374)" d="m0 0 1 2h2v8h16l-3 2h-14l-1 1-1 15h-1v-25z" fill="#905A2D"/>
<path transform="translate(603,777)" d="m0 0 3 2v13l-1 17-1 5h-1z" fill="#A1642D"/>
<path transform="translate(1067,754)" d="m0 0h30v2l-30 2z" fill="#88562D"/>
<path transform="translate(755,528)" d="m0 0 1 2 3 1 3 15v3h-2l-1 2-4-19z" fill="#985E2D"/>
<path transform="translate(751,849)" d="m0 0h7l-1 3-2 1 2 5 1 4-4-2v-2l-4-2-2-5h3z" fill="#955D2D"/>
<path transform="translate(1e3 879)" d="m0 0 4 2-8 4-12 1-7 1 2-2 13-3z" fill="#9A602D"/>
<path transform="translate(204,960)" d="m0 0 5 3 4 5-1 7-1-4h-2v-4l-6 2v-2l2-1v-2l-6-2v-1z" fill="#935C2D"/>
<path transform="translate(144,956)" d="m0 0 2 2-3 2-1-2h2zm-4 3 2 1v3l-6 1v3h-4l-1 3-2 3-1-5 8-8z" fill="#905A2D"/>
<path transform="translate(1739,215)" d="m0 0h1v23l-5 2-4-4 1-2 4 3h2v-12l-3 1-2-5 5 2v-7z" fill="#8B582D"/>
<path transform="translate(1009,745)" d="m0 0 17 1 7 1-3 2h-14l-5-1v-2z" fill="#985F2D"/>
<path transform="translate(856,722)" d="m0 0 5 2 8 7 6 3-4 2-6-4-8-6z" fill="#985F2D"/>
<path transform="translate(747,487)" d="m0 0h2l4 15v3l-3 1-4-18z" fill="#9E622D"/>
<path transform="translate(733,419)" d="m0 0 2 3 3 17v6l-3-4-3-21z" fill="#9F632D"/>
<path transform="translate(149,981)" d="m0 0 4 1 3 4v3l-6 3-7 1 1-4h3l5-2-3-4z" fill="#945C2D"/>
<path transform="translate(1135,644)" d="m0 0 4 2 2 3-3 3-4 1v-2l-3-1 1-4z" fill="#925C2D"/>
<path transform="translate(843,710)" d="m0 0 7 6 6 5 1 4-4-2-10-9z" fill="#9C612D"/>
<path transform="translate(732,403)" d="m0 0h1l3 18v6h-1l-2-7h-1l-2-9v-6z" fill="#945C2D"/>
<path transform="translate(1648,227)" d="m0 0h2l-1 3-2 1 1 4 2 3-5-2-1-1-3 5h-1v-7h2l1-3h2z" fill="#965D2D"/>
<path transform="translate(137,981)" d="m0 0h2l-3 6 5 1v3h-6l-6-7 3-1v2z" fill="#955D2D"/>
<path transform="translate(115,947)" d="m0 0h5l-2 6h-2v27h-1z" fill="#A1642D"/>
<path transform="translate(791,909)" d="m0 0 1 3-3 4-3 1h-7l-3-2 1-1 9-2 5-1z" fill="#9B602D"/>
<path transform="translate(1318,763)" d="m0 0h2v20l-3-1v-9z" fill="#A1642D"/>
<path transform="translate(706,511)" d="m0 0 5 2 1 5-7 1-1-1v-5z" fill="#905A2D"/>
<path transform="translate(869,693)" d="m0 0 6 2 7 7v3l-4-2-8-6z" fill="#945C2D"/>
<path transform="translate(251,511)" d="m0 0 4 2 2 5-7 1-1-5z" fill="#925C2D"/>
<path transform="translate(477,71)" d="m0 0 4 1h-3l1 8-1 11-2 1v-20z" fill="#925B2D"/>
<path transform="translate(1478,373)" d="m0 0 19 1-2 2-16 1-2-1z" fill="#9C612D"/>
<path transform="translate(1541,85)" d="m0 0h14v1l-11 1-1 2 2 5-4-1-2-3 1-4z" fill="#9B612D"/>
<path transform="translate(1704,214)" d="m0 0h10l3 1 1 4-1 2-3-1-1-2-1-1h-9z" fill="#A0632D"/>
<path transform="translate(1698,216)" d="m0 0 3 1-1 5-3 2-2 3v-2l-4-1-3-4 1-2 4 4 4-1z" fill="#8B582D"/>
<path transform="translate(737,890)" d="m0 0 5 10 5 1-5 5-2-1 2-3h-2l-4-9z" fill="#9E622D"/>
<path transform="translate(905,747)" d="m0 0 9 3 3 3-7-1-8-2v-2z" fill="#9D622D"/>
<path transform="translate(1052,869)" d="m0 0h9l2 2-19 2 2-3z" fill="#9F622D"/>
<path transform="translate(1347,808)" d="m0 0 4 1 5 5v3l-5-2-3-2z" fill="#9D612D"/>
<path transform="translate(1685,232)" d="m0 0h3v3l-5 4-5 2-4-5 1-3 3 4 4-1z" fill="#9B602D"/>
<path transform="translate(1728,216)" d="m0 0h1l-1 7-3 3-6-2-2-2 1-3 3 3 4-1z" fill="#8B582D"/>
<path transform="translate(1676,214)" d="m0 0h10l3 1v7l-2-1-1-5-3 1h-8z" fill="#A56B37"/>
<path transform="translate(1554,87)" d="m0 0 5 1 2 3v4h-6v-2h2v-2h-2z" fill="#9C612D"/>
<path transform="translate(761,871)" d="m0 0 6 4 3 4 4 1-2 4-7-6-4-5z" fill="#985F2D"/>
<path transform="translate(1054,751)" d="m0 0 13 1-1 3-19-2v-1z" fill="#985F2D"/>
<path transform="translate(1477,383)" d="m0 0 2 2h16l1 2-17 1-2-1z" fill="#A1642D"/>
<path transform="translate(659,273)" d="m0 0 16 1v3l-16-1z" fill="#985F2D"/>
<path transform="translate(1322,1101)" d="m0 0h1v11l-1 6-2-4v-11z" fill="#8E592D"/>
<path transform="translate(1993,719)" d="m0 0 12 6 1 3-5-2-10-5z" fill="#975E2D"/>
<path transform="translate(1927,1052)" d="m0 0h24l-1 5-1-2-2-1-20-1z" fill="#A1642D"/>
<path transform="translate(319,778)" d="m0 0h1l1 17-1 12h-1l-1-13z" fill="#A1642D"/>
<path transform="translate(754,519)" d="m0 0h2l2 7v4h-2v-2h-2l-1-7z" fill="#9D622D"/>
<path transform="translate(1731,206)" d="m0 0h10l1 3h-8l-6-1z" fill="#AC7A4D"/>
<path transform="translate(751,910)" d="m0 0 6 2 2 1v2h9v1l-12 1-2-4-4-1z" fill="#9D622D"/>
<path transform="translate(1714,217)" d="m0 0 1 3-4 4-4 3-4-6 1-2 3 3 4-1z" fill="#8C582D"/>
<path transform="translate(585,764)" d="m0 0h4v6l-2 1-1 5h-1z" fill="#A1642D"/>
<path transform="translate(144,956)" d="m0 0 2 2-3 2-1-2h2zm-4 3 2 1v3l-7 1 1-4z" fill="#945D2D"/>
<path transform="translate(1017,876)" d="m0 0h7l-4 3-12 1 3-3z" fill="#A1642D"/>
<path transform="translate(1046,864)" d="m0 0h8v2l-7 2-4-1z" fill="#955D2D"/>
<path transform="translate(1709,206)" d="m0 0h14v2l-13 1z" fill="#C09874"/>
<path transform="translate(801,858)" d="m0 0 2 3v5h-2v-2l-5-1z" fill="#A1642D"/>
<path transform="translate(726,386)" d="m0 0h2l3 5 1 4v7h-1l-2-8-2-3z" fill="#935C2D"/>
<path transform="translate(264,511)" d="m0 0 2 1v7l-4 7-3-1 5-8z" fill="#8A572D"/>
<path transform="translate(1699,232)" d="m0 0h3v3l-5 4h-4l-1 2v-3l-2-1h3l3 1 2-4z" fill="#9F622D"/>
<path transform="translate(1642,217)" d="m0 0 5 1 2 3v3l-4-2-3-1z" fill="#925B2D"/>
<path transform="translate(950,756)" d="m0 0 7 1 2 1v2h-6l-4-3z" fill="#9D612D"/>
<path transform="translate(940,755)" d="m0 0h8l3 3-3 1-6-1v-2z" fill="#965E2D"/>
<path transform="translate(726,351)" d="m0 0 1 2h2l2 9h-3l-2-8z" fill="#975E2D"/>
<path transform="translate(1658,232)" d="m0 0 3 1 3 4-1 2-6-4-1 3-3-1 3-3h2z" fill="#9A602D"/>
<path transform="translate(1723,206)" d="m0 0h8l-2 3h-13v-1h7z" fill="#A1642D"/>
</svg>
