<?xml version="1.0" encoding="UTF-8"?>
<svg version="1.1" xmlns="http://www.w3.org/2000/svg" width="576" height="324">
<path d="M0 0 C1.15680267 0.00424484 1.15680267 0.00424484 2.3369751 0.00857544 C4.79251832 0.01974237 7.2476926 0.04484021 9.703125 0.0703125 C11.37108847 0.08034682 13.03905768 0.08947189 14.70703125 0.09765625 C18.78920397 0.11967025 22.871102 0.15417583 26.953125 0.1953125 C26.953125 1.5153125 26.953125 2.8353125 26.953125 4.1953125 C21.508125 3.7003125 21.508125 3.7003125 15.953125 3.1953125 C16.96375 4.1028125 17.974375 5.0103125 19.015625 5.9453125 C20.73828125 7.4921875 20.73828125 7.4921875 21.953125 9.1953125 C21.66374207 12.24269197 20.69766839 13.57849742 18.953125 16.1953125 C18.84613281 17.03578125 18.73914063 17.87625 18.62890625 18.7421875 C17.953125 21.1953125 17.953125 21.1953125 15.80859375 22.5234375 C14.92816406 22.82765625 14.04773438 23.131875 13.140625 23.4453125 C12.26792969 23.75984375 11.39523438 24.074375 10.49609375 24.3984375 C8.32540864 25.07865219 6.16770578 25.6790932 3.953125 26.1953125 C1.0386807 33.95204362 1.88351826 41.86893545 2.11914062 50.03125 C2.13783203 51.16304687 2.15652344 52.29484375 2.17578125 53.4609375 C2.21844116 55.00442871 2.21844116 55.00442871 2.26196289 56.57910156 C1.953125 59.1953125 1.953125 59.1953125 0.55322266 60.99438477 C-1.15757711 62.2783982 -2.74778539 63.09567322 -4.734375 63.8828125 C-5.8275 64.3159375 -6.920625 64.7490625 -8.046875 65.1953125 C-7.77875 66.2678125 -7.510625 67.3403125 -7.234375 68.4453125 C-7.1725 69.6828125 -7.110625 70.9203125 -7.046875 72.1953125 C-9.296875 74.2578125 -9.296875 74.2578125 -12.046875 76.1953125 C-12.500625 77.1646875 -12.954375 78.1340625 -13.421875 79.1328125 C-15.08849036 82.27374145 -15.609495 82.69816944 -18.484375 84.3828125 C-23.45431911 87.56273437 -24.51528841 92.76341225 -26.046875 98.1953125 C-25.386875 98.1953125 -24.726875 98.1953125 -24.046875 98.1953125 C-24.046875 103.1453125 -24.046875 108.0953125 -24.046875 113.1953125 C-23.386875 113.1953125 -22.726875 113.1953125 -22.046875 113.1953125 C-22.046875 121.1153125 -22.046875 129.0353125 -22.046875 137.1953125 C-21.386875 137.1953125 -20.726875 137.1953125 -20.046875 137.1953125 C-20.046875 144.7853125 -20.046875 152.3753125 -20.046875 160.1953125 C-16.746875 160.1953125 -13.446875 160.1953125 -10.046875 160.1953125 C-10.046875 155.5753125 -10.046875 150.9553125 -10.046875 146.1953125 C-12.356875 146.1953125 -14.666875 146.1953125 -17.046875 146.1953125 C-16.68408447 145.77628662 -16.32129395 145.35726074 -15.94750977 144.92553711 C-12.76152966 141.22943216 -9.62704407 137.4994411 -6.56347656 133.70117188 C-5.47097447 132.35665786 -4.36379431 131.02398716 -3.24511719 129.70117188 C-0.26245608 126.13768537 2.31833625 122.69314398 4.52734375 118.59765625 C7.32486336 113.78369836 9.90351469 109.81405065 14.953125 107.1953125 C20.59134199 105.94602827 26.06770556 105.69158588 31.828125 105.6953125 C32.93444275 105.68443604 32.93444275 105.68443604 34.06311035 105.67333984 C46.07747331 105.68667506 46.07747331 105.68667506 50.25512695 109.046875 C51.38382444 110.46000236 52.46737065 111.91088238 53.49316406 113.40039062 C54.98831689 115.59717342 54.98831689 115.59717342 58.69921875 116.1953125 C59.91738281 116.1953125 61.13554687 116.1953125 62.390625 116.1953125 C64.55625 116.1953125 66.721875 116.1953125 68.953125 116.1953125 C68.953125 110.2553125 68.953125 104.3153125 68.953125 98.1953125 C68.293125 98.1953125 67.633125 98.1953125 66.953125 98.1953125 C67.61440929 91.58932226 69.03613678 85.3410915 70.67578125 78.9140625 C70.94071884 77.85997192 71.20565643 76.80588135 71.47862244 75.71984863 C72.31985022 72.37719867 73.16763291 69.03625211 74.015625 65.6953125 C74.5896275 63.41938045 75.16319977 61.14333984 75.73632812 58.8671875 C77.13695047 53.30862988 78.54294792 47.75145336 79.953125 42.1953125 C80.613125 42.1953125 81.273125 42.1953125 81.953125 42.1953125 C83.95398906 49.52576338 85.9470123 56.85831307 87.93457031 64.19238281 C88.61179666 66.68766645 89.29082377 69.18246208 89.97167969 71.67675781 C90.94939186 75.25980215 91.9206379 78.84454527 92.890625 82.4296875 C93.19685791 83.54647888 93.50309082 84.66327026 93.81860352 85.81390381 C94.09889404 86.85468079 94.37918457 87.89545776 94.66796875 88.96777344 C94.91667725 89.88266541 95.16538574 90.79755737 95.42163086 91.74017334 C95.953125 94.1953125 95.953125 94.1953125 95.953125 98.1953125 C95.293125 98.1953125 94.633125 98.1953125 93.953125 98.1953125 C93.953125 104.1353125 93.953125 110.0753125 93.953125 116.1953125 C95.95375 116.1953125 97.954375 116.1953125 100.015625 116.1953125 C101.14097656 116.1953125 102.26632812 116.1953125 103.42578125 116.1953125 C107.45838901 115.05207043 107.62655883 114.48919389 109.87109375 111.21484375 C112.69077 107.70781498 114.90430486 106.62578174 119.3938446 106.097229 C123.00383189 105.85330843 126.58640359 105.82234536 130.203125 105.8828125 C131.32778168 105.88834137 131.32778168 105.88834137 132.47515869 105.89398193 C146.43945319 106.06275177 146.43945319 106.06275177 151.1796875 109.62890625 C153.6419359 112.20728285 155.32293315 115.13563568 156.92382812 118.3046875 C158.72847826 121.61949078 161.19112997 124.41273867 163.578125 127.3203125 C164.4861094 128.48070332 165.39110786 129.64343735 166.29296875 130.80859375 C169.56808182 135.00366891 172.96341853 139.09557707 176.37109375 143.18359375 C177.953125 145.1953125 177.953125 145.1953125 177.953125 146.1953125 C175.643125 146.1953125 173.333125 146.1953125 170.953125 146.1953125 C170.953125 175.8953125 170.953125 205.5953125 170.953125 236.1953125 C173.923125 236.1953125 176.893125 236.1953125 179.953125 236.1953125 C179.953125 214.0853125 179.953125 191.9753125 179.953125 169.1953125 C182.923125 169.1953125 185.893125 169.1953125 188.953125 169.1953125 C188.953125 144.7753125 188.953125 120.3553125 188.953125 95.1953125 C187.963125 95.1953125 186.973125 95.1953125 185.953125 95.1953125 C185.953125 88.2653125 185.953125 81.3353125 185.953125 74.1953125 C185.293125 73.8653125 184.633125 73.5353125 183.953125 73.1953125 C184.25347656 72.60363281 184.55382812 72.01195313 184.86328125 71.40234375 C187.32536935 66.49318598 187.32536935 66.49318598 187.703125 61.1328125 C187.455625 60.4934375 187.208125 59.8540625 186.953125 59.1953125 C188.603125 59.1953125 190.253125 59.1953125 191.953125 59.1953125 C192.613125 57.2153125 193.273125 55.2353125 193.953125 53.1953125 C194.943125 53.1953125 195.933125 53.1953125 196.953125 53.1953125 C196.953125 49.5653125 196.953125 45.9353125 196.953125 42.1953125 C197.613125 42.1953125 198.273125 42.1953125 198.953125 42.1953125 C198.953125 45.8253125 198.953125 49.4553125 198.953125 53.1953125 C199.943125 53.1953125 200.933125 53.1953125 201.953125 53.1953125 C202.613125 55.1753125 203.273125 57.1553125 203.953125 59.1953125 C205.603125 59.1953125 207.253125 59.1953125 208.953125 59.1953125 C208.581875 60.401875 208.581875 60.401875 208.203125 61.6328125 C207.8571294 66.56324985 209.72200643 69.88628523 211.953125 74.1953125 C211.293125 74.1953125 210.633125 74.1953125 209.953125 74.1953125 C209.953125 81.1253125 209.953125 88.0553125 209.953125 95.1953125 C208.963125 95.1953125 207.973125 95.1953125 206.953125 95.1953125 C206.953125 119.6153125 206.953125 144.0353125 206.953125 169.1953125 C209.923125 169.1953125 212.893125 169.1953125 215.953125 169.1953125 C215.953125 191.3053125 215.953125 213.4153125 215.953125 236.1953125 C222.223125 236.1953125 228.493125 236.1953125 234.953125 236.1953125 C234.953125 235.2053125 234.953125 234.2153125 234.953125 233.1953125 C235.613125 233.1953125 236.273125 233.1953125 236.953125 233.1953125 C236.953125 232.5353125 236.953125 231.8753125 236.953125 231.1953125 C236.293125 231.1953125 235.633125 231.1953125 234.953125 231.1953125 C234.953125 230.2053125 234.953125 229.2153125 234.953125 228.1953125 C235.613125 228.1953125 236.273125 228.1953125 236.953125 228.1953125 C236.953125 227.5353125 236.953125 226.8753125 236.953125 226.1953125 C236.293125 226.1953125 235.633125 226.1953125 234.953125 226.1953125 C234.953125 225.2053125 234.953125 224.2153125 234.953125 223.1953125 C235.613125 223.1953125 236.273125 223.1953125 236.953125 223.1953125 C236.953125 222.5353125 236.953125 221.8753125 236.953125 221.1953125 C236.293125 221.1953125 235.633125 221.1953125 234.953125 221.1953125 C234.953125 220.2053125 234.953125 219.2153125 234.953125 218.1953125 C235.613125 218.1953125 236.273125 218.1953125 236.953125 218.1953125 C236.953125 217.5353125 236.953125 216.8753125 236.953125 216.1953125 C236.293125 216.1953125 235.633125 216.1953125 234.953125 216.1953125 C234.953125 215.2053125 234.953125 214.2153125 234.953125 213.1953125 C235.613125 213.1953125 236.273125 213.1953125 236.953125 213.1953125 C236.953125 212.5353125 236.953125 211.8753125 236.953125 211.1953125 C236.293125 211.1953125 235.633125 211.1953125 234.953125 211.1953125 C234.953125 210.2053125 234.953125 209.2153125 234.953125 208.1953125 C235.613125 208.1953125 236.273125 208.1953125 236.953125 208.1953125 C236.953125 203.2453125 236.953125 198.2953125 236.953125 193.1953125 C235.963125 193.1953125 234.973125 193.1953125 233.953125 193.1953125 C233.953125 190.5553125 233.953125 187.9153125 233.953125 185.1953125 C238.243125 185.1953125 242.533125 185.1953125 246.953125 185.1953125 C246.953125 176.9453125 246.953125 168.6953125 246.953125 160.1953125 C247.943125 160.1953125 248.933125 160.1953125 249.953125 160.1953125 C249.87570068 159.27306885 249.79827637 158.3508252 249.71850586 157.40063477 C249.45109298 153.94034249 249.22731603 150.48262468 249.03149414 147.01782227 C248.93851342 145.52610208 248.82881541 144.03531816 248.70141602 142.54614258 C247.65863303 130.15322768 247.65863303 130.15322768 250.96533203 125.15185547 C253.18695373 122.93023377 255.38799083 121.00380374 257.953125 119.1953125 C259.603125 120.1853125 261.253125 121.1753125 262.953125 122.1953125 C262.623125 121.4734375 262.293125 120.7515625 261.953125 120.0078125 C260.94708971 117.17833823 260.78335098 115.16635784 260.953125 112.1953125 C261.571875 112.1540625 262.190625 112.1128125 262.828125 112.0703125 C263.529375 111.7815625 264.230625 111.4928125 264.953125 111.1953125 C266.13647895 108.31212475 266.13647895 108.31212475 266.953125 105.1953125 C267.613125 104.2053125 268.273125 103.2153125 268.953125 102.1953125 C269.47589363 99.79057679 269.76652463 97.63770398 269.953125 95.1953125 C270.04207031 94.13699219 270.13101562 93.07867187 270.22265625 91.98828125 C270.38484923 88.62749184 270.42979574 85.5275108 269.953125 82.1953125 C267.37916159 79.53488209 267.37916159 79.53488209 263.953125 78.1953125 C259.2564898 73.94597589 255.23849864 70.00148658 254.578125 63.5078125 C254.953125 60.1953125 254.953125 60.1953125 256.953125 57.1953125 C257.45602927 53.33971309 257.39224419 51.77608304 255.015625 48.6328125 C254.335 47.8284375 253.654375 47.0240625 252.953125 46.1953125 C252.140625 43.4453125 252.140625 43.4453125 251.953125 41.1953125 C252.283125 40.8653125 252.613125 40.5353125 252.953125 40.1953125 C253.26740709 38.43475081 253.50537161 36.66023881 253.703125 34.8828125 C253.88101563 33.43455078 253.88101563 33.43455078 254.0625 31.95703125 C253.9341844 28.71706234 253.11541381 27.54150732 250.953125 25.1953125 C252.14383259 22.27266659 253.2454427 20.93018715 255.640625 18.7578125 C258.21064164 16.46870637 258.21064164 16.46870637 258.015625 13.7578125 C255.88195973 8.61191391 252.42013735 4.49818736 248.953125 0.1953125 C262.98274767 0.14861143 277.01235831 0.11346587 291.04204273 0.09168816 C297.55613203 0.08123755 304.07016921 0.06705504 310.58422852 0.04443359 C316.86710309 0.02275078 323.14992744 0.0107535 329.43283653 0.00555801 C331.83349079 0.00185405 334.2341422 -0.00537856 336.63477516 -0.01614761 C339.98940664 -0.03060181 343.34382888 -0.03266798 346.69848633 -0.03173828 C347.69758026 -0.03892883 348.69667419 -0.04611938 349.7260437 -0.05352783 C350.63889633 -0.0507785 351.55174896 -0.04802917 352.49226379 -0.04519653 C353.28592755 -0.04704012 354.07959131 -0.04888371 354.89730549 -0.05078316 C356.953125 0.1953125 356.953125 0.1953125 359.953125 2.1953125 C359.953125 2.8553125 359.953125 3.5153125 359.953125 4.1953125 C360.613125 4.1953125 361.273125 4.1953125 361.953125 4.1953125 C361.34304542 11.63828332 361.34304542 11.63828332 359.640625 14.0703125 C357.953125 15.1953125 357.953125 15.1953125 355.89453125 15.9453125 C353.70381843 17.04438611 353.70381843 17.04438611 353.34375 19.578125 C353.27414062 20.93550781 353.27414062 20.93550781 353.203125 22.3203125 C353.14640625 23.23039062 353.0896875 24.14046875 353.03125 25.078125 C352.99257812 26.12613281 352.99257812 26.12613281 352.953125 27.1953125 C351.963125 27.5253125 350.973125 27.8553125 349.953125 28.1953125 C349.65093123 34.03772539 350.21525774 36.94773359 352.953125 42.1953125 C353.58350464 46.88666411 352.56582253 49.38748598 349.80273438 53.19726562 C349.37798828 53.75349609 348.95324219 54.30972656 348.515625 54.8828125 C344.33669419 60.52084933 341.87596899 64.93141427 342.953125 72.1953125 C344.25893856 74.213388 345.58949292 76.21584658 346.953125 78.1953125 C346.82825252 81.55058162 346.26494974 82.87333255 343.9140625 85.30078125 C343.06070313 85.98785156 342.20734375 86.67492187 341.328125 87.3828125 C333.56680737 94.06863326 328.65015413 101.70340514 324.953125 111.1953125 C324.66566406 111.88625 324.37820313 112.5771875 324.08203125 113.2890625 C322.36796107 117.55373471 321.22561601 121.56296534 320.953125 126.1953125 C321.613125 127.1853125 322.273125 128.1753125 322.953125 129.1953125 C323.08837891 132.3815918 323.08837891 132.3815918 322.9296875 136.26953125 C322.89214859 137.29528008 322.89214859 137.29528008 322.85385132 138.3417511 C322.77177775 140.52261879 322.67514236 142.70256347 322.578125 144.8828125 C322.51987231 146.36259269 322.4625693 147.84241059 322.40625 149.32226562 C322.2662195 152.94711672 322.11312496 156.57128174 321.953125 160.1953125 C322.943125 160.1953125 323.933125 160.1953125 324.953125 160.1953125 C324.953125 168.4453125 324.953125 176.6953125 324.953125 185.1953125 C331.883125 185.1953125 338.813125 185.1953125 345.953125 185.1953125 C345.953125 182.2253125 345.953125 179.2553125 345.953125 176.1953125 C345.293125 176.1953125 344.633125 176.1953125 343.953125 176.1953125 C343.953125 168.6053125 343.953125 161.0153125 343.953125 153.1953125 C351.213125 153.1953125 358.473125 153.1953125 365.953125 153.1953125 C365.953125 154.5153125 365.953125 155.8353125 365.953125 157.1953125 C364.633125 157.1953125 363.313125 157.1953125 361.953125 157.1953125 C361.953125 160.4953125 361.953125 163.7953125 361.953125 167.1953125 C363.273125 167.1953125 364.593125 167.1953125 365.953125 167.1953125 C365.953125 219.0053125 365.953125 270.8153125 365.953125 324.1953125 C175.873125 324.1953125 -14.206875 324.1953125 -210.046875 324.1953125 C-210.046875 272.3853125 -210.046875 220.5753125 -210.046875 167.1953125 C-206.746875 167.1953125 -203.446875 167.1953125 -200.046875 167.1953125 C-200.046875 163.8953125 -200.046875 160.5953125 -200.046875 157.1953125 C-203.346875 157.1953125 -206.646875 157.1953125 -210.046875 157.1953125 C-210.046875 155.8753125 -210.046875 154.5553125 -210.046875 153.1953125 C-179.686875 153.1953125 -149.326875 153.1953125 -118.046875 153.1953125 C-118.046875 160.7853125 -118.046875 168.3753125 -118.046875 176.1953125 C-119.036875 176.1953125 -120.026875 176.1953125 -121.046875 176.1953125 C-121.046875 177.5153125 -121.046875 178.8353125 -121.046875 180.1953125 C-92.996875 180.1953125 -64.946875 180.1953125 -36.046875 180.1953125 C-36.046875 178.5453125 -36.046875 176.8953125 -36.046875 175.1953125 C-35.386875 175.1953125 -34.726875 175.1953125 -34.046875 175.1953125 C-34.046875 162.6553125 -34.046875 150.1153125 -34.046875 137.1953125 C-33.386875 137.1953125 -32.726875 137.1953125 -32.046875 137.1953125 C-32.046875 129.2753125 -32.046875 121.3553125 -32.046875 113.1953125 C-31.386875 113.1953125 -30.726875 113.1953125 -30.046875 113.1953125 C-30.07007813 112.17050781 -30.09328125 111.14570312 -30.1171875 110.08984375 C-30.13595536 108.72917399 -30.15415447 107.3684963 -30.171875 106.0078125 C-30.18863281 105.33427734 -30.20539063 104.66074219 -30.22265625 103.96679688 C-30.25224387 100.93406569 -30.18635348 98.5288024 -29.0078125 95.7109375 C-27.64514912 92.14363986 -28.15874838 88.84725237 -28.546875 85.1328125 C-29.45174866 76.4253879 -29.45174866 76.4253879 -27.046875 73.1953125 C-25.39425661 72.17226302 -23.72896135 71.16915196 -22.046875 70.1953125 C-22.046875 69.5353125 -22.046875 68.8753125 -22.046875 68.1953125 C-22.665625 67.8859375 -23.284375 67.5765625 -23.921875 67.2578125 C-25.296875 66.5703125 -26.671875 65.8828125 -28.046875 65.1953125 C-28.79878228 48.17296706 -28.79878228 48.17296706 -24.046875 40.1953125 C-23.37278042 38.86571906 -22.70405202 37.53334859 -22.046875 36.1953125 C-22.58957031 35.82019531 -23.13226563 35.44507813 -23.69140625 35.05859375 C-31.26999464 29.63751341 -31.26999464 29.63751341 -33.046875 25.1953125 C-33.56638438 21.2160917 -33.41133033 19.68864367 -30.9921875 16.4140625 C-25.08466677 10.71927797 -19.41825772 5.96641204 -12.046875 2.1953125 C-11.50764404 1.84621826 -10.96841309 1.49712402 -10.4128418 1.13745117 C-6.98315352 -0.2282662 -3.63330693 -0.05034662 0 0 Z M311.953125 24.1953125 C311.685 24.81019531 311.416875 25.42507812 311.140625 26.05859375 C307.535971 33.49319262 307.535971 33.49319262 303.453125 35.2578125 C297.79723895 36.88931809 291.77537476 36.43494778 285.953125 36.1953125 C285.623125 37.8453125 285.293125 39.4953125 284.953125 41.1953125 C286.273125 41.8553125 287.593125 42.5153125 288.953125 43.1953125 C288.953125 45.4453125 288.953125 45.4453125 287.953125 48.1953125 C285.96030816 49.50095112 283.94827857 50.44742416 281.765625 51.3984375 C279.97069403 52.05683829 279.97069403 52.05683829 278.953125 53.1953125 C278.50609217 59.78644772 278.50724058 66.01623608 280.953125 72.1953125 C281.4584375 72.75605469 281.96375 73.31679687 282.484375 73.89453125 C285.76430149 79.0325012 284.89165991 86.38812775 283.953125 92.1953125 C281.75051736 95.36665961 279.12929173 97.07997283 275.953125 99.1953125 C274.19989563 101.72719898 274.19989563 101.72719898 272.953125 104.1953125 C272.293125 104.8965625 271.633125 105.5978125 270.953125 106.3203125 C268.40633698 109.98132028 268.040975 113.24265695 267.703125 117.5703125 C267.62723145 118.40723633 267.55133789 119.24416016 267.47314453 120.10644531 C266.43197673 133.41733892 266.78566884 146.8554972 266.953125 160.1953125 C267.943125 160.1953125 268.933125 160.1953125 269.953125 160.1953125 C269.953125 168.4453125 269.953125 176.6953125 269.953125 185.1953125 C280.513125 185.1953125 291.073125 185.1953125 301.953125 185.1953125 C301.953125 176.9453125 301.953125 168.6953125 301.953125 160.1953125 C302.943125 160.1953125 303.933125 160.1953125 304.953125 160.1953125 C304.91123047 159.26783203 304.86933594 158.34035156 304.82617188 157.38476562 C304.68900288 153.91039659 304.58917252 150.43894031 304.51367188 146.96289062 C304.47367733 145.46503034 304.41925736 143.96747771 304.34960938 142.47070312 C303.78767765 130.07515039 303.78767765 130.07515039 306.69921875 125.37890625 C308.68896396 123.33878774 310.518864 121.6726401 312.953125 120.1953125 C313.613125 120.1953125 314.273125 120.1953125 314.953125 120.1953125 C316.15300545 114.91331657 316.15300545 114.91331657 313.953125 110.1953125 C312.96237206 104.5115193 313.72597087 100.06038701 316.453125 95.0078125 C318.77326503 90.70755296 319.98148227 88.16570596 318.953125 83.1953125 C315.17162845 74.55831207 315.17162845 74.55831207 307.953125 69.1953125 C308.82307038 59.16919205 313.79931198 51.45888348 321.453125 45.0078125 C322.278125 44.4096875 323.103125 43.8115625 323.953125 43.1953125 C321.48332682 35.84727941 318.22705149 29.92603577 312.953125 24.1953125 C312.623125 24.1953125 312.293125 24.1953125 311.953125 24.1953125 Z M57.953125 119.1953125 C57.953125 119.5253125 57.953125 119.8553125 57.953125 120.1953125 C73.133125 120.1953125 88.313125 120.1953125 103.953125 120.1953125 C103.953125 119.8653125 103.953125 119.5353125 103.953125 119.1953125 C88.773125 119.1953125 73.593125 119.1953125 57.953125 119.1953125 Z M60.953125 123.1953125 C62.273125 124.8453125 63.593125 126.4953125 64.953125 128.1953125 C64.953125 126.5453125 64.953125 124.8953125 64.953125 123.1953125 C63.633125 123.1953125 62.313125 123.1953125 60.953125 123.1953125 Z M66.953125 123.1953125 C66.911875 124.4534375 66.870625 125.7115625 66.828125 127.0078125 C66.80492187 127.71550781 66.78171875 128.42320312 66.7578125 129.15234375 C66.82058038 131.50890969 66.82058038 131.50890969 68.953125 134.1953125 C69.613125 134.1953125 70.273125 134.1953125 70.953125 134.1953125 C70.953125 130.5653125 70.953125 126.9353125 70.953125 123.1953125 C69.633125 123.1953125 68.313125 123.1953125 66.953125 123.1953125 Z M72.953125 123.1953125 C72.953125 126.8253125 72.953125 130.4553125 72.953125 134.1953125 C74.273125 134.1953125 75.593125 134.1953125 76.953125 134.1953125 C76.953125 130.5653125 76.953125 126.9353125 76.953125 123.1953125 C75.633125 123.1953125 74.313125 123.1953125 72.953125 123.1953125 Z M78.953125 123.1953125 C78.953125 126.8253125 78.953125 130.4553125 78.953125 134.1953125 C80.273125 134.1953125 81.593125 134.1953125 82.953125 134.1953125 C82.953125 130.5653125 82.953125 126.9353125 82.953125 123.1953125 C81.633125 123.1953125 80.313125 123.1953125 78.953125 123.1953125 Z M84.953125 123.1953125 C84.953125 126.8253125 84.953125 130.4553125 84.953125 134.1953125 C86.273125 134.1953125 87.593125 134.1953125 88.953125 134.1953125 C88.953125 130.5653125 88.953125 126.9353125 88.953125 123.1953125 C87.633125 123.1953125 86.313125 123.1953125 84.953125 123.1953125 Z M90.953125 123.1953125 C90.953125 126.8253125 90.953125 130.4553125 90.953125 134.1953125 C91.943125 133.8653125 92.933125 133.5353125 93.953125 133.1953125 C95.09665416 130.90825419 95.05646939 129.60266488 95.015625 127.0703125 C94.995 125.7915625 94.974375 124.5128125 94.953125 123.1953125 C93.633125 123.1953125 92.313125 123.1953125 90.953125 123.1953125 Z M96.953125 123.1953125 C96.953125 124.8453125 96.953125 126.4953125 96.953125 128.1953125 C98.273125 126.5453125 99.593125 124.8953125 100.953125 123.1953125 C99.633125 123.1953125 98.313125 123.1953125 96.953125 123.1953125 Z M250.953125 129.1953125 C250.953125 130.1853125 250.953125 131.1753125 250.953125 132.1953125 C251.943125 132.1953125 252.933125 132.1953125 253.953125 132.1953125 C253.953125 131.2053125 253.953125 130.2153125 253.953125 129.1953125 C252.963125 129.1953125 251.973125 129.1953125 250.953125 129.1953125 Z M254.953125 129.1953125 C254.953125 130.1853125 254.953125 131.1753125 254.953125 132.1953125 C255.943125 132.1953125 256.933125 132.1953125 257.953125 132.1953125 C257.953125 131.2053125 257.953125 130.2153125 257.953125 129.1953125 C256.963125 129.1953125 255.973125 129.1953125 254.953125 129.1953125 Z M305.953125 129.1953125 C305.953125 130.1853125 305.953125 131.1753125 305.953125 132.1953125 C306.943125 132.1953125 307.933125 132.1953125 308.953125 132.1953125 C308.953125 131.2053125 308.953125 130.2153125 308.953125 129.1953125 C307.963125 129.1953125 306.973125 129.1953125 305.953125 129.1953125 Z M309.953125 129.1953125 C309.953125 130.1853125 309.953125 131.1753125 309.953125 132.1953125 C310.943125 132.1953125 311.933125 132.1953125 312.953125 132.1953125 C312.953125 131.2053125 312.953125 130.2153125 312.953125 129.1953125 C311.963125 129.1953125 310.973125 129.1953125 309.953125 129.1953125 Z M313.953125 129.1953125 C313.953125 130.1853125 313.953125 131.1753125 313.953125 132.1953125 C314.943125 132.1953125 315.933125 132.1953125 316.953125 132.1953125 C316.953125 131.2053125 316.953125 130.2153125 316.953125 129.1953125 C315.963125 129.1953125 314.973125 129.1953125 313.953125 129.1953125 Z M-198.046875 157.1953125 C-198.046875 160.4953125 -198.046875 163.7953125 -198.046875 167.1953125 C-193.426875 167.1953125 -188.806875 167.1953125 -184.046875 167.1953125 C-184.046875 163.8953125 -184.046875 160.5953125 -184.046875 157.1953125 C-188.666875 157.1953125 -193.286875 157.1953125 -198.046875 157.1953125 Z M-182.046875 157.1953125 C-182.046875 160.4953125 -182.046875 163.7953125 -182.046875 167.1953125 C-177.426875 167.1953125 -172.806875 167.1953125 -168.046875 167.1953125 C-168.046875 163.8953125 -168.046875 160.5953125 -168.046875 157.1953125 C-172.666875 157.1953125 -177.286875 157.1953125 -182.046875 157.1953125 Z M-166.046875 157.1953125 C-166.046875 160.4953125 -166.046875 163.7953125 -166.046875 167.1953125 C-161.426875 167.1953125 -156.806875 167.1953125 -152.046875 167.1953125 C-152.046875 163.8953125 -152.046875 160.5953125 -152.046875 157.1953125 C-156.666875 157.1953125 -161.286875 157.1953125 -166.046875 157.1953125 Z M-150.046875 157.1953125 C-150.046875 160.4953125 -150.046875 163.7953125 -150.046875 167.1953125 C-145.426875 167.1953125 -140.806875 167.1953125 -136.046875 167.1953125 C-136.046875 163.8953125 -136.046875 160.5953125 -136.046875 157.1953125 C-140.666875 157.1953125 -145.286875 157.1953125 -150.046875 157.1953125 Z M-134.046875 157.1953125 C-134.046875 160.4953125 -134.046875 163.7953125 -134.046875 167.1953125 C-129.426875 167.1953125 -124.806875 167.1953125 -120.046875 167.1953125 C-120.046875 163.8953125 -120.046875 160.5953125 -120.046875 157.1953125 C-124.666875 157.1953125 -129.286875 157.1953125 -134.046875 157.1953125 Z M345.953125 157.1953125 C345.953125 160.4953125 345.953125 163.7953125 345.953125 167.1953125 C350.573125 167.1953125 355.193125 167.1953125 359.953125 167.1953125 C359.953125 163.8953125 359.953125 160.5953125 359.953125 157.1953125 C355.333125 157.1953125 350.713125 157.1953125 345.953125 157.1953125 Z M-121.046875 191.1953125 C-121.046875 197.4653125 -121.046875 203.7353125 -121.046875 210.1953125 C-117.00179687 210.28619141 -117.00179687 210.28619141 -112.875 210.37890625 C-110.26038917 210.44073197 -107.64582009 210.50410461 -105.03125 210.56762695 C-103.21553266 210.61091236 -101.39977629 210.65259194 -99.58398438 210.69262695 C-96.97253667 210.75048452 -94.36128423 210.81413422 -91.75 210.87890625 C-90.93944153 210.89561874 -90.12888306 210.91233124 -89.29376221 210.92955017 C-85.67448533 211.02447267 -82.57939603 211.31218224 -79.046875 212.1953125 C-79.046875 205.2653125 -79.046875 198.3353125 -79.046875 191.1953125 C-92.906875 191.1953125 -106.766875 191.1953125 -121.046875 191.1953125 Z M-180.046875 202.1953125 C-180.046875 212.7553125 -180.046875 223.3153125 -180.046875 234.1953125 C-178.726875 233.2053125 -177.406875 232.2153125 -176.046875 231.1953125 C-176.046875 230.5353125 -176.046875 229.8753125 -176.046875 229.1953125 C-175.056875 229.1953125 -174.066875 229.1953125 -173.046875 229.1953125 C-172.62700554 226.90695028 -172.62700554 226.90695028 -173.046875 224.1953125 C-173.8925 223.3909375 -174.738125 222.5865625 -175.609375 221.7578125 C-178.046875 219.1953125 -178.046875 219.1953125 -177.984375 216.0078125 C-177.046875 213.1953125 -177.046875 213.1953125 -175.046875 211.1953125 C-172.54312032 210.95015553 -170.14138021 210.82197592 -167.6328125 210.78125 C-166.90317291 210.76188385 -166.17353333 210.7425177 -165.42178345 210.7225647 C-163.08859998 210.66272828 -160.75536727 210.61636827 -158.421875 210.5703125 C-156.84112418 210.53213636 -155.26039424 210.49308485 -153.6796875 210.453125 C-149.8022527 210.35702372 -145.92472051 210.27300838 -142.046875 210.1953125 C-142.046875 207.5553125 -142.046875 204.9153125 -142.046875 202.1953125 C-154.586875 202.1953125 -167.126875 202.1953125 -180.046875 202.1953125 Z M-167.046875 212.1953125 C-166.716875 214.5053125 -166.386875 216.8153125 -166.046875 219.1953125 C-166.376875 220.1853125 -166.706875 221.1753125 -167.046875 222.1953125 C-158.796875 223.8453125 -150.546875 225.4953125 -142.046875 227.1953125 C-142.046875 222.2453125 -142.046875 217.2953125 -142.046875 212.1953125 C-150.296875 212.1953125 -158.546875 212.1953125 -167.046875 212.1953125 Z M-121.046875 212.1953125 C-121.046875 218.4653125 -121.046875 224.7353125 -121.046875 231.1953125 C-111.63105615 233.64383519 -111.63105615 233.64383519 -102.046875 235.1953125 C-102.211875 234.7003125 -102.376875 234.2053125 -102.546875 233.6953125 C-103.70342284 227.91257332 -103.82966737 223.93009104 -100.734375 218.8828125 C-98.99110844 216.30194038 -97.28797795 214.43641545 -95.046875 212.1953125 C-103.626875 212.1953125 -112.206875 212.1953125 -121.046875 212.1953125 Z M-173.046875 216.1953125 C-173.046875 216.8553125 -173.046875 217.5153125 -173.046875 218.1953125 C-172.386875 218.1953125 -171.726875 218.1953125 -171.046875 218.1953125 C-171.046875 217.5353125 -171.046875 216.8753125 -171.046875 216.1953125 C-171.706875 216.1953125 -172.366875 216.1953125 -173.046875 216.1953125 Z M-96.046875 220.1953125 C-97.47466774 223.30466268 -97.47466774 223.30466268 -98.046875 226.1953125 C-96.066875 226.1953125 -94.086875 226.1953125 -92.046875 226.1953125 C-91.716875 225.2053125 -91.386875 224.2153125 -91.046875 223.1953125 C-90.056875 222.8653125 -89.066875 222.5353125 -88.046875 222.1953125 C-88.046875 220.2153125 -88.046875 218.2353125 -88.046875 216.1953125 C-91.49250725 216.1953125 -93.41935481 218.11519235 -96.046875 220.1953125 Z M-86.046875 216.1953125 C-86.046875 218.1753125 -86.046875 220.1553125 -86.046875 222.1953125 C-85.056875 222.5253125 -84.066875 222.8553125 -83.046875 223.1953125 C-82.716875 224.1853125 -82.386875 225.1753125 -82.046875 226.1953125 C-81.056875 226.1953125 -80.066875 226.1953125 -79.046875 226.1953125 C-78.62961822 222.82130672 -78.62961822 222.82130672 -79.046875 219.1953125 C-81.44428418 217.23953133 -82.92274108 216.1953125 -86.046875 216.1953125 Z M-172.046875 224.1953125 C-171.046875 226.1953125 -171.046875 226.1953125 -171.046875 226.1953125 Z M-170.046875 224.1953125 C-170.046875 225.8453125 -170.046875 227.4953125 -170.046875 229.1953125 C-169.056875 229.1953125 -168.066875 229.1953125 -167.046875 229.1953125 C-166.77875 229.7934375 -166.510625 230.3915625 -166.234375 231.0078125 C-165.00641564 233.26984289 -164.04705407 234.58635538 -162.046875 236.1953125 C-159.82713557 236.60711012 -159.82713557 236.60711012 -157.37890625 236.48828125 C-156.03989258 236.4737793 -156.03989258 236.4737793 -154.67382812 236.45898438 C-153.74505859 236.43384766 -152.81628906 236.40871094 -151.859375 236.3828125 C-150.44881836 236.36250977 -150.44881836 236.36250977 -149.00976562 236.34179688 C-146.68822462 236.30644346 -144.36783847 236.25709924 -142.046875 236.1953125 C-142.046875 233.8853125 -142.046875 231.5753125 -142.046875 229.1953125 C-145.77415671 228.35339377 -149.50397503 227.5232957 -153.234375 226.6953125 C-154.28947266 226.45683594 -155.34457031 226.21835938 -156.43164062 225.97265625 C-157.45322266 225.74707031 -158.47480469 225.52148438 -159.52734375 225.2890625 C-160.46473389 225.07958984 -161.40212402 224.87011719 -162.36791992 224.65429688 C-164.98658699 224.20564162 -167.39626583 224.11123291 -170.046875 224.1953125 Z M-172.046875 227.1953125 C-171.046875 229.1953125 -171.046875 229.1953125 -171.046875 229.1953125 Z M-98.046875 228.1953125 C-97.386875 230.1753125 -96.726875 232.1553125 -96.046875 234.1953125 C-94.726875 233.5353125 -93.406875 232.8753125 -92.046875 232.1953125 C-92.046875 230.8753125 -92.046875 229.5553125 -92.046875 228.1953125 C-94.026875 228.1953125 -96.006875 228.1953125 -98.046875 228.1953125 Z M-82.046875 228.1953125 C-82.046875 229.5153125 -82.046875 230.8353125 -82.046875 232.1953125 C-80.561875 233.1853125 -80.561875 233.1853125 -79.046875 234.1953125 C-79.046875 232.2153125 -79.046875 230.2353125 -79.046875 228.1953125 C-80.036875 228.1953125 -81.026875 228.1953125 -82.046875 228.1953125 Z M-174.046875 231.1953125 C-175.40515471 232.84171215 -176.73941751 234.50827057 -178.046875 236.1953125 C-176.396875 236.1953125 -174.746875 236.1953125 -173.046875 236.1953125 C-173.046875 234.5453125 -173.046875 232.8953125 -173.046875 231.1953125 C-173.376875 231.1953125 -173.706875 231.1953125 -174.046875 231.1953125 Z M-170.046875 231.1953125 C-170.046875 232.8453125 -170.046875 234.4953125 -170.046875 236.1953125 C-168.396875 236.1953125 -166.746875 236.1953125 -165.046875 236.1953125 C-166.696875 234.5453125 -168.346875 232.8953125 -170.046875 231.1953125 Z M-121.046875 233.1953125 C-121.046875 234.1853125 -121.046875 235.1753125 -121.046875 236.1953125 C-117.416875 236.1953125 -113.786875 236.1953125 -110.046875 236.1953125 C-110.046875 235.8653125 -110.046875 235.5353125 -110.046875 235.1953125 C-113.676875 234.5353125 -117.306875 233.8753125 -121.046875 233.1953125 Z " fill="#3A3A75" transform="translate(210.046875,-0.1953125)"/>
<path d="M0 0 C1.65 0 3.3 0 5 0 C5 6.93 5 13.86 5 21 C3.35 21 1.7 21 0 21 C0 14.07 0 7.14 0 0 Z " fill="#7E7554" transform="translate(355,193)"/>
<path d="M0 0 C1.65 0 3.3 0 5 0 C5 6.93 5 13.86 5 21 C3.35 21 1.7 21 0 21 C0 14.07 0 7.14 0 0 Z " fill="#7E7554" transform="translate(323,193)"/>
<path d="M0 0 C1.65 0 3.3 0 5 0 C5 6.93 5 13.86 5 21 C3.35 21 1.7 21 0 21 C0 14.07 0 7.14 0 0 Z " fill="#636055" transform="translate(288,193)"/>
<path d="M0 0 C1.65 0 3.3 0 5 0 C5 6.93 5 13.86 5 21 C3.35 21 1.7 21 0 21 C0 14.07 0 7.14 0 0 Z " fill="#636055" transform="translate(253,193)"/>
<path d="M0 0 C1.65 0 3.3 0 5 0 C5 6.93 5 13.86 5 21 C3.35 21 1.7 21 0 21 C0 14.07 0 7.14 0 0 Z " fill="#7E7554" transform="translate(221,193)"/>
<path d="M0 0 C1.65 0 3.3 0 5 0 C5 6.93 5 13.86 5 21 C3.35 21 1.7 21 0 21 C0 14.07 0 7.14 0 0 Z " fill="#7E7554" transform="translate(355,147)"/>
<path d="M0 0 C1.65 0 3.3 0 5 0 C5 6.93 5 13.86 5 21 C3.35 21 1.7 21 0 21 C0 14.07 0 7.14 0 0 Z " fill="#636055" transform="translate(323,147)"/>
<path d="M0 0 C1.65 0 3.3 0 5 0 C5 6.93 5 13.86 5 21 C3.35 21 1.7 21 0 21 C0 14.07 0 7.14 0 0 Z " fill="#7E7554" transform="translate(288,147)"/>
<path d="M0 0 C1.65 0 3.3 0 5 0 C5 6.93 5 13.86 5 21 C3.35 21 1.7 21 0 21 C0 14.07 0 7.14 0 0 Z " fill="#7E7554" transform="translate(253,147)"/>
<path d="M0 0 C1.65 0 3.3 0 5 0 C5 6.93 5 13.86 5 21 C3.35 21 1.7 21 0 21 C0 14.07 0 7.14 0 0 Z " fill="#7E7554" transform="translate(221,147)"/>
<path d="M0 0 C1.48828125 1.08203125 1.48828125 1.08203125 3 3 C3.29296875 6.13671875 3.29296875 6.13671875 3.1875 9.6875 C3.14689453 11.45673828 3.14689453 11.45673828 3.10546875 13.26171875 C3.07066406 14.16535156 3.03585937 15.06898438 3 16 C1.35 16 -0.3 16 -2 16 C-2.05402274 13.89611431 -2.09280256 11.79183286 -2.125 9.6875 C-2.14820313 8.51574219 -2.17140625 7.34398437 -2.1953125 6.13671875 C-2 3 -2 3 0 0 Z " fill="#7E7554" transform="translate(417,177)"/>
<path d="M0 0 C1.48828125 1.08203125 1.48828125 1.08203125 3 3 C3.29296875 6.13671875 3.29296875 6.13671875 3.1875 9.6875 C3.14689453 11.45673828 3.14689453 11.45673828 3.10546875 13.26171875 C3.07066406 14.16535156 3.03585937 15.06898438 3 16 C1.35 16 -0.3 16 -2 16 C-2.05402274 13.89611431 -2.09280256 11.79183286 -2.125 9.6875 C-2.14820313 8.51574219 -2.17140625 7.34398437 -2.1953125 6.13671875 C-2 3 -2 3 0 0 Z " fill="#7E7554" transform="translate(398,177)"/>
<path d="M0 0 C2 2 2 2 2.1953125 4.8203125 C2.16050781 6.45613281 2.16050781 6.45613281 2.125 8.125 C2.10695313 9.22070312 2.08890625 10.31640625 2.0703125 11.4453125 C2.04710937 12.28835937 2.02390625 13.13140625 2 14 C1.01 14 0.02 14 -1 14 C-1.02694851 12.04174127 -1.04637218 10.08337774 -1.0625 8.125 C-1.07410156 7.03445312 -1.08570313 5.94390625 -1.09765625 4.8203125 C-1 2 -1 2 0 0 Z " fill="#636055" transform="translate(408,128)"/>
<path d="M0 0 C2.35119399 3.52679099 2.21443452 5.02879485 2.125 9.1875 C2.10695313 10.27417969 2.08890625 11.36085938 2.0703125 12.48046875 C2.03550781 13.72763672 2.03550781 13.72763672 2 15 C1.01 15 0.02 15 -1 15 C-1.02703381 13.06257659 -1.04641125 11.12504521 -1.0625 9.1875 C-1.07410156 8.10855469 -1.08570313 7.02960938 -1.09765625 5.91796875 C-1 3 -1 3 0 0 Z " fill="#7E7554" transform="translate(291,100)"/>
<path d="M0 0 C2 2 2 2 2.1953125 4.8203125 C2.16050781 6.45613281 2.16050781 6.45613281 2.125 8.125 C2.10695313 9.22070312 2.08890625 10.31640625 2.0703125 11.4453125 C2.04710937 12.28835937 2.02390625 13.13140625 2 14 C1.01 14 0.02 14 -1 14 C-1.02694851 12.04174127 -1.04637218 10.08337774 -1.0625 8.125 C-1.07410156 7.03445312 -1.08570313 5.94390625 -1.09765625 4.8203125 C-1 2 -1 2 0 0 Z " fill="#636055" transform="translate(408,99)"/>
<path d="M0 0 C1.32 0 2.64 0 4 0 C4 2.31 4 4.62 4 7 C2.68 7 1.36 7 0 7 C0 4.69 0 2.38 0 0 Z " fill="#636055" transform="translate(544,209)"/>
<path d="M0 0 C1.32 0 2.64 0 4 0 C4 2.31 4 4.62 4 7 C2.68 7 1.36 7 0 7 C0 4.69 0 2.38 0 0 Z " fill="#636055" transform="translate(539,209)"/>
<path d="M0 0 C1.32 0 2.64 0 4 0 C4 2.31 4 4.62 4 7 C2.68 7 1.36 7 0 7 C0 4.69 0 2.38 0 0 Z " fill="#636055" transform="translate(534,209)"/>
<path d="M0 0 C1.32 0 2.64 0 4 0 C4 2.31 4 4.62 4 7 C2.68 7 1.36 7 0 7 C0 4.69 0 2.38 0 0 Z " fill="#7E7554" transform="translate(524,209)"/>
<path d="M0 0 C1.32 0 2.64 0 4 0 C4 2.31 4 4.62 4 7 C2.68 7 1.36 7 0 7 C0 4.69 0 2.38 0 0 Z " fill="#7E7554" transform="translate(519,209)"/>
<path d="M0 0 C1.32 0 2.64 0 4 0 C4 2.31 4 4.62 4 7 C2.68 7 1.36 7 0 7 C0 4.69 0 2.38 0 0 Z " fill="#7E7554" transform="translate(514,209)"/>
<path d="M0 0 C1.32 0 2.64 0 4 0 C4 2.31 4 4.62 4 7 C2.68 7 1.36 7 0 7 C0 4.69 0 2.38 0 0 Z " fill="#636055" transform="translate(504,209)"/>
<path d="M0 0 C1.32 0 2.64 0 4 0 C4 2.31 4 4.62 4 7 C2.68 7 1.36 7 0 7 C0 4.69 0 2.38 0 0 Z " fill="#636055" transform="translate(499,209)"/>
<path d="M0 0 C1.32 0 2.64 0 4 0 C4 2.31 4 4.62 4 7 C2.68 7 1.36 7 0 7 C0 4.69 0 2.38 0 0 Z " fill="#636055" transform="translate(494,209)"/>
<path d="M0 0 C1.32 0 2.64 0 4 0 C4 2.31 4 4.62 4 7 C2.68 7 1.36 7 0 7 C0 4.69 0 2.38 0 0 Z " fill="#636055" transform="translate(484,209)"/>
<path d="M0 0 C1.32 0 2.64 0 4 0 C4 2.31 4 4.62 4 7 C2.68 7 1.36 7 0 7 C0 4.69 0 2.38 0 0 Z " fill="#636055" transform="translate(479,209)"/>
<path d="M0 0 C1.32 0 2.64 0 4 0 C4 2.31 4 4.62 4 7 C2.68 7 1.36 7 0 7 C0 4.69 0 2.38 0 0 Z " fill="#636055" transform="translate(474,209)"/>
<path d="M0 0 C1.32 0 2.64 0 4 0 C4 2.31 4 4.62 4 7 C2.68 7 1.36 7 0 7 C0 4.69 0 2.38 0 0 Z " fill="#7E7554" transform="translate(464,209)"/>
<path d="M0 0 C1.32 0 2.64 0 4 0 C4 2.31 4 4.62 4 7 C2.68 7 1.36 7 0 7 C0 4.69 0 2.38 0 0 Z " fill="#7E7554" transform="translate(459,209)"/>
<path d="M0 0 C1.32 0 2.64 0 4 0 C4 2.31 4 4.62 4 7 C2.68 7 1.36 7 0 7 C0 4.69 0 2.38 0 0 Z " fill="#7E7554" transform="translate(454,209)"/>
<path d="M0 0 C2.4294516 3.6441774 2.16179575 5.71241272 2 10 C1.01 10 0.02 10 -1 10 C-1.125 3.375 -1.125 3.375 0 0 Z " fill="#7E7554" transform="translate(408,80)"/>
</svg>
