<?xml version="1.0" encoding="UTF-8"?>
<svg version="1.1" xmlns="http://www.w3.org/2000/svg" width="576" height="324">
<path d="M0 0 C12.87 0 25.74 0 39 0 C36.29577382 5.40845236 32.72131929 8.52561669 27.875 12 C24.60714117 14.37939069 23.05565756 16.51431979 21 20 C19.20022256 21.40887556 17.35433717 22.66090784 15.42578125 23.88671875 C14.95527344 24.25410156 14.48476563 24.62148438 14 25 C14 25.66 14 26.32 14 27 C13.34 27.33 12.68 27.66 12 28 C12.02320313 28.98742187 12.04640625 29.97484375 12.0703125 30.9921875 C12.08835937 32.27351563 12.10640625 33.55484375 12.125 34.875 C12.14820313 36.15117188 12.17140625 37.42734375 12.1953125 38.7421875 C12 42 12 42 10 44 C7.875 44.625 7.875 44.625 6 45 C5.67 46.65 5.34 48.3 5 50 C5.66 50 6.32 50 7 50 C7 54.62 7 59.24 7 64 C9.31 64 11.62 64 14 64 C14 65.98 14 67.96 14 70 C13.34 70 12.68 70 12 70 C12 73.63 12 77.26 12 81 C13.32 81 14.64 81 16 81 C16 80.01 16 79.02 16 78 C15.34 77.67 14.68 77.34 14 77 C15 76 15 76 18.5625 75.9375 C19.696875 75.958125 20.83125 75.97875 22 76 C22.33 76.66 22.66 77.32 23 78 C22.34 78 21.68 78 21 78 C21.00444122 78.79735565 21.00888245 79.5947113 21.01345825 80.41622925 C21.05348833 87.92083278 21.08396056 95.42538473 21.10362434 102.93006706 C21.11407343 106.78854797 21.128253 110.64694085 21.15087891 114.50537109 C21.1725674 118.22712192 21.18456014 121.94878794 21.18975449 125.67059708 C21.19345745 127.09241191 21.20068819 128.51422197 21.21146011 129.93600082 C21.22592119 131.92327114 21.22681646 133.91062631 21.22705078 135.89794922 C21.231492 137.03046112 21.23593323 138.16297302 21.24050903 139.32980347 C21 142 21 142 19 144 C16.69 144 14.38 144 12 144 C12 150.93 12 157.86 12 165 C13.32 165 14.64 165 16 165 C16 166.32 16 167.64 16 169 C17.98 169 19.96 169 22 169 C22 171.64 22 174.28 22 177 C22.66 177 23.32 177 24 177 C24 180.63 24 184.26 24 188 C26.31 188 28.62 188 31 188 C31 187.01 31 186.02 31 185 C30.01 184.67 29.02 184.34 28 184 C28.66 183.67 29.32 183.34 30 183 C30 182.34 30 181.68 30 181 C29.01 180.67 28.02 180.34 27 180 C28.65 178.35 30.3 176.7 32 175 C35.36720387 176.39332574 36.9859524 177.9789286 39 181 C38.01 181 37.02 181 36 181 C36 181.66 36 182.32 36 183 C36.66 183.33 37.32 183.66 38 184 C37.01 184.33 36.02 184.66 35 185 C35.16886719 185.96550781 35.33773438 186.93101562 35.51171875 187.92578125 C36.14258494 192.37770201 36.03044006 196.70680004 35.8125 201.1875 C35.79380859 201.98091797 35.77511719 202.77433594 35.75585938 203.59179688 C35.57614701 207.34683939 35.41378874 209.42247551 33.18359375 212.53515625 C30.09636596 214.60619457 27.62580892 214.27890838 24 214 C24 215.98 24 217.96 24 220 C26.64 220 29.28 220 32 220 C31.84152588 220.78842285 31.68305176 221.5768457 31.51977539 222.38916016 C30.87565343 226.86382607 30.76859476 231.25837048 30.68359375 235.7734375 C30.6524221 237.1590538 30.6524221 237.1590538 30.62062073 238.57266235 C30.55553881 241.50670344 30.49643357 244.44082962 30.4375 247.375 C30.3942754 249.37110235 30.35065988 251.36719627 30.30664062 253.36328125 C30.19916869 258.24210176 30.09978824 263.12099213 30 268 C39.24 268 48.48 268 58 268 C57.67 266.02 57.34 264.04 57 262 C56.80256034 258.85457057 56.81496375 255.7136351 56.8125 252.5625 C56.80025391 251.74201172 56.78800781 250.92152344 56.77539062 250.07617188 C56.76322153 244.99354556 57.29864278 240.80048375 59 236 C61.25285492 233.74714508 65.95196603 234.16042284 69 234 C72.0625 234.4375 72.0625 234.4375 74 235 C73.9690625 233.576875 73.9690625 233.576875 73.9375 232.125 C74 229 74 229 75 227 C74.34 226.67 73.68 226.34 73 226 C74.485 225.01 74.485 225.01 76 224 C76.66 224.99 77.32 225.98 78 227 C77.34 227 76.68 227 76 227 C76.33 227.66 76.66 228.32 77 229 C77.039992 230.99960012 77.04346799 233.00047242 77 235 C79.31 235 81.62 235 84 235 C83.9690625 233.576875 83.9690625 233.576875 83.9375 232.125 C84 229 84 229 85 227 C84.34 226.67 83.68 226.34 83 226 C84.485 225.01 84.485 225.01 86 224 C86.66 224.99 87.32 225.98 88 227 C87.34 227 86.68 227 86 227 C86.33 227.66 86.66 228.32 87 229 C87.039992 230.99960012 87.04346799 233.00047242 87 235 C88.010625 234.814375 89.02125 234.62875 90.0625 234.4375 C94.01744112 233.9980621 97.12119755 234.16339555 101 235 C103.83857423 237.83857423 103.90046025 241.13326348 104 245 C103.67 245.99 103.34 246.98 103 248 C103.66 248 104.32 248 105 248 C105.33 236.78 105.66 225.56 106 214 C104.02 214 102.04 214 100 214 C99.34 213.67 98.68 213.34 98 213 C98 214.32 98 215.64 98 217 C97.01 217 96.02 217 95 217 C94.25073929 213.33694766 93.7619986 210.57644848 95 207 C95.99 207 96.98 207 98 207 C98 208.32 98 209.64 98 211 C98.66 210.67 99.32 210.34 100 210 C101.99960012 209.960008 104.00047242 209.95653201 106 210 C105.98952637 209.0713916 105.97905273 208.1427832 105.96826172 207.18603516 C105.93420796 203.7457431 105.90911507 200.30562973 105.89013672 196.86523438 C105.88006957 195.3752968 105.86641482 193.88537903 105.84912109 192.39550781 C105.82490347 190.25580972 105.81352436 188.11637247 105.8046875 185.9765625 C105.79421387 184.68830566 105.78374023 183.40004883 105.77294922 182.07275391 C106 179 106 179 108 177 C110.97 177 113.94 177 117 177 C117 166.77 117 156.54 117 146 C116.34 146 115.68 146 115 146 C115 144.35 115 142.7 115 141 C117.97 141 120.94 141 124 141 C123.97679687 140.01257813 123.95359375 139.02515625 123.9296875 138.0078125 C123.91164063 136.72648438 123.89359375 135.44515625 123.875 134.125 C123.85179687 132.84882813 123.82859375 131.57265625 123.8046875 130.2578125 C124 127 124 127 126 125 C129.625 124.875 129.625 124.875 133 125 C133 123.35 133 121.7 133 120 C131.68 120 130.36 120 129 120 C129 117.69 129 115.38 129 113 C132.3 113 135.6 113 139 113 C139 112.34 139 111.68 139 111 C140.98 111 142.96 111 145 111 C144.99214478 109.71367676 144.99214478 109.71367676 144.98413086 108.40136719 C144.96705848 105.21077727 144.95453495 102.02021069 144.94506836 98.82958984 C144.94004882 97.45035027 144.93323181 96.07111598 144.92456055 94.69189453 C144.9123908 92.70607817 144.90728367 90.72022251 144.90234375 88.734375 C144.89448853 86.94338379 144.89448853 86.94338379 144.88647461 85.11621094 C145 82 145 82 145.57641602 79.76269531 C146.33006575 76.62646991 144.61284282 74.63430994 143 72 C142.113125 71.13375 141.22625 70.2675 140.3125 69.375 C138 67 138 67 138 63 C138.825 62.2575 139.65 61.515 140.5 60.75 C143.44844853 58.12612615 143.44844853 58.12612615 143 54 C143 50 143 50 145.375 47.25 C146.24125 46.5075 147.1075 45.765 148 45 C149.29519995 42.83379456 149.29519995 42.83379456 150 41 C149.21625 40.505 148.4325 40.01 147.625 39.5 C142.84011976 36.325416 138.44849945 32.62209837 134 29 C134.3515625 26.6015625 134.3515625 26.6015625 135 24 C137.375 22.375 137.375 22.375 140 21 C140.556875 20.443125 141.11375 19.88625 141.6875 19.3125 C142.120625 18.879375 142.55375 18.44625 143 18 C143.66 18 144.32 18 145 18 C144.47726322 14.96107331 144.47726322 14.96107331 142.5 12.6875 C141 11 141 11 140.5 7.4375 C140.335 6.303125 140.17 5.16875 140 4 C139.01 3.34 138.02 2.68 137 2 C137 1.34 137 0.68 137 0 C150.53 0 164.06 0 178 0 C175 6 175 6 172.3125 7.375 C171.549375 7.58125 170.78625 7.7875 170 8 C170.66 8.33 171.32 8.66 172 9 C171.9375 11.8125 171.9375 11.8125 171 15 C169.34190222 15.76975681 167.6757644 16.52732191 165.97192383 17.18969727 C162.76655112 18.50684868 159.85152027 20.29948415 156.875 22.0625 C153.01385105 24.34484943 149.22930177 26.45989577 145 28 C147.06977264 30.75969686 148.87492889 32.90983245 151.6875 34.9375 C154.60277284 37.53760821 154.58804577 39.21002112 155 43 C155.66 43.66 156.32 44.32 157 45 C157.125 47.625 157.125 47.625 156 51 C154.25 52.890625 154.25 52.890625 152.125 54.875 C148.49232628 58.31131298 145.19905986 61.77704835 145 67 C145.49177734 68.01835938 145.98355469 69.03671875 146.49023438 70.0859375 C148.38410097 74.38100907 148.29767213 78.1524703 148.07421875 82.77734375 C148.04777786 83.58869278 148.02133698 84.40004181 147.99409485 85.23597717 C147.90696894 87.80395491 147.79760396 90.37041529 147.6875 92.9375 C147.62417463 94.68809826 147.56231092 96.43875004 147.50195312 98.18945312 C147.3515319 102.46044019 147.18117332 106.73021138 147 111 C147.99 111 148.98 111 150 111 C150 108.36 150 105.72 150 103 C151.65 102.67 153.3 102.34 155 102 C155 99.36 155 96.72 155 94 C152.525 93.505 152.525 93.505 150 93 C150 87.39 150 81.78 150 76 C150.99 76 151.98 76 153 76 C153 80.95 153 85.9 153 91 C155.475 91.495 155.475 91.495 158 92 C158 95.96 158 99.92 158 104 C156.35 104.33 154.7 104.66 153 105 C153 106.98 153 108.96 153 111 C154.65 111 156.3 111 158 111 C158 114.3 158 117.6 158 121 C158.94875 120.95875 159.8975 120.9175 160.875 120.875 C164 121 164 121 166 123 C166.1953125 125.3828125 166.1953125 125.3828125 166.125 128.125 C166.10695313 129.03507813 166.08890625 129.94515625 166.0703125 130.8828125 C166.03550781 131.93082031 166.03550781 131.93082031 166 133 C167.27617188 132.97679687 168.55234375 132.95359375 169.8671875 132.9296875 C171.5364525 132.91093171 173.2057238 132.89273131 174.875 132.875 C175.71675781 132.85824219 176.55851563 132.84148437 177.42578125 132.82421875 C178.23144531 132.81777344 179.03710938 132.81132812 179.8671875 132.8046875 C180.61081543 132.79421387 181.35444336 132.78374023 182.12060547 132.77294922 C184 133 184 133 186 135 C186.265625 137.75 186.265625 137.75 186.25 141 C186.25515625 142.0725 186.2603125 143.145 186.265625 144.25 C186 147 186 147 184 149 C181.8359375 149.1953125 181.8359375 149.1953125 179.375 149.125 C178.55773437 149.10695312 177.74046875 149.08890625 176.8984375 149.0703125 C176.27195312 149.04710937 175.64546875 149.02390625 175 149 C175 150.32 175 151.64 175 153 C176.32 153.66 177.64 154.32 179 155 C179.05380578 157.79192205 179.09357669 160.5828141 179.125 163.375 C179.14175781 164.1690625 179.15851562 164.963125 179.17578125 165.78125 C179.19335473 167.85492015 179.10335168 169.92883241 179 172 C176.4345406 174.5654594 174.52313332 174.54046087 171 175 C171.00580078 176.11995361 171.01160156 177.23990723 171.01757812 178.39379883 C171.06127461 190.83275955 170.8305095 203.25346642 170.5 215.6875 C170.45160181 217.57616622 170.40342377 219.4648381 170.35546875 221.35351562 C170.23950254 225.90241257 170.12060784 230.45122385 170 235 C172.97 235 175.94 235 179 235 C179 234.01 179 233.02 179 232 C183.95 232 188.9 232 194 232 C194 237.61 194 243.22 194 249 C195.65 249 197.3 249 199 249 C199 252.63 199 256.26 199 260 C200.65 260 202.3 260 204 260 C204 260.66 204 261.32 204 262 C203.34 262 202.68 262 202 262 C202 263.32 202 264.64 202 266 C202.66 266 203.32 266 204 266 C204 266.66 204 267.32 204 268 C206.64 268 209.28 268 212 268 C212 286.48 212 304.96 212 324 C21.92 324 -168.16 324 -364 324 C-364 305.52 -364 287.04 -364 268 C-362.02 268 -360.04 268 -358 268 C-358 267.34 -358 266.68 -358 266 C-357.34 266 -356.68 266 -356 266 C-356 264.68 -356 263.36 -356 262 C-356.66 262 -357.32 262 -358 262 C-358 261.34 -358 260.68 -358 260 C-354.7 260 -351.4 260 -348 260 C-348 254.72 -348 249.44 -348 244 C-345.69 244 -343.38 244 -341 244 C-341 236.41 -341 228.82 -341 221 C-334.4 221 -327.8 221 -321 221 C-321 223.31 -321 225.62 -321 228 C-318.03 228 -315.06 228 -312 228 C-312 230.31 -312 232.62 -312 235 C-311.34 235 -310.68 235 -310 235 C-310 231.04 -310 227.08 -310 223 C-309.01 223 -308.02 223 -307 223 C-307 216.4 -307 209.8 -307 203 C-301.06 203 -295.12 203 -289 203 C-289 193.43 -289 183.86 -289 174 C-293.29 174 -297.58 174 -302 174 C-302 173.01 -302 172.02 -302 171 C-305.96 171 -309.92 171 -314 171 C-314 167.7 -314 164.4 -314 161 C-304.76 161 -295.52 161 -286 161 C-286 153.41 -286 145.82 -286 138 C-273.79 137.67 -261.58 137.34 -249 137 C-248.67 135.68 -248.34 134.36 -248 133 C-245.77040883 133.1171846 -243.54133911 133.24428952 -241.3125 133.375 C-240.07113281 133.44460937 -238.82976562 133.51421875 -237.55078125 133.5859375 C-231.66973226 134.12103724 -225.8366733 135.10205026 -220 136 C-220.33 115.54 -220.66 95.08 -221 74 C-223.18839268 74 -225.37994218 74.02780065 -227.5625 74.1875 C-230 74 -230 74 -231.75 72.75 C-233.12041836 70.83141429 -233.6018827 69.30908032 -234 67 C-234.94875 66.896875 -235.8975 66.79375 -236.875 66.6875 C-240 66 -240 66 -242 63 C-241.8125 59.9375 -241.8125 59.9375 -241 57 C-240.01 56.34 -239.02 55.68 -238 55 C-237.27034634 52.43717258 -237.27034634 52.43717258 -237 50 C-238.1554834 49.87331436 -239.3109668 49.74662872 -240.50146484 49.61610413 C-244.73590933 49.08434868 -248.84103288 48.18374022 -252.9765625 47.14233398 C-253.72875565 46.95687012 -254.48094879 46.77140625 -255.25593567 46.58032227 C-257.71339161 45.97326471 -260.1691822 45.35974139 -262.625 44.74609375 C-264.33982552 44.32113615 -266.0547523 43.89658693 -267.76977539 43.47242737 C-272.26206481 42.36023878 -276.75296533 41.24254046 -281.24359131 40.12365723 C-285.83473928 38.98077541 -290.42719003 37.84315386 -295.01953125 36.70507812 C-304.01429767 34.47517466 -313.00760441 32.23944353 -322 30 C-322 32.64 -322 35.28 -322 38 C-323.98 38 -325.96 38 -328 38 C-327.1395861 42.33229715 -327.1395861 42.33229715 -325 46 C-324.95936168 47.66617115 -324.957279 49.33388095 -325 51 C-325.99 51.33 -326.98 51.66 -328 52 C-327.98511857 60.64968674 -327.94349686 69.29871405 -327.86790943 77.94808483 C-327.83364563 81.96457038 -327.8085305 85.98067584 -327.80444336 89.99731445 C-327.80015893 93.87505773 -327.77168595 97.75194369 -327.72656822 101.62941933 C-327.71359754 103.10730301 -327.70928408 104.58528932 -327.71384621 106.06322289 C-327.71875606 108.13707947 -327.69265193 110.20843389 -327.65942383 112.28198242 C-327.65276199 113.46112717 -327.64610016 114.64027191 -327.63923645 115.85514832 C-326.80720903 119.94847376 -325.23993416 121.44018531 -322 124 C-318.31558496 124.88527109 -318.31558496 124.88527109 -315 125 C-314.9175 126.0725 -314.835 127.145 -314.75 128.25 C-314.26579384 132.47380642 -314.26579384 132.47380642 -310 136 C-310 141.28 -310 146.56 -310 152 C-322.21 152 -334.42 152 -347 152 C-347 136 -347 136 -343.33618164 131.93383789 C-341.76704453 130.82774904 -340.18697489 129.73704532 -338.59765625 128.66015625 C-332.63718562 123.70056239 -329.3486315 119.1847246 -328.50341797 111.37841797 C-327.84118079 103.19541708 -328.09034369 94.96921036 -328.36914062 86.77404785 C-328.48407898 82.84541399 -328.50012064 78.91638043 -328.52539062 74.98632812 C-328.58880937 67.32060251 -328.75891141 59.66242015 -329 52 C-329.99 51.67 -330.98 51.34 -332 51 C-332 50.01 -332 49.02 -332 48 C-330.68 48.33 -329.36 48.66 -328 49 C-327.505 48.01 -327.505 48.01 -327 47 C-327.99 46.67 -328.98 46.34 -330 46 C-331.125 40.25 -331.125 40.25 -330 38 C-331.98 38 -333.96 38 -336 38 C-336 35.36 -336 32.72 -336 30 C-335.34 30 -334.68 30 -334 30 C-334 28.68 -334 27.36 -334 26 C-335.32 25.67 -336.64 25.34 -338 25 C-338.04254356 23.00045254 -338.04080783 20.99958364 -338 19 C-336.24125319 17.24125319 -333.74563593 17.83166821 -331.35630798 17.79899597 C-330.12852127 17.78027939 -328.90073456 17.76156281 -327.63574219 17.74227905 C-326.26098851 17.72667392 -324.88623255 17.71126944 -323.51147461 17.69604492 C-322.07198235 17.67668818 -320.63249366 17.65706404 -319.19300842 17.63719177 C-305.85188522 17.46143395 -292.50956611 17.36954869 -279.16753292 17.29612255 C-270.23160682 17.24589528 -261.2971615 17.17358392 -252.36206055 17.03979492 C-163.52871876 15.73564062 -163.52871876 15.73564062 -133 31 C-133 42.55 -133 54.1 -133 66 C-140.92 66 -148.84 66 -157 66 C-157 61.38 -157 56.76 -157 52 C-165.91 52 -174.82 52 -184 52 C-184 53.65 -184 55.3 -184 57 C-183.278125 56.319375 -182.55625 55.63875 -181.8125 54.9375 C-179 53 -179 53 -176.3125 53.125 C-174 54 -174 54 -172 56 C-171.78161621 58.88673401 -171.78161621 58.88673401 -171.83398438 62.57641602 C-171.84192772 63.2425847 -171.84987106 63.90875338 -171.85805511 64.59510899 C-171.97370134 72.32750094 -172.30719431 80.05266116 -172.65625 87.77734375 C-172.72379454 89.32531011 -172.79104962 90.87328913 -172.85803223 92.42127991 C-173.03271728 96.44075301 -173.2112591 100.46004524 -173.39068604 104.47930908 C-173.57404747 108.60263785 -173.75364858 112.72613036 -173.93359375 116.84960938 C-174.28544316 124.89990254 -174.64172771 132.94999012 -175 141 C-170.71 141.33 -166.42 141.66 -162 142 C-162 142.99 -162 143.98 -162 145 C-153.585 145.495 -153.585 145.495 -145 146 C-144.67 147.32 -144.34 148.64 -144 150 C-142.68 149.34 -141.36 148.68 -140 148 C-136.7 150.64 -133.4 153.28 -130 156 C-130.66 157.32 -131.32 158.64 -132 160 C-129.69 160.33 -127.38 160.66 -125 161 C-125 130.97 -125 100.94 -125 70 C-125.66 70 -126.32 70 -127 70 C-127 68.02 -127 66.04 -127 64 C-124.69 64 -122.38 64 -120 64 C-120 59.38 -120 54.76 -120 50 C-119.34 50 -118.68 50 -118 50 C-118 51.65 -118 53.3 -118 55 C-115.03 54.505 -115.03 54.505 -112 54 C-112 54.66 -112 55.32 -112 56 C-109.36 56 -106.72 56 -104 56 C-104 55.34 -104 54.68 -104 54 C-102.02 54.33 -100.04 54.66 -98 55 C-98 53.35 -98 51.7 -98 50 C-97.34 50 -96.68 50 -96 50 C-96 54.62 -96 59.24 -96 64 C-93.69 64 -91.38 64 -89 64 C-89 65.98 -89 67.96 -89 70 C-89.66 70 -90.32 70 -91 70 C-91 74.95 -91 79.9 -91 85 C-68.23 85 -45.46 85 -22 85 C-22 80.05 -22 75.1 -22 70 C-22.66 70 -23.32 70 -24 70 C-24 68.02 -24 66.04 -24 64 C-21.69 64 -19.38 64 -17 64 C-17 59.38 -17 54.76 -17 50 C-16.34 50 -15.68 50 -15 50 C-15 51.65 -15 53.3 -15 55 C-13.02 54.67 -11.04 54.34 -9 54 C-9 54.66 -9 55.32 -9 56 C-6.36 56 -3.72 56 -1 56 C-0.95101563 54.94039062 -0.90203125 53.88078125 -0.8515625 52.7890625 C-0.77653291 51.40101503 -0.70098515 50.01299549 -0.625 48.625 C-0.5940625 47.92632812 -0.563125 47.22765625 -0.53125 46.5078125 C-0.2265625 41.2265625 -0.2265625 41.2265625 2 39 C4.125 38.375 4.125 38.375 6 38 C6.22162329 36.37675914 6.42689803 34.751279 6.625 33.125 C6.74101562 32.22007813 6.85703125 31.31515625 6.9765625 30.3828125 C6.98429687 29.59648437 6.99203125 28.81015625 7 28 C6.34 27.34 5.68 26.68 5 26 C6.28965176 24.62437146 7.62689293 23.29233607 9 22 C9.66 22 10.32 22 11 22 C11.5534764 19.92446352 12 18.15634036 12 16 C10.08107796 14.3269594 10.08107796 14.3269594 7.6875 12.625 C4.57868125 10.3522082 1.94671167 8.36422017 0 5 C0 3.35 0 1.7 0 0 Z M150 1 C149.34 1.66 148.68 2.32 148 3 C148 3.99 148 4.98 148 6 C149.134375 6.28875 150.26875 6.5775 151.4375 6.875 C152.613125 7.24625 153.78875 7.6175 155 8 C155.33 8.66 155.66 9.32 156 10 C158.31 9.01 160.62 8.02 163 7 C160.44526518 4.01947605 157.58539561 2.53659812 154 1 C152.68 1 151.36 1 150 1 Z M10 7 C10.66 8.32 11.32 9.64 12 11 C15.18490007 11.2773501 15.18490007 11.2773501 18 9 C18.72382467 6.94074861 18.72382467 6.94074861 19 5 C14.2102679 4.76571687 14.2102679 4.76571687 10 7 Z M150 11 C150.66 12.65 151.32 14.3 152 16 C150.02 16.99 150.02 16.99 148 18 C151.3 17.34 154.6 16.68 158 16 C158.30697031 13.03837129 158.30697031 13.03837129 156.6875 11.3125 C154.2492547 9.41608699 152.69816203 9.65091898 150 11 Z M-317 20 C-317 20.33 -317 20.66 -317 21 C-305.60529965 22.85034197 -294.20708455 24.67718612 -282.80414867 26.47612 C-277.50634792 27.3126161 -272.20995371 28.15641989 -266.91625977 29.01855469 C-233.14327228 34.52736833 -233.14327228 34.52736833 -199 35 C-199 30.05 -199 25.1 -199 20 C-237.94 20 -276.88 20 -317 20 Z M-184 21 C-184 25.95 -184 30.9 -184 36 C-175.09 36 -166.18 36 -157 36 C-157.53107113 31.93193661 -157.53107113 31.93193661 -160.28491211 30.53613281 C-161.27241455 30.09624023 -162.25991699 29.65634766 -163.27734375 29.203125 C-164.88319336 28.47802734 -164.88319336 28.47802734 -166.52148438 27.73828125 C-167.64876953 27.24714844 -168.77605469 26.75601562 -169.9375 26.25 C-171.06091797 25.74339844 -172.18433594 25.23679687 -173.34179688 24.71484375 C-178.48217531 22.09648104 -178.48217531 22.09648104 -184 21 Z M-329 23 C-325 24 -325 24 -325 24 Z M-320 25 C-318.515 25.99 -318.515 25.99 -317 27 C-316.01 26.67 -315.02 26.34 -314 26 C-315.06645115 24.70366379 -315.06645115 24.70366379 -317.5625 24.9375 C-318.366875 24.958125 -319.17125 24.97875 -320 25 Z M-168 25 C-165.87838666 27.12161334 -164.2266841 27.92986249 -161.5 29.125 C-160.7059375 29.47820313 -159.911875 29.83140625 -159.09375 30.1953125 C-157.06269795 31.11958189 -157.06269795 31.11958189 -155 31 C-155 31.66 -155 32.32 -155 33 C-148.73 33 -142.46 33 -136 33 C-139.33186347 31.33406827 -141.94209146 30.385849 -145.5 29.4921875 C-146.551875 29.22792969 -147.60375 28.96367187 -148.6875 28.69140625 C-149.780625 28.42199219 -150.87375 28.15257812 -152 27.875 C-153.6396875 27.45927734 -153.6396875 27.45927734 -155.3125 27.03515625 C-156.364375 26.77347656 -157.41625 26.51179688 -158.5 26.2421875 C-159.4590625 26.0035498 -160.418125 25.76491211 -161.40625 25.51904297 C-164.21284394 24.86918491 -164.21284394 24.86918491 -168 25 Z M-311 26 C-310.67 26.66 -310.34 27.32 -310 28 C-308.35 27.67 -306.7 27.34 -305 27 C-305 26.67 -305 26.34 -305 26 C-306.98 26 -308.96 26 -311 26 Z M-300 27 C-301.65 27.66 -303.3 28.32 -305 29 C-302.64561267 30.42944945 -301.51967567 31.08661261 -298.75 30.625 C-298.1725 30.41875 -297.595 30.2125 -297 30 C-297.99 29.01 -298.98 28.02 -300 27 Z M-296 28 C-295.01 29.32 -294.02 30.64 -293 32 C-291.02 31.34 -289.04 30.68 -287 30 C-287 29.67 -287 29.34 -287 29 C-289.97 28.67 -292.94 28.34 -296 28 Z M-286.125 30.9375 C-287.548125 31.4634375 -287.548125 31.4634375 -289 32 C-289 32.66 -289 33.32 -289 34 C-285.37 34.66 -281.74 35.32 -278 36 C-280.68167753 30.56974283 -280.68167753 30.56974283 -286.125 30.9375 Z M-278 31 C-277.01 32.65 -276.02 34.3 -275 36 C-270.80884715 35.41789544 -269.62457917 34.71843438 -266 32 C-269.96 31.67 -273.92 31.34 -278 31 Z M-271 37 C-267.85426323 39.09715785 -265.98543749 39.52004559 -262.3125 40.125 C-261.31863281 40.29257812 -260.32476562 40.46015625 -259.30078125 40.6328125 C-258.54152344 40.75398438 -257.78226563 40.87515625 -257 41 C-259.31921178 36.88020494 -259.31921178 36.88020494 -262.875 33.9375 C-266.0502991 34.03089115 -268.27920482 35.45409365 -271 37 Z M-259 34 C-256.66914871 38.09143135 -256.66914871 38.09143135 -253.1875 41.125 C-249.54890181 40.9170801 -247.04564672 38.93281427 -244 37 C-246.77042109 34.22957891 -248.76533805 34.60203894 -252.625 34.375 C-253.81351562 34.30023438 -255.00203125 34.22546875 -256.2265625 34.1484375 C-257.59941406 34.07496094 -257.59941406 34.07496094 -259 34 Z M-245.6875 39.5 C-246.89986328 40.19609375 -246.89986328 40.19609375 -248.13671875 40.90625 C-248.75160156 41.2671875 -249.36648437 41.628125 -250 42 C-247.82276258 44.17723742 -246.99514021 44.41899846 -244.0859375 45.0703125 C-243.32539063 45.24433594 -242.56484375 45.41835938 -241.78125 45.59765625 C-240.59015625 45.85869141 -240.59015625 45.85869141 -239.375 46.125 C-238.57320312 46.30675781 -237.77140625 46.48851562 -236.9453125 46.67578125 C-234.96500524 47.12370789 -232.9826823 47.56270604 -231 48 C-232.30851345 45.27443281 -233.72710338 42.74366236 -235.4375 40.25 C-235.84871094 39.63640625 -236.25992188 39.0228125 -236.68359375 38.390625 C-237.11800781 37.93171875 -237.55242187 37.4728125 -238 37 C-241.44360632 37 -242.74795392 37.79591532 -245.6875 39.5 Z M-236 37 C-235.06558465 38.27310312 -234.12732889 39.543388 -233.1875 40.8125 C-232.40439453 41.87404297 -232.40439453 41.87404297 -231.60546875 42.95703125 C-229.86930184 45.24975954 -229.86930184 45.24975954 -227 48 C-227 44.7 -227 41.4 -227 38 C-229.97 37.67 -232.94 37.34 -236 37 Z M-184 40 C-184 41.98 -184 43.96 -184 46 C-181.97945196 44.35830472 -179.97956942 42.69088222 -178 41 C-178 40.67 -178 40.34 -178 40 C-179.98 40 -181.96 40 -184 40 Z M-173 40 C-171.35 41.98 -169.7 43.96 -168 46 C-165.97945196 44.35830472 -163.97956942 42.69088222 -162 41 C-162 40.67 -162 40.34 -162 40 C-165.63 40 -169.26 40 -173 40 Z M-159 40 C-158.34 40.66 -157.68 41.32 -157 42 C-157 41.34 -157 40.68 -157 40 C-157.66 40 -158.32 40 -159 40 Z M-176 41 C-177.05016013 42.14034008 -178.06590196 43.31256404 -179.0625 44.5 C-180.031875 45.655 -181.00125 46.81 -182 48 C-177.71 48 -173.42 48 -169 48 C-169.969375 46.845 -170.93875 45.69 -171.9375 44.5 C-172.48277344 43.8503125 -173.02804688 43.200625 -173.58984375 42.53125 C-174.05519531 42.0259375 -174.52054688 41.520625 -175 41 C-175.33 41 -175.66 41 -176 41 Z M-161 42 C-162.65 43.98 -164.3 45.96 -166 48 C-163.03 48 -160.06 48 -157 48 C-157.5739739 43.79819816 -157.5739739 43.79819816 -161 42 Z M-235 51 C-234.64598897 54.18609925 -234.16972964 55.79066678 -232.125 58.3125 C-230.06070069 60.31094107 -230.06070069 60.31094107 -227 60 C-227 57.69 -227 55.38 -227 53 C-229.64 52.34 -232.28 51.68 -235 51 Z M-118 57 C-118 59.31 -118 61.62 -118 64 C-116.68 64 -115.36 64 -114 64 C-114 61.69 -114 59.38 -114 57 C-115.32 57 -116.64 57 -118 57 Z M-102 57 C-102 59.31 -102 61.62 -102 64 C-100.68 64 -99.36 64 -98 64 C-98 61.69 -98 59.38 -98 57 C-99.32 57 -100.64 57 -102 57 Z M-15 57 C-15 59.31 -15 61.62 -15 64 C-13.68 64 -12.36 64 -11 64 C-11 61.69 -11 59.38 -11 57 C-12.32 57 -13.64 57 -15 57 Z M-112 58 C-112 59.98 -112 61.96 -112 64 C-109.36 64 -106.72 64 -104 64 C-104 62.02 -104 60.04 -104 58 C-106.64 58 -109.28 58 -112 58 Z M-9 58 C-9 59.98 -9 61.96 -9 64 C-6.36 64 -3.72 64 -1 64 C-1 62.02 -1 60.04 -1 58 C-3.64 58 -6.28 58 -9 58 Z M-184 59 C-184 59.66 -184 60.32 -184 61 C-186.31 61 -188.62 61 -191 61 C-191 86.74 -191 112.48 -191 139 C-189.35 139.33 -187.7 139.66 -186 140 C-185.00895004 132.14906783 -184.60505812 124.30391548 -184.24609375 116.40234375 C-184.1804606 114.99946682 -184.11462538 113.59659933 -184.04859924 112.19374084 C-183.91152646 109.26815743 -183.77641734 106.34249229 -183.64282227 103.41674805 C-183.47236906 99.6858187 -183.29769918 95.95510159 -183.12164211 92.22443295 C-182.98551094 89.33242866 -182.85126437 86.44033928 -182.7176075 83.54821968 C-182.65390977 82.17322071 -182.58972494 80.79824422 -182.52502251 79.42329216 C-182.20567366 72.61020984 -181.91447375 65.8211219 -182 59 C-182.66 59 -183.32 59 -184 59 Z M-230 62 C-230 62.33 -230 62.66 -230 63 C-227.36 63.66 -224.72 64.32 -222 65 C-221.34 64.01 -220.68 63.02 -220 62 C-223.3 62 -226.6 62 -230 62 Z M-180 62 C-180.7615047 66.15924461 -181.19277023 70.20665988 -181.38891602 74.42919922 C-181.44890274 75.68425262 -181.50888947 76.93930603 -181.57069397 78.23239136 C-181.63189538 79.58981752 -181.69296283 80.94724973 -181.75390625 82.3046875 C-181.81947786 83.71185499 -181.88531377 85.11901019 -181.95140076 86.52615356 C-182.08888681 89.46964907 -182.22396516 92.41324165 -182.35717773 95.35693359 C-182.52716651 99.11151242 -182.70192743 102.86584949 -182.87835789 106.62013054 C-183.01454348 109.52500632 -183.1487836 112.42996941 -183.2823925 115.33496475 C-183.34613089 116.71833497 -183.41031715 118.10168463 -183.47497749 119.48501205 C-183.79339019 126.32845973 -184.08608945 133.14857903 -184 140 C-181.69 140 -179.38 140 -177 140 C-176.60709376 130.86371912 -176.21580175 121.72737093 -175.82654572 112.5909338 C-175.64573056 108.34810461 -175.46436854 104.1053003 -175.28173828 99.86254883 C-175.1053691 95.76477525 -174.93046052 91.66694165 -174.75654602 87.56906319 C-174.69008431 86.00902667 -174.6231046 84.44901213 -174.55558777 82.88902092 C-174.46079924 80.6968226 -174.36788632 78.50455196 -174.27539062 76.31225586 C-174.22209595 75.06649277 -174.16880127 73.82072968 -174.1138916 72.53721619 C-174.00071049 69.02206628 -173.98010862 65.51670152 -174 62 C-175.98 62 -177.96 62 -180 62 Z M-212 64 C-210.35 65.98 -208.7 67.96 -207 70 C-205.12946603 69.86965506 -205.12946603 69.86965506 -203 69 C-201.68 67.35 -200.36 65.7 -199 64 C-203.29 64 -207.58 64 -212 64 Z M-221 66 C-221.33 67.32 -221.66 68.64 -222 70 C-221.01 70.495 -221.01 70.495 -220 71 C-220 69.35 -220 67.7 -220 66 C-220.33 66 -220.66 66 -221 66 Z M-214 66 C-214 70.29 -214 74.58 -214 79 C-212.02 77.35 -210.04 75.7 -208 74 C-208.13034494 72.12946603 -208.13034494 72.12946603 -209 70 C-210.65 68.68 -212.3 67.36 -214 66 Z M-200.625 68.25 C-203.18845818 70.65614268 -203.18845818 70.65614268 -203.125 73.0625 C-201.75570777 75.68962748 -201.75570777 75.68962748 -197 79 C-197 74.71 -197 70.42 -197 66 C-198.44967876 65.89153477 -198.44967876 65.89153477 -200.625 68.25 Z M-208.38671875 76.3125 C-208.81597656 76.869375 -209.24523437 77.42625 -209.6875 78 C-210.450625 78.99 -211.21375 79.98 -212 81 C-207.71 81 -203.42 81 -199 81 C-199.763125 80.01 -200.52625 79.02 -201.3125 78 C-201.95638672 77.1646875 -201.95638672 77.1646875 -202.61328125 76.3125 C-204.68706854 74.34970414 -206.31293146 74.34970414 -208.38671875 76.3125 Z M-212 84 C-210.35 85.98 -208.7 87.96 -207 90 C-205.12946603 89.86965506 -205.12946603 89.86965506 -203 89 C-201.68 87.35 -200.36 85.7 -199 84 C-203.29 84 -207.58 84 -212 84 Z M-214 86 C-214 90.29 -214 94.58 -214 99 C-212.02 97.35 -210.04 95.7 -208 94 C-208.13034494 92.12946603 -208.13034494 92.12946603 -209 90 C-210.65 88.68 -212.3 87.36 -214 86 Z M-200.625 88.25 C-203.18845818 90.65614268 -203.18845818 90.65614268 -203.125 93.0625 C-201.75570777 95.68962748 -201.75570777 95.68962748 -197 99 C-197 94.71 -197 90.42 -197 86 C-198.44967876 85.89153477 -198.44967876 85.89153477 -200.625 88.25 Z M12 87 C12 104.16 12 121.32 12 139 C13.32 139 14.64 139 16 139 C16 121.84 16 104.68 16 87 C14.68 87 13.36 87 12 87 Z M-91 89 C-91 92.63 -91 96.26 -91 100 C-90.01 100 -89.02 100 -88 100 C-88 96.37 -88 92.74 -88 89 C-88.99 89 -89.98 89 -91 89 Z M-85 89 C-85 92.63 -85 96.26 -85 100 C-84.01 100 -83.02 100 -82 100 C-82 96.37 -82 92.74 -82 89 C-82.99 89 -83.98 89 -85 89 Z M-79 89 C-79 92.63 -79 96.26 -79 100 C-78.01 100 -77.02 100 -76 100 C-76 96.37 -76 92.74 -76 89 C-76.99 89 -77.98 89 -79 89 Z M-73 89 C-73 92.63 -73 96.26 -73 100 C-72.01 100 -71.02 100 -70 100 C-70 96.37 -70 92.74 -70 89 C-70.99 89 -71.98 89 -73 89 Z M-67 89 C-67 92.63 -67 96.26 -67 100 C-66.01 100 -65.02 100 -64 100 C-64 96.37 -64 92.74 -64 89 C-64.99 89 -65.98 89 -67 89 Z M-61 89 C-61 92.63 -61 96.26 -61 100 C-60.01 100 -59.02 100 -58 100 C-58 96.37 -58 92.74 -58 89 C-58.99 89 -59.98 89 -61 89 Z M-55 89 C-55 92.63 -55 96.26 -55 100 C-54.01 100 -53.02 100 -52 100 C-52 96.37 -52 92.74 -52 89 C-52.99 89 -53.98 89 -55 89 Z M-49 89 C-49 92.63 -49 96.26 -49 100 C-48.01 100 -47.02 100 -46 100 C-46 96.37 -46 92.74 -46 89 C-46.99 89 -47.98 89 -49 89 Z M-43 89 C-43 92.63 -43 96.26 -43 100 C-42.01 100 -41.02 100 -40 100 C-40 96.37 -40 92.74 -40 89 C-40.99 89 -41.98 89 -43 89 Z M-37 89 C-37 92.63 -37 96.26 -37 100 C-36.01 100 -35.02 100 -34 100 C-34 96.37 -34 92.74 -34 89 C-34.99 89 -35.98 89 -37 89 Z M-31 89 C-31 92.63 -31 96.26 -31 100 C-30.01 100 -29.02 100 -28 100 C-28 96.37 -28 92.74 -28 89 C-28.99 89 -29.98 89 -31 89 Z M-25 89 C-25 92.63 -25 96.26 -25 100 C-24.01 100 -23.02 100 -22 100 C-22 96.37 -22 92.74 -22 89 C-22.99 89 -23.98 89 -25 89 Z M-208.38671875 96.3125 C-208.81597656 96.869375 -209.24523437 97.42625 -209.6875 98 C-210.450625 98.99 -211.21375 99.98 -212 101 C-207.71 101 -203.42 101 -199 101 C-199.763125 100.01 -200.52625 99.02 -201.3125 98 C-201.95638672 97.1646875 -201.95638672 97.1646875 -202.61328125 96.3125 C-204.68706854 94.34970414 -206.31293146 94.34970414 -208.38671875 96.3125 Z M-212 104 C-210.35 105.98 -208.7 107.96 -207 110 C-205.12946603 109.86965506 -205.12946603 109.86965506 -203 109 C-201.68 107.35 -200.36 105.7 -199 104 C-203.29 104 -207.58 104 -212 104 Z M-91 104 C-91 105.98 -91 107.96 -91 110 C-88.97945196 108.35830472 -86.97956942 106.69088222 -85 105 C-85 104.67 -85 104.34 -85 104 C-86.98 104 -88.96 104 -91 104 Z M-80 104 C-81.57840572 105.55705194 -81.57840572 105.55705194 -83.125 107.5 C-83.66382813 108.1496875 -84.20265625 108.799375 -84.7578125 109.46875 C-85.16773438 109.9740625 -85.57765625 110.479375 -86 111 C-83.36 111 -80.72 111 -78 111 C-78 108.69 -78 106.38 -78 104 C-78.66 104 -79.32 104 -80 104 Z M-74 104 C-74 105.65 -74 107.3 -74 109 C-72.35 108.67 -70.7 108.34 -69 108 C-70.36323743 105.9600281 -70.36323743 105.9600281 -72 104 C-72.66 104 -73.32 104 -74 104 Z M-67 104 C-66.01 105.485 -66.01 105.485 -65 107 C-62.07895874 107.30279086 -59.41700216 107.41810841 -56.5 107.375 C-55.71496094 107.38660156 -54.92992187 107.39820312 -54.12109375 107.41015625 C-51.57724032 107.43425853 -51.57724032 107.43425853 -48 107 C-47.34 106.01 -46.68 105.02 -46 104 C-52.93 104 -59.86 104 -67 104 Z M-41 104 C-42.63676257 105.9600281 -42.63676257 105.9600281 -44 108 C-41.525 108.495 -41.525 108.495 -39 109 C-39 107.35 -39 105.7 -39 104 C-39.66 104 -40.32 104 -41 104 Z M-35 104 C-35 106.31 -35 108.62 -35 111 C-32.36 111 -29.72 111 -27 111 C-27.95117134 109.8274869 -28.91117009 108.66212985 -29.875 107.5 C-30.40867187 106.8503125 -30.94234375 106.200625 -31.4921875 105.53125 C-31.98976563 105.0259375 -32.48734375 104.520625 -33 104 C-33.66 104 -34.32 104 -35 104 Z M-28 104 C-26.35830472 106.02054804 -24.69088222 108.02043058 -23 110 C-22.67 110 -22.34 110 -22 110 C-22 108.02 -22 106.04 -22 104 C-23.98 104 -25.96 104 -28 104 Z M-214 106 C-214 110.29 -214 114.58 -214 119 C-212.02 117.35 -210.04 115.7 -208 114 C-208.13034494 112.12946603 -208.13034494 112.12946603 -209 110 C-210.65 108.68 -212.3 107.36 -214 106 Z M-200.625 108.25 C-203.18845818 110.65614268 -203.18845818 110.65614268 -203.125 113.0625 C-201.75570777 115.68962748 -201.75570777 115.68962748 -197 119 C-197 114.71 -197 110.42 -197 106 C-198.44967876 105.89153477 -198.44967876 105.89153477 -200.625 108.25 Z M-87 120 C-91.2269749 125.09733522 -91.55017716 128.79100727 -91.390625 135.1171875 C-91.38659668 135.87781494 -91.38256836 136.63844238 -91.37841797 137.42211914 C-91.35762599 140.23999453 -91.30178089 143.05752369 -91.25 145.875 C-91.1675 152.18625 -91.085 158.4975 -91 165 C-68.23 165 -45.46 165 -22 165 C-21.9175 158.68875 -21.835 152.3775 -21.75 145.875 C-21.71358398 143.8935498 -21.67716797 141.91209961 -21.63964844 139.87060547 C-21.62795733 138.28614381 -21.6177665 136.70167007 -21.609375 135.1171875 C-21.5786792 133.90011108 -21.5786792 133.90011108 -21.54736328 132.65844727 C-21.54407465 127.27659966 -22.44649763 124.28519052 -26 120 C-41.58672511 106.82448098 -71.41327489 106.82448098 -87 120 Z M-208.38671875 116.3125 C-208.81597656 116.869375 -209.24523437 117.42625 -209.6875 118 C-210.450625 118.99 -211.21375 119.98 -212 121 C-207.71 121 -203.42 121 -199 121 C-199.763125 120.01 -200.52625 119.02 -201.3125 118 C-201.95638672 117.1646875 -201.95638672 117.1646875 -202.61328125 116.3125 C-204.68706854 114.34970414 -206.31293146 114.34970414 -208.38671875 116.3125 Z M-91 115 C-90.67 116.32 -90.34 117.64 -90 119 C-89.01 117.68 -88.02 116.36 -87 115 C-88.32 115 -89.64 115 -91 115 Z M-26 115 C-24.68 116.32 -23.36 117.64 -22 119 C-22 117.68 -22 116.36 -22 115 C-23.32 115 -24.64 115 -26 115 Z M131 115 C131 115.99 131 116.98 131 118 C132.32 118 133.64 118 135 118 C135 120.31 135 122.62 135 125 C136.32 125 137.64 125 139 125 C139 121.7 139 118.4 139 115 C136.36 115 133.72 115 131 115 Z M-329 122 C-329.33 122.99 -329.66 123.98 -330 125 C-328.02 125 -326.04 125 -324 125 C-324.66 124.01 -325.32 123.02 -326 122 C-326.99 122 -327.98 122 -329 122 Z M-334.94140625 125.80859375 C-335.52470703 126.39060547 -336.10800781 126.97261719 -336.70898438 127.57226562 C-337.32064453 128.18779297 -337.93230469 128.80332031 -338.5625 129.4375 C-339.17802734 130.04916016 -339.79355469 130.66082031 -340.42773438 131.29101562 C-341.00974609 131.87431641 -341.59175781 132.45761719 -342.19140625 133.05859375 C-342.99880249 133.86768188 -342.99880249 133.86768188 -343.82250977 134.69311523 C-345.11156184 135.83063813 -345.11156184 135.83063813 -345 137 C-342.03 137 -339.06 137 -336 137 C-332.75441594 130.24494398 -332.75441594 130.24494398 -331 123 C-332.77449594 123 -333.74023666 124.60993594 -334.94140625 125.80859375 Z M-212 124 C-210.35 125.98 -208.7 127.96 -207 130 C-205.12946603 129.86965506 -205.12946603 129.86965506 -203 129 C-201.68 127.35 -200.36 125.7 -199 124 C-203.29 124 -207.58 124 -212 124 Z M158 124 C158 129.61 158 135.22 158 141 C160.31 141 162.62 141 165 141 C165 142.65 165 144.3 165 146 C164.34 146 163.68 146 163 146 C163 148.31 163 150.62 163 153 C165.97 153 168.94 153 172 153 C172.66 151.02 173.32 149.04 174 147 C176.97 146.67 179.94 146.34 183 146 C183 142.7 183 139.4 183 136 C181.06833984 135.90912109 181.06833984 135.90912109 179.09765625 135.81640625 C177.41925841 135.73201753 175.74087364 135.6473687 174.0625 135.5625 C173.21236328 135.52318359 172.36222656 135.48386719 171.48632812 135.44335938 C170.67744141 135.40146484 169.86855469 135.35957031 169.03515625 135.31640625 C167.91185913 135.26141968 167.91185913 135.26141968 166.76586914 135.20532227 C165 135 165 135 164 134 C163.76712992 132.31816052 163.58735834 130.6287584 163.4375 128.9375 C163.35371094 128.01839844 163.26992188 127.09929687 163.18359375 126.15234375 C163.09271484 125.08693359 163.09271484 125.08693359 163 124 C161.35 124 159.7 124 158 124 Z M-214 126 C-214 129.63 -214 133.26 -214 137 C-210.0285831 136.37158027 -210.0285831 136.37158027 -208 134 C-207.94918862 132.02418332 -207.94918862 132.02418332 -209 130 C-211.47661498 127.75149517 -211.47661498 127.75149517 -214 126 Z M-200.625 128.25 C-203.23149037 130.66243974 -203.23149037 130.66243974 -203 133.125 C-201.89482518 135.19720278 -200.83391894 136.53286485 -199 138 C-198.34 138 -197.68 138 -197 138 C-197 134.04 -197 130.08 -197 126 C-198.44967876 125.89153477 -198.44967876 125.89153477 -200.625 128.25 Z M129 129 C127.71387324 130.05978933 127.71387324 130.05978933 127.90234375 132.50390625 C127.91394531 133.51324219 127.92554688 134.52257812 127.9375 135.5625 C127.94652344 136.57441406 127.95554687 137.58632812 127.96484375 138.62890625 C127.97644531 139.41136719 127.98804688 140.19382813 128 141 C129.65 141 131.3 141 133 141 C133 137.04 133 133.08 133 129 C131.68 129 130.36 129 129 129 Z M135 129 C135 132.96 135 136.92 135 141 C136.32 141 137.64 141 139 141 C139 137.04 139 133.08 139 129 C137.68 129 136.36 129 135 129 Z M-333 132 C-333.33 133.65 -333.66 135.3 -334 137 C-333.34 137 -332.68 137 -332 137 C-332 135.35 -332 133.7 -332 132 C-332.33 132 -332.66 132 -333 132 Z M-315 134 C-315 134.99 -315 135.98 -315 137 C-314.01 136.67 -313.02 136.34 -312 136 C-312.99 135.34 -313.98 134.68 -315 134 Z M-207 135 C-207.33 135.66 -207.66 136.32 -208 137 C-205.03 137.495 -205.03 137.495 -202 138 C-202.66 137.01 -203.32 136.02 -204 135 C-204.99 135 -205.98 135 -207 135 Z M-238 138 C-238 140.97 -238 143.94 -238 147 C-233.05 147 -228.1 147 -223 147 C-223 151.62 -223 156.24 -223 161 C-222.01 161 -221.02 161 -220 161 C-220 154.07 -220 147.14 -220 140 C-223.34125 139.505 -223.34125 139.505 -226.75 139 C-228.00296875 138.814375 -229.2559375 138.62875 -230.546875 138.4375 C-234.08125794 137.91620531 -234.08125794 137.91620531 -238 138 Z M-191 143 C-191 148.94 -191 154.88 -191 161 C-189.68 161 -188.36 161 -187 161 C-186.1679418 155.27959989 -185.87963336 149.77759884 -186 144 C-187.65 143.67 -189.3 143.34 -191 143 Z M-212 144 C-210.35 145.98 -208.7 147.96 -207 150 C-205.12946603 149.86965506 -205.12946603 149.86965506 -203 149 C-201.68 147.35 -200.36 145.7 -199 144 C-203.29 144 -207.58 144 -212 144 Z M-184 144 C-184.33 149.61 -184.66 155.22 -185 161 C-183.35 161 -181.7 161 -180 161 C-180 156.05 -180 151.1 -180 146 C-179.34 146 -178.68 146 -178 146 C-178 145.34 -178 144.68 -178 144 C-179.98 144 -181.96 144 -184 144 Z M-176 145 C-176 145.33 -176 145.66 -176 146 C-173.69 146 -171.38 146 -169 146 C-169 145.67 -169 145.34 -169 145 C-171.31 145 -173.62 145 -176 145 Z M-214 146 C-214 150.29 -214 154.58 -214 159 C-212.02 157.35 -210.04 155.7 -208 154 C-208.13034494 152.12946603 -208.13034494 152.12946603 -209 150 C-210.65 148.68 -212.3 147.36 -214 146 Z M-200.625 148.25 C-203.18845818 150.65614268 -203.18845818 150.65614268 -203.125 153.0625 C-201.75570777 155.68962748 -201.75570777 155.68962748 -197 159 C-197 154.71 -197 150.42 -197 146 C-198.44967876 145.89153477 -198.44967876 145.89153477 -200.625 148.25 Z M-208.38671875 156.3125 C-208.81597656 156.869375 -209.24523437 157.42625 -209.6875 158 C-210.450625 158.99 -211.21375 159.98 -212 161 C-207.71 161 -203.42 161 -199 161 C-199.763125 160.01 -200.52625 159.02 -201.3125 158 C-201.95638672 157.1646875 -201.95638672 157.1646875 -202.61328125 156.3125 C-204.68706854 154.34970414 -206.31293146 154.34970414 -208.38671875 156.3125 Z M-145 155 C-145 156.98 -145 158.96 -145 161 C-142.36 161 -139.72 161 -137 161 C-139.48952921 158.33264727 -141.63408134 156.44253657 -145 155 Z M163 158 C163 158.99 163 159.98 163 161 C165.97 161 168.94 161 172 161 C172 160.01 172 159.02 172 158 C169.03 158 166.06 158 163 158 Z M163 164 C163 172.91 163 181.82 163 191 C163.99 191 164.98 191 166 191 C166.33 184.73 166.66 178.46 167 172 C169.31 171.01 171.62 170.02 174 169 C174 167.02 174 165.04 174 163 C170.31821299 163 166.663515 163.6336485 163 164 Z M-81 169 C-81 170.98 -81 172.96 -81 175 C-78.97945196 173.35830472 -76.97956942 171.69088222 -75 170 C-75 169.67 -75 169.34 -75 169 C-76.98 169 -78.96 169 -81 169 Z M-71 169 C-69.35 170.98 -67.7 172.96 -66 175 C-62.28139821 173.46126823 -61.64366459 172.52488612 -59 169 C-62.96 169 -66.92 169 -71 169 Z M-54 169 C-52.35 170.98 -50.7 172.96 -49 175 C-45.28139821 173.46126823 -44.64366459 172.52488612 -42 169 C-45.96 169 -49.92 169 -54 169 Z M-38 169 C-36.35830472 171.02054804 -34.69088222 173.02043058 -33 175 C-32.67 175 -32.34 175 -32 175 C-32 173.02 -32 171.04 -32 169 C-33.98 169 -35.96 169 -38 169 Z M-57 170 C-58.05016013 171.14034008 -59.06590196 172.31256404 -60.0625 173.5 C-61.031875 174.655 -62.00125 175.81 -63 177 C-58.71 177 -54.42 177 -50 177 C-50.969375 175.845 -51.93875 174.69 -52.9375 173.5 C-53.48277344 172.8503125 -54.02804687 172.200625 -54.58984375 171.53125 C-55.05519531 171.0259375 -55.52054687 170.520625 -56 170 C-56.33 170 -56.66 170 -57 170 Z M-247 171 C-247 171.99 -247 172.98 -247 174 C-251.29 174 -255.58 174 -260 174 C-260 205.02 -260 236.04 -260 268 C-259.34 268 -258.68 268 -258 268 C-258 267.34 -258 266.68 -258 266 C-257.34 266 -256.68 266 -256 266 C-256 265.34 -256 264.68 -256 264 C-255.01 264 -254.02 264 -253 264 C-253 264.66 -253 265.32 -253 266 C-252.34 266 -251.68 266 -251 266 C-249.79970092 263.59940183 -249.88540257 262.10639351 -249.90234375 259.4296875 C-249.90484131 258.62257324 -249.90733887 257.81545898 -249.90991211 256.98388672 C-249.91901611 255.9579541 -249.92812012 254.93202148 -249.9375 253.875 C-249.958125 250.61625 -249.97875 247.3575 -250 244 C-240.43 244 -230.86 244 -221 244 C-220.67 241.69 -220.34 239.38 -220 237 C-221.32 237 -222.64 237 -224 237 C-224 234.36 -224 231.72 -224 229 C-222.68 229 -221.36 229 -220 229 C-220 209.86 -220 190.72 -220 171 C-228.91 171 -237.82 171 -247 171 Z M-214 171 C-214 173.64 -214 176.28 -214 179 C-213.01 178.236875 -212.02 177.47375 -211 176.6875 C-210.443125 176.25824219 -209.88625 175.82898438 -209.3125 175.38671875 C-207.65629795 173.95508863 -207.65629795 173.95508863 -208 171 C-209.98 171 -211.96 171 -214 171 Z M-203 171 C-202.65120368 174.25543229 -201.97866739 175.01873107 -199.4375 177.25 C-198.633125 177.8275 -197.82875 178.405 -197 179 C-197 176.36 -197 173.72 -197 171 C-198.98 171 -200.96 171 -203 171 Z M-191 171 C-191 190.14 -191 209.28 -191 229 C-190.34 229 -189.68 229 -189 229 C-189 225.37 -189 221.74 -189 218 C-187.68 218 -186.36 218 -185 218 C-184.7496423 214.62535976 -184.7496423 214.62535976 -185 211 C-185.49435547 210.53948242 -185.98871094 210.07896484 -186.49804688 209.60449219 C-188.6487299 207.30698099 -188.31660244 205.73963262 -188.21875 202.640625 C-188.19167969 201.57134766 -188.16460937 200.50207031 -188.13671875 199.40039062 C-188.09160156 198.27826172 -188.04648438 197.15613281 -188 196 C-187.96519531 194.90365234 -187.93039063 193.80730469 -187.89453125 192.67773438 C-187.78152613 189.36746378 -187.64455043 186.05903277 -187.5 182.75 C-187.42845703 181.04263672 -187.42845703 181.04263672 -187.35546875 179.30078125 C-187.239207 176.53375166 -187.12068812 173.76683945 -187 171 C-188.32 171 -189.64 171 -191 171 Z M-185 171 C-186.03042947 174.44698827 -186.19794703 177.70925282 -186.31640625 181.296875 C-186.35830078 182.50214844 -186.40019531 183.70742187 -186.44335938 184.94921875 C-186.48267578 186.20347656 -186.52199219 187.45773438 -186.5625 188.75 C-186.60568359 190.01972656 -186.64886719 191.28945312 -186.69335938 192.59765625 C-186.79939722 195.73166365 -186.90146058 198.86574933 -187 202 C-184.69 202 -182.38 202 -180 202 C-178.97749595 195.30139078 -178.88243727 188.7684802 -178.9375 182 C-178.94201172 180.93910156 -178.94652344 179.87820312 -178.95117188 178.78515625 C-178.96286157 176.19004402 -178.97924724 173.59505291 -179 171 C-180.98 171 -182.96 171 -185 171 Z M-177 171 C-177.53862271 183.04096616 -177.53862271 183.04096616 -178.04614258 195.08325195 C-178.11947889 196.59331685 -178.19386999 198.10333106 -178.26953125 199.61328125 C-178.29736694 200.39682983 -178.32520264 201.18037842 -178.35388184 201.9876709 C-178.6544708 207.59595686 -178.6544708 207.59595686 -180.53393555 209.79370117 C-181.25963745 210.39081909 -181.25963745 210.39081909 -182 211 C-182.2503577 214.62535976 -182.2503577 214.62535976 -182 218 C-180.68 218 -179.36 218 -178 218 C-178 221.96 -178 225.92 -178 230 C-176.68 230 -175.36 230 -174 230 C-173.67 228.68 -173.34 227.36 -173 226 C-172.34 226 -171.68 226 -171 226 C-171 230.62 -171 235.24 -171 240 C-171.66 240 -172.32 240 -173 240 C-173.33 238.68 -173.66 237.36 -174 236 C-175.32 236 -176.64 236 -178 236 C-178 238.64 -178 241.28 -178 244 C-173.71 244 -169.42 244 -165 244 C-164.67 235.75 -164.34 227.5 -164 219 C-159.545 218.505 -159.545 218.505 -155 218 C-153.02170928 216.02170928 -153.74496068 212.17672973 -153.68359375 209.46484375 C-153.66281265 208.71159317 -153.64203156 207.95834259 -153.62062073 207.18226624 C-153.55504575 204.7674401 -153.49620379 202.35250202 -153.4375 199.9375 C-153.3943223 198.30402471 -153.35070827 196.6705609 -153.30664062 195.03710938 C-153.19853203 191.02485282 -153.09951886 187.01251576 -153 183 C-145.08 182.505 -145.08 182.505 -137 182 C-137 180.35 -137 178.7 -137 177 C-136.34 177 -135.68 177 -135 177 C-135 175.02 -135 173.04 -135 171 C-148.86 171 -162.72 171 -177 171 Z M-74 171 C-75.7143618 172.95927063 -77.38405168 174.95880212 -79 177 C-75.04 177 -71.08 177 -67 177 C-68.61594832 174.95880212 -70.2856382 172.95927063 -72 171 C-72.66 171 -73.32 171 -74 171 Z M-41 171 C-42.7143618 172.95927063 -44.38405168 174.95880212 -46 177 C-42.04 177 -38.08 177 -34 177 C-35.61594832 174.95880212 -37.2856382 172.95927063 -39 171 C-39.66 171 -40.32 171 -41 171 Z M-281 174 C-281 190.17 -281 206.34 -281 223 C-278.03 223 -275.06 223 -272 223 C-272 235.21 -272 247.42 -272 260 C-270.02 260 -268.04 260 -266 260 C-266 260.66 -266 261.32 -266 262 C-266.66 262 -267.32 262 -268 262 C-268 263.32 -268 264.64 -268 266 C-267.34 266 -266.68 266 -266 266 C-265.67 266.66 -265.34 267.32 -265 268 C-265 236.98 -265 205.96 -265 174 C-270.28 174 -275.56 174 -281 174 Z M-208.38671875 176.3125 C-208.81597656 176.869375 -209.24523437 177.42625 -209.6875 178 C-210.450625 178.99 -211.21375 179.98 -212 181 C-207.71 181 -203.42 181 -199 181 C-199.763125 180.01 -200.52625 179.02 -201.3125 178 C-201.95638672 177.1646875 -201.95638672 177.1646875 -202.61328125 176.3125 C-204.68706854 174.34970414 -206.31293146 174.34970414 -208.38671875 176.3125 Z M-79 179 C-79 179.33 -79 179.66 -79 180 C-64.15 180 -49.3 180 -34 180 C-34 179.67 -34 179.34 -34 179 C-48.85 179 -63.7 179 -79 179 Z M31 181 C31 181.66 31 182.32 31 183 C32.32 183 33.64 183 35 183 C35 182.34 35 181.68 35 181 C33.68 181 32.36 181 31 181 Z M111 181 C109.69338505 182.08108449 109.69338505 182.08108449 109.88647461 184.68383789 C109.89171143 185.85164795 109.89694824 187.01945801 109.90234375 188.22265625 C109.90556641 189.48271484 109.90878906 190.74277344 109.91210938 192.04101562 C109.92046597 193.38151109 109.92893093 194.72200588 109.9375 196.0625 C109.9425134 197.40689942 109.94707658 198.7513006 109.95117188 200.09570312 C109.96300512 203.39717941 109.97949029 206.69856803 110 210 C112.31 210 114.62 210 117 210 C117 200.43 117 190.86 117 181 C115.02 181 113.04 181 111 181 Z M-79 182 C-79 194.54 -79 207.08 -79 220 C-64.15 220 -49.3 220 -34 220 C-34 207.46 -34 194.92 -34 182 C-48.85 182 -63.7 182 -79 182 Z M-212 184 C-210.35 185.98 -208.7 187.96 -207 190 C-205.12946603 189.86965506 -205.12946603 189.86965506 -203 189 C-201.68 187.35 -200.36 185.7 -199 184 C-203.29 184 -207.58 184 -212 184 Z M-151 186 C-151.08685603 187.56172745 -151.10702219 189.12729344 -151.09765625 190.69140625 C-151.09443359 191.63564453 -151.09121094 192.57988281 -151.08789062 193.55273438 C-151.07951172 194.54595703 -151.07113281 195.53917969 -151.0625 196.5625 C-151.05798828 197.55958984 -151.05347656 198.55667969 -151.04882812 199.58398438 C-151.03700023 202.05601487 -151.01906415 204.52801472 -151 207 C-146.38 207 -141.76 207 -137 207 C-137 199.74 -137 192.48 -137 185 C-139.124375 184.979375 -141.24875 184.95875 -143.4375 184.9375 C-145.22994141 184.92009766 -145.22994141 184.92009766 -147.05859375 184.90234375 C-149.88873341 184.66098208 -149.88873341 184.66098208 -151 186 Z M-214 186 C-214 190.29 -214 194.58 -214 199 C-212.02 197.35 -210.04 195.7 -208 194 C-208.13034494 192.12946603 -208.13034494 192.12946603 -209 190 C-210.65 188.68 -212.3 187.36 -214 186 Z M-200.625 188.25 C-203.18845818 190.65614268 -203.18845818 190.65614268 -203.125 193.0625 C-201.75570777 195.68962748 -201.75570777 195.68962748 -197 199 C-197 194.71 -197 190.42 -197 186 C-198.44967876 185.89153477 -198.44967876 185.89153477 -200.625 188.25 Z M24 192 C24 197.94 24 203.88 24 210 C25.65 210 27.3 210 29 210 C31.41122368 208.03464283 31.41122368 208.03464283 31.1953125 204.3046875 C31.182009 202.82799892 31.15814835 201.35137642 31.125 199.875 C31.11146484 198.74384766 31.11146484 198.74384766 31.09765625 197.58984375 C31.0740687 195.72642746 31.03819719 193.86317407 31 192 C28.69 192 26.38 192 24 192 Z M163 194 C163 202.91 163 211.82 163 221 C163.99 221 164.98 221 166 221 C166 212.09 166 203.18 166 194 C165.01 194 164.02 194 163 194 Z M-208.38671875 196.3125 C-208.81597656 196.869375 -209.24523437 197.42625 -209.6875 198 C-210.450625 198.99 -211.21375 199.98 -212 201 C-207.71 201 -203.42 201 -199 201 C-199.763125 200.01 -200.52625 199.02 -201.3125 198 C-201.95638672 197.1646875 -201.95638672 197.1646875 -202.61328125 196.3125 C-204.68706854 194.34970414 -206.31293146 194.34970414 -208.38671875 196.3125 Z M-212 204 C-210.35 205.98 -208.7 207.96 -207 210 C-205.12946603 209.86965506 -205.12946603 209.86965506 -203 209 C-201.68 207.35 -200.36 205.7 -199 204 C-203.29 204 -207.58 204 -212 204 Z M-214 206 C-214 210.29 -214 214.58 -214 219 C-212.02 217.35 -210.04 215.7 -208 214 C-208.13034494 212.12946603 -208.13034494 212.12946603 -209 210 C-210.65 208.68 -212.3 207.36 -214 206 Z M-200.625 208.25 C-203.18845818 210.65614268 -203.18845818 210.65614268 -203.125 213.0625 C-201.75570777 215.68962748 -201.75570777 215.68962748 -197 219 C-197 214.71 -197 210.42 -197 206 C-198.44967876 205.89153477 -198.44967876 205.89153477 -200.625 208.25 Z M-151 210 C-151.33 213.3 -151.66 216.6 -152 220 C-153.464375 220.144375 -154.92875 220.28875 -156.4375 220.4375 C-159.51846698 220.53495826 -159.51846698 220.53495826 -162 222 C-162.07258946 224.18639453 -162.08373783 226.37500389 -162.0625 228.5625 C-162.041875 230.686875 -162.02125 232.81125 -162 235 C-155.73 235 -149.46 235 -143 235 C-142.85817667 226.96456112 -142.85817667 226.96456112 -145 220 C-142.36 220 -139.72 220 -137 220 C-137 216.7 -137 213.4 -137 210 C-141.62 210 -146.24 210 -151 210 Z M110 214 C109.97535487 220.1055471 109.95716629 226.21106551 109.94506836 232.31665039 C109.94002712 234.39543156 109.93319426 236.47420916 109.92456055 238.55297852 C109.91248578 241.53402586 109.90676976 244.51502649 109.90234375 247.49609375 C109.89718246 248.43150497 109.89202118 249.3669162 109.88670349 250.33067322 C109.88662796 251.19149002 109.88655243 252.05230682 109.88647461 252.93920898 C109.884254 253.70087875 109.88203339 254.46254852 109.87974548 255.24729919 C109.80909045 257.02810605 109.80909045 257.02810605 111 258 C112.98 258 114.96 258 117 258 C117 243.48 117 228.96 117 214 C114.69 214 112.38 214 110 214 Z M-208.38671875 216.3125 C-208.81597656 216.869375 -209.24523437 217.42625 -209.6875 218 C-210.450625 218.99 -211.21375 219.98 -212 221 C-207.71 221 -203.42 221 -199 221 C-199.763125 220.01 -200.52625 219.02 -201.3125 218 C-201.95638672 217.1646875 -201.95638672 217.1646875 -202.61328125 216.3125 C-204.68706854 214.34970414 -206.31293146 214.34970414 -208.38671875 216.3125 Z M-139 223 C-139.96070434 225.88211302 -140.10581883 227.69850044 -140.0625 230.6875 C-140.05347656 231.49574219 -140.04445312 232.30398437 -140.03515625 233.13671875 C-140.02355469 233.75160156 -140.01195312 234.36648437 -140 235 C-139.01 235 -138.02 235 -137 235 C-137 231.04 -137 227.08 -137 223 C-137.66 223 -138.32 223 -139 223 Z M-77 223 C-75.35 224.65 -73.7 226.3 -72 228 C-72 226.35 -72 224.7 -72 223 C-73.65 223 -75.3 223 -77 223 Z M-70 223 C-70 224.32 -70 225.64 -70 227 C-67.03 226.01 -64.06 225.02 -61 224 C-61 223.67 -61 223.34 -61 223 C-63.97 223 -66.94 223 -70 223 Z M-52 223 C-49.01353231 224.99097846 -46.40312738 225.94124926 -43 227 C-43 225.68 -43 224.36 -43 223 C-45.97 223 -48.94 223 -52 223 Z M-41 223 C-41 224.65 -41 226.3 -41 228 C-39.35 226.35 -37.7 224.7 -36 223 C-37.65 223 -39.3 223 -41 223 Z M24 223 C24 237.85 24 252.7 24 268 C24.99 268 25.98 268 27 268 C27.02469854 262.07348943 27.04285931 256.14700875 27.05493164 250.22045898 C27.05996382 248.20385211 27.06679014 246.1872489 27.07543945 244.1706543 C27.08755373 241.27391661 27.09323943 238.37722712 27.09765625 235.48046875 C27.10281754 234.57725388 27.10797882 233.674039 27.11329651 232.74345398 C27.11337204 231.90280899 27.11344757 231.062164 27.11352539 230.19604492 C27.115746 229.45658127 27.11796661 228.71711761 27.12025452 227.95524597 C27.07089116 225.78368342 27.07089116 225.78368342 26 223 C25.34 223 24.68 223 24 223 Z M-214 224 C-214 225.65 -214 227.3 -214 229 C-208.39 229 -202.78 229 -197 229 C-197 227.35 -197 225.7 -197 224 C-202.61 224 -208.22 224 -214 224 Z M-79 225 C-79 226.65 -79 228.3 -79 230 C-77.35 230 -75.7 230 -74 230 C-75.65 228.35 -77.3 226.7 -79 225 Z M-35 225 C-36.35827971 226.64639965 -37.69254251 228.31295807 -39 230 C-37.35 230 -35.7 230 -34 230 C-34 228.35 -34 226.7 -34 225 C-34.33 225 -34.66 225 -35 225 Z M-72.4375 233.375 C-76.96496004 239.29455994 -77.28845196 244.78870111 -77 252 C-77.66 252 -78.32 252 -79 252 C-79 254.97 -79 257.94 -79 261 C-64.15 261 -49.3 261 -34 261 C-34 258.03 -34 255.06 -34 252 C-34.66 252 -35.32 252 -36 252 C-35.9175 250.700625 -35.835 249.40125 -35.75 248.0625 C-35.77904383 241.9052079 -37.50825603 236.82357429 -41.61328125 232.171875 C-46.11283069 228.06142185 -50.22738079 226.31388142 -56.3125 225.625 C-62.79601414 226.28434042 -68.01287926 228.50791718 -72.4375 233.375 Z M-79 232 C-79 234.64 -79 237.28 -79 240 C-77.22293791 237.33440687 -76.12451727 234.9719385 -75 232 C-76.32 232 -77.64 232 -79 232 Z M-38 232 C-36.87548273 234.9719385 -35.77706209 237.33440687 -34 240 C-34 237.36 -34 234.72 -34 232 C-35.32 232 -36.64 232 -38 232 Z M-214 237 C-213.67 239.31 -213.34 241.62 -213 244 C-208.05 244 -203.1 244 -198 244 C-197.67 241.69 -197.34 239.38 -197 237 C-202.61 237 -208.22 237 -214 237 Z M-191 237 C-190.67 239.31 -190.34 241.62 -190 244 C-189.67 244 -189.34 244 -189 244 C-189 241.69 -189 239.38 -189 237 C-189.66 237 -190.32 237 -191 237 Z M-162 238 C-161.85972182 242.29191547 -161.71304153 246.58344302 -161.5625 250.875 C-161.52318359 252.09832031 -161.48386719 253.32164062 -161.44335938 254.58203125 C-161.40146484 255.74863281 -161.35957031 256.91523438 -161.31640625 258.1171875 C-161.27974854 259.19597168 -161.24309082 260.27475586 -161.20532227 261.38623047 C-161.16623357 263.98069536 -161.16623357 263.98069536 -160 266 C-159.34 266 -158.68 266 -158 266 C-158 265.34 -158 264.68 -158 264 C-157.01 264 -156.02 264 -155 264 C-155 264.66 -155 265.32 -155 266 C-154.34 266 -153.68 266 -153 266 C-153 266.66 -153 267.32 -153 268 C-152.01 268 -151.02 268 -150 268 C-150 258.1 -150 248.2 -150 238 C-153.96 238 -157.92 238 -162 238 Z M-147 238 C-147 247.9 -147 257.8 -147 268 C-145.68 268 -144.36 268 -143 268 C-143 258.1 -143 248.2 -143 238 C-144.32 238 -145.64 238 -147 238 Z M-140 238 C-140 247.9 -140 257.8 -140 268 C-139.01 268 -138.02 268 -137 268 C-137 258.1 -137 248.2 -137 238 C-137.99 238 -138.98 238 -140 238 Z M62 238 C61.67 239.65 61.34 241.3 61 243 C61.99 243 62.98 243 64 243 C64 242.01 64 241.02 64 240 C64.99 240 65.98 240 67 240 C67 239.34 67 238.68 67 238 C65.35 238 63.7 238 62 238 Z M69 238 C69 238.66 69 239.32 69 240 C76.59 240 84.18 240 92 240 C92 239.34 92 238.68 92 238 C84.41 238 76.82 238 69 238 Z M94 238 C94 238.66 94 239.32 94 240 C94.99 240 95.98 240 97 240 C97 240.99 97 241.98 97 243 C97.99 243 98.98 243 100 243 C99.67 241.35 99.34 239.7 99 238 C97.35 238 95.7 238 94 238 Z M61 245 C61 250.61 61 256.22 61 262 C61.99 262 62.98 262 64 262 C64 256.39 64 250.78 64 245 C63.01 245 62.02 245 61 245 Z M97 245 C97 248.3 97 251.6 97 255 C97.33 255 97.66 255 98 255 C98 252.69 98 250.38 98 248 C98.66 248 99.32 248 100 248 C100 247.01 100 246.02 100 245 C99.01 245 98.02 245 97 245 Z M-244 251 C-244 251.66 -244 252.32 -244 253 C-218.59 253 -193.18 253 -167 253 C-167 252.34 -167 251.68 -167 251 C-192.41 251 -217.82 251 -244 251 Z M-244 260 C-243.67 261.98 -243.34 263.96 -243 266 C-242.34 266 -241.68 266 -241 266 C-241 265.34 -241 264.68 -241 264 C-240.01 264 -239.02 264 -238 264 C-238 264.66 -238 265.32 -238 266 C-237.34 266 -236.68 266 -236 266 C-236 266.66 -236 267.32 -236 268 C-215.87 268 -195.74 268 -175 268 C-175 267.34 -175 266.68 -175 266 C-174.34 266 -173.68 266 -173 266 C-173 265.34 -173 264.68 -173 264 C-172.01 264 -171.02 264 -170 264 C-170 264.66 -170 265.32 -170 266 C-169.34 266 -168.68 266 -168 266 C-167.67 264.02 -167.34 262.04 -167 260 C-192.41 260 -217.82 260 -244 260 Z M107 260 C107 262.64 107 265.28 107 268 C110.3 268 113.6 268 117 268 C117 266.02 117 264.04 117 262 C115.72125 261.855625 114.4425 261.71125 113.125 261.5625 C110.74307106 261.29357254 109.15547309 261.07773654 107 260 Z M-79 263 C-79 264.65 -79 266.3 -79 268 C-77.68 268 -76.36 268 -75 268 C-75 266.35 -75 264.7 -75 263 C-76.32 263 -77.64 263 -79 263 Z M-74 263 C-74 264.65 -74 266.3 -74 268 C-72.35 268 -70.7 268 -69 268 C-69 266.35 -69 264.7 -69 263 C-70.65 263 -72.3 263 -74 263 Z M-68 263 C-68 264.65 -68 266.3 -68 268 C-66.35 268 -64.7 268 -63 268 C-63 266.35 -63 264.7 -63 263 C-64.65 263 -66.3 263 -68 263 Z M-62 263 C-62 264.65 -62 266.3 -62 268 C-60.35 268 -58.7 268 -57 268 C-57 266.35 -57 264.7 -57 263 C-58.65 263 -60.3 263 -62 263 Z M-56 263 C-56 264.65 -56 266.3 -56 268 C-54.35 268 -52.7 268 -51 268 C-51 266.35 -51 264.7 -51 263 C-52.65 263 -54.3 263 -56 263 Z M-50 263 C-50 264.65 -50 266.3 -50 268 C-48.35 268 -46.7 268 -45 268 C-45 266.35 -45 264.7 -45 263 C-46.65 263 -48.3 263 -50 263 Z M-44 263 C-44 264.65 -44 266.3 -44 268 C-42.35 268 -40.7 268 -39 268 C-39 266.35 -39 264.7 -39 263 C-40.65 263 -42.3 263 -44 263 Z M-38 263 C-38 264.65 -38 266.3 -38 268 C-36.68 268 -35.36 268 -34 268 C-34 266.35 -34 264.7 -34 263 C-35.32 263 -36.64 263 -38 263 Z M61 264 C61 265.32 61 266.64 61 268 C61.99 268 62.98 268 64 268 C64 266.68 64 265.36 64 264 C63.01 264 62.02 264 61 264 Z " fill="#2E2E6E" transform="translate(364,0)"/>
<path d="M0 0 C1.65 0 3.3 0 5 0 C4.67 0.99 4.34 1.98 4 3 C2.68 3 1.36 3 0 3 C0 2.01 0 1.02 0 0 Z " fill="#282869" transform="translate(513,73)"/>
<path d="M0 0 C0 3 0 3 0 3 Z " fill="#282869" transform="translate(508,79)"/>
</svg>
