<?xml version="1.0" encoding="UTF-8"?>
<svg version="1.1" xmlns="http://www.w3.org/2000/svg" width="576" height="324">
<path d="M0 0 C2.31 0 4.62 0 7 0 C7 7.26 7 14.52 7 22 C7.66 22 8.32 22 9 22 C9 31.24 9 40.48 9 50 C9.66 50 10.32 50 11 50 C11 58.91 11 67.82 11 77 C11.99 77 12.98 77 14 77 C14 77.66 14 78.32 14 79 C109.04 79 204.08 79 302 79 C302 78.34 302 77.68 302 77 C302.99 77 303.98 77 305 77 C305 63.47 305 49.94 305 36 C304.01 36 303.02 36 302 36 C302 35.01 302 34.02 302 33 C303.65 33 305.3 33 307 33 C307 25.74 307 18.48 307 11 C314.26 11 321.52 11 329 11 C329 18.26 329 25.52 329 33 C330.65 33 332.3 33 334 33 C334 33.99 334 34.98 334 36 C333.01 36 332.02 36 331 36 C331 49.53 331 63.06 331 77 C331.99 77 332.98 77 334 77 C334 92.84 334 108.68 334 125 C339.61 125 345.22 125 351 125 C351 104.54 351 84.08 351 63 C352.32 63 353.64 63 355 63 C355 83.46 355 103.92 355 125 C366.89530113 125.25849107 366.89530113 125.25849107 371.03515625 121.71484375 C371.70417969 120.79832031 372.37320313 119.88179688 373.0625 118.9375 C376.56298126 115.00584114 378.66460992 113.16459719 384 112.75 C390.52254729 113.29072931 393.92192433 116.78395636 398.234375 121.421875 C400 124 400 124 400 128 C399.34 128 398.68 128 398 128 C398 143.84 398 159.68 398 176 C401.63 176 405.26 176 409 176 C410.485 177.485 410.485 177.485 412 179 C412 223.55 412 268.1 412 314 C221.92 314 31.84 314 -164 314 C-164 298.82 -164 283.64 -164 268 C-159.05 268 -154.1 268 -149 268 C-149 266.02 -149 264.04 -149 262 C-153.95 262 -158.9 262 -164 262 C-164 260.35 -164 258.7 -164 257 C-159.05 257 -154.1 257 -149 257 C-149 255.35 -149 253.7 -149 252 C-153.95 252 -158.9 252 -164 252 C-164 250.35 -164 248.7 -164 247 C-159.05 247 -154.1 247 -149 247 C-149 237.76 -149 228.52 -149 219 C-153.95 219 -158.9 219 -164 219 C-164 217.35 -164 215.7 -164 214 C-159.05 214 -154.1 214 -149 214 C-149 189.25 -149 164.5 -149 139 C-146.03 139 -143.06 139 -140 139 C-140 136.03 -140 133.06 -140 130 C-140.66 130 -141.32 130 -142 130 C-142 128.68 -142 127.36 -142 126 C-140.68 126 -139.36 126 -138 126 C-138 119.4 -138 112.8 -138 106 C-134.7 106 -131.4 106 -128 106 C-128 112.6 -128 119.2 -128 126 C-126.02 126 -124.04 126 -122 126 C-122 119.4 -122 112.8 -122 106 C-118.7 106 -115.4 106 -112 106 C-112 112.6 -112 119.2 -112 126 C-110.02 126 -108.04 126 -106 126 C-105.34 125.319375 -104.68 124.63875 -104 123.9375 C-102 122 -102 122 -98.9375 121.9375 C-96 123 -96 123 -94.125 125.4375 C-93 128 -93 128 -93 130 C-93.66 130 -94.32 130 -95 130 C-95.33 130.99 -95.66 131.98 -96 133 C-98.31 133.33 -100.62 133.66 -103 134 C-103.391875 133.34 -103.78375 132.68 -104.1875 132 C-105.85416667 129.70833333 -105.85416667 129.70833333 -108.6875 129.75 C-109.450625 129.8325 -110.21375 129.915 -111 130 C-111 130.99 -111 131.98 -111 133 C-110.34 133.33 -109.68 133.66 -109 134 C-109.66 134 -110.32 134 -111 134 C-111 135.65 -111 137.3 -111 139 C-108.03 139 -105.06 139 -102 139 C-102 138.34 -102 137.68 -102 137 C-101.34 137.33 -100.68 137.66 -100 138 C-100.33 138.66 -100.66 139.32 -101 140 C-101.22467831 141.53668865 -101.40796805 143.07968054 -101.5625 144.625 C-101.64628906 145.44226563 -101.73007813 146.25953125 -101.81640625 147.1015625 C-101.87699219 147.72804687 -101.93757813 148.35453125 -102 149 C-101.01 149 -100.02 149 -99 149 C-98.67 148.01 -98.34 147.02 -98 146 C-97.67 146.66 -97.34 147.32 -97 148 C-95.8553125 146.7934375 -95.8553125 146.7934375 -94.6875 145.5625 C-91.61217396 142.63021238 -90.21134379 142 -86 142 C-81.01037359 147.18921146 -80.48683643 154.50641412 -79.57958984 161.3190918 C-79.45250137 162.23864151 -79.3254129 163.15819122 -79.19447327 164.10560608 C-78.77735526 167.13603099 -78.36880856 170.16753644 -77.9609375 173.19921875 C-77.67263024 175.31667566 -77.38402086 177.43409145 -77.09512329 179.5514679 C-76.4911681 183.9884663 -75.89157974 188.4260283 -75.29492188 192.86401367 C-74.53277259 198.52956346 -73.75879031 204.19342231 -72.98134422 209.85689068 C-72.38246884 214.23072402 -71.79049515 218.60547104 -71.20048904 222.9805088 C-70.91806353 225.06783109 -70.63340913 227.15485312 -70.34641647 229.24155235 C-69.94440501 232.17144198 -69.55188125 235.10246055 -69.16162109 238.03393555 C-69.04320358 238.88263214 -68.92478607 239.73132874 -68.80278015 240.60574341 C-67.5095116 250.49356999 -67.42619508 257.46985354 -71 267 C-62.42 267.33 -53.84 267.66 -45 268 C-45 230.71 -45 193.42 -45 155 C-43.68 155.33 -42.36 155.66 -41 156 C-41 154.68 -41 153.36 -41 152 C-39.68 152 -38.36 152 -37 152 C-37 134.18 -37 116.36 -37 98 C-34.03 98 -31.06 98 -28 98 C-27.67 93.71 -27.34 89.42 -27 85 C-27.66 85 -28.32 85 -29 85 C-29.30436567 82.60425039 -29.56894313 80.21455175 -29.8125 77.8125 C-29.90208984 77.13896484 -29.99167969 76.46542969 -30.08398438 75.77148438 C-30.43025848 72.03536906 -30.17021849 70.25056162 -28.046875 67.125 C-24.19801642 64.44066786 -21.02006989 63.80506521 -16.4375 63.1875 C-15.68275391 63.06697266 -14.92800781 62.94644531 -14.15039062 62.82226562 C-10.71910502 62.29321278 -7.4777464 62 -4 62 C-4 58.04 -4 54.08 -4 50 C-3.34 50 -2.68 50 -2 50 C-2 40.76 -2 31.52 -2 22 C-1.34 22 -0.68 22 0 22 C0 14.74 0 7.48 0 0 Z M-12.5625 69.5 C-13.62887695 69.85771484 -13.62887695 69.85771484 -14.71679688 70.22265625 C-16.47831316 70.8137691 -18.2392142 71.40671477 -20 72 C-18.41475265 74.60858765 -18.41475265 74.60858765 -16 77 C-12.95985726 77.60220011 -12.95985726 77.60220011 -9.75 77.3125 C-8.67234375 77.26738281 -7.5946875 77.22226563 -6.484375 77.17578125 C-5.25460938 77.08876953 -5.25460938 77.08876953 -4 77 C-4 73.7 -4 70.4 -4 67 C-6.79806651 67 -9.89307934 68.59964845 -12.5625 69.5 Z M-27 69 C-26 71 -26 71 -26 71 Z M-23 70 C-22 72 -22 72 -22 72 Z M-23 75 C-23.020625 76.27875 -23.04125 77.5575 -23.0625 78.875 C-23.07410156 79.59429687 -23.08570313 80.31359375 -23.09765625 81.0546875 C-23.12649242 83.08185404 -23.12649242 83.08185404 -22 85 C-22.66 85 -23.32 85 -24 85 C-24.02708567 86.60407328 -24.04643483 88.2082785 -24.0625 89.8125 C-24.07410156 90.70582031 -24.08570313 91.59914063 -24.09765625 92.51953125 C-24.11009967 95.13413791 -24.11009967 95.13413791 -23 98 C-21.35 98 -19.7 98 -18 98 C-17.85445654 94.91716557 -17.76586179 91.83521561 -17.6875 88.75 C-17.64560547 87.87730469 -17.60371094 87.00460938 -17.56054688 86.10546875 C-17.51348925 83.63964906 -17.52673084 81.42179388 -18 79 C-20.32141884 76.34530806 -20.32141884 76.34530806 -23 75 Z M16 82 C17.65 83.98 19.3 85.96 21 88 C24.71860179 86.46126823 25.35633541 85.52488612 28 82 C24.04 82 20.08 82 16 82 Z M32 82 C33.65 83.98 35.3 85.96 37 88 C40.71860179 86.46126823 41.35633541 85.52488612 44 82 C40.04 82 36.08 82 32 82 Z M48 82 C49.65 83.98 51.3 85.96 53 88 C56.71860179 86.46126823 57.35633541 85.52488612 60 82 C56.04 82 52.08 82 48 82 Z M64 82 C65.65 83.98 67.3 85.96 69 88 C72.71860179 86.46126823 73.35633541 85.52488612 76 82 C72.04 82 68.08 82 64 82 Z M80 82 C81.65 83.98 83.3 85.96 85 88 C88.71860179 86.46126823 89.35633541 85.52488612 92 82 C88.04 82 84.08 82 80 82 Z M96 82 C97.65 83.98 99.3 85.96 101 88 C104.71860179 86.46126823 105.35633541 85.52488612 108 82 C104.04 82 100.08 82 96 82 Z M112 82 C113.65 83.98 115.3 85.96 117 88 C120.71860179 86.46126823 121.35633541 85.52488612 124 82 C120.04 82 116.08 82 112 82 Z M128 82 C129.65 83.98 131.3 85.96 133 88 C136.71860179 86.46126823 137.35633541 85.52488612 140 82 C136.04 82 132.08 82 128 82 Z M144 82 C145.65 83.98 147.3 85.96 149 88 C152.71860179 86.46126823 153.35633541 85.52488612 156 82 C152.04 82 148.08 82 144 82 Z M160 82 C161.65 83.98 163.3 85.96 165 88 C168.71860179 86.46126823 169.35633541 85.52488612 172 82 C168.04 82 164.08 82 160 82 Z M176 82 C177.65 83.98 179.3 85.96 181 88 C184.71860179 86.46126823 185.35633541 85.52488612 188 82 C184.04 82 180.08 82 176 82 Z M192 82 C193.65 83.98 195.3 85.96 197 88 C200.71860179 86.46126823 201.35633541 85.52488612 204 82 C200.04 82 196.08 82 192 82 Z M208 82 C209.65 83.98 211.3 85.96 213 88 C216.71860179 86.46126823 217.35633541 85.52488612 220 82 C216.04 82 212.08 82 208 82 Z M224 82 C225.65 83.98 227.3 85.96 229 88 C232.71860179 86.46126823 233.35633541 85.52488612 236 82 C232.04 82 228.08 82 224 82 Z M240 82 C241.65 83.98 243.3 85.96 245 88 C248.71860179 86.46126823 249.35633541 85.52488612 252 82 C248.04 82 244.08 82 240 82 Z M256 82 C257.65 83.98 259.3 85.96 261 88 C264.71860179 86.46126823 265.35633541 85.52488612 268 82 C264.04 82 260.08 82 256 82 Z M272 82 C273.65 83.98 275.3 85.96 277 88 C280.71860179 86.46126823 281.35633541 85.52488612 284 82 C280.04 82 276.08 82 272 82 Z M288 82 C289.65 83.98 291.3 85.96 293 88 C296.71860179 86.46126823 297.35633541 85.52488612 300 82 C296.04 82 292.08 82 288 82 Z M14 84 C14 87.96 14 91.92 14 96 C15.98 94.35 17.96 92.7 20 91 C18.46126823 87.28139821 17.52488612 86.64366459 14 84 Z M26.375 86.5 C25.59125 87.325 24.8075 88.15 24 89 C25.29299694 91.88437779 26.65941363 93.87219421 29 96 C31.88437779 94.70700306 33.87219421 93.34058637 36 91 C34.71480435 88.13302508 33.42870746 86.02392288 31 84 C28.63721264 83.77011494 28.63721264 83.77011494 26.375 86.5 Z M42.375 86.5 C41.59125 87.325 40.8075 88.15 40 89 C41.29299694 91.88437779 42.65941363 93.87219421 45 96 C47.88437779 94.70700306 49.87219421 93.34058637 52 91 C50.71480435 88.13302508 49.42870746 86.02392288 47 84 C44.63721264 83.77011494 44.63721264 83.77011494 42.375 86.5 Z M58.375 86.5 C57.59125 87.325 56.8075 88.15 56 89 C57.29299694 91.88437779 58.65941363 93.87219421 61 96 C63.88437779 94.70700306 65.87219421 93.34058637 68 91 C66.71480435 88.13302508 65.42870746 86.02392288 63 84 C60.63721264 83.77011494 60.63721264 83.77011494 58.375 86.5 Z M74.375 86.5 C73.59125 87.325 72.8075 88.15 72 89 C73.29299694 91.88437779 74.65941363 93.87219421 77 96 C79.88437779 94.70700306 81.87219421 93.34058637 84 91 C82.71480435 88.13302508 81.42870746 86.02392288 79 84 C76.63721264 83.77011494 76.63721264 83.77011494 74.375 86.5 Z M90.375 86.5 C89.59125 87.325 88.8075 88.15 88 89 C89.29299694 91.88437779 90.65941363 93.87219421 93 96 C95.88437779 94.70700306 97.87219421 93.34058637 100 91 C98.71480435 88.13302508 97.42870746 86.02392288 95 84 C92.63721264 83.77011494 92.63721264 83.77011494 90.375 86.5 Z M106.375 86.5 C105.59125 87.325 104.8075 88.15 104 89 C105.29299694 91.88437779 106.65941363 93.87219421 109 96 C111.88437779 94.70700306 113.87219421 93.34058637 116 91 C114.71480435 88.13302508 113.42870746 86.02392288 111 84 C108.63721264 83.77011494 108.63721264 83.77011494 106.375 86.5 Z M122.375 86.5 C121.59125 87.325 120.8075 88.15 120 89 C121.29299694 91.88437779 122.65941363 93.87219421 125 96 C127.88437779 94.70700306 129.87219421 93.34058637 132 91 C130.71480435 88.13302508 129.42870746 86.02392288 127 84 C124.63721264 83.77011494 124.63721264 83.77011494 122.375 86.5 Z M138.375 86.5 C137.59125 87.325 136.8075 88.15 136 89 C137.29299694 91.88437779 138.65941363 93.87219421 141 96 C143.88437779 94.70700306 145.87219421 93.34058637 148 91 C146.71480435 88.13302508 145.42870746 86.02392288 143 84 C140.63721264 83.77011494 140.63721264 83.77011494 138.375 86.5 Z M154.375 86.5 C153.59125 87.325 152.8075 88.15 152 89 C153.29299694 91.88437779 154.65941363 93.87219421 157 96 C159.88437779 94.70700306 161.87219421 93.34058637 164 91 C162.71480435 88.13302508 161.42870746 86.02392288 159 84 C156.63721264 83.77011494 156.63721264 83.77011494 154.375 86.5 Z M170.375 86.5 C169.59125 87.325 168.8075 88.15 168 89 C169.29299694 91.88437779 170.65941363 93.87219421 173 96 C175.88437779 94.70700306 177.87219421 93.34058637 180 91 C178.71480435 88.13302508 177.42870746 86.02392288 175 84 C172.63721264 83.77011494 172.63721264 83.77011494 170.375 86.5 Z M186.375 86.5 C185.59125 87.325 184.8075 88.15 184 89 C185.29299694 91.88437779 186.65941363 93.87219421 189 96 C191.88437779 94.70700306 193.87219421 93.34058637 196 91 C194.71480435 88.13302508 193.42870746 86.02392288 191 84 C188.63721264 83.77011494 188.63721264 83.77011494 186.375 86.5 Z M202.375 86.5 C201.59125 87.325 200.8075 88.15 200 89 C201.29299694 91.88437779 202.65941363 93.87219421 205 96 C207.88437779 94.70700306 209.87219421 93.34058637 212 91 C210.71480435 88.13302508 209.42870746 86.02392288 207 84 C204.63721264 83.77011494 204.63721264 83.77011494 202.375 86.5 Z M218.375 86.5 C217.59125 87.325 216.8075 88.15 216 89 C217.29299694 91.88437779 218.65941363 93.87219421 221 96 C223.88437779 94.70700306 225.87219421 93.34058637 228 91 C226.71480435 88.13302508 225.42870746 86.02392288 223 84 C220.63721264 83.77011494 220.63721264 83.77011494 218.375 86.5 Z M234.375 86.5 C233.59125 87.325 232.8075 88.15 232 89 C233.29299694 91.88437779 234.65941363 93.87219421 237 96 C239.88437779 94.70700306 241.87219421 93.34058637 244 91 C242.71480435 88.13302508 241.42870746 86.02392288 239 84 C236.63721264 83.77011494 236.63721264 83.77011494 234.375 86.5 Z M250.375 86.5 C249.59125 87.325 248.8075 88.15 248 89 C249.29299694 91.88437779 250.65941363 93.87219421 253 96 C255.88437779 94.70700306 257.87219421 93.34058637 260 91 C258.71480435 88.13302508 257.42870746 86.02392288 255 84 C252.63721264 83.77011494 252.63721264 83.77011494 250.375 86.5 Z M266.375 86.5 C265.59125 87.325 264.8075 88.15 264 89 C265.29299694 91.88437779 266.65941363 93.87219421 269 96 C271.88437779 94.70700306 273.87219421 93.34058637 276 91 C274.71480435 88.13302508 273.42870746 86.02392288 271 84 C268.63721264 83.77011494 268.63721264 83.77011494 266.375 86.5 Z M282.375 86.5 C281.59125 87.325 280.8075 88.15 280 89 C281.29299694 91.88437779 282.65941363 93.87219421 285 96 C287.88437779 94.70700306 289.87219421 93.34058637 292 91 C290.71480435 88.13302508 289.42870746 86.02392288 287 84 C284.63721264 83.77011494 284.63721264 83.77011494 282.375 86.5 Z M298.4375 86.5 C297.2309375 87.7375 297.2309375 87.7375 296 89 C297.53873177 92.71860179 298.47511388 93.35633541 302 96 C302 92.04 302 88.08 302 84 C300.52263018 83.88361269 300.52263018 83.88361269 298.4375 86.5 Z M21 92 C19.2856382 93.95927063 17.61594832 95.95880212 16 98 C19.96 98 23.92 98 28 98 C26.38405168 95.95880212 24.7143618 93.95927063 23 92 C22.34 92 21.68 92 21 92 Z M37 92 C35.2856382 93.95927063 33.61594832 95.95880212 32 98 C35.96 98 39.92 98 44 98 C42.38405168 95.95880212 40.7143618 93.95927063 39 92 C38.34 92 37.68 92 37 92 Z M53 92 C51.2856382 93.95927063 49.61594832 95.95880212 48 98 C51.96 98 55.92 98 60 98 C58.38405168 95.95880212 56.7143618 93.95927063 55 92 C54.34 92 53.68 92 53 92 Z M69 92 C67.2856382 93.95927063 65.61594832 95.95880212 64 98 C67.96 98 71.92 98 76 98 C74.38405168 95.95880212 72.7143618 93.95927063 71 92 C70.34 92 69.68 92 69 92 Z M85 92 C83.2856382 93.95927063 81.61594832 95.95880212 80 98 C83.96 98 87.92 98 92 98 C90.38405168 95.95880212 88.7143618 93.95927063 87 92 C86.34 92 85.68 92 85 92 Z M101 92 C99.2856382 93.95927063 97.61594832 95.95880212 96 98 C99.96 98 103.92 98 108 98 C106.38405168 95.95880212 104.7143618 93.95927063 103 92 C102.34 92 101.68 92 101 92 Z M117 92 C115.2856382 93.95927063 113.61594832 95.95880212 112 98 C115.96 98 119.92 98 124 98 C122.38405168 95.95880212 120.7143618 93.95927063 119 92 C118.34 92 117.68 92 117 92 Z M133 92 C131.2856382 93.95927063 129.61594832 95.95880212 128 98 C131.96 98 135.92 98 140 98 C138.38405168 95.95880212 136.7143618 93.95927063 135 92 C134.34 92 133.68 92 133 92 Z M149 92 C147.2856382 93.95927063 145.61594832 95.95880212 144 98 C147.96 98 151.92 98 156 98 C154.38405168 95.95880212 152.7143618 93.95927063 151 92 C150.34 92 149.68 92 149 92 Z M165 92 C163.2856382 93.95927063 161.61594832 95.95880212 160 98 C163.96 98 167.92 98 172 98 C170.38405168 95.95880212 168.7143618 93.95927063 167 92 C166.34 92 165.68 92 165 92 Z M181 92 C179.2856382 93.95927063 177.61594832 95.95880212 176 98 C179.96 98 183.92 98 188 98 C186.38405168 95.95880212 184.7143618 93.95927063 183 92 C182.34 92 181.68 92 181 92 Z M197 92 C195.2856382 93.95927063 193.61594832 95.95880212 192 98 C195.96 98 199.92 98 204 98 C202.38405168 95.95880212 200.7143618 93.95927063 199 92 C198.34 92 197.68 92 197 92 Z M213 92 C211.2856382 93.95927063 209.61594832 95.95880212 208 98 C211.96 98 215.92 98 220 98 C218.38405168 95.95880212 216.7143618 93.95927063 215 92 C214.34 92 213.68 92 213 92 Z M229 92 C227.2856382 93.95927063 225.61594832 95.95880212 224 98 C227.96 98 231.92 98 236 98 C234.38405168 95.95880212 232.7143618 93.95927063 231 92 C230.34 92 229.68 92 229 92 Z M245 92 C243.2856382 93.95927063 241.61594832 95.95880212 240 98 C243.96 98 247.92 98 252 98 C250.38405168 95.95880212 248.7143618 93.95927063 247 92 C246.34 92 245.68 92 245 92 Z M261 92 C259.2856382 93.95927063 257.61594832 95.95880212 256 98 C259.96 98 263.92 98 268 98 C266.38405168 95.95880212 264.7143618 93.95927063 263 92 C262.34 92 261.68 92 261 92 Z M277 92 C275.2856382 93.95927063 273.61594832 95.95880212 272 98 C275.96 98 279.92 98 284 98 C282.38405168 95.95880212 280.7143618 93.95927063 279 92 C278.34 92 277.68 92 277 92 Z M293 92 C291.2856382 93.95927063 289.61594832 95.95880212 288 98 C291.96 98 295.92 98 300 98 C298.38405168 95.95880212 296.7143618 93.95927063 295 92 C294.34 92 293.68 92 293 92 Z M14 100 C14 112.54 14 125.08 14 138 C31.49 138 48.98 138 67 138 C67 135.03 67 132.06 67 129 C66.34 128.67 65.68 128.34 65 128 C65.66 127.67 66.32 127.34 67 127 C67 126.01 67 125.02 67 124 C66.01 123.01 65.02 122.02 64 121 C67.3 121 70.6 121 74 121 C73.01 121.99 72.02 122.98 71 124 C71 124.99 71 125.98 71 127 C73.64 127 76.28 127 79 127 C79.350625 125.96875 79.70125 124.9375 80.0625 123.875 C81.39170122 120.68363281 82.9022218 119.04527697 85.625 116.9375 C88.45075186 114.73043907 88.92552705 114.2681026 89.9375 110.625 C89.958125 109.75875 89.97875 108.8925 90 108 C90.66 108 91.32 108 92 108 C92 108.845625 92 109.69125 92 110.5625 C93.28828058 114.99096449 95.4665468 116.41080054 99.08984375 119.09375 C101 121 101 121 103 127 C109.93 127.495 109.93 127.495 117 128 C113.04 129.98 109.08 131.96 105 134 C105 135.32 105 136.64 105 138 C118.53 138 132.06 138 146 138 C146 136.68 146 135.36 146 134 C147.32 134 148.64 134 150 134 C149.67 135.32 149.34 136.64 149 138 C181.67 138 214.34 138 248 138 C248 134.7 248 131.4 248 128 C247.34 128 246.68 128 246 128 C248.01816595 122.29518436 250.93719277 118.37253456 256 115 C260.2979054 113.69527872 263.71011323 113.63040554 268 115 C270.1484375 117.2578125 270.1484375 117.2578125 272.25 120 C275.04941951 123.30164096 276.48389597 124.74136108 280.77636719 125.47363281 C287.9231172 125.90099137 294.81109822 125.3949946 302 125 C302 116.75 302 108.5 302 100 C206.96 100 111.92 100 14 100 Z M-103 124 C-103 124.99 -103 125.98 -103 127 C-102.34 126.01 -101.68 125.02 -101 124 C-101.66 124 -102.32 124 -103 124 Z M-99 124 C-98.01 124.99 -97.02 125.98 -96 127 C-96.33 126.01 -96.66 125.02 -97 124 C-97.66 124 -98.32 124 -99 124 Z M-101 127 C-101 127.66 -101 128.32 -101 129 C-100.34 129 -99.68 129 -99 129 C-99 128.34 -99 127.68 -99 127 C-99.66 127 -100.32 127 -101 127 Z M-104 129 C-103.67 129.99 -103.34 130.98 -103 132 C-102.34 131.67 -101.68 131.34 -101 131 C-101.99 130.34 -102.98 129.68 -104 129 Z M-97 129 C-97.99 130.485 -97.99 130.485 -99 132 C-98.01 131.67 -97.02 131.34 -96 131 C-96.33 130.34 -96.66 129.68 -97 129 Z M71 132 C71 133.98 71 135.96 71 138 C72.98 138 74.96 138 77 138 C77 136.68 77 135.36 77 134 C75.02 133.34 73.04 132.68 71 132 Z M271 134 C271 144.89 271 155.78 271 167 C271.66 167 272.32 167 273 167 C273 156.11 273 145.22 273 134 C272.34 134 271.68 134 271 134 Z M276 134 C276 144.89 276 155.78 276 167 C276.66 167 277.32 167 278 167 C278 156.11 278 145.22 278 134 C277.34 134 276.68 134 276 134 Z M368 134 C368 144.89 368 155.78 368 167 C368.66 167 369.32 167 370 167 C370 156.11 370 145.22 370 134 C369.34 134 368.68 134 368 134 Z M373 134 C373 144.89 373 155.78 373 167 C373.66 167 374.32 167 375 167 C375 156.11 375 145.22 375 134 C374.34 134 373.68 134 373 134 Z M147 135 C148 138 148 138 148 138 Z M14 141 C14 144.63 14 148.26 14 152 C31.82 152 49.64 152 68 152 C67.505 146.555 67.505 146.555 67 141 C49.51 141 32.02 141 14 141 Z M71 141 C71.33 143.31 71.66 145.62 72 148 C73.65 148 75.3 148 77 148 C77 145.69 77 143.38 77 141 C75.02 141 73.04 141 71 141 Z M105 141 C105 144.63 105 148.26 105 152 C109.27070558 152.08692074 113.54118458 152.14036515 117.8125 152.1875 C119.02744141 152.21263672 120.24238281 152.23777344 121.49414062 152.26367188 C122.65751953 152.27333984 123.82089844 152.28300781 125.01953125 152.29296875 C126.09307861 152.3086792 127.16662598 152.32438965 128.27270508 152.34057617 C131.39086891 151.9511895 131.99681035 151.28215797 134 149 C136.625 149.1875 136.625 149.1875 139 150 C139.495 150.99 139.495 150.99 140 152 C141.65 152 143.3 152 145 152 C145 148.37 145 144.74 145 141 C131.8 141 118.6 141 105 141 Z M150 141 C150 144.63 150 148.26 150 152 C182.34 152 214.68 152 248 152 C248 148.37 248 144.74 248 141 C215.66 141 183.32 141 150 141 Z M-93 146 C-93 146.99 -93 147.98 -93 149 C-93.31088368 150.67099977 -93.64080332 152.33871537 -94 154 C-93.01 154 -92.02 154 -91 154 C-89.32900023 154.31088368 -87.66128463 154.64080332 -86 155 C-86 154.01 -86 153.02 -86 152 C-85.68911632 150.32900023 -85.35919668 148.66128463 -85 147 C-85.99 147 -86.98 147 -88 147 C-89.67099977 146.68911632 -91.33871537 146.35919668 -93 146 Z M72 150 C72 150.66 72 151.32 72 152 C73.65 152 75.3 152 77 152 C77 151.34 77 150.68 77 150 C75.35 150 73.7 150 72 150 Z M-102 152 C-102 178.73 -102 205.46 -102 233 C-99.03 232.505 -99.03 232.505 -96 232 C-89.85797448 231.45122796 -84.45683241 231.96180728 -79 235 C-76.125 237.625 -76.125 237.625 -74 240 C-73.34 240.33 -72.68 240.66 -72 241 C-72.58882592 230.53173849 -73.81023892 220.25493818 -75.28515625 209.8828125 C-75.5083385 208.28862125 -75.73110393 206.6943716 -75.95347595 205.10006714 C-76.53294743 200.95353336 -77.11798422 196.80780438 -77.70428467 192.66223145 C-78.30434431 188.41202201 -78.89899766 184.16105643 -79.49414062 179.91015625 C-80.6575459 171.60603216 -81.82684654 163.30275251 -83 155 C-83.58652344 155.33257812 -84.17304687 155.66515625 -84.77734375 156.0078125 C-88.14088229 157.50928664 -90.49445943 156.89231942 -94 156 C-95.03145371 154.69084721 -96.03542166 153.35917857 -97 152 C-98.65 152 -100.3 152 -102 152 Z M-25 155 C-25 156.65 -25 158.3 -25 160 C-22.69 160 -20.38 160 -18 160 C-18 158.35 -18 156.7 -18 155 C-20.31 155 -22.62 155 -25 155 Z M14 155 C14 156.65 14 158.3 14 160 C17.63 160 21.26 160 25 160 C25 158.35 25 156.7 25 155 C21.37 155 17.74 155 14 155 Z M30 155 C30 156.65 30 158.3 30 160 C33.63 160 37.26 160 41 160 C41 158.35 41 156.7 41 155 C37.37 155 33.74 155 30 155 Z M46 155 C46 156.65 46 158.3 46 160 C49.63 160 53.26 160 57 160 C57 158.35 57 156.7 57 155 C53.37 155 49.74 155 46 155 Z M62 155 C62 156.65 62 158.3 62 160 C63.98 160 65.96 160 68 160 C68 158.35 68 156.7 68 155 C66.02 155 64.04 155 62 155 Z M72 155 C72 156.65 72 158.3 72 160 C72.33 160 72.66 160 73 160 C73 158.35 73 156.7 73 155 C72.67 155 72.34 155 72 155 Z M105 155 C105 156.65 105 158.3 105 160 C106.32 160 107.64 160 109 160 C109 158.35 109 156.7 109 155 C107.68 155 106.36 155 105 155 Z M114 155 C114 156.65 114 158.3 114 160 C117.63 160 121.26 160 125 160 C125 158.35 125 156.7 125 155 C121.37 155 117.74 155 114 155 Z M150 155 C150 156.65 150 158.3 150 160 C152.64 160 155.28 160 158 160 C158 158.35 158 156.7 158 155 C155.36 155 152.72 155 150 155 Z M163 155 C163 156.65 163 158.3 163 160 C166.63 160 170.26 160 174 160 C174 158.35 174 156.7 174 155 C170.37 155 166.74 155 163 155 Z M179 155 C179 156.65 179 158.3 179 160 C182.63 160 186.26 160 190 160 C190 158.35 190 156.7 190 155 C186.37 155 182.74 155 179 155 Z M195 155 C195 156.65 195 158.3 195 160 C198.63 160 202.26 160 206 160 C206 158.35 206 156.7 206 155 C202.37 155 198.74 155 195 155 Z M211 155 C211 156.65 211 158.3 211 160 C214.63 160 218.26 160 222 160 C222 158.35 222 156.7 222 155 C218.37 155 214.74 155 211 155 Z M227 155 C227 156.65 227 158.3 227 160 C230.63 160 234.26 160 238 160 C238 158.35 238 156.7 238 155 C234.37 155 230.74 155 227 155 Z M243 155 C243 156.65 243 158.3 243 160 C244.65 160 246.3 160 248 160 C248 158.35 248 156.7 248 155 C246.35 155 244.7 155 243 155 Z M-43 157 C-43 157.66 -43 158.32 -43 159 C-42.34 159 -41.68 159 -41 159 C-41 158.34 -41 157.68 -41 157 C-41.66 157 -42.32 157 -43 157 Z M-43 160 C-43 160.66 -43 161.32 -43 162 C-42.34 162 -41.68 162 -41 162 C-41 161.34 -41 160.68 -41 160 C-41.66 160 -42.32 160 -43 160 Z M-43 163 C-43 163.66 -43 164.32 -43 165 C-42.34 165 -41.68 165 -41 165 C-41 164.34 -41 163.68 -41 163 C-41.66 163 -42.32 163 -43 163 Z M-25 163 C-25 168.61 -25 174.22 -25 180 C-22.69 180 -20.38 180 -18 180 C-18 174.39 -18 168.78 -18 163 C-20.31 163 -22.62 163 -25 163 Z M14 163 C14 187.09 14 211.18 14 236 C32.81 236 51.62 236 71 236 C71 233.36 71 230.72 71 228 C70.01 228 69.02 228 68 228 C68 227.34 68 226.68 68 226 C68.66 226 69.32 226 70 226 C70.02768068 223.60408358 70.04715505 221.2085047 70.0625 218.8125 C70.07506836 217.83120117 70.07506836 217.83120117 70.08789062 216.83007812 C70.10827001 212.53002731 69.87532191 208.31121738 69.49609375 204.02734375 C68.83160106 195.93042086 68.92519484 187.86635957 69 179.75 C69.0265448 176.7864628 69.04647357 173.82298541 69.0625 170.859375 C69.07410156 169.56483398 69.08570313 168.27029297 69.09765625 166.93652344 C69.3384298 164.11069189 69.3384298 164.11069189 68 163 C66.31198015 162.90646837 64.62004793 162.88255209 62.92944336 162.88647461 C61.83321655 162.88659546 60.73698975 162.88671631 59.60754395 162.88684082 C58.44670288 162.89195679 57.28586182 162.89707275 56.08984375 162.90234375 C55.02930786 162.90335083 53.96877197 162.90435791 52.87609863 162.90539551 C48.89655483 162.91064613 44.91702638 162.92460724 40.9375 162.9375 C27.6034375 162.9684375 27.6034375 162.9684375 14 163 Z M72 163 C72.33 163.99 72.66 164.98 73 166 C74.32 166 75.64 166 77 166 C77 165.01 77 164.02 77 163 C75.35 163 73.7 163 72 163 Z M105 163 C105 164.98 105 166.96 105 169 C106.91541138 169.10841951 108.83259773 169.18578079 110.75 169.25 C112.35101563 169.31960937 112.35101563 169.31960937 113.984375 169.390625 C117.10625566 169.24911931 117.10625566 169.24911931 119.390625 167.109375 C121.20219179 165.17719387 121.20219179 165.17719387 121 163 C115.72 163 110.44 163 105 163 Z M150 163 C152.24866313 166.74777188 154.55865524 170.38007501 157 174 C155.68 174 154.36 174 153 174 C153 194.46 153 214.92 153 236 C176.1 236 199.2 236 223 236 C223 239.96 223 243.92 223 248 C223.99 248 224.98 248 226 248 C226 254.6 226 261.2 226 268 C227.32 268 228.64 268 230 268 C230 253.15 230 238.3 230 223 C228.68 223 227.36 223 226 223 C226 218.38 226 213.76 226 209 C233.26 209 240.52 209 248 209 C248 198.77 248 188.54 248 178 C247.34 178 246.68 178 246 178 C246 177.34 246 176.68 246 176 C246.66 176 247.32 176 248 176 C248 171.71 248 167.42 248 163 C215.66 163 183.32 163 150 163 Z M-43 166 C-43 166.66 -43 167.32 -43 168 C-42.34 168 -41.68 168 -41 168 C-41 167.34 -41 166.68 -41 166 C-41.66 166 -42.32 166 -43 166 Z M73 168 C73 177.57 73 187.14 73 197 C75.31 197 77.62 197 80 197 C80 192.71 80 188.42 80 184 C79.01 184 78.02 184 77 184 C77 178.72 77 173.44 77 168 C75.68 168 74.36 168 73 168 Z M-43 169 C-43 169.66 -43 170.32 -43 171 C-42.34 171 -41.68 171 -41 171 C-41 170.34 -41 169.68 -41 169 C-41.66 169 -42.32 169 -43 169 Z M-43 172 C-43 172.66 -43 173.32 -43 174 C-42.34 174 -41.68 174 -41 174 C-41 173.34 -41 172.68 -41 172 C-41.66 172 -42.32 172 -43 172 Z M105 173 C105 174.65 105 176.3 105 178 C105.66 178 106.32 178 107 178 C107 176.35 107 174.7 107 173 C106.34 173 105.68 173 105 173 Z M108 173 C108 174.65 108 176.3 108 178 C108.66 178 109.32 178 110 178 C110 176.35 110 174.7 110 173 C109.34 173 108.68 173 108 173 Z M111 173 C111 174.65 111 176.3 111 178 C111.66 178 112.32 178 113 178 C113 176.35 113 174.7 113 173 C112.34 173 111.68 173 111 173 Z M114 174 C114 175.32 114 176.64 114 178 C114.66 178 115.32 178 116 178 C116 176.68 116 175.36 116 174 C115.34 174 114.68 174 114 174 Z M117 174 C118 178 118 178 118 178 Z M-43 175 C-43 175.66 -43 176.32 -43 177 C-42.34 177 -41.68 177 -41 177 C-41 176.34 -41 175.68 -41 175 C-41.66 175 -42.32 175 -43 175 Z M-43 178 C-43 178.66 -43 179.32 -43 180 C-42.34 180 -41.68 180 -41 180 C-41 179.34 -41 178.68 -41 178 C-41.66 178 -42.32 178 -43 178 Z M271 178 C271 185.59 271 193.18 271 201 C273.97 201 276.94 201 280 201 C280 193.41 280 185.82 280 178 C277.03 178 274.06 178 271 178 Z M289 178 C289 185.59 289 193.18 289 201 C293.29 201 297.58 201 302 201 C302 193.41 302 185.82 302 178 C297.71 178 293.42 178 289 178 Z M334 178 C334 185.59 334 193.18 334 201 C340.93 201 347.86 201 355 201 C355 193.41 355 185.82 355 178 C348.07 178 341.14 178 334 178 Z M364 178 C364 185.59 364 193.18 364 201 C367.63 201 371.26 201 375 201 C375 193.41 375 185.82 375 178 C371.37 178 367.74 178 364 178 Z M-43 181 C-43 181.66 -43 182.32 -43 183 C-42.34 183 -41.68 183 -41 183 C-41 182.34 -41 181.68 -41 181 C-41.66 181 -42.32 181 -43 181 Z M398 183 C398 207.42 398 231.84 398 257 C400.31 257 402.62 257 405 257 C405.02312484 247.49925675 405.0409158 237.99852312 405.05181217 228.49775791 C405.05704069 224.08662996 405.06413777 219.6755212 405.07543945 215.2644043 C405.08626944 211.01098885 405.09227707 206.75759191 405.09487724 202.50416374 C405.09673129 200.87778367 405.10035152 199.25140466 405.10573006 197.62503242 C405.11294198 195.35489807 405.11399088 193.08484115 405.11352539 190.81469727 C405.11685631 188.87277245 405.11685631 188.87277245 405.12025452 186.89161682 C405.33128112 184.10557617 405.33128112 184.10557617 404 183 C402.02 183 400.04 183 398 183 Z M-43 184 C-43 184.66 -43 185.32 -43 186 C-42.34 186 -41.68 186 -41 186 C-41 185.34 -41 184.68 -41 184 C-41.66 184 -42.32 184 -43 184 Z M102 184 C102 196.54 102 209.08 102 222 C103.65 222 105.3 222 107 222 C107.33 217.71 107.66 213.42 108 209 C109.65 208.67 111.3 208.34 113 208 C113.33 203.38 113.66 198.76 114 194 C115.32 193.67 116.64 193.34 118 193 C118 190.03 118 187.06 118 184 C112.72 184 107.44 184 102 184 Z M-43 187 C-43 187.66 -43 188.32 -43 189 C-42.34 189 -41.68 189 -41 189 C-41 188.34 -41 187.68 -41 187 C-41.66 187 -42.32 187 -43 187 Z M-43 190 C-43 190.66 -43 191.32 -43 192 C-42.34 192 -41.68 192 -41 192 C-41 191.34 -41 190.68 -41 190 C-41.66 190 -42.32 190 -43 190 Z M-43 193 C-43 193.66 -43 194.32 -43 195 C-42.34 195 -41.68 195 -41 195 C-41 194.34 -41 193.68 -41 193 C-41.66 193 -42.32 193 -43 193 Z M115 195 C115 199.29 115 203.58 115 208 C116.98 208 118.96 208 121 208 C121 204.7 121 201.4 121 198 C120.01 198 119.02 198 118 198 C118 197.01 118 196.02 118 195 C117.01 195 116.02 195 115 195 Z M-43 196 C-43 196.66 -43 197.32 -43 198 C-42.34 198 -41.68 198 -41 198 C-41 197.34 -41 196.68 -41 196 C-41.66 196 -42.32 196 -43 196 Z M126 198 C126 201.3 126 204.6 126 208 C128.64 208 131.28 208 134 208 C134 204.7 134 201.4 134 198 C131.36 198 128.72 198 126 198 Z M-43 199 C-43 199.66 -43 200.32 -43 201 C-42.34 201 -41.68 201 -41 201 C-41 200.34 -41 199.68 -41 199 C-41.66 199 -42.32 199 -43 199 Z M73 199 C72.8276216 208.04028922 73.3668316 216.98865693 74 226 C75.98 226 77.96 226 80 226 C80 217.09 80 208.18 80 199 C77.69 199 75.38 199 73 199 Z M-43 202 C-43 202.66 -43 203.32 -43 204 C-42.34 204 -41.68 204 -41 204 C-41 203.34 -41 202.68 -41 202 C-41.66 202 -42.32 202 -43 202 Z M-43 205 C-43 205.66 -43 206.32 -43 207 C-42.34 207 -41.68 207 -41 207 C-41 206.34 -41 205.68 -41 205 C-41.66 205 -42.32 205 -43 205 Z M-43 208 C-43 208.66 -43 209.32 -43 210 C-42.34 210 -41.68 210 -41 210 C-41 209.34 -41 208.68 -41 208 C-41.66 208 -42.32 208 -43 208 Z M109 210 C109 213.96 109 217.92 109 222 C110.32 222 111.64 222 113 222 C113 218.04 113 214.08 113 210 C111.68 210 110.36 210 109 210 Z M115 210 C115 213.96 115 217.92 115 222 C116.98 222 118.96 222 121 222 C121 218.04 121 214.08 121 210 C119.02 210 117.04 210 115 210 Z M126 210 C126 213.96 126 217.92 126 222 C128.64 222 131.28 222 134 222 C134 218.04 134 214.08 134 210 C131.36 210 128.72 210 126 210 Z M-43 211 C-43 211.66 -43 212.32 -43 213 C-42.34 213 -41.68 213 -41 213 C-41 212.34 -41 211.68 -41 211 C-41.66 211 -42.32 211 -43 211 Z M-43 214 C-43 214.66 -43 215.32 -43 216 C-42.34 216 -41.68 216 -41 216 C-41 215.34 -41 214.68 -41 214 C-41.66 214 -42.32 214 -43 214 Z M-43 217 C-43 217.66 -43 218.32 -43 219 C-42.34 219 -41.68 219 -41 219 C-41 218.34 -41 217.68 -41 217 C-41.66 217 -42.32 217 -43 217 Z M-43 220 C-43 220.66 -43 221.32 -43 222 C-42.34 222 -41.68 222 -41 222 C-41 221.34 -41 220.68 -41 220 C-41.66 220 -42.32 220 -43 220 Z M-43 223 C-43 223.66 -43 224.32 -43 225 C-42.34 225 -41.68 225 -41 225 C-41 224.34 -41 223.68 -41 223 C-41.66 223 -42.32 223 -43 223 Z M241 223 C241 224.32 241 225.64 241 227 C241.66 227 242.32 227 243 227 C243 225.68 243 224.36 243 223 C242.34 223 241.68 223 241 223 Z M244 223 C244 224.32 244 225.64 244 227 C244.66 227 245.32 227 246 227 C246 225.68 246 224.36 246 223 C245.34 223 244.68 223 244 223 Z M247 223 C247 224.32 247 225.64 247 227 C247.66 227 248.32 227 249 227 C249 225.68 249 224.36 249 223 C248.34 223 247.68 223 247 223 Z M262 223 C262 224.32 262 225.64 262 227 C262.66 227 263.32 227 264 227 C264 225.68 264 224.36 264 223 C263.34 223 262.68 223 262 223 Z M265 223 C265 224.32 265 225.64 265 227 C265.66 227 266.32 227 267 227 C267 225.68 267 224.36 267 223 C266.34 223 265.68 223 265 223 Z M268 223 C268 224.32 268 225.64 268 227 C268.66 227 269.32 227 270 227 C270 225.68 270 224.36 270 223 C269.34 223 268.68 223 268 223 Z M-43 226 C-43 226.66 -43 227.32 -43 228 C-42.34 228 -41.68 228 -41 228 C-41 227.34 -41 226.68 -41 226 C-41.66 226 -42.32 226 -43 226 Z M75 228 C75 230.64 75 233.28 75 236 C76.65 236 78.3 236 80 236 C80 233.36 80 230.72 80 228 C78.35 228 76.7 228 75 228 Z M-43 229 C-43 229.66 -43 230.32 -43 231 C-42.34 231 -41.68 231 -41 231 C-41 230.34 -41 229.68 -41 229 C-41.66 229 -42.32 229 -43 229 Z M241 229 C241 241.87 241 254.74 241 268 C243.64 268 246.28 268 249 268 C249 255.13 249 242.26 249 229 C246.36 229 243.72 229 241 229 Z M262 229 C262 241.87 262 254.74 262 268 C264.64 268 267.28 268 270 268 C270 255.13 270 242.26 270 229 C267.36 229 264.72 229 262 229 Z M-43 232 C-43 232.66 -43 233.32 -43 234 C-42.34 234 -41.68 234 -41 234 C-41 233.34 -41 232.68 -41 232 C-41.66 232 -42.32 232 -43 232 Z M-43 235 C-43 235.66 -43 236.32 -43 237 C-42.34 237 -41.68 237 -41 237 C-41 236.34 -41 235.68 -41 235 C-41.66 235 -42.32 235 -43 235 Z M-95 238 C-95 238.33 -95 238.66 -95 239 C-92.69 239 -90.38 239 -88 239 C-88 238.67 -88 238.34 -88 238 C-90.31 238 -92.62 238 -95 238 Z M-43 238 C-43 238.66 -43 239.32 -43 240 C-42.34 240 -41.68 240 -41 240 C-41 239.34 -41 238.68 -41 238 C-41.66 238 -42.32 238 -43 238 Z M153 238 C153 238.33 153 238.66 153 239 C154.65 239 156.3 239 158 239 C158 238.67 158 238.34 158 238 C156.35 238 154.7 238 153 238 Z M160 238 C160 238.33 160 238.66 160 239 C161.65 239 163.3 239 165 239 C165 238.67 165 238.34 165 238 C163.35 238 161.7 238 160 238 Z M167 238 C167 238.33 167 238.66 167 239 C168.65 239 170.3 239 172 239 C172 238.67 172 238.34 172 238 C170.35 238 168.7 238 167 238 Z M174 238 C174 238.33 174 238.66 174 239 C175.65 239 177.3 239 179 239 C179 238.67 179 238.34 179 238 C177.35 238 175.7 238 174 238 Z M181 238 C181 238.33 181 238.66 181 239 C182.65 239 184.3 239 186 239 C186 238.67 186 238.34 186 238 C184.35 238 182.7 238 181 238 Z M188 238 C188 238.33 188 238.66 188 239 C189.65 239 191.3 239 193 239 C193 238.67 193 238.34 193 238 C191.35 238 189.7 238 188 238 Z M195 238 C195 238.33 195 238.66 195 239 C196.65 239 198.3 239 200 239 C200 238.67 200 238.34 200 238 C198.35 238 196.7 238 195 238 Z M202 238 C202 238.33 202 238.66 202 239 C203.65 239 205.3 239 207 239 C207 238.67 207 238.34 207 238 C205.35 238 203.7 238 202 238 Z M209 238 C209 238.33 209 238.66 209 239 C210.65 239 212.3 239 214 239 C214 238.67 214 238.34 214 238 C212.35 238 210.7 238 209 238 Z M216 238 C216 238.33 216 238.66 216 239 C217.65 239 219.3 239 221 239 C221 238.67 221 238.34 221 238 C219.35 238 217.7 238 216 238 Z M153 240 C153 240.99 153 241.98 153 243 C154.65 243 156.3 243 158 243 C158 242.01 158 241.02 158 240 C156.35 240 154.7 240 153 240 Z M160 240 C160 240.99 160 241.98 160 243 C161.65 243 163.3 243 165 243 C165 242.01 165 241.02 165 240 C163.35 240 161.7 240 160 240 Z M167 240 C167 240.99 167 241.98 167 243 C168.65 243 170.3 243 172 243 C172 242.01 172 241.02 172 240 C170.35 240 168.7 240 167 240 Z M174 240 C174 240.99 174 241.98 174 243 C175.65 243 177.3 243 179 243 C179 242.01 179 241.02 179 240 C177.35 240 175.7 240 174 240 Z M181 240 C181 240.99 181 241.98 181 243 C182.65 243 184.3 243 186 243 C186 242.01 186 241.02 186 240 C184.35 240 182.7 240 181 240 Z M188 240 C188 240.99 188 241.98 188 243 C189.65 243 191.3 243 193 243 C193 242.01 193 241.02 193 240 C191.35 240 189.7 240 188 240 Z M195 240 C195 240.99 195 241.98 195 243 C196.65 243 198.3 243 200 243 C200 242.01 200 241.02 200 240 C198.35 240 196.7 240 195 240 Z M202 240 C202 240.99 202 241.98 202 243 C203.65 243 205.3 243 207 243 C207 242.01 207 241.02 207 240 C205.35 240 203.7 240 202 240 Z M209 240 C209 240.99 209 241.98 209 243 C210.65 243 212.3 243 214 243 C214 242.01 214 241.02 214 240 C212.35 240 210.7 240 209 240 Z M216 240 C216 240.99 216 241.98 216 243 C217.65 243 219.3 243 221 243 C221 242.01 221 241.02 221 240 C219.35 240 217.7 240 216 240 Z M-93 241 C-93.93065133 243.60582371 -94.14917407 244.64198224 -93.0625 247.25 C-92.711875 247.8275 -92.36125 248.405 -92 249 C-91.34 248.67 -90.68 248.34 -90 248 C-89.34227572 244.97065509 -89.34227572 244.97065509 -89 242 C-90.32 241.67 -91.64 241.34 -93 241 Z M-43 241 C-43 241.66 -43 242.32 -43 243 C-42.34 243 -41.68 243 -41 243 C-41 242.34 -41 241.68 -41 241 C-41.66 241 -42.32 241 -43 241 Z M-43 244 C-43 244.66 -43 245.32 -43 246 C-42.34 246 -41.68 246 -41 246 C-41 245.34 -41 244.68 -41 244 C-41.66 244 -42.32 244 -43 244 Z M153 245 C153 245.99 153 246.98 153 248 C154.65 248 156.3 248 158 248 C158 247.01 158 246.02 158 245 C156.35 245 154.7 245 153 245 Z M160 245 C160 245.99 160 246.98 160 248 C161.65 248 163.3 248 165 248 C165 247.01 165 246.02 165 245 C163.35 245 161.7 245 160 245 Z M167 245 C167 245.99 167 246.98 167 248 C168.65 248 170.3 248 172 248 C172 247.01 172 246.02 172 245 C170.35 245 168.7 245 167 245 Z M174 245 C174 245.99 174 246.98 174 248 C175.65 248 177.3 248 179 248 C179 247.01 179 246.02 179 245 C177.35 245 175.7 245 174 245 Z M181 245 C181 245.99 181 246.98 181 248 C182.65 248 184.3 248 186 248 C186 247.01 186 246.02 186 245 C184.35 245 182.7 245 181 245 Z M188 245 C188 245.99 188 246.98 188 248 C189.65 248 191.3 248 193 248 C193 247.01 193 246.02 193 245 C191.35 245 189.7 245 188 245 Z M195 245 C195 245.99 195 246.98 195 248 C196.65 248 198.3 248 200 248 C200 247.01 200 246.02 200 245 C198.35 245 196.7 245 195 245 Z M202 245 C202 245.99 202 246.98 202 248 C203.65 248 205.3 248 207 248 C207 247.01 207 246.02 207 245 C205.35 245 203.7 245 202 245 Z M209 245 C209 245.99 209 246.98 209 248 C210.65 248 212.3 248 214 248 C214 247.01 214 246.02 214 245 C212.35 245 210.7 245 209 245 Z M216 245 C216 245.99 216 246.98 216 248 C217.65 248 219.3 248 221 248 C221 247.01 221 246.02 221 245 C219.35 245 217.7 245 216 245 Z M-78 246 C-77 248 -77 248 -77 248 Z M-43 247 C-43 247.66 -43 248.32 -43 249 C-42.34 249 -41.68 249 -41 249 C-41 248.34 -41 247.68 -41 247 C-41.66 247 -42.32 247 -43 247 Z M-77 248 C-76 251 -76 251 -76 251 Z M-91 250 C-90.34 251.32 -89.68 252.64 -89 254 C-88.34 253.67 -87.68 253.34 -87 253 C-87.97850195 251.97895449 -88.97980427 250.9793879 -90 250 C-90.33 250 -90.66 250 -91 250 Z M-43 250 C-43 250.66 -43 251.32 -43 252 C-42.34 252 -41.68 252 -41 252 C-41 251.34 -41 250.68 -41 250 C-41.66 250 -42.32 250 -43 250 Z M-93 250 C-93.99 250.99 -94.98 251.98 -96 253 C-95.01 253 -94.02 253 -93 253 C-93 252.01 -93 251.02 -93 250 Z M-76 251 C-76 253.31 -76 255.62 -76 258 C-75.67 258 -75.34 258 -75 258 C-75 255.69 -75 253.38 -75 251 C-75.33 251 -75.66 251 -76 251 Z M-102 252 C-102 253.65 -102 255.3 -102 257 C-100.35 256.34 -98.7 255.68 -97 255 C-97.33 254.34 -97.66 253.68 -98 253 C-100.02463255 252.34786708 -100.02463255 252.34786708 -102 252 Z M-86 254 C-85.67 254.66 -85.34 255.32 -85 256 C-81.97065509 256.65772428 -81.97065509 256.65772428 -79 257 C-78.67 255.68 -78.34 254.36 -78 253 C-81.40254489 251.7848054 -82.93251126 252.13759612 -86 254 Z M-92 253 C-92 253.99 -92 254.98 -92 256 C-91.34 255.34 -90.68 254.68 -90 254 C-90.66 253.67 -91.32 253.34 -92 253 Z M-43 253 C-43 253.66 -43 254.32 -43 255 C-42.34 255 -41.68 255 -41 255 C-41 254.34 -41 253.68 -41 253 C-41.66 253 -42.32 253 -43 253 Z M-89 255 C-89.33 255.99 -89.66 256.98 -90 258 C-89.34 258 -88.68 258 -88 258 C-87.67 257.01 -87.34 256.02 -87 255 C-87.66 255 -88.32 255 -89 255 Z M-43 256 C-43 256.66 -43 257.32 -43 258 C-42.34 258 -41.68 258 -41 258 C-41 257.34 -41 256.68 -41 256 C-41.66 256 -42.32 256 -43 256 Z M-77 258 C-76 261 -76 261 -76 261 Z M-43 259 C-43 259.66 -43 260.32 -43 261 C-42.34 261 -41.68 261 -41 261 C-41 260.34 -41 259.68 -41 259 C-41.66 259 -42.32 259 -43 259 Z M-92 260 C-93.42944945 262.35438733 -94.08661261 263.48032433 -93.625 266.25 C-93.41875 266.8275 -93.2125 267.405 -93 268 C-91.68 267.67 -90.36 267.34 -89 267 C-89.34227572 264.02934491 -89.34227572 264.02934491 -90 261 C-90.66 260.67 -91.32 260.34 -92 260 Z M-78 261 C-77 263 -77 263 -77 263 Z M-43 262 C-43 262.66 -43 263.32 -43 264 C-42.34 264 -41.68 264 -41 264 C-41 263.34 -41 262.68 -41 262 C-41.66 262 -42.32 262 -43 262 Z M398 262 C398 263.98 398 265.96 398 268 C400.31 268 402.62 268 405 268 C405 266.02 405 264.04 405 262 C402.69 262 400.38 262 398 262 Z M-43 265 C-43 265.99 -43 266.98 -43 268 C-42.34 268 -41.68 268 -41 268 C-41 267.01 -41 266.02 -41 265 C-41.66 265 -42.32 265 -43 265 Z " fill="#E79292" transform="translate(164,10)"/>
<path d="M0 0 C0.99 0.33 1.98 0.66 3 1 C2.01 1.33 1.02 1.66 0 2 C0 1.34 0 0.68 0 0 Z " fill="#FF8D8D" transform="translate(82,263)"/>
<path d="M0 0 C0.33 0.99 0.66 1.98 1 3 C0.01 2.67 -0.98 2.34 -2 2 C-1.34 2 -0.68 2 0 2 C0 1.34 0 0.68 0 0 Z " fill="#E18282" transform="translate(61,144)"/>
<path d="" fill="#E18282" transform="translate(0,0)"/>
<path d="" fill="#E18282" transform="translate(0,0)"/>
<path d="M0 0 C3 1 3 1 3 1 Z " fill="#E18282" transform="translate(68,150)"/>
<path d="" fill="#E18282" transform="translate(0,0)"/>
<path d="M0 0 C2 1 2 1 2 1 Z " fill="#E18282" transform="translate(71,151)"/>
<path d="M0 0 C2 1 2 1 2 1 Z " fill="#E18282" transform="translate(66,149)"/>
<path d="" fill="#E18282" transform="translate(0,0)"/>
<path d="M0 0 C2 1 2 1 2 1 Z " fill="#E18282" transform="translate(64,148)"/>
<path d="" fill="#E18282" transform="translate(0,0)"/>
<path d="M0 0 C2 1 2 1 2 1 Z " fill="#E18282" transform="translate(57,145)"/>
<path d="" fill="#E18282" transform="translate(0,0)"/>
<path d="M0 0 C2 1 2 1 2 1 Z " fill="#E18282" transform="translate(55,144)"/>
<path d="" fill="#E18282" transform="translate(0,0)"/>
<path d="" fill="#FF8D8D" transform="translate(0,0)"/>
<path d="" fill="#FF8D8D" transform="translate(0,0)"/>
<path d="" fill="#FF8D8D" transform="translate(0,0)"/>
<path d="" fill="#E18282" transform="translate(0,0)"/>
<path d="" fill="#E18282" transform="translate(0,0)"/>
<path d="" fill="#E18282" transform="translate(0,0)"/>
<path d="" fill="#E18282" transform="translate(0,0)"/>
<path d="" fill="#E18282" transform="translate(0,0)"/>
<path d="" fill="#E18282" transform="translate(0,0)"/>
</svg>
